<svg xmlns="http://www.w3.org/2000/svg" width="109" height="106" viewBox="0 0 109 106">
    <g fill="none">
        <g fill="#223B5A">
            <path d="M21.8 0L49.05 0 49.05 3.633 21.8 3.633zM54.5 83.567L81.75 83.567 81.75 87.2 54.5 87.2zM86.292 45.417H52.683v-3.634h33.609c10.518 0 19.075-8.557 19.075-19.075 0-10.517-8.557-19.075-19.075-19.075H72.667V0h13.625C98.813 0 109 10.187 109 22.708c0 12.522-10.187 22.709-22.708 22.709zM30.883 87.2h-8.175C10.187 87.2 0 77.013 0 64.492 0 51.97 10.187 41.783 22.708 41.783h6.359v3.634h-6.359c-10.518 0-19.075 8.557-19.075 19.075 0 10.517 8.557 19.075 19.075 19.075h8.175V87.2z" transform="translate(0 9.083)"/>
        </g>
        <circle cx="12.717" cy="10.9" r="10.9" fill="#579FD7"/>
        <circle cx="63.583" cy="10.9" r="10.9" fill="#579FD7"/>
        <circle cx="45.417" cy="94.467" r="10.9" fill="#579FD7"/>
        <circle cx="96.283" cy="94.467" r="10.9" fill="#99E875"/>
        <circle cx="38.15" cy="52.683" r="10.9" fill="#579FD7"/>
        <path fill="#223B5A" d="M44.884 17.634L42.316 15.066 46.481 10.9 42.316 6.734 44.884 4.166 51.619 10.9zM56.849 59.418L50.114 52.683 56.849 45.949 59.418 48.518 55.252 52.683 59.418 56.849zM77.584 101.201L75.016 98.632 79.181 94.467 75.016 90.301 77.584 87.732 84.319 94.467zM26.718 101.201L24.149 98.632 28.314 94.467 24.149 90.301 26.718 87.732 33.452 94.467z"/>
    </g>
</svg>
