<svg xmlns="http://www.w3.org/2000/svg" width="109" height="63" viewBox="0 0 109 63">
    <g fill="none">
        <path fill="#FF7D4F" d="M54 50.813c2.565 0 4.976-1 6.79-2.813 1.812-1.813 2.81-4.223 2.81-6.788 0-5.293-4.307-9.6-9.6-9.6-2.565 0-4.976.999-6.79 2.813-1.811 1.812-2.81 4.223-2.81 6.787 0 5.294 4.307 9.6 9.6 9.6z"/>
        <path fill="#579FD7" d="M62.216 55.612H46.384c-1.759 0-3.184 1.478-3.184 3.3 0 1.823 1.425 3.3 3.184 3.3h15.832c1.759 0 3.184-1.477 3.184-3.3 0-1.822-1.425-3.3-3.184-3.3z"/>
        <path fill="#99E875" d="M16.221 31.944l-8.726 8.81-2.119-2.133c-1.229-1.24-3.223-1.24-4.453-.002-1.23 1.238-1.23 3.245-.001 4.483l4.348 4.38c.59.596 1.392.93 2.228.93h.001c.836 0 1.638-.335 2.228-.93l10.954-11.06c1.228-1.24 1.225-3.248-.007-4.484-1.23-1.237-3.225-1.233-4.453.006z"/>
        <path fill="#579FD7" d="M52.755 13.685c-2.54 2.488-5.42 5.308-6.88 8.617-.438.99-.349 2.139.238 3.05.586.911 1.589 1.46 2.665 1.46h11.044c1.755 0 3.177-1.436 3.177-3.206 0-1.771-1.422-3.206-3.177-3.206h-4.754c.694-.724 1.418-1.433 2.113-2.113C60.303 15.229 63 12.587 63 9.282c0-4.89-3.943-8.87-8.789-8.87-3.542 0-6.718 2.127-8.094 5.42-.682 1.631.076 3.512 1.693 4.2 1.618.689 3.482-.077 4.163-1.709.38-.91 1.258-1.498 2.238-1.498 1.32 0 2.4 1.068 2.433 2.394-.244.896-2.435 3.04-3.89 4.466zM5.448 13.095l1.35-1.333v8.757h-2.23c-1.762 0-3.19 1.408-3.19 3.147 0 1.738 1.428 3.146 3.19 3.146h10.841c1.762 0 3.191-1.408 3.191-3.146 0-1.739-1.43-3.147-3.19-3.147h-2.23V4.159c0-1.273-.778-2.42-1.97-2.907-1.192-.487-2.565-.217-3.477.683l-6.8 6.712c-1.245 1.23-1.244 3.222.003 4.45 1.246 1.228 3.266 1.228 4.512-.002zM99.072 26.813c4.865 0 8.785-3.86 8.924-8.79.036-1.259-.142-4.455-2.555-6.925-.396-.405-.902-.836-1.537-1.23l3.233-4.332c.727-.974.84-2.273.292-3.356-.548-1.084-1.664-1.768-2.883-1.768h-9.674c-1.782 0-3.227 1.437-3.227 3.21 0 1.774 1.445 3.21 3.227 3.21h3.26L95.95 9.757c-.727.974-.84 2.272-.292 3.356s1.663 1.767 2.883 1.767c1.057 0 1.823.234 2.273.695.57.584.75 1.588.731 2.27-.04 1.43-1.126 2.548-2.473 2.548-.994 0-1.885-.588-2.272-1.498-.691-1.635-2.584-2.4-4.226-1.712-1.642.69-2.412 2.572-1.72 4.205 1.397 3.296 4.623 5.425 8.218 5.425zM29.4 41.513c0 1.821-1.477 3.3-3.3 3.3-1.823 0-3.3-1.479-3.3-3.3 0-1.823 1.477-3.3 3.3-3.3 1.823 0 3.3 1.477 3.3 3.3zM40.8 41.513c0 1.821-1.478 3.3-3.3 3.3-1.823 0-3.3-1.479-3.3-3.3 0-1.823 1.477-3.3 3.3-3.3 1.822 0 3.3 1.477 3.3 3.3zM73.8 41.513c0 1.821-1.477 3.3-3.3 3.3-1.822 0-3.3-1.479-3.3-3.3 0-1.823 1.478-3.3 3.3-3.3 1.823 0 3.3 1.477 3.3 3.3zM85.2 41.513c0 1.821-1.477 3.3-3.3 3.3-1.822 0-3.3-1.479-3.3-3.3 0-1.823 1.478-3.3 3.3-3.3 1.823 0 3.3 1.477 3.3 3.3z"/>
        <path fill="#FF7D4F" d="M99 50.813c2.565 0 4.976-1 6.79-2.813 1.811-1.813 2.81-4.224 2.81-6.787 0-5.294-4.307-9.6-9.6-9.6-2.564 0-4.975.998-6.788 2.812-1.813 1.813-2.812 4.224-2.812 6.787 0 5.294 4.307 9.6 9.6 9.6z"/>
    </g>
</svg>
