<svg xmlns="http://www.w3.org/2000/svg" width="19" height="19" viewBox="0 0 19 19">
    <g fill="none">
        <path fill="#D2E5BF" d="M16.772.594c-.801-.766-2.063-.766-2.865 0l-1.154 1.155c-.074.074-.116.174-.116.279v2.308c0 .218.177.395.395.395h2.309c.104 0 .205-.042.279-.116l1.155-1.155c.791-.79.792-2.072.002-2.864l-.002-.002h-.003z" transform="matrix(-1 0 0 1 19 0)"/>
        <path fill="#D2E5BF" d="M13.032 0H9.878c-.218 0-.394.177-.394.394v3.154c0 .18.123.339.299.382l3.153.789c.031.007.063.011.096.012.217 0 .394-.177.394-.395V.394c0-.217-.177-.394-.394-.394z" transform="matrix(-1 0 0 1 19 0)"/>
        <path fill="#D2E5BF" d="M10.946 4.057L7.004.115c-.154-.153-.404-.153-.558 0L4.081 2.481c-.154.153-.154.403 0 .557l1.577 1.577c.074.074.174.115.278.116h4.73c.218 0 .395-.176.395-.394 0-.105-.041-.206-.115-.28z" transform="matrix(-1 0 0 1 19 0)"/>
        <g fill="#D2E5BF" transform="matrix(-1 0 0 1 19 0) translate(4.73 14.967)">
            <circle cx="9.878" cy="1.984" r="1.971"/>
            <circle cx="1.994" cy="1.984" r="1.971"/>
        </g>
        <path fill="#4E9700" d="M18.057 4.075c-.074-.084-.182-.133-.295-.133H3.572c-.219 0-.395.177-.395.395 0 .024.003.048.007.072l1.183 6.307c.034.186.197.321.387.322H15.58c.994 0 1.833-.74 1.956-1.727l.619-4.926c.013-.112-.023-.225-.099-.31z" transform="matrix(-1 0 0 1 19 0)"/>
        <path fill="#4E9700" d="M16.185 14.191H7.086c-1.314-.003-2.445-.93-2.705-2.218L2.459 2.365H.418c-.218 0-.395-.176-.395-.394 0-.217.177-.394.395-.394h2.365c.187 0 .349.132.386.315l1.985 9.926c.186.92.994 1.582 1.932 1.585h9.099c.218 0 .394.176.394.394 0 .217-.176.394-.394.394z" transform="matrix(-1 0 0 1 19 0)"/>
    </g>
</svg>
