<svg xmlns="http://www.w3.org/2000/svg" width="12" height="12" viewBox="0 0 12 12">
    <g fill="none">
        <path fill="#FFC14D" d="M9.654 11.427H1.792c-.617 0-1.19-.32-1.516-.845-.324-.526-.354-1.182-.078-1.734L4.128.986C4.432.382 5.049 0 5.724 0c.675 0 1.293.382 1.595.986l3.93 7.862c.276.552.247 1.208-.078 1.734-.325.525-.898.845-1.516.845z"/>
        <g fill="#FFF">
            <path d="M.376.005c.197 0 .357.16.357.356v4.277c0 .197-.16.357-.357.357-.196 0-.356-.16-.356-.357V.361C.02.164.18.005.376.005zM.02 5.708L.733 5.708.733 6.421.02 6.421z" transform="translate(5.347 2.852)"/>
        </g>
    </g>
</svg>
