<svg xmlns="http://www.w3.org/2000/svg" width="13" height="13" viewBox="0 0 13 13">
    <g fill="#212C3D">
        <path d="M11.096 1.904c-2.538-2.539-6.654-2.539-9.192 0-2.539 2.538-2.539 6.654 0 9.192 2.538 2.539 6.654 2.539 9.192 0 2.539-2.538 2.539-6.654 0-9.192zm-.766 8.426c-2.115 2.116-5.545 2.116-7.66 0-2.115-2.115-2.115-5.545 0-7.66 2.115-2.116 5.545-2.116 7.66 0 2.116 2.115 2.116 5.545 0 7.66z"/>
        <path d="M9.181 3.819c-.211-.212-.554-.212-.766 0L6.5 5.734 4.585 3.819c-.212-.212-.555-.212-.766 0-.212.211-.212.554 0 .766L5.734 6.5 3.82 8.414c-.212.212-.212.555 0 .766.211.212.554.212.766 0L6.5 7.266l1.915 1.915c.211.212.554.212.766 0 .211-.211.211-.554 0-.766L7.266 6.5l1.915-1.915c.212-.212.212-.554 0-.766z"/>
    </g>
</svg>
