<svg xmlns="http://www.w3.org/2000/svg" width="18" height="20" viewBox="0 0 18 20">
    <g fill="none">
        <path fill="#5473E7" d="M7.471 9.272H5.747l-.575 1.15-.574-1.15H2.874c-.322 0-.575.253-.575.575v4.597h5.747V9.847c0-.322-.253-.575-.575-.575zm7.472.575c0-.322-.253-.575-.575-.575h-1.724l-.575 1.15-.575-1.15H9.77c-.322 0-.575.253-.575.575v4.597h5.748V9.847zm0-6.897c0-.322-.253-.575-.575-.575h-1.724l-.575 1.15-.575-1.15H9.77c-.322 0-.575.253-.575.575v4.598h5.748V2.95zM7.47 2.375H5.747l-.575 1.15-.574-1.15H2.874c-.322 0-.575.253-.575.575v4.598h5.747V2.95c0-.322-.253-.575-.575-.575zM2.874 16.17c-.951 0-1.725.773-1.725 1.724 0 .95.774 1.724 1.725 1.724.95 0 1.724-.774 1.724-1.724 0-.951-.774-1.724-1.724-1.724zm0 2.298c-.317 0-.575-.257-.575-.574 0-.317.258-.575.575-.575.316 0 .574.258.574.575 0 .317-.258.574-.574.574zm11.494-2.298c-.95 0-1.724.773-1.724 1.724 0 .95.773 1.724 1.724 1.724.95 0 1.724-.774 1.724-1.724 0-.951-.773-1.724-1.724-1.724zm0 2.298c-.317 0-.575-.257-.575-.574 0-.317.258-.575.575-.575.316 0 .575.258.575.575 0 .317-.259.574-.575.574z"/>
        <path fill="#D4DCF9" d="M5.172 11.57c.322 0 .575-.252.575-.574V9.272h-1.15v1.724c0 .322.254.575.575.575zm6.897 0c.322 0 .575-.252.575-.574V9.272h-1.15v1.724c0 .322.253.575.575.575zm0-6.896c.322 0 .575-.253.575-.574V2.375h-1.15V4.1c0 .321.253.574.575.574zm-6.897 0c.322 0 .575-.253.575-.574V2.375h-1.15V4.1c0 .321.254.574.575.574zM16.667 0c-.318 0-.575.257-.575.575v6.398H1.149V.575C1.15.257.892 0 .575 0 .257 0 0 .257 0 .575v16.168c0 .318.257.575.575.575h16.092c.317 0 .574-.257.574-.575V.575c0-.318-.257-.575-.574-.575zm-.575 13.87H1.149V8.123h14.943v5.747z"/>
    </g>
</svg>
