<svg xmlns="http://www.w3.org/2000/svg" width="16" height="20" viewBox="0 0 16 20">
    <g fill="none">
        <path fill="#D47C0C" d="M12.617 1.914H2.93C1.314 1.914 0 3.228 0 4.844V17.07C0 18.686 1.314 20 2.93 20h9.687c1.616 0 2.93-1.314 2.93-2.93V4.844c0-1.616-1.314-2.93-2.93-2.93z"/>
        <path fill="#F4DEC2" d="M11.602 0H3.945c-.969 0-1.757.789-1.757 1.758v1.445c0 .97.788 1.758 1.757 1.758h7.657c.969 0 1.757-.789 1.757-1.758V1.758C13.36.788 12.571 0 11.602 0zM12.46 13.678H9.024c-.323 0-.585.263-.585.586 0 .324.262.586.585.586h3.438c.324 0 .586-.262.586-.586 0-.323-.262-.586-.586-.586zM9.023 10.271h3.438c.324 0 .586-.262.586-.585 0-.324-.262-.586-.586-.586H9.023c-.323 0-.585.262-.585.586 0 .323.262.585.585.585zM4.672 13.245l-.305.427-.304-.427c-.188-.263-.554-.324-.818-.136-.263.188-.324.554-.136.818l.538.753-.538.753c-.188.263-.127.63.136.817.104.074.223.11.34.11.183 0 .363-.086.478-.246l.304-.426.305.426c.114.16.294.245.477.245.118 0 .237-.035.34-.109.263-.188.324-.554.136-.817l-.538-.753.538-.753c.188-.264.127-.63-.136-.818-.263-.188-.63-.127-.817.136zM5.49 8.11c-.264-.189-.63-.128-.818.135l-.305.427-.304-.427c-.188-.263-.554-.324-.818-.136-.263.188-.324.554-.136.818l.538.753-.538.753c-.188.263-.127.63.136.817.104.074.223.11.34.11.183 0 .363-.086.478-.246l.304-.426.305.426c.114.16.294.245.477.245.118 0 .237-.035.34-.109.263-.188.324-.554.136-.817l-.538-.753.538-.753c.188-.264.127-.63-.136-.818z"/>
    </g>
</svg>
