<svg xmlns="http://www.w3.org/2000/svg" width="20" height="19" viewBox="0 0 20 19">
    <g fill="none">
        <path fill="#D5E7F5" d="M7.753 8.636L15.206 4.333 11.701 2.31 4.248 6.612z"/>
        <path fill="#579FD7" d="M7.468 9.156L0 4.853 0 13.46 7.468 17.763z"/>
        <path fill="#D5E7F5" d="M14.077 13.562H15.077V14.562H14.077z"/>
        <path fill="#579FD7" d="M8.069 9.156v8.607l4.077-2.358V9.192c-.004-.712.57-1.292 1.283-1.295h1.069c.125-.453.535-.768 1.005-.773h-.01v-2.27L8.07 9.155z"/>
        <rect width="2.618" height="1" x="15.064" y="7.725" fill="#D5E7F5" rx=".436"/>
        <path fill="#D5E7F5" d="M11.1 1.963L7.753 0.031 0.301 4.333 3.647 6.266z"/>
        <path fill="#579FD7" d="M19.31 8.498h-1.081c-.132.437-.537.734-.993.73h-1.733c-.457.004-.861-.293-.993-.73h-1.081c-.183.001-.357.075-.485.206-.128.13-.199.306-.197.488v8.674c-.001.18.07.354.199.481.128.127.302.197.483.194h5.88c.182.003.357-.066.487-.193s.203-.3.204-.482V9.192c0-.382-.308-.692-.69-.694zm-5.834 2.018c0-.08.031-.156.087-.212.056-.057.132-.089.212-.09h1.415c.167.001.302.136.304.302v.203c-.001.166-.136.3-.302.3-.13.004-.247-.08-.286-.204h-.829v.816h.012c.166 0 .3.134.3.3 0 .166-.134.3-.3.3h-.314c-.08 0-.156-.03-.212-.087-.056-.057-.087-.133-.087-.212v-1.416zm0 2.746c0-.166.135-.3.3-.3h1.417c.166 0 .3.134.3.3v1.416c0 .166-.134.3-.3.3h-1.416c-.166 0-.3-.134-.3-.3v-1.416zm.613 4.463h-.314c-.079.003-.155-.027-.21-.082-.057-.054-.089-.13-.089-.208V16.02c-.002-.168.13-.306.299-.312h1.415c.169.005.303.143.304.312v.29c-.004.164-.138.295-.303.295-.164 0-.298-.132-.301-.296h-.813v.815h.012c.166 0 .3.135.3.3 0 .167-.134.301-.3.301zm2.217-1.17l-1.092 1.093c-.056.056-.133.088-.212.088-.08 0-.156-.032-.213-.088l-.48-.48c-.076-.076-.106-.187-.078-.29.028-.104.109-.185.213-.213.103-.028.214.002.29.078l.268.267.88-.88c.117-.117.307-.117.424 0 .118.118.118.308 0 .426zm0-5.547l-1.092 1.093c-.056.056-.133.088-.212.088-.08 0-.156-.032-.213-.088l-.48-.48c-.076-.076-.106-.187-.078-.29.028-.104.109-.185.213-.213.103-.028.214.002.29.078l.268.267.88-.88c.117-.117.307-.117.424 0 .118.118.118.308 0 .425zm2.658 6.03h-1.887c-.166 0-.3-.134-.3-.3 0-.166.134-.3.3-.3h1.887c.166 0 .3.134.3.3 0 .166-.134.3-.3.3zm0-2.746h-1.887c-.166 0-.3-.135-.3-.3 0-.167.134-.301.3-.301h1.887c.166 0 .3.134.3.3 0 .166-.134.3-.3.3zm0-2.747h-1.887c-.166 0-.3-.134-.3-.3 0-.166.134-.3.3-.3h1.887c.166 0 .3.134.3.3 0 .166-.134.3-.3.3z"/>
    </g>
</svg>
