<svg xmlns="http://www.w3.org/2000/svg" width="32" height="32" viewBox="0 0 32 32">
    <g fill="none" fill-rule="evenodd">
        <g>
            <g fill="#579FD7" fill-rule="nonzero">
                <path d="M12.422 3.88c-.142 0-.284-.055-.399-.167-1.53-1.49-3.486-2.31-5.508-2.31-1.905 0-3.768.742-5.247 2.092-.26.237-.641.195-.853-.093-.213-.288-.175-.712.083-.948C2.193.908 4.33.057 6.515.057c2.317 0 4.557.94 6.307 2.645.25.245.276.67.056.95-.12.151-.288.228-.456.228z" transform="translate(6 6) translate(3.182 .004)"/>
                <path d="M2.676 3.647H.656c-.335 0-.606-.302-.606-.673V.73C.05.458.198.213.424.108c.227-.104.488-.047.66.145l2.021 2.245c.174.193.226.482.131.734-.093.252-.315.415-.56.415zM6.612 19.809c-2.316 0-4.556-.94-6.307-2.645-.252-.245-.276-.671-.055-.951.22-.279.603-.307.855-.062 1.529 1.49 3.485 2.311 5.508 2.311 1.906 0 3.769-.742 5.248-2.092.259-.237.64-.195.853.093.212.289.174.713-.084.948-1.695 1.547-3.832 2.398-6.018 2.398z" transform="translate(6 6) translate(3.182 .004)"/>
                <path d="M12.373 19.809c-.157 0-.312-.069-.429-.197l-2.02-2.245c-.174-.193-.226-.482-.131-.734.093-.252.315-.416.56-.416h2.02c.335 0 .606.302.606.673v2.245c0 .272-.147.518-.374.623-.074.035-.153.05-.232.05z" transform="translate(6 6) translate(3.182 .004)"/>
            </g>
            <g>
                <path fill="#A7D9FF" fill-rule="nonzero" d="M6.638 2.559v3.958c0 .266-.216.483-.483.483H.845C.58 7 .363 6.783.363 6.517V2.559h6.275z" transform="translate(6 6) translate(0 7)"/>
                <path fill="#579FD7" d="M2.936 3.889h1.128c.172 0 .311.14.311.311V7h-1.75V4.2c0-.172.14-.311.311-.311z" transform="translate(6 6) translate(0 7)"/>
                <path fill="#5095CB" fill-rule="nonzero" d="M7 2.559c0 .483-.392.875-.875.875s-.875-.392-.875-.875c0 .483-.392.875-.875.875S3.5 3.042 3.5 2.559c0 .483-.392.875-.875.875s-.875-.392-.875-.875c0 .48-.395.875-.875.875-.478 0-.874-.394-.874-.875 0-.76-.003-.714.005-.748.007-.035-.043.087.716-1.665C.76.058.847 0 .943 0h5.114c.096 0 .183.058.221.146.762 1.757.709 1.629.716 1.665.008.034.006-.013.006.748z" transform="translate(6 6) translate(0 7)"/>
                <path fill="#579FD7" fill-rule="nonzero" d="M7 2.559c0 .483-.392.875-.875.875s-.875-.392-.875-.875c0 .483-.392.875-.875.875S3.5 3.042 3.5 2.559c0 .483-.392.875-.875.875s-.875-.392-.875-.875c0 .48-.395.875-.875.875-.478 0-.874-.394-.874-.875-.002-.765-.001-.719.005-.748h6.988c.008.034.006-.013.006.748z" transform="translate(6 6) translate(0 7)"/>
            </g>
            <g>
                <path fill="#A7D9FF" fill-rule="nonzero" d="M6.638 2.559v3.958c0 .266-.216.483-.483.483H.845C.58 7 .363 6.783.363 6.517V2.559h6.275z" transform="translate(6 6) translate(12 7)"/>
                <path fill="#579FD7" d="M2.936 3.889h1.128c.172 0 .311.14.311.311V7h-1.75V4.2c0-.172.14-.311.311-.311z" transform="translate(6 6) translate(12 7)"/>
                <path fill="#5095CB" fill-rule="nonzero" d="M7 2.559c0 .483-.392.875-.875.875s-.875-.392-.875-.875c0 .483-.392.875-.875.875S3.5 3.042 3.5 2.559c0 .483-.392.875-.875.875s-.875-.392-.875-.875c0 .48-.395.875-.875.875-.478 0-.874-.394-.874-.875 0-.76-.003-.714.005-.748.007-.035-.043.087.716-1.665C.76.058.847 0 .943 0h5.114c.096 0 .183.058.221.146.762 1.757.709 1.629.716 1.665.008.034.006-.013.006.748z" transform="translate(6 6) translate(12 7)"/>
                <path fill="#579FD7" fill-rule="nonzero" d="M7 2.559c0 .483-.392.875-.875.875s-.875-.392-.875-.875c0 .483-.392.875-.875.875S3.5 3.042 3.5 2.559c0 .483-.392.875-.875.875s-.875-.392-.875-.875c0 .48-.395.875-.875.875-.478 0-.874-.394-.874-.875-.002-.765-.001-.719.005-.748h6.988c.008.034.006-.013.006.748z" transform="translate(6 6) translate(12 7)"/>
            </g>
        </g>
    </g>
</svg>
