<svg xmlns="http://www.w3.org/2000/svg" width="88" height="78" viewBox="0 0 88 78">
    <g fill="none" fill-rule="evenodd" transform="matrix(-1 0 0 1 88 0)">
        <path fill="#EA9F26" fill-rule="nonzero" d="M86.533 20.533L79.2 55.733 23.467 55.733 16.133 20.533z"/>
        <path fill="#2D85CC" fill-rule="nonzero" d="M67.467 29.333L45.467 46.933 45.467 55.733 68.933 55.733 71.867 29.333z"/>
        <path fill="#EB423F" fill-rule="nonzero" d="M79.2 55.733L63.067 55.733 63.908 45.635 70.4 46.933z"/>
        <path fill="#FFD33A" fill-rule="nonzero" d="M82.133 20.533L67.467 20.533 71.867 11.733 77.733 11.733z"/>
        <path d="M86.533 20.533L82.867 38.133 82.133 38.133 82.133 20.533z"/>
        <path fill="#FFD33A" fill-rule="nonzero" d="M82.133 20.533L82.133 38.133 71.867 38.133 71.867 29.333 67.467 29.333 67.467 20.533z"/>
        <path fill="#248256" fill-rule="nonzero" d="M82.133 38.133L82.133 36.667 71.867 29.333 70.4 38.133 64.533 38.133 63.067 55.733 79.2 55.733 82.867 38.133z"/>
        <path fill="#EA9F26" fill-rule="nonzero" d="M73.333 5.867h2.934c1.62 0 2.933 1.313 2.933 2.933v2.933h-8.8V8.8c0-1.62 1.313-2.933 2.933-2.933z"/>
        <path fill="#996046" fill-rule="nonzero" d="M38.133 46.933L38.133 55.733 23.467 55.733 21.633 46.933z"/>
        <path fill="#35A872" fill-rule="nonzero" d="M44 16.133v13.2H17.6L14.842 14.82l.101-.152c.9-1.352 2.417-2.162 4.04-2.157.324 0 .648.032.966.095l-.002-.095c0-3.67 3.02-6.643 6.746-6.643 2.833-.012 5.37 1.747 6.353 4.404 1.055-1.92 3.268-2.89 5.395-2.365 2.126.525 3.633 2.414 3.673 4.604 0 1.08-.372 2.126-1.056 2.963.347-.077.701-.116 1.056-.116l1.886.776z"/>
        <path fill="#C48669" fill-rule="nonzero" d="M41.067 0L64.533 0 64.533 20.533 41.067 20.533z"/>
        <path fill="#D49073" fill-rule="nonzero" d="M41.067 0L58.667 0 58.667 20.533 41.067 20.533z"/>
        <path fill="#996046" fill-rule="nonzero" d="M52.8 7.333h-5.867c-.81 0-1.466-.656-1.466-1.466 0-.81.656-1.467 1.466-1.467H52.8c.81 0 1.467.657 1.467 1.467S53.61 7.333 52.8 7.333z"/>
        <path fill="#248256" fill-rule="nonzero" d="M44 29.333L36.667 29.333 38.133 38.133 30.8 38.133 23.467 46.933 21.633 46.933 16.133 20.533 44 20.533z"/>
        <path fill="#D0D2D4" fill-rule="nonzero" d="M82.133 68.933H23.467c-3.239-.003-5.863-2.628-5.867-5.866v-2.934c.004-3.238 2.628-5.863 5.867-5.866h1.466c.81 0 1.467.656 1.467 1.466 0 .81-.657 1.467-1.467 1.467h-1.466c-1.62.002-2.932 1.314-2.934 2.933v2.934c.002 1.619 1.314 2.931 2.934 2.933h58.666c.81 0 1.467.657 1.467 1.467s-.657 1.466-1.467 1.466z"/>
        <circle cx="29.333" cy="71.867" r="5.867" fill="#7E8589" fill-rule="nonzero"/>
        <circle cx="70.4" cy="71.867" r="5.867" fill="#7E8589" fill-rule="nonzero"/>
        <circle cx="29.333" cy="71.867" r="1.467" fill="#414649" fill-rule="nonzero"/>
        <circle cx="70.4" cy="71.867" r="1.467" fill="#414649" fill-rule="nonzero"/>
        <path fill="#EB423F" fill-rule="nonzero" d="M51.333 38.133L48.4 29.333 44 29.333 44 20.533 67.467 20.533 67.467 29.333 57.2 38.133z"/>
        <path fill="#D0D2D4" fill-rule="nonzero" d="M87.671 19.608c-.278-.342-.696-.541-1.138-.541H16.346L13.16 5.53c-.156-.663-.747-1.131-1.428-1.131H1.467C.657 4.4 0 5.057 0 5.867s.657 1.466 1.467 1.466h9.105L22.039 56.07c.156.663.747 1.131 1.428 1.131H79.2c.695 0 1.294-.487 1.436-1.167l7.333-35.2c.09-.433-.02-.882-.298-1.225zM60.073 22h11.599l-.734 5.867h-11.11L60.073 22zm-17.48 0l.244 5.867h-11.11L30.994 22h11.6zm-25.557 0H28.04l.733 5.867H18.417L17.037 22zm2.071 8.8h10.032l.733 5.867h-9.385l-1.38-5.867zm2.07 8.8h9.062l.733 5.867h-8.415l-1.38-5.867zm3.452 14.667l-1.38-5.867h8.09l.733 5.867H24.63zM32.095 30.8H42.96l.245 5.867H32.828l-.733-5.867zm1.1 8.8h10.132l.244 5.867h-9.643l-.733-5.867zm1.833 14.667l-.733-5.867h9.398l.245 5.867h-8.91zm20.765 0h-8.92L46.63 48.4h9.408l-.244 5.867zm.367-8.8h-9.653l-.245-5.867h10.142l-.244 5.867zm.367-8.8H46.14l-.244-5.867H56.77l-.244 5.867zm.366-8.8h-11.12L45.53 22h11.608l-.244 5.867zm10.746 26.4h-8.91l.244-5.867h9.399l-.733 5.867zm1.1-8.8h-9.644l.245-5.867h10.132l-.733 5.867zm1.1-8.8H59.462l.245-5.867h10.865l-.733 5.867zm8.17 17.6h-7.414l.733-5.867h7.902l-1.222 5.867zm1.833-8.8h-8.147l.733-5.867h8.635l-1.221 5.867zm1.833-8.8h-8.88l.733-5.867h9.368l-1.221 5.867zm1.833-8.8h-9.613L74.628 22H84.73l-1.222 5.867z"/>
    </g>
</svg>
