<svg xmlns="http://www.w3.org/2000/svg" width="20" height="20" viewBox="0 0 20 20">
    <g fill="none" fill-rule="evenodd" transform="translate(-6 -6)">
        <g fill-rule="nonzero" transform="translate(6 6)">
            <circle cx="9.997" cy="9.997" r="9.283" fill="#579FD7"/>
            <path fill="#A7D9FF" d="M14.043 9.283h-3.332V5.95c0-.404-.31-.714-.714-.714-.405 0-.714.31-.714.714v3.333H5.95c-.404 0-.714.31-.714.714 0 .404.31.714.714.714h3.333v3.332c0 .405.31.714.714.714.404 0 .714-.31.714-.714v-3.332h3.332c.405 0 .714-.31.714-.714 0-.405-.31-.714-.714-.714z"/>
        </g>
    </g>
</svg>
