<svg xmlns="http://www.w3.org/2000/svg" width="32" height="32" fill="none" viewBox="0 0 32 32">
    <path fill="#D8D8D8" d="M0 0H32V32H0z" opacity=".01"/>
    <g clip-path="url(#clip0)">
        <path fill="#A7D9FF" d="M18.203 13.796c-.237-.239-.5-.45-.783-.63-.751-.481-1.625-.737-2.517-.737-1.237-.002-2.425.49-3.299 1.367l-4.24 4.242c-.871.874-1.362 2.058-1.363 3.293C6 23.908 8.087 26 10.664 26.001c1.236.003 2.423-.486 3.296-1.36l3.5-3.5c.063-.063.099-.15.098-.239 0-.184-.15-.332-.335-.33h-.133c-.731.002-1.456-.139-2.133-.414-.125-.052-.268-.023-.363.073l-2.517 2.52c-.78.781-2.048.781-2.83 0-.78-.782-.78-2.049 0-2.83l4.257-4.252c.78-.78 2.045-.78 2.826 0 .526.495 1.347.495 1.873 0 .226-.227.364-.527.387-.847.024-.382-.117-.755-.387-1.026z"/>
        <path fill="#579FD7" d="M24.632 7.367c-1.822-1.823-4.777-1.823-6.599 0l-3.496 3.492c-.096.097-.123.242-.07.367.053.125.177.206.314.203h.123c.73-.001 1.454.14 2.13.417.124.051.268.022.363-.073l2.51-2.507c.78-.781 2.047-.781 2.829 0 .781.782.781 2.049 0 2.83l-3.126 3.123-.027.03-1.093 1.086c-.78.78-2.046.78-2.826 0-.527-.495-1.347-.495-1.873 0-.228.228-.366.531-.387.853-.024.382.117.756.387 1.027.385.387.837.703 1.333.933.07.033.14.06.21.09.07.03.143.053.213.08.07.026.143.05.213.07l.197.053c.133.033.267.06.403.083.165.025.33.04.497.047h.253l.2-.023c.073-.003.15-.02.237-.02h.113l.23-.034.107-.02.193-.04h.037c.818-.205 1.566-.629 2.163-1.226l4.242-4.242c1.822-1.823 1.822-4.777 0-6.6z"/>
    </g>
    <defs>
        <clipPath id="clip0">
            <path fill="#fff" d="M0 0H20V20H0z" transform="translate(6 6)"/>
        </clipPath>
    </defs>
</svg>
