<svg xmlns="http://www.w3.org/2000/svg" width="117" height="85" viewBox="0 0 117 85">
    <g fill="none">
        <path fill="#5A4146" d="M85 35.727v1.34c0 1.642.25 3.272.739 4.83L88.6 51H94V30h-3.6c-2.982 0-5.4 2.564-5.4 5.727z"/>
        <path fill="#694B4B" d="M111.41 39.648L108.167 51 92.833 37.583c-2.117 0-3.833-1.716-3.833-3.833 0-3.176 2.574-5.75 5.75-5.75h13.417c2.117 0 3.833 1.716 3.833 3.833v3.603c0 1.424-.198 2.842-.59 4.212z"/>
        <path fill="#E6AF78" d="M93 57H104V65H93z"/>
        <path fill="#D29B6E" d="M93 59.786c1.7.777 3.555 1.214 5.5 1.214 1.945 0 3.8-.437 5.5-1.214V56H93v3.786z"/>
        <path fill="#D5DCED" d="M112.866 63.63L103.699 61 98 64.8 92.3 61l-9.165 2.63C80.687 64.334 79 66.58 79 69.138V83.09c0 1.055.85 1.909 1.9 1.909h34.2c1.05 0 1.9-.854 1.9-1.909V69.137c0-2.557-1.687-4.804-4.134-5.506z"/>
        <path fill="#AFB9D2" d="M100 85L96 85 97 65 99 65z"/>
        <path fill="#F0C087" d="M98.5 59C92.149 59 87 53.866 87 47.533v-2.24c0-1.013.404-1.985 1.123-2.702l3.475-3.466c.736-.734 1.743-1.156 2.783-1.123 6.127.193 11.55 1.501 14.514 4.388.726.707 1.105 1.696 1.105 2.707v2.436C110 53.866 104.851 59 98.5 59z"/>
        <path fill="#E6AF78" d="M92.763 45.562c0-2.146 1.861-3.852 4.073-3.716 3.878.24 9.633.868 13.164 2.513-.115-.785-.463-1.526-1.054-2.085-2.971-2.81-8.407-4.085-14.548-4.272-1.043-.032-2.052.379-2.789 1.093l-3.484 3.374C87.405 43.167 87 44.113 87 45.1v2.18c0 5.091 3.522 9.378 8.333 10.72-1.601-1.913-2.57-4.342-2.57-6.999v-5.439z"/>
        <path fill="#C7CFE2" d="M109 74.897c0-1.507.632-2.953 1.757-4.02L115.906 66c.688.932 1.094 2.054 1.094 3.251v13.854c0 1.047-.895 1.895-2 1.895h-6V74.897z"/>
        <path fill="#959CB5" d="M99 69h-2c-.552 0-1-.448-1-1v-3h4v3c0 .552-.448 1-1 1z"/>
        <g fill="#C7CFE2">
            <path d="M7.822 5.486l-3.18 2.506c-.549.432-1.34.259-1.672-.365L.116 2.253 1.265.446c.255-.4.798-.469 1.138-.143l5.42 5.183z" transform="translate(90 59)"/>
            <path d="M7.822 5.486l3.182 2.506c.548.432 1.34.26 1.671-.365l2.854-5.374L14.38.446c-.255-.4-.798-.469-1.138-.143l-5.42 5.183z" transform="translate(90 59)"/>
        </g>
        <path fill="#5A4146" d="M33.875 57.679c-1.592-4.277-2.854-11.629-3.127-15.457C30.23 34.938 24.817 29 17.5 29c-7.317 0-12.73 5.938-13.248 13.222-.273 3.828-1.535 11.18-3.127 15.457-.35.943.054 1.982.97 2.403 1.705.784 5.342 2.32 9.727 2.918h11.356c4.365-.6 8.026-2.136 9.727-2.918.916-.42 1.32-1.46.97-2.403z"/>
        <path fill="#694B4B" d="M32.908 60.082c.913-.42 1.317-1.46.967-2.403-1.588-4.277-2.847-11.629-3.119-15.457C30.24 34.938 24.84 29 17.54 29h-.055c-5.6.023-7.58 7.789-2.759 10.686.29.174.476.258.476.258L19.424 63h3.78c4.354-.6 8.007-2.136 9.704-2.918z"/>
        <path fill="#E6AF78" d="M30.868 67.013l-6.113-3.033c-1.28-.636-2.089-1.934-2.088-3.355V55H11.333v5.625c0 1.42-.808 2.72-2.088 3.355l-6.113 3.033C1.212 67.966 0 69.913 0 72.044v11.081C0 84.16.846 85 1.889 85H32.11C33.154 85 34 84.16 34 83.125v-11.08c0-2.131-1.213-4.079-3.132-5.032z"/>
        <path fill="#D29B6E" d="M17 62c2.116 0 4.142-.444 6-1.234-.049-.252-.106-.503-.106-.766v-6H11.107v6c0 .265-.057.517-.106.77 1.859.786 3.884 1.23 6 1.23z"/>
        <path fill="#D5DCED" d="M30.868 67.146L26.513 65c-2.02 3.073-5.521 5.11-9.513 5.11-3.991 0-7.494-2.037-9.513-5.11l-4.355 2.146C1.212 68.09 0 70.025 0 72.14v10.999C0 84.167.846 85 1.889 85H32.11C33.154 85 34 84.167 34 83.139v-11c0-2.114-1.213-4.048-3.132-4.993z"/>
        <path fill="#F0C087" d="M17.476 58C11.6 58 6.75 53.834 6.017 48.441c-.106-.781.289-1.547 1.03-1.902.886-.425 2.174-1.142 3.408-2.188 1.374-1.165 2.18-2.393 2.635-3.295.392-.776 1.293-1.215 2.17-1.002 6.781 1.643 11.397 4.995 13.072 6.364.45.367.709.91.663 1.471C28.528 53.547 23.549 58 17.475 58z"/>
        <path fill="#E6AF78" d="M28.332 46.463c-1.674-1.378-6.29-4.754-13.071-6.409-.878-.214-1.78.228-2.171 1.01-.345.688-.915 1.564-1.76 2.458l-.001.006c-.263.285-.542.57-.874.854-1.234 1.053-2.522 1.775-3.409 2.203-.74.357-1.135 1.129-1.029 1.916.659 4.877 4.647 8.759 9.707 9.499-2.306-1.5-4.026-3.565-4.026-7.245v-2.628c.438-.309.878-.617 1.321-.995 1.07-.914 2.005-1.971 2.754-3.11 5.187 1.55 8.704 4.13 10.037 5.227.365.306 1.27 1.105 2.33 2.056.456-1.05.758-2.176.855-3.36.046-.566-.213-1.112-.663-1.482z"/>
        <path fill="#C7CFE2" d="M1.22 68C.448 68.939 0 70.09 0 71.31v10.854C0 83.178.895 84 2 84h6v-9.254c0-1.115-.552-2.17-1.501-2.868L1.219 68z"/>
        <path fill="#FF507D" d="M86.044 64.65L70.294 59 59 62.714 47.706 59l-15.75 5.65C28.981 65.719 27 68.509 27 71.633v11.51c0 1.026.843 1.858 1.882 1.858h60.236c1.04 0 1.882-.832 1.882-1.857V71.632c0-3.124-1.98-5.914-4.956-6.982z"/>
        <path fill="#707487" d="M56.905 66L55 85 63 85 61.095 66z"/>
        <path fill="#5B5D6E" d="M60.6 68h-4.2c-.773 0-1.4-.557-1.4-1.245V62h7v4.755c0 .687-.627 1.245-1.4 1.245z"/>
        <path fill="#D23C69" d="M88.027 66C89.264 67.388 90 69.236 90 71.218v11.867C90 84.143 89.18 85 88.167 85H79v-6.4c0-2.032.773-3.98 2.148-5.416L88.027 66z"/>
        <path fill="#5A4146" d="M80 19.457V3.75C80 1.679 78.29 0 76.182 0h-22.91C44.839 0 38 6.716 38 15v4.457c0 2.016.33 4.018.98 5.93l.635 1.872c.195.574.294 1.174.294 1.779V30h38.182v-.962c0-.605.099-1.205.294-1.779l.635-1.872c.65-1.912.98-3.915.98-5.93z"/>
        <path fill="#694B4B" d="M47 7.617c0 4.207 3.424 7.617 7.647 7.617h1.059L56.216 30h20.902v-.962c0-.605.097-1.205.29-1.779l.626-1.872c.64-1.912.966-3.914.966-5.93V3.75C79 1.679 77.314 0 75.235 0H54.647C50.424 0 47 3.41 47 7.617z"/>
        <path fill="#E6AF78" d="M47 45H70V62H47z"/>
        <path fill="#D29B6E" d="M47 51.087C50.386 52.929 54.306 54 58.5 54s8.114-1.071 11.5-2.913V45H47v6.087z"/>
        <g fill="#D23C69">
            <path d="M15.454 7.197L9.379 13.37c-.817.83-2.166.737-2.864-.198l-6.3-8.434L1.864 1.21C2.35.17 3.618-.213 4.583.392l10.87 6.805zM15.454 7.197l6.075 6.173c.816.83 2.166.737 2.864-.198l6.299-8.434-1.648-3.528C28.558.17 27.29-.213 26.324.392l-10.87 6.805z" transform="translate(43 55)"/>
        </g>
        <path fill="#F0C087" d="M58 51c-10.493 0-19-8.531-19-19.055v-2.233c0-1.01.4-1.98 1.113-2.694l1.574-1.579c.712-.715 1.113-1.684 1.113-2.695v-4.568c0-.882.59-1.649 1.447-1.851 4.493-1.065 18.477-3.586 27.994 3.433.618.456.96 1.205.96 1.974v1.012c0 1.01.4 1.98 1.112 2.695l1.574 1.579C76.6 27.732 77 28.7 77 29.712v2.233C77 42.469 68.494 51 58 51z"/>
        <path fill="#E6AF78" d="M73.046 19.643c-6.654-4.82-15.492-5.03-21.712-4.37-2.624.279-4.792.709-6.117 1.017-.852.198-1.439.947-1.439 1.808v4.46c0 .987-.398 1.934-1.107 2.632l-1.564 1.541C40.398 27.43 40 28.376 40 29.363v2.18C40 41.056 47.253 48.888 56.607 50c-3.26-3.343-5.274-7.874-5.274-12.876v-13.6c0-1.885 1.424-3.461 3.323-3.695 4.533-.56 12.836-.897 19.344 2.73v-.989c0-.751-.34-1.482-.954-1.927z"/>
        <path fill="#D23C69" d="M28.973 66C27.736 67.388 27 69.236 27 71.218v11.867c0 1.058.82 1.915 1.833 1.915H38v-6.4c0-2.032-.773-3.98-2.148-5.416L28.973 66z"/>
    </g>
</svg>
