<svg xmlns="http://www.w3.org/2000/svg" width="32" height="32" fill="none" viewBox="0 0 32 32">
    <path fill="#D8D8D8" d="M0 0H32V32H0z" opacity=".01"/>
    <path fill="#A7D9FF" d="M25.167 13.247c-.46 0-.833-.374-.833-.834v-3.95c0-.439-.358-.796-.796-.796h-3.95c-.461 0-.834-.374-.834-.834 0-.46.373-.833.834-.833h3.95C24.896 6 26 7.105 26 8.463v3.95c0 .46-.372.834-.833.834zM6.833 13.247c-.46 0-.833-.374-.833-.834v-3.95C6 7.105 7.104 6 8.463 6h3.95c.46 0 .833.373.833.833 0 .46-.373.834-.834.834h-3.95c-.438 0-.795.357-.795.796v3.95c0 .46-.373.834-.834.834zM23.538 26h-3.95c-.461 0-.834-.373-.834-.833 0-.46.373-.834.834-.834h3.95c.438 0 .796-.357.796-.796v-3.95c0-.46.372-.834.833-.834.46 0 .833.374.833.834v3.95C26 24.895 24.896 26 23.538 26zM12.412 26h-3.95C7.104 26 6 24.895 6 23.537v-3.95c0-.46.372-.834.833-.834.461 0 .834.374.834.834v3.95c0 .439.357.796.796.796h3.95c.46 0 .833.374.833.834 0 .46-.373.833-.834.833z"/>
    <path fill="#579FD7" fill-rule="evenodd" d="M9.75 15.299h4.148c.46 0 .834-.373.834-.833V9.75c0-.46-.373-.834-.834-.834H9.75c-.461 0-.834.374-.834.834v4.716c0 .46.373.833.834.833zm3.315-1.667h-2.482v-3.049h2.482v3.05z" clip-rule="evenodd"/>
    <path fill="#579FD7" d="M22.25 23.083h-4.167c-.46 0-.833-.373-.833-.833v-3.068c0-.46.372-.834.833-.834.461 0 .834.374.834.834v2.235h2.5v-2.5h-.985c-.461 0-.834-.374-.834-.834 0-.46.373-.833.834-.833h1.818c.46 0 .833.373.833.833v4.167c0 .46-.372.833-.833.833z"/>
    <path fill="#579FD7" fill-rule="evenodd" d="M18.84 13.992h3.41c.46 0 .833-.373.833-.833v-3.41c0-.46-.372-.833-.833-.833h-3.41c-.46 0-.833.374-.833.834v3.409c0 .46.373.833.834.833zm2.576-1.666h-1.742v-1.743h1.742v1.743z" clip-rule="evenodd"/>
    <path fill="#579FD7" d="M16.398 17.78H9.75c-.461 0-.834-.374-.834-.834 0-.46.373-.833.834-.833h5.815v-5.606c0-.46.372-.833.833-.833.461 0 .834.373.834.833v6.44c0 .46-.374.833-.834.833zM18.708 17.572c-.46 0-.833-.374-.833-.834v-1.136c0-.46.372-.833.833-.833h3.75c.461 0 .834.373.834.833 0 .46-.373.834-.834.834h-2.916v.302c0 .46-.373.834-.834.834zM16.018 22c-.46 0-.833-.373-.833-.833v-1.893c0-.46.373-.834.833-.834.461 0 .834.374.834.834v1.893c0 .46-.373.833-.834.833z"/>
    <path fill="#579FD7" fill-rule="evenodd" d="M9.75 23.083h4.166c.461 0 .834-.373.834-.833v-3.03c0-.46-.373-.833-.834-.833H9.75c-.461 0-.834.373-.834.833v3.03c0 .46.373.833.834.833zm3.333-1.666h-2.5v-1.364h2.5v1.364z" clip-rule="evenodd"/>
</svg>
