<svg xmlns="http://www.w3.org/2000/svg" width="18" height="12" viewBox="0 0 18 12">
    <g fill="none">
        <path fill="#73AF00" d="M0 7.872h18v3.62c0 .172-.139.31-.31.31H.31c-.171 0-.31-.138-.31-.31v-3.62z"/>
        <path fill="#464655" d="M.31.01h17.38c.171 0 .31.139.31.31v3.62H0V.32C0 .149.139.01.31.01z"/>
        <path fill="#C8414B" d="M0 3.941H18V7.872H0z"/>
        <g fill="#F5F5F5">
            <path d="M0 2.152H18V3.152H0zM0 5.876H18V6.876H0z" transform="translate(0 1.582)"/>
            <path d="M10.662 1.71c.25-.516.51-1.71.51-1.71s-.776.944-1.026 1.46c-.052.107-.03.232.046.316L7.345 7.644l.194.094 2.846-5.869c.113.008.224-.052.277-.16z" transform="translate(0 1.582)"/>
            <path d="M7.338 1.71c-.25-.516-.51-1.71-.51-1.71s.776.944 1.026 1.46c.052.107.03.232-.046.316l2.847 5.868-.194.094-2.846-5.869c-.113.008-.224-.052-.277-.16z" transform="translate(0 1.582)"/>
        </g>
        <path fill="#C8414B" d="M10.552 5.906C10.552 7.62 9.286 9.01 9 9.01c-.286 0-1.552-1.39-1.552-3.104 0-1.714 1.266-3.103 1.552-3.103.286 0 1.552 1.39 1.552 3.103z"/>
        <g fill="#464655">
            <path d="M2.823 3.01c.183-.445.31-.955.31-1.498S3.007.458 2.824.014c-.182.444-.31.955-.31 1.498s.128 1.053.31 1.497zM.34.014C.159.458.03.97.03 1.512s.128 1.053.31 1.497c.183-.444.311-.954.311-1.497C.651.969.523.458.341.014z" transform="translate(7.418 4.395)"/>
        </g>
        <g fill="#F5F5F5" transform="translate(8.684 2.777)">
            <circle cx=".316" cy="3.129" r="1"/>
            <path d="M.363.025v2.638c.085-.176.235-.696.235-1.319C.598.722.448.202.363.025zM.27.025C.185.202.035.722.035 1.345c0 .622.15 1.142.235 1.318V.025zM.363 3.594v2.638c.085-.176.235-.696.235-1.319 0-.622-.15-1.142-.235-1.319zM.27 3.594c-.085.177-.235.697-.235 1.32 0 .622.15 1.142.235 1.318V3.594z"/>
        </g>
    </g>
</svg>
