<svg xmlns="http://www.w3.org/2000/svg" width="32" height="32" viewBox="0 0 32 32">
    <g fill="none" fill-rule="evenodd">
        <circle cx="16" cy="16" r="16" fill="#F4F7F7"/>
        <g fill-rule="nonzero" transform="translate(8 8)">
            <circle cx="8" cy="8" r="8" fill="#F7F7F7"/>
            <g fill="#C3C3C3">
                <path d="M3.792.003c-1.258 0-2.281 1.086-2.281 2.42 0 1.333 1.023 2.419 2.281 2.419 1.258 0 2.282-1.086 2.282-2.42C6.074 1.09 5.05.004 3.792.004zM7.577 9.045c-.07-1.113-.633-2.092-1.475-2.72C5.489 5.87 4.729 5.6 3.906 5.6h-.228C1.647 5.599 0 7.245 0 9.277v.436h7.584v-.436c0-.078-.002-.155-.007-.232z" transform="translate(4 3)"/>
            </g>
        </g>
    </g>
</svg>
