<svg xmlns="http://www.w3.org/2000/svg" width="100" height="100" fill="none" viewBox="0 0 100 100">
    <path fill="#579FD7" d="M81.48 45.883c-1.072 0-2.142-.408-2.955-1.225C70.9 36.996 60.771 32.78 50 32.78c-10.77 0-20.9 4.221-28.525 11.88-1.62 1.633-4.262 1.641-5.892.012-1.633-1.625-1.641-4.258-.016-5.892C24.77 29.533 37 24.446 50 24.446s25.23 5.092 34.433 14.333c1.625 1.634 1.617 4.267-.016 5.892-.813.808-1.875 1.212-2.938 1.212z"/>
    <path fill="#579FD7" d="M70.52 56.888c-1.07 0-2.141-.409-2.953-1.225-4.705-4.725-10.942-7.33-17.567-7.33s-12.863 2.605-17.567 7.33c-1.62 1.633-4.262 1.637-5.892.012-1.633-1.625-1.641-4.262-.016-5.896C32.804 43.475 41.142 40 50 40s17.196 3.475 23.475 9.783c1.625 1.634 1.617 4.271-.017 5.896-.808.804-1.875 1.209-2.937 1.209z"/>
    <path fill="#579FD7" d="M50 75.554c-5.495 0-9.975-4.487-9.975-10 0-5.512 4.475-10 9.975-10s9.975 4.488 9.975 10c0 5.513-4.479 10-9.975 10z"/>
    <path fill="#E02020" fill-rule="evenodd" d="M0 50c0 27.57 22.43 50 50 50s50-22.43 50-50S77.57 0 50 0 0 22.43 0 50zm8.334 0C8.334 27.025 27.025 8.333 50 8.333c22.975 0 41.667 18.692 41.667 41.667S72.975 91.667 50 91.667 8.334 72.975 8.334 50z" clip-rule="evenodd"/>
    <path fill="#E02020" d="M17.6 86.567c-1.067 0-2.133-.409-2.946-1.221-1.629-1.63-1.629-4.263 0-5.892l64.8-64.8c1.63-1.629 4.263-1.629 5.892 0 1.63 1.63 1.63 4.267 0 5.892l-64.8 64.8c-.817.816-1.883 1.22-2.946 1.22z"/>
</svg>
