<svg xmlns="http://www.w3.org/2000/svg" width="108" height="97" viewBox="0 0 108 97">
    <g fill="none">
        <g fill="#CDD6E0">
            <path d="M23.94 49.036c-.68.224-1.588.224-2.268-.225-1.588-.675-2.269-2.473-1.361-4.046 7.031-14.611.68-31.92-14.064-38.888C4.66 5.202 3.98 3.404 4.887 1.83 5.566.257 7.38-.417 8.968.482c17.693 8.317 25.178 29.222 16.786 46.755-.454.9-1.134 1.574-1.815 1.799z" transform="translate(78 4)"/>
            <path d="M14.64 44.54c-.68.225-1.588.225-2.268-.225-1.588-.674-2.269-2.473-1.361-4.046 2.268-4.496 2.495-9.666.68-14.386-1.814-4.721-5.217-8.542-9.754-10.565C.35 14.643-.33 12.845.577 11.27c.68-1.573 2.495-2.247 4.082-1.348 12.476 5.844 17.92 20.68 12.022 33.043-.68.9-1.36 1.35-2.04 1.574z" transform="translate(78 4)"/>
        </g>
        <path fill="#40596B" d="M41 67.92l-21.96 7.585c-4.754 1.562-9.96-.669-11.545-5.354L.476 50.964c-1.584-4.685.906-9.817 5.66-11.378L28.096 32 41 67.92z"/>
        <path fill="#579FD7" d="M86.25 71.635c-2.934 1.125-6.093-.45-7.221-3.372L57.366 7.559c-1.128-2.923.451-6.07 3.385-7.194 2.933-1.125 6.092.45 7.22 3.372l21.663 60.704c1.128 2.923-.451 6.295-3.385 7.194z"/>
        <path fill="#DDD" d="M79 67.775L40.056 68 27 31.535 57.164 7z"/>
        <path fill="#FF7058" d="M47.452 85.133L35.893 70 21 75.264l14.448 18.862c2 2.632 5.335 3.509 8.447 2.412 4.89-1.535 6.669-7.457 3.557-11.405z"/>
        <g fill="#231F20" opacity=".1">
            <path d="M14.996 61.98L.051 67.328 2.059 70.002 16.78 64.654zM55.144 60.197L58.49 60.197 36.854.032 34.401 2.037z" transform="translate(21 8)"/>
        </g>
        <g fill="#334A5E">
            <path d="M19.444.146L1.257 6.747C.37 7.203-.073 8.113.148 9.024c.444.91 1.33 1.366 2.218 1.138L20.553 3.56c.887-.455 1.33-1.366 1.109-2.277C21.44.374 20.33-.08 19.444.146zM22.105 7.886l-18.187 6.6c-.887.456-1.33 1.367-1.108 2.277.443.91 1.33 1.366 2.217 1.138l18.187-6.6c.887-.456 1.331-1.367 1.11-2.277-.223-1.138-1.332-1.594-2.219-1.138zM24.767 15.397L6.58 21.998c-.887.456-1.33 1.366-1.109 2.277.443.91 1.33 1.366 2.218 1.138l18.187-6.601c.887-.455 1.33-1.366 1.109-2.277-.222-.91-1.331-1.365-2.218-1.138z" transform="translate(5 42)"/>
        </g>
    </g>
</svg>
