<svg xmlns="http://www.w3.org/2000/svg" width="32" height="32" fill="none" viewBox="0 0 32 32">
    <circle cx="16" cy="16" r="15.5" stroke="#A7D9FF"/>
    <path fill="#579FD7" d="M23.259 19.445c-1.113-.94-1.75-2.315-1.75-3.771v-2.052c0-2.59-1.924-4.732-4.415-5.091v-.795c0-.407-.33-.736-.736-.736-.406 0-.736.329-.736.736v.795c-2.492.359-4.415 2.502-4.415 5.091v2.052c0 1.456-.638 2.83-1.757 3.776-.286.245-.45.601-.45.978 0 .71.578 1.288 1.288 1.288h12.14c.71 0 1.288-.578 1.288-1.288 0-.377-.164-.733-.457-.983z"/>
    <path fill="#A7D9FF" d="M16.358 24.659c1.332 0 2.447-.95 2.703-2.207h-5.406c.256 1.257 1.37 2.207 2.703 2.207z"/>
</svg>
