<svg xmlns="http://www.w3.org/2000/svg" width="110" height="24" viewBox="0 0 110 24">
    <g fill="none" fill-rule="evenodd">
        <path fill="#1F2138" fill-rule="nonzero" d="M35.212 19.485c1.097 0 2.052-.13 2.867-.392.814-.261 1.491-.625 2.032-1.093.54-.467.947-1.013 1.221-1.639.274-.626.412-1.31.412-2.055 0-1.536-.423-2.712-1.27-3.528-.845-.816-2.176-1.406-3.993-1.77l-2.302-.451c-.846-.175-1.445-.42-1.798-.737-.352-.317-.528-.792-.528-1.425 0-.238.047-.468.14-.69.095-.221.26-.415.494-.582.235-.166.544-.3.928-.403.384-.103.873-.155 1.468-.155 1.003 0 1.75.206 2.244.618.493.412.826 1.085.999 2.02l3.312-.428c-.078-.666-.239-1.307-.482-1.925-.242-.617-.614-1.16-1.115-1.627-.502-.467-1.16-.844-1.974-1.129-.814-.285-1.832-.427-3.054-.427-.955 0-1.832.107-2.631.32-.799.214-1.484.527-2.056.939-.572.412-1.018.926-1.339 1.544-.321.618-.482 1.33-.482 2.138 0 .808.118 1.505.353 2.091.235.586.575 1.081 1.022 1.485.446.404.998.732 1.656.986.658.253 1.417.46 2.279.618l2.185.404c.877.174 1.48.455 1.809.843.329.388.493.804.493 1.247 0 .317-.05.61-.153.88-.101.269-.27.502-.505.7-.235.198-.54.357-.916.475-.376.12-.838.178-1.386.178-1.143 0-2.009-.237-2.596-.712-.587-.475-.92-1.236-.999-2.281H28c.094 1.996.748 3.488 1.962 4.478 1.213.99 2.964 1.485 5.25 1.485zm12.029 4.182v-5.892c.532.665 1.1 1.108 1.703 1.33.603.222 1.21.333 1.82.333.831 0 1.575-.159 2.233-.475.658-.317 1.217-.765 1.68-1.343.462-.578.814-1.27 1.057-2.079.242-.807.364-1.702.364-2.684 0-2.043-.423-3.651-1.269-4.823-.846-1.172-2.122-1.758-3.83-1.758-1.628 0-2.912.673-3.852 2.02v-1.64h-3.195v17.01h3.289zm2.749-6.914c-.33 0-.654-.043-.975-.13-.321-.088-.639-.274-.952-.559-.297-.3-.513-.693-.646-1.176s-.2-1.128-.2-1.936v-.38c0-.713.075-1.3.224-1.758.148-.46.38-.84.693-1.14.282-.238.571-.413.869-.524.297-.11.65-.166 1.057-.166.36 0 .701.067 1.022.202.321.135.6.356.834.665.235.31.419.71.552 1.2.133.491.2 1.1.2 1.83 0 .696-.07 1.29-.212 1.781-.14.491-.332.891-.575 1.2-.243.309-.529.535-.858.677-.329.143-.673.214-1.033.214zm11.91 2.613c.956 0 1.735-.174 2.338-.522.603-.349 1.147-.8 1.633-1.354v1.568h3.101v-7.84c0-.76-.09-1.446-.27-2.056-.18-.61-.47-1.128-.87-1.556-.399-.427-.927-.756-1.585-.986-.658-.23-1.457-.344-2.396-.344-1.535 0-2.757.289-3.665.867-.909.578-1.473 1.516-1.692 2.815l3.007.285c.188-.997.932-1.496 2.232-1.496.564 0 1.053.142 1.468.427.415.285.623.808.623 1.568v.618l-1.574.071c-.783.032-1.555.111-2.314.238-.76.127-1.445.34-2.056.641-.61.301-1.104.721-1.48 1.26-.376.538-.564 1.235-.564 2.09 0 .65.11 1.208.33 1.675.218.467.512.851.88 1.152.368.301.799.523 1.292.666.494.142 1.014.213 1.563.213zm.823-2.494c-.501 0-.893-.119-1.175-.357-.282-.237-.423-.562-.423-.974 0-.269.04-.514.118-.736.078-.222.23-.416.458-.582.227-.166.552-.305.975-.416.423-.11.979-.182 1.668-.214l1.457-.071v.641c0 .507-.094.931-.282 1.271-.188.341-.431.622-.729.844-.532.396-1.221.594-2.067.594zm14.566 2.566c1.77 0 3.097-.44 3.982-1.319.885-.879 1.39-2.063 1.515-3.552H79.45c-.063.713-.274 1.26-.634 1.64-.36.38-.87.57-1.527.57-.502 0-.917-.107-1.245-.32-.33-.215-.588-.504-.776-.868-.188-.364-.32-.784-.4-1.26-.077-.474-.117-.973-.117-1.496 0-.507.04-.994.118-1.461.078-.467.215-.883.411-1.247.196-.365.458-.654.787-.868.329-.213.744-.32 1.245-.32.69 0 1.175.194 1.457.582.282.388.462.899.54 1.532l3.313-.451c-.079-.634-.235-1.216-.47-1.747-.235-.53-.564-.985-.987-1.366-.423-.38-.944-.677-1.562-.89-.619-.214-1.343-.321-2.173-.321-.971 0-1.833.158-2.585.475-.751.317-1.386.764-1.903 1.342-.516.578-.912 1.275-1.186 2.09-.274.817-.411 1.715-.411 2.697s.117 1.877.352 2.685.592 1.497 1.07 2.067c.477.57 1.092 1.014 1.843 1.33.752.317 1.645.476 2.679.476zm13.555 0c1.692 0 2.98-.36 3.865-1.081.885-.72 1.437-1.778 1.656-3.172H93.17c-.235 1.109-1.002 1.663-2.302 1.663-.94 0-1.645-.281-2.115-.843-.47-.563-.72-1.343-.751-2.34h8.504v-1.33c0-1.854-.474-3.327-1.421-4.42-.948-1.093-2.361-1.64-4.24-1.64-.91 0-1.74.147-2.491.44-.752.293-1.398.725-1.938 1.295s-.96 1.263-1.257 2.079c-.298.816-.447 1.746-.447 2.791 0 2.091.513 3.707 1.54 4.847 1.025 1.14 2.556 1.71 4.592 1.71zm2.49-7.96H88.05c.015-.38.086-.732.211-1.056.125-.325.301-.61.529-.856.227-.245.505-.44.834-.582.328-.142.712-.214 1.15-.214.878 0 1.524.238 1.939.713.415.475.622 1.14.622 1.996zm10.62 7.96c1.832 0 3.187-.353 4.064-1.058.877-.704 1.315-1.643 1.315-2.815 0-.586-.066-1.1-.2-1.544-.132-.444-.367-.828-.704-1.152-.337-.325-.787-.598-1.351-.82-.564-.222-1.276-.404-2.138-.546l-1.55-.262c-.705-.127-1.179-.281-1.422-.463-.243-.182-.364-.471-.364-.867 0-.127.035-.262.106-.404.07-.143.188-.27.352-.38.165-.111.392-.202.682-.274.29-.07.653-.106 1.092-.106.783 0 1.35.134 1.703.403.353.27.6.69.74 1.26l2.937-.38c-.094-.523-.247-1.014-.458-1.473-.212-.46-.525-.856-.94-1.188-.415-.333-.951-.598-1.61-.796-.657-.198-1.471-.297-2.443-.297-.783 0-1.5.09-2.15.273-.65.182-1.21.44-1.679.772-.47.333-.834.737-1.092 1.212-.259.475-.388 1.013-.388 1.615 0 1.172.364 2.047 1.092 2.626.729.578 1.837.986 3.325 1.223l1.691.285c.595.095.999.262 1.21.5.212.237.317.514.317.83 0 .444-.168.765-.505.963-.337.198-.896.297-1.68.297-.657 0-1.221-.111-1.691-.333-.47-.222-.76-.697-.87-1.425h-3.147c.047.84.238 1.536.575 2.09.337.555.768.998 1.292 1.33.525.334 1.12.567 1.786.702.665.134 1.366.202 2.102.202z"/>
        <path fill="#22A8FF" d="M5.333 0H16c2.946 0 5.333 2.388 5.333 5.333V16c0 2.946-2.387 5.333-5.333 5.333H5.333C2.388 21.333 0 18.946 0 16V5.333C0 2.388 2.388 0 5.333 0z"/>
        <path fill="#FFF" d="M6 2c2.21 0 4 1.79 4 4s-1.79 4-4 4-4-1.79-4-4 1.79-4 4-4z" opacity=".9"/>
        <path fill="#FFF" d="M15.333 2c2.21 0 4 1.79 4 4s-1.79 4-4 4c-2.209 0-4-1.79-4-4s1.791-4 4-4zM6 11.333c2.21 0 4 1.791 4 4 0 2.21-1.79 4-4 4s-4-1.79-4-4c0-2.209 1.79-4 4-4z" opacity=".5"/>
    </g>
</svg>
