<svg xmlns="http://www.w3.org/2000/svg" width="20" height="18" viewBox="0 0 20 18">
    <g fill="none" transform="translate(-2 -3)">
        <circle cx="12" cy="14" r="1.5" fill="#212C3D"/>
        <path fill="#212C3D" d="M19 7h-3V5.5C16 4.12 14.88 3 13.5 3h-3C9.12 3 8 4.12 8 5.5V7H5c-1.657 0-3 1.343-3 3v8c0 1.657 1.343 3 3 3h14c1.657 0 3-1.343 3-3v-8c0-1.657-1.343-3-3-3zm-9-1.5c0-.276.224-.5.5-.5h3c.276 0 .5.224.5.5V7h-4V5.5zm2 12c-1.933 0-3.5-1.567-3.5-3.5s1.567-3.5 3.5-3.5 3.5 1.567 3.5 3.5c0 .928-.369 1.818-1.025 2.475-.657.656-1.547 1.025-2.475 1.025z"/>
    </g>
</svg>
