<svg xmlns="http://www.w3.org/2000/svg" width="180" height="180" fill="none" viewBox="0 0 180 180">
    <g clip-path="url(#clip0)">
        <path fill="#F5F5F5" d="M42.482 49.945c.18-.119.357-.225.512-.31 1.891-1.04 3.236-2.039 4.463-2.755l-5.344.729c.516-.786.767-1.748.635-2.677-.233-1.628-1.616-3.027-3.244-3.277-1.628-.254-3.371.659-4.089 2.144-.763-1.71-3.252-2.136-4.835-1.125-1.58 1.01-2.289 3.016-2.248 4.89-1.739.192-3.215 1.681-3.51 3.404-.296 1.723.54 3.552 1.96 4.575 1.423 1.023 3.346 1.244 5.016.708-.234 1.505.352 3.134 1.554 4.075 1.202.941 2.99 1.1 4.298.315 1.309-.785 1.998-2.508 1.514-3.953l.525.532c2.075.062 4.044-1.661 4.257-3.72.143-1.333-.464-2.671-1.464-3.555zM104.65 6.682c-.049.094-.094.184-.139.262-.542.912-.866 1.67-1.206 2.275l2.083-1.637c-.024.463.111.933.398 1.293.505.634 1.44.884 2.194.585.755-.298 1.264-1.117 1.198-1.923.751.536 1.911.098 2.33-.724.418-.823.217-1.85-.267-2.631.689-.516.943-1.514.64-2.316-.308-.802-1.116-1.37-1.973-1.453-.857-.082-1.731.303-2.301.945-.275-.695-.931-1.243-1.677-1.342-.747-.098-1.542.274-1.903.933-.357.659-.222 1.56.344 2.054l-.352-.094c-.895.491-1.301 1.71-.878 2.635.275.598.865 1.015 1.509 1.138z"/>
        <path fill="#E0E0E0" d="M180 179.153s-.09-.012-.266-.049c-.177-.033-.435-.086-.78-.131-.689-.098-1.714-.127-3.035-.111-.66.004-1.398.009-2.206-.061-.804-.07-1.686-.213-2.568-.581-.877-.36-1.735-1.011-2.288-1.952-.275-.466-.468-1.011-.497-1.592-.032-.572.115-1.194.484-1.685.357-.496.886-.884 1.502-1.077.611-.188 1.353-.126 1.894.311.546.422.845 1.105.899 1.793.057.695-.156 1.411-.542 2.009-.381.605-.906 1.117-1.489 1.551-.582.437-1.238.793-1.935 1.076-1.391.564-2.97.777-4.545.589-1.571-.184-3.158-.782-4.437-1.85-1.288-1.051-2.285-2.496-2.847-4.124-.562-1.625-.672-3.458-.18-5.176.25-.856.652-1.682 1.226-2.39.574-.704 1.337-1.293 2.231-1.575.886-.287 1.854-.303 2.736-.008.878.286 1.644.945 2.005 1.788.378.838.402 1.788.185 2.647-.205.863-.664 1.657-1.296 2.271-1.284 1.219-3.051 1.674-4.692 1.715-1.661.036-3.273-.307-4.745-.872-2.957-1.15-5.295-3.171-7.042-5.336-1.768-2.168-2.912-4.55-3.7-6.776-.787-2.234-1.23-4.337-1.55-6.187-.308-1.853-.48-3.461-.607-4.775-.127-1.313-.201-2.336-.25-3.028-.021-.335-.041-.601-.054-.79-.008-.176-.008-.27-.008-.27s.017.09.037.266c.021.189.045.45.078.786l.304 3.024c.143 1.309.332 2.913.652 4.759.332 1.841.787 3.928 1.583 6.146.796 2.209 1.936 4.558 3.695 6.698 1.735 2.132 4.052 4.12 6.956 5.237 1.444.553 3.027.888 4.643.847 1.599-.045 3.297-.491 4.507-1.644.587-.573 1.021-1.322 1.214-2.136.205-.811.177-1.699-.172-2.464-.332-.773-1.025-1.37-1.842-1.636-.816-.275-1.726-.258-2.559.008-.832.266-1.55.814-2.1 1.485-.549.675-.935 1.469-1.177 2.292-.471 1.661-.369 3.433.172 5.012.542 1.584 1.51 2.987 2.757 4.006 1.238 1.035 2.772 1.616 4.298 1.8 1.53.184 3.068-.02 4.421-.564 1.341-.545 2.58-1.383 3.318-2.521.365-.569.566-1.223.513-1.87-.05-.638-.324-1.26-.808-1.641-.48-.388-1.136-.45-1.702-.282-.57.172-1.067.536-1.403.994-.349.454-.484 1.019-.455 1.563.024.545.205 1.06.463 1.51.525.905 1.341 1.543 2.194 1.899.853.364 1.723.515 2.515.593.795.074 1.533.078 2.194.082 1.32 0 2.354.049 3.043.164.714.106 1.058.233 1.058.233z"/>
        <path fill="#F5F5F5" d="M128.216 144.761l-8.571 34.449h3.473l8.896-34.449h-3.798zM153.062 144.761l8.572 34.449h-3.47l-8.895-34.449h3.793zM142.243 135.391h-4.04v43.819h4.04v-43.819z"/>
        <path fill="#E0E0E0" d="M168.643 100.25H111.61v36.454h57.033V100.25z"/>
        <path fill="#F5F5F5" d="M154.457 144.2H125.83v3.519h28.627V144.2zM115.404 131.949c.012 0 .029.209.041.667h-.078c-.057-1.784-.103-7.688-.103-14.689.017-4.223.029-8.049.041-10.86.021-1.363.033-2.476.046-3.29.012-.364.02-.659.024-.896.008-.205.021-.311.029-.311s.02.106.029.311c.008.237.016.532.024.896.012.814.025 1.932.045 3.29.013 2.815.025 6.637.041 10.86 0 7.001-.041 12.905-.102 14.689h-.078c.012-.458.024-.667.041-.667zM119.645 131.949c.012 0 .028.209.041.667h-.078c-.058-1.784-.103-7.688-.103-14.689.017-4.223.029-8.049.041-10.86.017-1.363.033-2.476.045-3.29.013-.364.021-.659.025-.896.008-.205.02-.311.029-.311.008 0 .02.106.028.311.008.237.017.532.025.896.012.814.024 1.932.045 3.29.012 2.815.025 6.637.041 10.86 0 7.001-.041 12.905-.103 14.689h-.077c.016-.458.028-.667.041-.667zM123.889 131.949c.013 0 .025.209.041.667h-.077c-.058-1.784-.103-7.688-.103-14.689.016-4.223.029-8.049.041-10.86.016-1.363.033-2.476.045-3.29.012-.364.021-.659.025-.896.008-.205.02-.311.028-.311.009 0 .021.106.029.311.008.237.017.532.025.896.012.814.024 1.932.045 3.29.012 2.815.024 6.637.041 10.86 0 7.001-.041 12.905-.103 14.689h-.078c.017-.458.029-.667.041-.667zM128.135 131.949c.012 0 .028.209.041.667h-.078c-.058-1.784-.103-7.688-.103-14.689.017-4.223.029-8.049.041-10.86.021-1.363.033-2.476.045-3.29.013-.364.021-.659.025-.896.008-.205.02-.311.029-.311.008 0 .02.106.028.311.008.237.017.532.025.896.012.814.024 1.932.045 3.29.012 2.815.025 6.637.041 10.86 0 7.001-.041 12.905-.103 14.689h-.077c.016-.458.028-.667.041-.667zM132.379 131.949c.013 0 .029.209.041.667h-.078c-.057-1.784-.102-7.688-.102-14.689.016-4.223.028-8.049.041-10.86.02-1.363.033-2.476.045-3.29.012-.364.02-.659.024-.896.009-.205.021-.311.029-.311s.021.106.029.311c.008.237.016.532.025.896.012.814.024 1.932.045 3.29.012 2.815.024 6.637.041 10.86 0 7.001-.041 12.905-.103 14.689h-.078c.017-.458.029-.667.041-.667zM136.624 131.949c.013 0 .029.209.041.667h-.078c-.057-1.784-.102-7.688-.102-14.689.016-4.223.029-8.049.041-10.86.02-1.363.033-2.476.045-3.29.012-.364.02-.659.025-.896.008-.205.02-.311.028-.311.009 0 .021.106.029.311.008.237.016.532.025.896.012.814.024 1.932.045 3.29.012 2.815.024 6.637.041 10.86 0 7.001-.041 12.905-.103 14.689h-.078c.017-.458.029-.667.041-.667zM140.869 131.949c.012 0 .029.209.041.667h-.078c-.057-1.784-.102-7.688-.102-14.689.016-4.223.028-8.049.041-10.86.016-1.363.033-2.476.045-3.29.012-.364.02-.659.024-.896.009-.205.021-.311.029-.311s.021.106.029.311c.008.237.016.532.025.896.012.814.024 1.932.045 3.29.012 2.815.024 6.637.041 10.86 0 7.001-.041 12.905-.103 14.689h-.078c.017-.458.029-.667.041-.667zM145.114 131.949c.012 0 .029.209.041.667h-.078c-.057-1.784-.102-7.688-.102-14.689.016-4.223.028-8.049.041-10.86.016-1.363.032-2.476.045-3.29.012-.364.02-.659.024-.896.009-.205.021-.311.029-.311s.021.106.029.311c.008.237.016.532.024.896.013.814.025 1.932.045 3.29.013 2.815.025 6.637.041 10.86 0 7.001-.041 12.905-.102 14.689h-.078c.016-.458.029-.667.041-.667zM149.359 131.949c.012 0 .025.209.041.667h-.078c-.057-1.784-.103-7.688-.103-14.689.017-4.223.029-8.049.041-10.86.021-1.363.033-2.476.046-3.29.012-.364.02-.659.024-.896.008-.205.021-.311.029-.311s.02.106.029.311c.008.237.016.532.024.896.013.814.025 1.932.045 3.29.013 2.815.025 6.637.041 10.86 0 7.001-.041 12.905-.102 14.689h-.078c.016-.458.029-.667.041-.667zM153.604 131.949c.012 0 .024.209.041.667h-.078c-.058-1.784-.103-7.688-.103-14.689.017-4.223.029-8.049.041-10.86.021-1.363.033-2.476.045-3.29.013-.364.021-.659.025-.896.008-.205.021-.311.029-.311s.02.106.029.311c.008.237.016.532.024.896.012.814.025 1.932.045 3.29.013 2.815.025 6.637.041 10.86 0 7.001-.041 12.905-.102 14.689h-.078c.016-.458.028-.667.041-.667zM157.849 131.949c.012 0 .028.209.041.667h-.078c-.058-1.784-.103-7.688-.103-14.689.017-4.223.029-8.049.041-10.86.021-1.363.033-2.476.045-3.29.013-.364.021-.659.025-.896.008-.205.02-.311.029-.311.008 0 .02.106.028.311.009.237.017.532.025.896.012.814.025 1.932.045 3.29.012 2.815.025 6.637.041 10.86 0 7.001-.041 12.905-.102 14.689h-.078c.016-.458.028-.667.041-.667zM162.094 131.949c.012 0 .028.209.041.667h-.078c-.058-1.784-.103-7.688-.103-14.689.017-4.223.029-8.049.041-10.86.021-1.363.033-2.476.045-3.29.013-.364.021-.659.025-.896.008-.205.02-.311.029-.311.008 0 .02.106.028.311.008.237.017.532.025.896.012.814.024 1.932.045 3.29.012 2.815.025 6.637.041 10.86 0 7.001-.041 12.905-.103 14.689h-.077c.016-.458.028-.667.041-.667zM166.338 131.949c.013 0 .029.209.041.667h-.077c-.058-1.784-.103-7.688-.103-14.689.016-4.223.029-8.049.041-10.86.02-1.363.033-2.476.045-3.29.012-.364.021-.659.025-.896.008-.205.02-.311.028-.311.009 0 .021.106.029.311.008.237.017.532.025.896.012.814.024 1.932.045 3.29.012 2.815.024 6.637.041 10.86 0 7.001-.041 12.905-.103 14.689h-.078c.017-.458.029-.667.041-.667z"/>
        <path fill="#EBEBEB" d="M19.522 130.82c-2.62-1.35-5.705-1.522-8.612-1.043-1.563.257-3.191.724-4.258 1.894-1.062 1.17-1.263 3.233-.045 4.239.726.598 1.74.692 2.683.68 2.276-.025 4.802-.426 6.623.941 1.038.781 1.731 2.074 2.97 2.459 1.214.376 2.584-.34 3.227-1.432.644-1.093.665-2.459.365-3.691.005-.004-.311-2.688-2.953-4.047zM25.527 119.261c-1.604 2.283-4.717 1.526-6.16.135-1.444-1.396-2.055-3.413-2.609-5.34-1.267-4.399-2.547-9.019-1.604-13.499.283-1.338.784-2.676 1.727-3.67.943-.995 2.395-1.584 3.72-1.236 1.57.413 2.547 1.948 3.252 3.408 2.071 4.289 3.17 9.047 3.187 13.81.004 2.222-.258 4.554-1.513 6.392zM29.923 122.534c-1.739-2.058-2.07-5.065-1.296-7.643.776-2.582 2.523-4.776 4.54-6.568 2.363-2.103 5.14-3.736 8.125-4.783 1.177-.413 2.416-.737 3.655-.618 1.238.119 2.49.749 3.067 1.85.858 1.628.037 3.6-.853 5.213-1.562 2.835-3.35 5.552-5.336 8.11-1.599 2.058-3.432 4.087-5.869 5.016-2.436.929-4.97.823-6.262-.867"/>
        <path fill="#E0E0E0" d="M25.633 153.698c-.028 0-.078-.369-.143-1.04-.074-.757-.168-1.702-.275-2.831-.131-1.191-.308-2.611-.64-4.153-.332-1.539-.849-3.208-1.513-4.902-.69-1.682-1.526-3.212-2.51-4.436-.972-1.227-2.108-2.12-3.17-2.631-1.063-.524-2.014-.737-2.67-.831-.665-.069-1.034-.118-1.034-.151 0-.029.373-.033 1.054-.016.677.045 1.665.216 2.785.724 1.124.495 2.325 1.399 3.346 2.651 1.03 1.248 1.9 2.811 2.6 4.526.677 1.723 1.186 3.408 1.502 4.98.316 1.571.46 3.003.554 4.206.09 1.203.123 2.177.139 2.848.012.679.004 1.052-.025 1.056z"/>
        <path fill="#E0E0E0" d="M25.436 151.521c-.016 0-.024-.168-.028-.483 0-.36.004-.818.004-1.375.004-1.195.004-2.921-.062-5.057-.106-4.268-.475-8.863-1.185-15.341-.673-6.092-1.579-13.179-2.535-17.791-.205-1.047-.41-1.993-.607-2.819-.184-.827-.344-1.543-.496-2.12l-.324-1.338c-.07-.307-.098-.47-.086-.475.012-.004.07.152.168.451.107.347.238.781.402 1.317.176.573.361 1.281.566 2.107.218.823.443 1.764.669 2.812.943 4.177 1.944 10.012 2.661 16.506.714 6.49 1.034 12.402 1.063 16.682.024 2.141-.02 3.871-.074 5.07-.033.561-.062 1.015-.086 1.375-.013.311-.033.479-.05.479z"/>
        <path fill="#E0E0E0" d="M25.412 140.117c-.029 0-.025-.512.008-1.436.053-.925.18-2.259.443-3.896.275-1.633.665-3.568 1.272-5.675.262-.962.881-3.27 2.378-6.715 1.973-4.669 4.655-8.486 6.985-10.852.545-.626 1.157-1.08 1.645-1.526.25-.213.475-.425.7-.593.23-.156.44-.303.637-.438.767-.524 1.197-.798 1.214-.773.07.094-1.719 1.141-3.979 3.539-2.247 2.39-4.856 6.183-6.812 10.815-1.091 2.512-1.854 4.75-2.391 6.653-.623 2.087-1.038 4.002-1.35 5.618-.299 1.621-.471 2.942-.574 3.859-.086.912-.147 1.424-.176 1.42zM36.453 160.228l-1.144 15.652h-20.15l-1.145-15.652h22.439z"/>
        <path fill="#E0E0E0" d="M38.4 154.062H11.608v6.17H38.4v-6.17z"/>
        <path fill="#EBEBEB" d="M38.401 175.278v1.71H12.05v-1.71H38.4z"/>
        <path fill="#E0E0E0" d="M35.907 180l1.235-3.011H13.009L14.45 180h21.458z"/>
        <path fill="#F5F5F5" d="M14.387 165.343c-.004.004.03.053.095.143.078.107.18.237.3.397l1.172 1.498.054.065.049-.069 2.883-3.982h-.164l2.838 4.01.09.127.099-.119c1.05-1.243 2.186-2.594 3.367-3.997l-.193-.004c.058.073.123.151.185.233 1.046 1.305 2.055 2.57 3.01 3.764l.099.127.094-.131c1.021-1.444 1.977-2.79 2.842-4.01l-.164.008 3.499 3.978.061.069.05-.077c.459-.774.828-1.392 1.094-1.838.115-.2.21-.36.283-.491.062-.11.09-.172.087-.176-.005-.004-.046.049-.12.156l-.311.47-1.148 1.805.11-.008c-.898-1.048-2.067-2.415-3.44-4.027l-.087-.102-.078.11c-.87 1.216-1.833 2.558-2.867 3.994l.193-.004c-.956-1.199-1.96-2.463-3.002-3.773l-.185-.233-.094-.119-.107.127-3.359 4.006.189.008c-1.038-1.44-2.002-2.786-2.867-3.989l-.086-.119-.082.119c-1.136 1.62-2.1 2.995-2.822 4.022l.103-.004-1.222-1.461-.329-.376c-.073-.09-.114-.131-.119-.127zM13.731 160.126c0 .069 5.05.127 11.275.127 6.23 0 11.279-.058 11.279-.127 0-.07-5.049-.127-11.279-.127-6.226 0-11.275.057-11.275.127zM12.714 177.156c0 .07 5.488.127 12.255.127 6.771 0 12.255-.057 12.255-.127 0-.069-5.488-.127-12.255-.127-6.767.004-12.255.062-12.255.127z"/>
        <path fill="#263238" d="M103.104 55.166c-.131-.278.111-.675.369-1.244.263-.568.541-1.333.595-2.344.029-.5.008-1.056-.103-1.629-.053-.282-.119-.573-.217-.85-.09-.287-.217-.61-.361-.926-.558-1.28-1.513-2.676-2.596-4.345-1.087-1.674-2.112-3.58-2.53-5.586-.214-.998-.271-2.025-.136-2.982.057-.475.172-.933.308-1.35.139-.418.311-.795.488-1.134.738-1.347 1.57-2.12 2.186-2.595.627-.466 1.086-.617 1.324-.454.242.168.234.66.054 1.38-.177.72-.538 1.681-.739 2.733-.094.527-.135 1.051-.082 1.604.041.556.177 1.15.406 1.792.222.638.546 1.322.94 2.034.393.716.861 1.444 1.386 2.262 1.038 1.62 2.137 3.384 2.707 5.328.143.487.254.957.324 1.457.082.507.094.998.082 1.468-.029.938-.222 1.797-.513 2.542-.57 1.497-1.603 2.475-2.416 2.84-.196.102-.397.155-.561.196-.164.045-.316.049-.443.04-.259-.024-.41-.106-.472-.237z"/>
        <path fill="#263238" d="M106.184 66.402c.017-1.514-.365-3.003-.787-4.456-1.284-4.423-2.998-8.764-3.503-13.339-.197-1.796-.209-3.625-.672-5.373-.398-1.505-1.132-2.954-1.128-4.513.008-2.782 2.329-5.082 2.666-7.844.147-1.223-.115-2.496-.743-3.56 0 0-1.776-6.056-2.526-8.306-.75-2.247 1.091-6.244-3.273-7.992-4.364-1.747-6.952-7.668-15.987-2.086l-4.15 7.704 11.47 32.47 2.745 9.132c-1.452 2.664-.993 5.995.18 8.794 0 0 3.08 4.038 2.104 7.72-.976 3.688-2.022 5.824-2.022 5.824l12.058-.815-.381.017s2.518-7.3 2.907-8.507c.513-1.588 1.026-3.204 1.042-4.87z"/>
        <path fill="#9C745F" d="M97.12 22.112c-.574-5.114-6.365-9.971-11.467-9.182L74.37 15.643c-2.994.72-5.032 3.49-4.823 6.555l2.846 38.525 19.256.258-1.272-11.904s6.517-1.407 7.465-10.029c.468-4.288-.086-11.252-.722-16.936z"/>
        <path fill="#263238" d="M93.86 28.47c.049.578-.403 1.098-1.005 1.159-.603.061-1.132-.356-1.182-.933-.049-.577.402-1.097 1.005-1.158.603-.066 1.132.352 1.181.933zM95.484 26.4c-.127.152-.993-.425-2.174-.364-1.181.045-2.022.692-2.157.557-.066-.061.061-.327.426-.618.361-.29.98-.59 1.719-.622.738-.033 1.37.209 1.739.47.373.258.508.508.447.578zM82.786 28.741c.05.577-.402 1.097-1.005 1.158-.603.062-1.132-.356-1.181-.933-.05-.577.402-1.096 1.005-1.158.603-.065 1.136.352 1.18.933zM83.86 27.03c-.13.152-.992-.425-2.177-.363-1.182.045-2.022.691-2.158.556-.065-.061.058-.327.427-.618.357-.29.98-.59 1.718-.622.739-.032 1.37.209 1.74.47.377.259.516.512.45.578zM88.581 35.165c-.008-.065.722-.229 1.907-.437.3-.045.583-.12.624-.328.061-.22-.082-.54-.246-.884-.32-.716-.657-1.465-1.005-2.25-1.399-3.208-2.428-5.851-2.301-5.909.131-.053 1.37 2.5 2.772 5.708l.968 2.267c.132.336.349.716.214 1.175-.07.229-.283.405-.476.466-.193.07-.361.082-.509.094-1.193.123-1.94.164-1.948.098z"/>
        <path fill="#825843" d="M90.374 49.098s-6.046.647-11.927-2.504c0 0 3.322 5.826 12.156 4.611l-.23-2.107z"/>
        <path fill="#734831" d="M88.7 37.895c-.48-.573-1.284-.86-2.063-.737-.541.086-1.074.372-1.386.83-.308.459-.349 1.089-.029 1.494.361.458 1.07.532 1.661.336.59-.2 1.083-.618 1.555-1.032.13-.114.262-.233.34-.388.078-.152.086-.348-.025-.467"/>
        <path fill="#263238" d="M84.623 26.106c-.238.25-1.259-.364-2.6-.765-1.333-.43-2.522-.504-2.576-.843-.02-.16.28-.356.82-.463.538-.106 1.313-.09 2.113.16s1.448.675 1.829 1.068c.385.389.52.72.414.843zM94.91 22.873c-.107.34-1.067.459-2.088.896-1.038.405-1.805.995-2.116.823-.144-.086-.115-.393.16-.79.266-.397.803-.86 1.513-1.145.71-.287 1.41-.332 1.878-.238.464.094.694.295.652.454z"/>
        <path fill="#734831" d="M86.99 22.886c.024-.013.127.098.209.323.082.225.123.573.016.933-.11.36-.34.626-.533.765-.193.143-.34.18-.353.155-.036-.049.489-.343.681-.982.193-.638-.082-1.174-.02-1.194zM88.868 24.625c-.008.024-.14.016-.332-.082-.189-.098-.418-.299-.574-.585-.156-.287-.197-.59-.172-.802.02-.213.09-.328.114-.32.062.013-.036.508.246 1.02.271.52.739.711.718.769zM91.739 20.553c-.004 0-.004-.012.012-.024.02-.012.054 0 .078.029.033.024.029.106-.024.135-.05.032-.107.036-.164.04-.23.017-.558.037-.964.086-.812.09-1.916.328-3.15.54-1.239.217-2.395.254-3.216.123-.41-.061-.734-.151-.951-.229-.217-.078-.332-.139-.328-.151.012-.037.488.147 1.296.229.808.09 1.936.029 3.162-.184 1.226-.209 2.346-.43 3.17-.479.41-.029.747-.033.977-.02.114.012.184-.02.155-.066-.02-.049-.049-.024-.053-.029zM88.827 20.226c.017.053-.73.327-1.702.405-.972.082-1.755-.066-1.747-.119.008-.061.783-.012 1.727-.094.947-.073 1.706-.253 1.722-.192zM88.544 42.445c-.028.061-.972-.532-2.3-.594-1.325-.081-2.33.406-2.35.34-.013-.02.22-.176.643-.323.418-.148 1.038-.266 1.723-.23.685.037 1.283.226 1.685.418.402.192.616.368.6.389z"/>
        <path fill="#263238" d="M88.507 40.292c-.02-.024.033-.094.05-.229.016-.13-.013-.34-.169-.515-.151-.184-.434-.328-.763-.512-.324-.184-.672-.384-1.045-.564-.747-.373-1.481-.52-2.014-.5-.538.013-.857.156-.886.094-.029-.04.262-.294.857-.392.587-.11 1.436.016 2.231.413.398.192.75.41 1.067.614.303.196.623.388.803.67.19.283.164.582.082.745-.09.164-.2.197-.213.176zM59.978 122.338s-2.293 4.853-3.519 7.934c-1.226 3.081-4.536 15.692-3.236 24.584.89 6.088 3.08 24.588 3.08 24.588h29.522l1.148-17.243 4.163 17.243h30.473l-10.86-50.837-.62-5.185-40.25-1.084h-9.9z"/>
        <path fill="#455A64" d="M88.388 127.232c.008 0 .025.098.053.29.03.213.066.491.111.835.09.728.205 1.78.32 3.085.234 2.607.439 6.224.427 10.218-.005 3.997-.234 7.61-.476 10.217-.12 1.305-.464 2.365-.96 2.934-.238.286-.484.45-.656.54-.086.045-.156.069-.205.086-.045.016-.07.024-.074.02-.02-.028.41-.131.865-.704.46-.564.775-1.6.874-2.897.205-2.606.41-6.215.414-10.205.013-3.989-.172-7.598-.365-10.205-.094-1.305-.188-2.357-.254-3.085l-.07-.839c-.008-.188-.012-.29-.004-.29zM84.512 128.758c-.004-.004.029-.037.099-.098.074-.053.188-.127.36-.172.329-.098.895-.074 1.403.315.521.389.792 1.195.66 2.009-.06.409-.204.827-.442 1.207-.238.381-.595.737-1.075.888-.48.152-1 .033-1.378-.225-.385-.25-.668-.605-.853-.974-.39-.753-.275-1.579.004-2.123.275-.565.714-.892 1.05-.987.082-.028.16-.045.226-.049.065-.012.123-.016.168-.012.09.004.14.008.135.016 0 .025-.193.005-.5.123-.308.111-.698.438-.94.974-.246.524-.336 1.285.033 1.972.177.34.44.667.788.888.344.229.787.323 1.201.197.415-.127.739-.442.96-.794.226-.352.365-.745.427-1.125.131-.762-.107-1.498-.562-1.862-.455-.373-.976-.422-1.288-.352-.324.061-.463.209-.476.184zM68.652 131.77c-.024.008-.172-.32-.315-.876-.144-.557-.263-1.355-.238-2.238.028-.884.2-1.67.377-2.218.18-.548.349-.864.37-.855.069.02-.493 1.342-.538 3.077-.062 1.735.414 3.093.344 3.11zM71.892 132.211c-.02.013-.196-.282-.39-.797-.188-.516-.372-1.261-.417-2.1-.041-.838.07-1.599.205-2.131.14-.532.283-.839.307-.831.07.016-.393 1.305-.3 2.95.075 1.649.661 2.885.596 2.909zM99.56 134.503c-.004-.021.115.012.189-.127.037-.065.057-.164.062-.278.008-.111-.03-.242-.054-.393-.11-.601-.266-1.432-.46-2.341-.192-.912-.385-1.73-.528-2.328-.144-.593-.226-.965-.197-.974.029-.008.164.348.344.933.18.585.398 1.408.591 2.324.193.917.324 1.756.398 2.361.053.295.033.594-.086.741-.058.078-.14.111-.189.106-.05-.004-.07-.02-.07-.024zM102.755 133.64c-.074-.009.332-1.469-.008-3.249-.316-1.788-1.218-3.008-1.153-3.041.021-.012.267.266.566.79.3.524.628 1.301.796 2.21.168.908.14 1.755.045 2.349-.09.597-.225.949-.246.941zM57.353 140.837c.005 0 0 .037-.012.098l-.062.287c-.053.253-.155.622-.25 1.104-.209.962-.459 2.361-.631 4.109-.177 1.747-.234 3.842-.156 6.162.082 2.32.3 4.869.545 7.541.505 5.344 1.12 10.164 1.55 13.655.218 1.731.394 3.138.517 4.132l.136 1.126.029.294c.004.066.008.103.004.103-.005 0-.013-.033-.025-.099-.012-.077-.029-.171-.05-.29-.04-.274-.102-.647-.172-1.121-.147-.974-.348-2.382-.586-4.125-.468-3.486-1.107-8.306-1.612-13.654-.246-2.672-.46-5.226-.529-7.554-.066-2.328.004-4.431.201-6.183.193-1.751.468-3.154.701-4.112.107-.479.222-.847.292-1.097.032-.114.061-.208.082-.282.012-.065.024-.098.028-.094zM71.183 134.81c.004.004-.033.057-.11.159-.095.119-.21.258-.345.426-.316.356-.771.88-1.407 1.453-.632.572-1.431 1.215-2.42 1.78-.988.552-2.17 1.027-3.482 1.19-.652.074-1.3.086-1.92.013-.615-.07-1.201-.205-1.747-.356-1.09-.307-2.042-.672-2.825-1.015-.784-.344-1.39-.675-1.793-.937-.2-.127-.348-.242-.447-.319-.098-.082-.143-.127-.14-.131.013-.017.222.143.633.38.41.237 1.025.548 1.808.872.784.323 1.735.671 2.818.961.541.144 1.115.27 1.718.336.603.069 1.23.053 1.87-.017 1.276-.159 2.437-.613 3.413-1.149.976-.545 1.776-1.167 2.415-1.723.644-.552 1.112-1.056 1.444-1.395l.373-.401c.09-.086.136-.131.144-.127z"/>
        <path fill="#455A64" d="M73.012 135.653c.008.004-.024.073-.09.204-.062.131-.168.32-.308.561-.279.479-.722 1.158-1.361 1.923-.64.765-1.485 1.608-2.547 2.394-.542.38-1.083.798-1.743 1.129-.665.311-1.387.487-2.112.708-.767.217-1.534.111-2.244.004-.71-.123-1.382-.299-2.014-.491-.631-.192-1.218-.421-1.763-.618-.546-.2-1.054-.393-1.522-.564-.906-.344-1.653-.626-2.198-.831-.238-.094-.435-.172-.595-.237-.135-.058-.205-.09-.2-.094.003-.009.077.012.217.057l.607.2c.553.193 1.304.45 2.222.77l1.53.54c.554.192 1.132.413 1.76.597.627.188 1.292.356 1.989.475.693.106 1.444.196 2.145-.004.722-.221 1.448-.397 2.08-.692.623-.307 1.18-.732 1.714-1.101 1.054-.769 1.903-1.591 2.55-2.336.649-.745 1.108-1.404 1.407-1.866.312-.466.464-.736.476-.728zM112.828 138.357c.004.013-.106.049-.307.099-.201.057-.497.094-.87.114-.738.029-1.788-.094-2.813-.593-1.03-.487-1.797-1.24-2.162-1.887-.045-.077-.09-.155-.131-.229-.033-.073-.062-.147-.09-.217-.058-.135-.103-.253-.123-.356-.05-.2-.066-.315-.054-.315.045-.012.132.442.529 1.044.386.605 1.132 1.305 2.125 1.776.988.483 2.001.626 2.719.638.726-.004 1.169-.115 1.177-.074zM94.073 179.145c-.008 0-.033-.086-.078-.258-.045-.192-.107-.442-.177-.753l-.615-2.774c-.504-2.369-1.193-5.598-1.956-9.166-.738-3.572-1.407-6.809-1.895-9.178-.23-1.158-.414-2.103-.55-2.786-.057-.311-.102-.565-.139-.761-.029-.176-.041-.266-.033-.271.008 0 .033.086.078.258.045.193.107.442.177.753l.615 2.774c.504 2.37 1.193 5.598 1.956 9.17.738 3.572 1.407 6.809 1.895 9.178.23 1.158.414 2.103.55 2.787.057.311.102.564.139.761.029.172.04.266.033.266z"/>
        <path fill="#FF725E" d="M56.246 61.378l15.74-6.2 19.052.9 17.775 3.307-2.691 41.327s6.751 14.473 6.878 17.469c.123 2.995-1.751 4.365-2.875 5.241 0 0-7.001 3.957-11.38 3.977-4.377.017-38.394-3.977-38.394-3.977s-3.47-1.371-4.11-4.366c-.639-2.995.005-57.678.005-57.678z"/>
        <path fill="#000" d="M112.299 114.367c-.332-1.048-1.632-1.371-2.723-1.51-2.395-.299-4.803-.499-7.206-.7-12.608-1.047-25.301-2.095-37.889-.81-2.797.286-5.799.79-7.776 2.787-.492.499-.918 1.248-.586 1.861l-.492.221c1.989 2.075 5.147 2.488 8.022 2.382 1.665-.062 3.367-.254 4.975.172 1.218.323 2.313.978 3.437 1.555 4.946 2.549 10.581 3.6 16.15 3.568 5.57-.033 11.087-1.122 16.439-2.66 3.162-.908 6.714-2.41 7.6-5.573.119-.418.184-.876.049-1.293z" opacity=".3"/>
        <path fill="#9C745F" d="M103.354 58.37c-1.042 3.077-3.416 4.42-5.984 6.416-2.325 1.813-4.675 3.638-7.345 4.894-2.67 1.252-5.726 1.903-8.597 1.236-2.272-.528-4.273-1.83-6.221-3.106-2.06-1.346-4.13-2.709-5.861-4.456-1.727-1.747-3.11-3.339-3.466-5.77l6.107-2.406 19.05.9 12.317 2.292z"/>
        <path fill="#000" d="M81.248 69.995c-.16-.95-.636-2.058-1.596-2.148-.393-.037-.779.118-1.144.274-4.593 1.985-8.871 4.697-12.62 8.008l-4.405 9.17c-.553 1.24.698 2.606 2.01 2.966 1.312.36 2.732.151 4.036.532 1.936.569 3.63 2.402 5.598 1.96.75-.168 1.407-.667 2.17-.794.644-.106 1.325.062 1.952-.114 1.136-.324 1.681-1.658 1.661-2.84-.02-1.179-.435-2.324-.492-3.503-.127-2.663 1.542-5.033 2.375-7.566.635-1.902.791-3.965.455-5.945z" opacity=".3"/>
        <path fill="#FF725E" d="M56.246 61.378s-7.428 1.477-8.346 9.129c-.919 7.651-.886 20.246-.886 20.246s.119-.95.722-2.427c.988-2.418 2.842-5.593 11.32-2.176l-1.096-9.645-1.841-3.335.127-11.792zM118.935 90.213c.312.245-1.747-29.326-10.122-30.824l-4.938 14.256.906 17.431s4.774-8.224 14.154-.863z"/>
        <path fill="#263238" d="M58.153 77.7c.029-.004.09.47.172 1.236.082.83.185 1.853.296 2.987.119 1.133.221 2.156.307 2.983.087.76.156 1.231.123 1.24-.028.004-.151-.459-.274-1.22-.127-.76-.259-1.817-.374-2.983-.114-1.166-.192-2.226-.233-2.995-.037-.77-.046-1.248-.017-1.248zM104.478 73.403c.012-.008.127.217.324.627.102.204.217.454.332.757.119.298.267.638.39 1.027.131.384.275.806.393 1.272.14.459.238.962.353 1.486.201 1.055.349 2.234.39 3.474.033 1.243-.049 2.426-.185 3.494-.082.532-.151 1.04-.262 1.506-.09.47-.205.9-.316 1.293-.098.393-.226.74-.328 1.047-.099.307-.201.565-.287.778-.172.421-.275.65-.287.642-.013-.008.061-.245.209-.67.078-.214.168-.476.254-.787.09-.306.205-.654.295-1.047.099-.393.206-.819.288-1.289.102-.462.164-.966.242-1.494.123-1.06.196-2.23.164-3.461-.041-1.232-.185-2.394-.37-3.446-.106-.523-.201-1.018-.328-1.477-.11-.462-.242-.884-.365-1.268-.11-.389-.25-.729-.357-1.031-.102-.303-.209-.56-.299-.77-.172-.421-.262-.654-.25-.663zM105.54 58.955c.008.004-.02.107-.078.303-.053.2-.16.483-.299.847-.3.72-.82 1.731-1.661 2.848-.833 1.121-1.977 2.337-3.339 3.576-1.357 1.24-2.903 2.558-4.663 3.757-1.755 1.207-3.572 2.148-5.315 2.77-1.743.622-3.4.912-4.795.99-1.398.074-2.53-.061-3.293-.213-.382-.078-.677-.147-.874-.208-.197-.058-.3-.09-.3-.099.009-.024.42.103 1.186.225.763.127 1.887.238 3.273.144 1.382-.094 3.019-.397 4.737-1.023 1.723-.626 3.519-1.563 5.262-2.762 1.747-1.191 3.29-2.5 4.655-3.728 1.362-1.228 2.51-2.418 3.351-3.519.849-1.097 1.386-2.087 1.702-2.79.152-.357.271-.635.336-.827.066-.193.107-.29.115-.29z"/>
        <path fill="#fff" d="M103.174 83.388c.004.057-3.142.241-7.026.409-3.884.168-7.03.254-7.034.196-.004-.057 3.142-.241 7.026-.409 3.884-.168 7.03-.254 7.034-.196zM103.309 86.121c.004.057-3.142.241-7.026.41-3.884.167-7.03.253-7.034.196-.004-.058 3.142-.242 7.026-.41 3.88-.167 7.03-.253 7.034-.196zM103.046 88.87c.004.058-3.051.238-6.824.402-3.773.163-6.833.245-6.833.188-.004-.057 3.051-.237 6.825-.401 3.769-.164 6.828-.245 6.832-.188zM102.546 91.632c.004.058-2.973.234-6.644.393-3.67.16-6.653.238-6.653.18-.004-.057 2.974-.233 6.645-.392 3.67-.16 6.652-.238 6.652-.18z"/>
        <path fill="#263238" d="M89.192 81.681s.02-.004.062-.008c.053-.004.114-.008.192-.016.185-.013.443-.029.767-.053.69-.045 1.678-.107 2.929-.185 2.547-.147 6.152-.36 10.454-.61l.099-.003.004.098c.11 3.687-.357 7.967-1.403 12.378-.09.372-.185.744-.283 1.109l-.021.073-.077.004-12.71.336-.095.004v-.094c.02-3.92.037-7.181.045-9.481.008-1.125.017-2.013.025-2.635.004-.29.008-.52.012-.688-.008-.155-.004-.233 0-.229 0 0 .008.086.012.25.005.172.009.405.013.704.004.626.012 1.522.024 2.655.013 2.288.03 5.532.046 9.428l-.095-.09c3.708-.106 8.051-.233 12.71-.368l-.098.077c.098-.36.193-.728.283-1.1 1.042-4.395 1.517-8.659 1.419-12.325l.098.09c-4.277.213-7.866.389-10.397.512-1.259.057-2.255.102-2.948.135-.333.012-.595.024-.788.032-.082.004-.148.004-.205.004-.05 0-.074-.004-.074-.004z"/>
        <path fill="#000" d="M95.156 94.55c-1.916.041-5.791.213-5.791.213.963.966 2.01 1.53 3.354 1.751 1.35.221 2.728.131 4.085-.037 1.71-.212 3.56-.65 4.598-2.02-2.15.134-4.142.048-6.246.093zM106.697 78.305c-.275-.88-.64-1.743-1.198-2.471 1.075 4.718.894 9.714-.517 14.342l.214.037c2.165-3.515 2.727-7.971 1.501-11.907z" opacity=".3"/>
        <path fill="#9C745F" d="M118.496 89.636l-.365-.34c-3.634-3.4-9.392-3.028-12.558.81l-.865 12.444-.837.466c-2.141.651-30.272 3.625-30.272 3.625l-3.724 9.293c8.994 4.059 34.997 2.152 43.101 1.436 1.612-.143 3.047-1.104 3.765-2.553 5.487-11.093 1.755-25.181 1.755-25.181z"/>
        <path fill="#9C745F" d="M47.31 86.555s-1.342 10.933 1.32 18.2c2.661 7.267 4.27 11.331 6.287 11.642 2.018.311 15.253 1.252 22.615-2.423 7.362-3.674 19.87-8.445 21.82-9.186 1.996-.761 5.339-1.96 5.339-1.96l.275-3.936s-6.283-.626-8.322-.704c-2.038-.078-11.279 1.563-13.395 1.563-2.116 0-21.462.548-23.263.626l-.935-14.236c-3.027-3.539-8.522-3.49-11.488.099l-.254.315z"/>
        <path fill="#734831" d="M65.909 113.225c.008.013-.099.09-.296.217-.197.131-.488.303-.857.508-.734.409-1.78.92-2.981 1.379-1.202.454-2.326.765-3.15.945-.41.09-.747.151-.98.184-.234.033-.362.045-.366.033-.008-.033.5-.148 1.309-.364.808-.217 1.915-.549 3.108-.999 1.194-.454 2.24-.937 2.99-1.313.751-.369 1.206-.618 1.223-.59zM104.966 98.896c.004 0 .004.09 0 .266-.008.192-.021.446-.037.769l-.172 2.905v.037l-.033.016c-.82.426-1.797.88-2.912 1.322-1.116.442-2.367.872-3.72 1.293-1.353.43-2.814.831-4.31 1.354-1.502.52-3.044 1.134-4.606 1.83-5.197 2.271-9.524 5.131-13.075 6.354-1.76.626-3.261.904-4.303.974-.258.012-.488.025-.693.037-.2.004-.369-.004-.508-.008-.128-.004-.23-.009-.312-.013-.07-.004-.107-.008-.107-.012s.037-.008.107-.012c.082-.004.184-.004.312-.008.135-.004.307 0 .504-.013.201-.016.43-.032.689-.053 1.034-.094 2.514-.393 4.257-1.035 3.511-1.248 7.822-4.125 13.038-6.408 1.567-.695 3.118-1.309 4.623-1.829 1.505-.52 2.973-.917 4.323-1.338 1.353-.413 2.604-.831 3.715-1.26 1.112-.43 2.088-.872 2.912-1.285l-.033.053c.099-1.232.177-2.209.23-2.901l.07-.77c.02-.175.033-.265.041-.265z"/>
        <path fill="#734831" d="M110.618 105.426c-.029.021-.255-.311-.714-.752-.455-.442-1.169-.983-2.071-1.326-.907-.344-1.797-.414-2.432-.385-.636.029-1.026.127-1.034.09-.008-.02.373-.172 1.025-.241.648-.07 1.575-.025 2.519.335.943.356 1.669.937 2.104 1.416.438.487.623.851.603.863zM58.88 100.41c-.005.037-.296.004-.76.028-.463.025-1.099.148-1.743.434-.644.291-1.156.688-1.484 1.011-.333.323-.484.573-.513.556-.02-.008.086-.294.402-.658.316-.36.837-.798 1.51-1.101.672-.299 1.349-.405 1.824-.389.48.008.767.098.763.119z"/>
        <path fill="#9C745F" d="M61.614 89.264s.804 5.692 1.059 6.493c.254.802 1.648 4.485 1.648 4.485l-5.438.168-2.912-1.403-2.297-.676s-4.056.802-3.465-1.645c0 0 3.211-.589 3.338-.634.127-.04 3.298.38 3.298.38l-1.69-1.681-3.72-.217s-4.101 1.477-3.888-1.097l3.72-1.432 4.478.086h.845L56 91.29l-3.376-.929s-4.36 1.224-4.023-1.559c0 0 4.286-1.137 4.023-1.096-.262.04 5.066 1.182 5.066 1.182l-2.765-2.741s-1.673-1.056-.742-2.488l3.002 1.35 4.43 4.256z"/>
        <path fill="#734831" d="M61.614 89.264c-.004 0-.028-.02-.082-.07-.057-.053-.13-.119-.225-.209-.201-.192-.492-.462-.87-.818-.762-.724-1.874-1.78-3.297-3.126l.016.008c-.886-.397-1.899-.847-3.006-1.338l.082-.025c-.234.369-.357.847-.184 1.29.155.437.504.822.914 1.104l.008.004.004.004c.862.852 1.793 1.768 2.773 2.734l.2.196-.274-.057c-1.382-.295-2.846-.606-4.38-.97-.193-.049-.386-.094-.578-.151l-.074-.025-.045-.016-.017-.008c-.012-.009-.024-.017-.037-.033-.008-.012-.02-.041-.012-.074.004-.028.029-.053.033-.053.008-.004.016-.012.029-.016.02.004.028-.037.118.028.041.099.005.094.005.107-.013.012-.03.024-.046.032l-.028.009-.037.012-.074.02-.291.082c-.39.106-.78.213-1.177.323-.796.213-1.604.43-2.428.655l.07-.082c-.046.393-.005.814.241 1.121.242.316.652.471 1.063.54.836.132 1.739.005 2.596-.212l.029-.008.024.008 3.376.924.032.009.02.028.591.802.123.168h-.205c-1.697 0-3.494-.057-5.327-.082l.04-.008c-1.184.458-2.444.941-3.72 1.432l.07-.09c0 .02 0 .045-.003.07-.025.384.073.777.364 1.01.288.234.69.303 1.075.32.783.016 1.57-.168 2.31-.414l.02-.008h.02c1.26.074 2.498.147 3.72.217l.041.004.029.029c.57.569 1.132 1.125 1.69 1.681l.217.213-.304-.04c-.574-.074-1.148-.148-1.71-.222-.283-.032-.566-.065-.845-.102l-.418-.045-.205-.016c-.041-.004-.058 0-.07-.004l-.102.02-3.253.614.078-.074c-.09.373-.086.778.144 1.064.221.287.599.43.964.507.746.14 1.521.082 2.243-.04l.025-.004.02.004 2.297.679.008.004.008.004c1.01.491 1.977.958 2.912 1.412l-.037-.008c1.985-.058 3.794-.111 5.439-.156l-.066.094c-.607-1.673-1.157-3.175-1.636-4.493-.312-1.379-.451-2.561-.603-3.527-.136-.957-.238-1.702-.312-2.213-.033-.246-.053-.438-.074-.573-.029-.11-.029-.176-.029-.176s.017.065.037.192c.02.135.054.323.09.569.083.511.197 1.252.35 2.21.163.957.32 2.156.63 3.502.489 1.313 1.043 2.811 1.662 4.476l.033.095-.099.004c-1.644.053-3.453.114-5.438.18h-.02l-.021-.009c-.935-.45-1.903-.912-2.916-1.399l.012.004c-.746-.217-1.51-.442-2.297-.67h.045c-.75.126-1.53.191-2.32.044-.386-.082-.805-.229-1.08-.577-.135-.172-.213-.385-.233-.597-.02-.217.008-.426.053-.63l.012-.062.066-.012 3.224-.614.102-.02c.062-.008.11-.008.14-.004l.213.016.422.045c.283.033.562.066.85.098.565.074 1.135.143 1.714.217l-.087.176-1.69-1.678.07.029c-1.222-.07-2.46-.143-3.72-.217l.041-.004c-.762.25-1.554.438-2.387.426-.406-.017-.853-.082-1.201-.369-.361-.286-.472-.769-.443-1.186 0-.029 0-.053.004-.078l.004-.066.066-.024c1.275-.491 2.534-.978 3.72-1.432l.02-.008h.02c1.83.028 3.63.085 5.324.085l-.082.168-.59-.802.057.037c-1.165-.323-2.313-.638-3.375-.929h.053c-.89.221-1.792.348-2.682.213-.435-.078-.895-.241-1.182-.614-.29-.368-.328-.85-.278-1.268l.008-.066.061-.016c.825-.221 1.637-.434 2.432-.647.398-.106.788-.212 1.177-.319l.288-.082.07-.02.032-.012c.004 0 .017-.008.008-.004-.008.004-.024.012-.024.028.012.013.028.025.045.037.02.012.037.016.008.008-.016-.004-.033-.004-.053.004-.025.013-.025.037-.008.058.032.04.065.037.073.037.008.008-.004-.074.004-.046v-.012c0-.008-.004-.016-.012-.024-.004 0 .004-.004 0-.004.029-.013.053-.09.05-.066l.024.008.066.02c.184.054.377.103.57.152 1.525.368 2.994.684 4.372.982l-.074.14-2.76-2.746.012.008c-.435-.303-.796-.7-.968-1.183-.184-.483-.045-1.019.21-1.403l.032-.05.05.025 2.993 1.359.008.004.009.008c1.41 1.367 2.514 2.439 3.268 3.175.37.36.652.639.85.835l.213.213c.053.057.074.082.074.082z"/>
        <path fill="#734831" d="M59.839 98.536c-.058.037-.464-.851-1.44-1.461-.964-.63-1.944-.626-1.936-.692 0-.024.238-.065.628-.016.385.045.914.205 1.423.528.504.323.87.736 1.074 1.068.21.327.275.565.25.573zM62.915 98.957c-.02.004-.037-.135-.152-.343-.115-.213-.357-.467-.706-.729-.348-.258-.795-.569-1.193-1.006-.406-.434-.783-.958-1.16-1.519-.378-.556-.73-1.092-1.096-1.538-.36-.45-.734-.814-1.078-1.08-.694-.536-1.243-.655-1.227-.696.004-.008.144.004.378.082.238.078.57.23.939.487.365.262.759.626 1.14 1.076.382.45.742.986 1.12 1.543.377.556.746 1.076 1.132 1.501.377.438.795.741 1.144 1.023.345.283.587.573.685.81.098.246.086.39.074.39zM62.242 95.888c-.025.017-.308-.392-.75-1.064l-.764-1.186c-.279-.45-.582-.958-.812-1.539-.233-.585-.29-1.178-.508-1.636-.21-.467-.533-.823-.837-1.06-.623-.487-1.144-.549-1.128-.59 0-.012.127-.008.349.05.221.057.533.18.87.421.332.237.688.602.926 1.1.246.5.304 1.093.53 1.646.217.56.508 1.06.779 1.514.262.442.504.847.721 1.207.41.687.648 1.12.624 1.137z"/>
        <path fill="#263238" d="M83.996 9.452c-.156-.241-.447-.344-.722-.425-4.118-1.22-8.752-.307-12.251 2.176-3.498 2.484-5.849 6.445-6.607 10.66-.25 1.375-.332 2.79-.213 4.186l-.033-.005c-.062 2.206-.378 9.068-.542 11.27-.246 3.285.784 7.193-1.345 9.713-.558.66-1.218 1.236-1.67 1.969-.828 1.342-.844 3.023-.635 4.582.21 1.56.623 3.106.574 4.677-.053 1.805-.722 3.552-1.636 5.111-.742 1.269-1.682 2.513-1.809 3.977-.123 1.42.628 2.877 1.854 3.61.566.339 1.222.531 1.71.977.328.299.554.688.788 1.06 0 0 .04 1.158-.587 4.219-.631 3.06 1.583 6.048 1.583 6.048l7.083.155c-1.09-4.084 0-5.888 0-5.888.562 4.632 2.904 7.46 2.904 7.46l4.959-.316c-1.497-5.184.648-8.364.648-8.364s2.842-3.928 3.72-7.308c.873-3.383.438-10.037-2.408-15.491-1.727-3.315-2.83-12.19-3.433-18.643-.336-3.609.533-7.222 2.436-10.307 2.888-4.681 5.074-9.857 5.722-14.24.037-.294.07-.617-.09-.863z"/>
        <path fill="#455A64" d="M71.322 20.39c0-.033.287-.041.73-.103.218-.036.48-.094.718-.241.242-.143.439-.389.533-.704.189-.634.045-1.268-.102-1.677-.156-.418-.328-.643-.3-.663.017-.017.238.184.44.605.192.418.377 1.085.167 1.8-.102.357-.348.655-.635.81-.283.16-.57.201-.8.222-.472.024-.75-.025-.75-.05zM77.105 18.008c.025.008-.082.278-.447.528-.18.123-.406.25-.697.323-.296.082-.656-.012-.935-.184-.591-.34-.931-.884-1.063-1.289-.14-.413-.106-.687-.082-.687.037-.004.058.258.226.63.16.368.492.855 1.025 1.158.267.16.537.233.792.176.25-.053.48-.16.656-.258.357-.196.5-.417.525-.397zM75.424 23.54c-.033.009-.107-.233-.275-.601-.086-.184-.193-.397-.332-.622-.144-.221-.304-.475-.525-.659-.218-.184-.5-.258-.755-.295-.258-.036-.5-.04-.701-.028-.402.02-.648.082-.657.053-.008-.025.226-.14.644-.2.21-.03.46-.041.739-.017.274.029.603.102.869.328.258.22.414.486.558.724.135.241.234.47.303.667.136.388.16.646.132.65zM77.45 19.33c-.009.016-.066-.004-.156.037-.09.037-.213.135-.373.241-.304.221-.78.528-.977 1.043-.188.524.017 1.052.19 1.38.085.167.171.302.225.396.028.05.049.082.045.082.008 0 .016-.008.012-.016-.008-.016.053.004.012.053-.032.02-.061 0-.082-.016l-.053-.053c-.074-.082-.18-.201-.287-.369-.107-.168-.222-.38-.291-.646-.066-.262-.082-.577.032-.88.111-.303.32-.536.521-.708.206-.172.406-.294.579-.393.172-.09.307-.176.434-.196.12-.017.18.037.169.045z"/>
        <path fill="#263238" d="M62.258 60.334c-.11.094-.644-.29-1.492-1.105-.423-.409-.927-.937-1.46-1.6-.534-.662-1.104-1.477-1.588-2.48-.484-1.006-.849-2.23-.89-3.592-.04-1.346.242-2.913 1.235-4.251.488-.68 1.111-1.195 1.673-1.657.574-.463 1.091-.876 1.489-1.347.824-.961 1.35-2.218 1.403-3.58.073-1.387-.246-2.877-.394-4.44-.041-.49 0-.961.082-1.4.09-.429.213-.83.353-1.198.279-.737.594-1.37.845-1.968.245-.602.434-1.121.492-1.666.078-.626.14-1.24.192-1.84.111-1.208.206-2.358.374-3.418.164-1.055.397-2.021.71-2.84.319-.814.676-1.489 1.061-1.972.173-.253.374-.446.534-.613.16-.172.315-.295.45-.39.263-.187.423-.253.477-.204.123.119-.284.634-.751 1.633-.476.998-.882 2.529-.984 4.546-.062 1.006-.07 2.128-.107 3.355-.016.614-.045 1.26-.094 1.928-.004.155-.041.376-.066.564-.037.188-.07.385-.123.565-.094.372-.217.72-.344 1.064-.255.679-.542 1.317-.755 1.931-.107.307-.185.606-.242.892-.045.287-.058.557-.033.81.148 1.404.52 2.967.443 4.755-.07 1.813-.808 3.568-1.96 4.845-.583.658-1.243 1.141-1.801 1.567-.562.43-1.042.814-1.37 1.248-.701.86-.996 1.989-1.03 3.06-.032 1.085.177 2.108.51 3.004.684 1.813 1.677 3.171 2.296 4.137.652.986.976 1.559.865 1.657z"/>
        <path fill="#EBEBEB" d="M58.604 26.43l-6.246-3.822c.685-.577 1.288-1.24 1.76-2.001 1.029-1.662 1.373-3.806.614-5.602-.725-1.723-2.33-2.918-3.994-3.769-2.354-1.199-5.75-1.6-7.19.61l.316-.945c-.308-2.807-3.068-5-5.898-5.045-2.83-.045-5.496 1.812-6.808 4.312-1.313 2.5-1.386 5.528-.607 8.245-3.83 2.01-5.07 7.701-2.416 11.114 2.65 3.412 8.482 3.637 11.39.438 1.78 2.504 5.442 3.609 8.17 2.185 2.046-1.068 3.182-3.58 2.838-5.802l8.071.081z"/>
        <path fill="#263238" d="M58.604 26.43c-.406 0-3.006-.013-8.08-.03l.058-.065c.156 1.003.029 2.148-.46 3.24-.48 1.085-1.345 2.15-2.596 2.726-2.465 1.215-6.11.405-8.08-2.287l.14.008c-1.267 1.387-3.199 2.218-5.229 2.291-2.018.082-4.216-.573-5.779-2.132-.775-.773-1.35-1.763-1.657-2.84-.311-1.075-.377-2.238-.205-3.37.168-1.134.574-2.251 1.206-3.242.632-.986 1.51-1.85 2.576-2.414l-.054.123c-.254-.913-.443-1.92-.488-2.942-.098-2.017.304-4.063 1.32-5.766 1.018-1.685 2.597-3.011 4.406-3.613.898-.315 1.858-.417 2.789-.335.927.102 1.817.417 2.596.876.775.47 1.452 1.084 1.96 1.812.5.729.829 1.563.927 2.418l.004.02-.008.021c-.107.324-.213.635-.316.941l-.172-.081c.328-.5.787-.9 1.308-1.158.521-.262 1.087-.393 1.65-.442.561-.053 1.119-.008 1.656.078.537.085 1.062.22 1.563.405 1 .356 1.903.867 2.719 1.44.812.581 1.521 1.268 2.022 2.062.504.794.77 1.69.82 2.558.045.867-.086 1.702-.349 2.455-.508 1.518-1.492 2.647-2.46 3.457l-.008-.086c3.945 2.456 5.897 3.67 6.221 3.871-.328-.196-2.297-1.383-6.275-3.776l-.061-.037.057-.05c.956-.81 1.915-1.93 2.407-3.42.25-.737.378-1.56.329-2.402-.05-.847-.312-1.71-.804-2.484-.488-.773-1.185-1.444-1.985-2.013-.804-.56-1.702-1.064-2.683-1.408-.488-.176-1.004-.306-1.53-.392-.524-.086-1.07-.127-1.611-.074-.542.049-1.087.176-1.58.425-.491.246-.922.627-1.234 1.097l-.402.61.23-.692.312-.945-.004.04c-.099-.817-.415-1.62-.899-2.323-.492-.7-1.148-1.293-1.899-1.752-.758-.446-1.62-.748-2.514-.847-.898-.077-1.825.025-2.698.332-1.76.59-3.302 1.882-4.29 3.527-.989 1.657-1.387 3.662-1.292 5.647.045 1.006.23 1.997.48 2.893l.024.082-.078.04c-1.03.545-1.882 1.38-2.497 2.341-.62.962-1.014 2.05-1.177 3.155-.169 1.105-.107 2.234.196 3.282.3 1.047.853 2.005 1.604 2.753 1.51 1.514 3.654 2.157 5.627 2.083 1.985-.065 3.868-.876 5.106-2.218l.074-.082.066.09c1.903 2.623 5.475 3.433 7.87 2.26 1.218-.553 2.063-1.588 2.539-2.644.484-1.068.615-2.19.467-3.167l-.008-.066h.066c5.06.082 7.661.127 8.067.135z"/>
        <path fill="#EBEBEB" d="M132.756 15.913c-.037-1.661-1.144-3.22-2.653-3.916-1.509-.7-3.347-.564-4.807.238-.053-1.449-.894-2.865-2.186-3.523-1.292-.663-2.99-.491-4.069.474-1.078.97-1.414 2.697-.701 3.961l-.586-.4c-1.944.314-3.474 2.274-3.306 4.23.111 1.264.919 2.406 2.01 3.053-.148.143-.292.274-.423.384-1.575 1.31-2.653 2.484-3.67 3.368l4.855-1.637c-.34.827-.401 1.768-.11 2.61.508 1.478 2.05 2.538 3.617 2.48 1.567-.057 3.027-1.219 3.429-2.733 1.021 1.46 3.42 1.412 4.712.184 1.292-1.227 1.592-3.224 1.218-4.967 1.596-.491 2.707-2.145 2.67-3.806z"/>
        <path fill="#263238" d="M132.756 15.913s.009.11.005.332c-.017.217-.046.544-.173.949-.127.405-.348.892-.742 1.375-.394.475-.964.957-1.739 1.207l.037-.061c.139.646.205 1.379.115 2.16-.09.777-.341 1.62-.882 2.357-.521.745-1.415 1.305-2.428 1.424-.505.065-1.038.033-1.55-.14-.505-.175-.985-.498-1.313-.96l.156-.03c-.238.88-.832 1.69-1.657 2.21-.812.528-1.886.757-2.891.475-1.001-.258-1.916-.941-2.445-1.895-.533-.957-.558-2.172-.123-3.212l.131.14c-1.55.523-3.186 1.076-4.851 1.64l-.505.172.398-.352c.73-.642 1.46-1.383 2.231-2.099.308-.286.615-.565.931-.839.316-.27.632-.536.927-.81l.02.168c-.742-.446-1.353-1.097-1.714-1.866-.373-.765-.447-1.653-.254-2.455.398-1.608 1.743-2.897 3.297-3.15l.041-.01.033.025.583.402-.144.13c-.632-1.145-.443-2.565.254-3.543.702-1.007 1.924-1.47 3.031-1.428.558.02 1.099.151 1.579.393.476.241.89.577 1.218.965.665.778 1.001 1.735 1.034 2.648l-.111-.062c1.39-.748 2.9-.834 4.089-.503 1.21.323 2.055 1.068 2.559 1.764.513.7.71 1.362.792 1.8.082.442.061.68.061.68-.012 0-.008-.238-.098-.676-.094-.434-.299-1.08-.816-1.763-.505-.676-1.341-1.396-2.522-1.699-1.165-.31-2.642-.216-3.991.524l-.103.057-.004-.118c-.037-.876-.369-1.805-1.009-2.545-.627-.75-1.603-1.273-2.678-1.29-1.058-.032-2.215.414-2.871 1.36-.656.92-.824 2.27-.234 3.334l.206.368-.349-.237c-.193-.13-.386-.266-.587-.401l.074.016c-1.464.238-2.756 1.478-3.125 3.004-.185.76-.115 1.591.242 2.316.34.728.923 1.35 1.628 1.776l.123.073-.102.094c-.304.287-.624.549-.935.819-.312.27-.62.548-.927.835-.771.712-1.497 1.456-2.24 2.103l-.102-.18c1.669-.56 3.301-1.113 4.856-1.637l.217-.074-.09.213c-.414.986-.39 2.136.111 3.036.496.9 1.365 1.56 2.317 1.805.952.266 1.965.057 2.744-.446.791-.491 1.357-1.265 1.587-2.1l.049-.18.107.152c.303.43.746.732 1.222.9.48.164.993.197 1.472.135.972-.114 1.821-.634 2.33-1.35.525-.704.779-1.522.87-2.283.098-.765.036-1.486-.095-2.124l-.008-.05.045-.015c.751-.234 1.317-.696 1.706-1.154.39-.467.615-.946.751-1.338.266-.802.205-1.265.229-1.26z"/>
        <path fill="#EBEBEB" d="M125.624 40.759c-.315-1.035-1.177-1.87-2.202-2.23.685-.655 1.009-1.674.771-2.59-.238-.913-1.054-1.666-1.997-1.768-.939-.102-1.932.483-2.236 1.379l-.057-.458c-.997-.806-2.617-.7-3.498.233-.57.601-.771 1.49-.611 2.3-.136-.013-.263-.025-.374-.041-1.324-.197-2.362-.213-3.236-.32l2.912 1.65c-.553.192-1.041.564-1.329 1.076-.5.887-.344 2.095.361 2.831.706.737 1.912.941 2.822.479-.271 1.13.796 2.27 1.956 2.37 1.161.093 2.264-.627 2.949-1.564.931.56 2.219.38 3.015-.36.787-.74 1.066-1.952.754-2.987z"/>
        <path fill="#263238" d="M125.624 40.759s.066.143.115.43c.045.286.078.736-.069 1.284-.144.536-.489 1.208-1.198 1.633-.681.417-1.735.593-2.662.061l.099-.02c-.292.397-.661.773-1.12 1.076-.455.299-1.009.52-1.612.536-.603.029-1.239-.217-1.702-.659-.463-.433-.787-1.125-.623-1.82l.139.106c-.562.282-1.247.335-1.874.143-.628-.18-1.206-.638-1.493-1.26-.295-.618-.345-1.363-.09-2.03.25-.675.84-1.195 1.525-1.428l-.016.193c-.582-.332-1.202-.68-1.825-1.036-.365-.204-.726-.413-1.087-.614l-.459-.261.529.065c.607.074 1.222.102 1.825.16.603.045 1.21.143 1.78.204l-.111.123c-.107-.569-.049-1.162.176-1.682.222-.523.636-.949 1.124-1.194.976-.5 2.182-.39 2.974.253l.028.025.004.037c.021.16.037.306.058.458l-.181-.017c.32-.887 1.202-1.42 2.031-1.44.853-.024 1.587.462 1.997 1.064.431.606.513 1.346.377 1.952-.127.618-.451 1.121-.82 1.473l-.021-.09c1.009.372 1.58 1.043 1.858 1.506.279.474.324.769.324.769-.016.008-.078-.282-.373-.745-.291-.45-.861-1.088-1.845-1.436l-.082-.029.061-.061c.349-.344.652-.835.767-1.424.123-.581.033-1.277-.373-1.841-.39-.56-1.087-1.011-1.866-.982-.767.024-1.583.528-1.862 1.33l-.132.368-.049-.389c-.02-.151-.037-.299-.057-.458l.033.061c-.726-.59-1.862-.687-2.765-.22-.451.232-.824.617-1.025 1.1-.209.479-.263 1.031-.16 1.559l.025.139-.136-.012c-.603-.062-1.173-.156-1.78-.2-.603-.054-1.214-.083-1.833-.16l.066-.197c.361.205.721.41 1.086.614.624.356 1.243.704 1.826 1.035l.205.115-.222.078c-.631.216-1.177.691-1.402 1.3-.234.606-.189 1.298.082 1.867.266.572.783.986 1.365 1.158.579.18 1.214.13 1.727-.123l.185-.09-.05.2c-.143.61.136 1.236.566 1.645.431.418 1.009.647 1.571.622.562-.012 1.091-.217 1.53-.499.443-.286.804-.647 1.087-1.027l.041-.053.057.032c.857.508 1.866.356 2.527-.032.68-.397 1.025-1.035 1.181-1.555.156-.532.139-.97.106-1.256-.045-.287-.094-.434-.082-.434zM169.8 179.444c0 .057-38.015.106-84.894.106-46.899 0-84.906-.045-84.906-.106 0-.062 38.007-.107 84.902-.107 46.883 0 84.898.049 84.898.107z"/>
    </g>
    <defs>
        <clipPath id="clip0">
            <path fill="#fff" d="M0 0H180V180H0z"/>
        </clipPath>
    </defs>
</svg>
