<svg xmlns="http://www.w3.org/2000/svg" width="36" height="42" viewBox="0 0 36 42">
    <g fill="none">
        <path fill="#ECEFF1" d="M29.852 41.817H5.833c-3.168 0-5.743-2.575-5.743-5.743V5.79C.09 2.62 2.665.046 5.833.046h24.019c3.168 0 5.743 2.575 5.743 5.744v30.284c0 3.168-2.575 5.743-5.743 5.743z"/>
        <g fill="#607D8B">
            <path d="M17.23 18.797H1.567C.702 18.797 0 18.095 0 17.231c0-.865.702-1.567 1.566-1.567h15.665c.864 0 1.566.702 1.566 1.567 0 .864-.702 1.566-1.566 1.566zM17.23 27.151H1.567C.702 27.151 0 26.45 0 25.585c0-.865.702-1.567 1.566-1.567h15.665c.864 0 1.566.702 1.566 1.567 0 .864-.702 1.566-1.566 1.566zM17.23 11.487H1.567C.702 11.487 0 10.785 0 9.921c0-.865.702-1.567 1.566-1.567h15.665c.864 0 1.566.702 1.566 1.567 0 .864-.702 1.566-1.566 1.566zM17.23 3.133H1.567C.702 3.133 0 2.43 0 1.566 0 .702.702 0 1.566 0h15.665c.864 0 1.566.702 1.566 1.566 0 .865-.702 1.567-1.566 1.567z" transform="translate(8.444 8.4)"/>
        </g>
        <path fill="#CDD0D2" d="M17.842.046H5.833C2.665.046.09 2.621.09 5.79v30.284c0 3.168 2.575 5.743 5.743 5.743h12.01v-6.265H10.01c-.864 0-1.566-.702-1.566-1.567 0-.864.702-1.566 1.566-1.566h7.832v-5.222H10.01c-.864 0-1.566-.701-1.566-1.566 0-.865.702-1.566 1.566-1.566h7.832v-4.178H10.01c-.864 0-1.566-.701-1.566-1.566 0-.865.702-1.566 1.566-1.566h7.832v-5.222H10.01c-.864 0-1.566-.701-1.566-1.566 0-.865.702-1.567 1.566-1.567h7.832V.046z"/>
        <path fill="#546D79" d="M17.842 24.065H10.01c-.864 0-1.566.701-1.566 1.566 0 .865.702 1.566 1.566 1.566h7.832v-3.132zM17.842 32.419H10.01c-.864 0-1.566.702-1.566 1.566 0 .865.702 1.567 1.566 1.567h7.832v-3.133zM17.842 16.755H10.01c-.864 0-1.566.701-1.566 1.566 0 .865.702 1.566 1.566 1.566h7.832v-3.132zM17.842 8.4H10.01c-.864 0-1.566.702-1.566 1.567s.702 1.566 1.566 1.566h7.832V8.4z"/>
    </g>
</svg>
