<svg xmlns="http://www.w3.org/2000/svg" width="24" height="24" fill="none" viewBox="0 0 24 24">
    <path fill="#5CA4DA" d="M21.368 21.752c-3.672 2.998-15.139 2.998-18.736 0-3.673-2.998-3.298-15.814 0-19.187 3.297-3.373 15.439-3.373 18.736 0 3.298 3.373 3.673 16.189 0 19.187z"/>
    <path fill="#6DAFE0" d="M12.075 16.506c-3.298 2.623-6.97 3.972-10.418 4.047C-.89 16.206-.366 5.638 2.632 2.565 5.33-.208 13.799-.732 18.67.991c1.2 4.947-1.274 11.242-6.595 15.515z"/>
    <path fill="#fff" d="M13.649 15.081h-3.223v-1.574c0-.6.075-1.049.225-1.274.15-.3.45-.674.974-1.199l1.424-1.499c.225-.225.3-.6.3-.974 0-.375-.075-.75-.375-.974-.225-.3-.524-.375-.899-.375s-.675.15-.9.45c-.224.3-.374.749-.45 1.274H7.354c.15-1.424.675-2.549 1.574-3.298.9-.75 1.949-1.2 3.298-1.2s2.398.375 3.223 1.05c.824.75 1.274 1.724 1.274 2.998 0 .6-.075.974-.225 1.274l-.3.6c-.075.15-.225.3-.375.524l-.45.45-.974.974c-.3.3-.524.525-.6.75-.074.225-.15.45-.15.824v1.2zM10.2 17.78c0-1.049.825-1.873 1.874-1.873 1.05 0 1.874.824 1.874 1.873 0 1.05-.825 1.874-1.874 1.874-1.05 0-1.874-.824-1.874-1.874z"/>
</svg>
