<svg xmlns="http://www.w3.org/2000/svg" width="32" height="32" fill="none" viewBox="0 0 32 32">
    <rect width="32" height="32" x="32" y="32" fill="#fff" rx="16" transform="rotate(180 32 32)"/>
    <circle cx="16" cy="16" r="12" fill="#F4F4F4" opacity=".01"/>
    <path fill="#A7D9FF" d="M13.268 15.7c-.218 0-.429-.113-.544-.316-.17-.3-.066-.681.233-.852l5.8-3.306c.299-.173.681-.067.853.233.17.3.065.681-.233.852l-5.8 3.307c-.098.056-.204.082-.31.082zM19.065 20.856c-.105 0-.21-.026-.308-.082l-5.8-3.307c-.3-.17-.405-.553-.233-.852.17-.3.552-.406.853-.233l5.8 3.306c.3.17.405.553.233.853-.116.202-.327.315-.545.315z"/>
    <path fill="#579FD7" d="M23.042 21c0 1.38-1.12 2.5-2.5 2.5-1.381 0-2.5-1.12-2.5-2.5 0-1.381 1.119-2.5 2.5-2.5 1.38 0 2.5 1.119 2.5 2.5zM23.042 11c0 1.381-1.12 2.5-2.5 2.5-1.381 0-2.5-1.119-2.5-2.5 0-1.38 1.119-2.5 2.5-2.5 1.38 0 2.5 1.12 2.5 2.5zM14.292 16c0 1.38-1.12 2.5-2.5 2.5-1.381 0-2.501-1.12-2.501-2.5 0-1.381 1.12-2.5 2.5-2.5 1.381 0 2.5 1.119 2.5 2.5z"/>
</svg>
