<svg xmlns="http://www.w3.org/2000/svg" width="60" height="54" fill="none" viewBox="0 0 60 54">
    <path fill="#CDD6E0" d="M56.176 29.737c-.37.123-.863.123-1.233-.122-.863-.366-1.233-1.344-.74-2.199 3.822-7.94.37-17.348-7.643-21.135-.863-.366-1.233-1.343-.74-2.199.37-.855 1.356-1.221 2.22-.733 9.615 4.52 13.683 15.882 9.122 25.411-.247.489-.616.855-.986.977z"/>
    <path fill="#CDD6E0" d="M51.121 27.294c-.37.122-.863.122-1.232-.122-.863-.367-1.233-1.344-.74-2.2 1.233-2.443 1.356-5.253.37-7.818-.986-2.566-2.835-4.642-5.301-5.742-.863-.366-1.233-1.344-.74-2.199.37-.855 1.356-1.221 2.22-.733 6.78 3.176 9.738 11.24 6.533 17.959-.37.488-.74.733-1.11.855z"/>
    <path fill="#40596B" d="M23.056 37.826L11.121 41.95c-2.583.849-5.413-.364-6.274-2.91L1.032 28.61c-.86-2.546.493-5.335 3.076-6.184l11.935-4.122 7.013 19.521z"/>
    <path fill="#579FD7" d="M47.648 39.846c-1.594.61-3.311-.245-3.924-1.833L31.95 5.02c-.614-1.588.245-3.299 1.84-3.91 1.593-.61 3.31.245 3.924 1.833l11.773 32.991c.613 1.589-.246 3.422-1.84 3.91z"/>
    <path fill="#DDD" d="M43.708 37.747l-21.165.123-7.096-19.818L31.841 4.717l11.867 33.03z"/>
    <path fill="#FF7058" d="M26.563 47.182l-6.282-8.225-8.094 2.86 7.852 10.252c1.087 1.43 2.9 1.907 4.59 1.31 2.658-.834 3.625-4.052 1.933-6.197z"/>
    <path fill="#231F20" d="M20.336 38.946l-8.122 2.907 1.091 1.453 8.001-2.907-.97-1.453zM42.156 37.978h1.819l-11.759-32.7-1.333 1.09 11.273 31.61z" opacity=".1"/>
    <path fill="#334A5E" d="M14.058 23.82l-9.884 3.587c-.482.247-.723.742-.603 1.237.241.495.724.742 1.206.618l9.884-3.587c.482-.248.723-.742.603-1.237-.121-.495-.724-.743-1.206-.619zM15.505 28.025L5.62 31.613c-.483.247-.724.742-.603 1.237.241.495.723.742 1.205.619l9.884-3.588c.483-.247.724-.742.603-1.237-.12-.619-.723-.866-1.205-.619zM16.951 32.108l-9.884 3.588c-.482.247-.723.742-.603 1.237.241.495.723.742 1.206.618l9.884-3.587c.482-.248.723-.743.602-1.237-.12-.495-.723-.743-1.205-.619z"/>
</svg>
