<svg xmlns="http://www.w3.org/2000/svg" width="80" height="80" viewBox="0 0 80 80">
    <g fill="none">
        <path fill="#95A5A5" d="M11.724 27.391L68.603 27.391 68.603 68.771 11.724 68.771z"/>
        <path fill="#D1D4D1" d="M63.448 29.805L73.104 29.805 73.104 65.898 63.448 65.898zM16.552 65.255L6.896 65.255 6.896 31.069 16.552 31.069z"/>
        <g fill="#BDC3C7">
            <path d="M56.627.14H71.8v3.448c0 1.523-1.234 2.758-2.758 2.758h-9.655c-1.524 0-2.759-1.235-2.759-2.758V.139zM59.386 36.69h9.655c1.524 0 2.758 1.236 2.758 2.76v3.448H56.627v-3.449c0-1.523 1.235-2.758 2.759-2.758zM12.489 6.346H2.834C1.31 6.346.076 5.11.076 3.588V.139h15.172v3.449c0 1.523-1.235 2.758-2.759 2.758zM15.248 42.898H.076v-3.449c0-1.523 1.234-2.758 2.758-2.758h9.655c1.524 0 2.759 1.235 2.759 2.758v3.449z" transform="translate(4.063 26.563)"/>
        </g>
        <path fill="#285680" d="M2.759 20.081H78.62v5.931c0 .762-.618 1.38-1.38 1.38H4.138c-.762 0-1.38-.618-1.38-1.38v-5.93zM4.138 68.77h73.103c.762 0 1.38.618 1.38 1.38v6.897H2.759V70.15c0-.762.617-1.38 1.38-1.38z"/>
        <path fill="#4482C3" d="M78.62 21.874H1.38c-.762 0-1.38-.617-1.38-1.379v-7.26c0-.603.39-1.136.966-1.317L38.774.186c.799-.248 1.653-.248 2.452 0l37.808 11.732c.575.181.966.714.966 1.317v7.26c0 .762-.618 1.38-1.38 1.38z"/>
        <path fill="#285680" d="M5.517 16.357v-.073l34.07-10.575c.265-.083.55-.083.816 0l34.08 10.575v.073H5.517z"/>
        <path fill="#7ED09E" d="M55.172 48.081c0 8.38-6.792 15.172-15.172 15.172s-15.172-6.792-15.172-15.172S31.62 32.908 40 32.908s15.172 6.794 15.172 15.173z"/>
        <path fill="#24AE5F" d="M36.551 54v-4.337h3.705L43.74 54h1.4v-4.337H47v-.96h-1.861v-1.406H47v-.96h-1.861V42h-1.707v4.337h-3.705L36.26 42h-1.4v4.337H33v.96h1.861v1.406H33v.96h1.861V54h1.69zm1.042-7.663H36.55v-1.303l1.042 1.303zm1.895 2.366H36.55v-1.406h1.81l1.127 1.406zm3.944 0h-1.81l-1.127-1.406h2.937v1.406zm0 2.263l-1.042-1.303h1.042v1.303z"/>
        <path fill="#4482C3" d="M1.38 74.288h77.24c.762 0 1.38.617 1.38 1.38v2.758c0 .762-.618 1.38-1.38 1.38H1.38c-.762 0-1.38-.618-1.38-1.38v-2.759c0-.762.618-1.38 1.38-1.38z"/>
    </g>
</svg>
