<svg xmlns="http://www.w3.org/2000/svg" width="21" height="20" viewBox="0 0 21 20">
    <g fill="none">
        <path fill="#56636D" d="M17.4 22C8.9 21.99 2.011 15.1 2 6.6 2 4.06 4.06 2 6.6 2c.258-.002.516.021.77.07.245.036.486.097.72.18.334.117.581.403.65.75l1.37 6c.075.33-.023.677-.26.92-.13.14-.14.15-1.37.79.985 2.16 2.713 3.896 4.87 4.89.65-1.24.66-1.25.8-1.38.243-.237.59-.335.92-.26l6 1.37c.336.078.608.324.72.65.084.237.148.482.19.73.04.251.06.505.06.76-.038 2.529-2.111 4.552-4.64 4.53z" transform="translate(-2 -2)"/>
    </g>
</svg>
