<svg xmlns="http://www.w3.org/2000/svg" width="20" height="20" viewBox="0 0 20 20">
    <g fill="none" fill-rule="evenodd">
        <g fill-rule="nonzero">
            <path fill="#ECEFF1" d="M17.067 2.869C15.17 1.035 12.675 0 10.017 0 2.392 0-2.397 8.263 1.412 14.836L0 19.961l5.269-1.374c2.295 1.24 4.176 1.13 4.754 1.204 8.843 0 13.246-10.7 7.031-16.89l.013-.032z" transform="translate(-2 -2) translate(2 2)"/>
            <path fill="#4CAF50" d="M10.036 18.09h-.018c-2.647 0-4.337-1.254-4.504-1.326l-3.119.81.836-3.03-.199-.313c-.823-1.31-1.26-2.82-1.26-4.374 0-7.314 8.936-10.97 14.108-5.802 5.159 5.115 1.537 14.036-5.844 14.036z" transform="translate(-2 -2) translate(2 2)"/>
            <path fill="#FAFAFA" d="M14.56 11.9l-.007.062c-.25-.125-1.47-.721-1.696-.804-.51-.189-.366-.03-1.345 1.091-.146.163-.29.175-.538.063-.25-.125-1.05-.387-1.998-1.235-.739-.662-1.234-1.472-1.38-1.722-.245-.42.265-.48.73-1.359.083-.175.04-.312-.021-.436-.063-.125-.56-1.347-.767-1.835-.2-.485-.405-.424-.56-.424-.478-.041-.828-.035-1.137.286-1.342 1.476-1.004 2.998.145 4.616 2.257 2.955 3.46 3.499 5.659 4.254.594.189 1.135.162 1.563.1.478-.075 1.47-.6 1.677-1.186.212-.586.212-1.073.15-1.185-.062-.112-.225-.174-.474-.287z" transform="translate(-2 -2) translate(2 2)"/>
        </g>
    </g>
</svg>
