<svg xmlns="http://www.w3.org/2000/svg" width="32" height="32" fill="none" viewBox="0 0 32 32">
    <path fill="#F4F7F7" fill-rule="evenodd" d="M16 32c8.837 0 16-7.163 16-16S24.837 0 16 0 0 7.163 0 16s7.163 16 16 16z" clip-rule="evenodd"/>
    <path fill="#F7F7F7" d="M16 24c4.418 0 8-3.582 8-8s-3.582-8-8-8-8 3.582-8 8 3.582 8 8 8z"/>
    <path fill="#D8D8D8" d="M8 8H24V24H8z" opacity=".01"/>
    <path fill="#C3C3C3" d="M15.792 11.003c-1.258 0-2.281 1.086-2.281 2.42 0 1.333 1.023 2.419 2.281 2.419 1.258 0 2.282-1.086 2.282-2.42 0-1.333-1.024-2.419-2.282-2.419zM19.577 20.045c-.07-1.113-.633-2.092-1.475-2.72-.613-.456-1.373-.726-2.196-.726h-.228c-2.031 0-3.678 1.646-3.678 3.678v.436h7.584v-.436c0-.078-.002-.155-.007-.232z"/>
</svg>
