<svg xmlns="http://www.w3.org/2000/svg" width="10" height="10" fill="none" viewBox="0 0 10 10">
    <path fill="#E02020" fill-rule="evenodd" d="M10 5c0 2.761-2.239 5-5 5S0 7.761 0 5s2.239-5 5-5 5 2.239 5 5zM6.854 3.854L5.707 5l1.147 1.146c.195.196.195.512 0 .707C6.756 6.951 6.628 7 6.5 7c-.128 0-.256-.049-.353-.147L5 5.707 3.854 6.853C3.756 6.951 3.628 7 3.5 7c-.128 0-.256-.049-.353-.147-.196-.195-.196-.511 0-.707L4.293 5 3.147 3.854c-.196-.196-.196-.512 0-.707.195-.196.511-.196.707 0L5 4.293l1.147-1.146c.195-.196.511-.196.707 0 .195.195.195.511 0 .707z" clip-rule="evenodd"/>
</svg>
