
<svg xmlns="http://www.w3.org/2000/svg" width="180" height="180" fill="none" viewBox="0 0 180 180">
    <g opacity=".066">
        <path fill="#F0C419" d="M96.207 63.717c-.942 5.28-2.374 10.46-4.277 15.474-.225.882-1.02 1.499-1.93 1.499-.91 0-1.705-.617-1.93-1.5-1.904-5.013-3.336-10.193-4.277-15.473-.295-2.4.82-4.753 2.862-6.046 2.043-1.292 4.647-1.292 6.69 0 2.041 1.293 3.156 3.647 2.862 6.046z"/>
        <path fill="#FF5364" d="M96.207 25.87c-.94 5.46-2.37 10.824-4.277 16.027-.2.905-1.003 1.55-1.93 1.55s-1.73-.645-1.93-1.55c-1.906-5.203-3.338-10.566-4.277-16.026-.266-3.71 2.501-6.942 6.207-7.25 3.706.308 6.473 3.54 6.207 7.25z"/>
        <path fill="#24AE5F" d="M61.625 5.683c1.722 6.713 2.832 13.569 3.318 20.482.206 1.125-.383 2.246-1.426 2.714-1.044.468-2.272.162-2.975-.74-4.83-4.963-9.2-10.353-13.06-16.104-2.202-4.09-.706-9.191 3.356-11.445 4.383-1.542 9.192.728 10.787 5.093zM10.4 49.764c6.51 2.366 12.794 5.317 18.772 8.817 1.047.464 1.641 1.584 1.438 2.71-.203 1.128-1.151 1.97-2.294 2.038-6.822 1.191-13.738 1.762-20.663 1.707-4.62-.497-7.983-4.618-7.541-9.245 1.203-4.485 5.787-7.17 10.288-6.027zM169.6 49.764c-6.511 2.366-12.794 5.317-18.773 8.817-1.047.464-1.641 1.584-1.437 2.71.203 1.128 1.151 1.97 2.294 2.038 6.822 1.191 13.738 1.762 20.663 1.707 4.621-.497 7.982-4.618 7.541-9.245-1.203-4.485-5.787-7.17-10.288-6.027zM10.4 130.177c6.511-2.37 12.795-5.326 18.772-8.832 1.044-.466 1.635-1.584 1.432-2.708-.203-1.125-1.148-1.966-2.288-2.037-6.822-1.191-13.738-1.763-20.663-1.707-4.624.494-7.989 4.616-7.548 9.245 1.198 4.493 5.788 7.186 10.294 6.039zM169.6 130.177c-6.512-2.37-12.795-5.326-18.773-8.832-1.043-.466-1.634-1.584-1.431-2.708.203-1.125 1.147-1.966 2.288-2.037 6.822-1.191 13.738-1.763 20.662-1.707 4.624.494 7.989 4.616 7.548 9.245-1.198 4.493-5.788 7.186-10.294 6.039zM118.272 5.683c-1.723 6.713-2.834 13.569-3.32 20.482-.207 1.125.382 2.246 1.426 2.714 1.043.468 2.271.162 2.974-.74 4.837-4.957 9.214-10.341 13.078-16.088 2.209-4.098.705-9.21-3.37-11.461-4.384-1.542-9.192.728-10.788 5.093zM61.625 174.318c1.72-6.709 2.831-13.559 3.318-20.467.206-1.125-.383-2.246-1.426-2.714-1.044-.468-2.272-.163-2.975.74-4.83 4.958-9.2 10.343-13.06 16.088-2.2 4.094-.697 9.197 3.37 11.446 4.38 1.531 9.177-.737 10.773-5.093zM118.272 174.318c-1.722-6.708-2.833-13.559-3.32-20.467-.207-1.125.382-2.246 1.426-2.714 1.043-.468 2.271-.163 2.974.74 4.837 4.957 9.214 10.341 13.078 16.088 2.198 4.095.696 9.196-3.37 11.446-4.384 1.541-9.192-.729-10.788-5.093z"/>
        <path fill="#2FA8CC" d="M35.876 27.096c3.195 4.526 5.976 9.331 8.308 14.357.5.782.39 1.808-.267 2.464-.657.657-1.682.768-2.465.267-5.025-2.332-9.83-5.112-14.356-8.308-2.808-2.436-3.136-6.677-.736-9.515 2.839-2.4 7.08-2.073 9.516.735zM152.903 144.124c-4.526-3.195-9.331-5.976-14.356-8.308-.782-.501-1.808-.39-2.465.267-.656.657-.767 1.682-.266 2.464 2.332 5.026 5.112 9.831 8.308 14.357 1.463 1.996 3.961 2.946 6.38 2.429 2.42-.518 4.31-2.408 4.828-4.828.518-2.42-.433-4.918-2.429-6.381zM27.096 144.124c4.526-3.195 9.33-5.976 14.357-8.308.782-.501 1.807-.39 2.464.267s.768 1.682.267 2.464c-2.332 5.026-5.113 9.831-8.308 14.357-2.436 2.808-6.677 3.136-9.516.735-2.4-2.838-2.072-7.079.736-9.515zM144.124 27.096c-3.196 4.526-5.976 9.331-8.308 14.357-.501.782-.39 1.808.266 2.464.657.657 1.683.768 2.465.267 5.025-2.332 9.83-5.112 14.356-8.308 2.809-2.436 3.137-6.677.736-9.515-2.838-2.4-7.08-2.073-9.515.735z"/>
        <path fill="#FF5364" d="M96.207 154.13c-.94-5.46-2.37-10.824-4.277-16.026-.2-.906-1.003-1.551-1.93-1.551s-1.73.645-1.93 1.551c-1.906 5.202-3.338 10.566-4.277 16.026-.266 3.709 2.501 6.941 6.207 7.249 3.706-.308 6.473-3.54 6.207-7.249zM25.87 83.793c5.46.94 10.824 2.371 16.027 4.277.905.2 1.55 1.003 1.55 1.93 0 .928-.645 1.73-1.55 1.93-5.203 1.906-10.567 3.338-16.027 4.277-3.709.266-6.941-2.501-7.25-6.207.309-3.705 3.541-6.473 7.25-6.207zM154.129 83.793c-5.46.94-10.824 2.371-16.026 4.277-.905.2-1.55 1.003-1.55 1.93 0 .928.645 1.73 1.55 1.93 5.202 1.906 10.566 3.338 16.026 4.277 3.709.266 6.942-2.501 7.25-6.207-.308-3.705-3.541-6.473-7.25-6.207z"/>
        <path fill="#894B9D" d="M64.679 55.688c3.067 4.4 5.719 9.075 7.92 13.966.466.783.34 1.783-.304 2.428-.644.644-1.644.769-2.427.303-4.892-2.2-9.567-4.851-13.966-7.92-1.896-1.49-2.765-3.938-2.234-6.29.53-2.353 2.368-4.19 4.72-4.721 2.352-.531 4.8.338 6.29 2.234zM124.097 115.107c-4.398-3.067-9.074-5.718-13.965-7.917-.783-.464-1.78-.339-2.424.304-.644.643-.77 1.641-.307 2.424 2.201 4.891 4.852 9.566 7.92 13.966 1.49 1.896 3.938 2.765 6.29 2.234 2.353-.531 4.19-2.368 4.721-4.72.531-2.353-.339-4.801-2.235-6.291zM55.902 115.107c4.4-3.067 9.075-5.718 13.966-7.917.782-.464 1.78-.339 2.424.304.644.643.77 1.641.307 2.424-2.201 4.891-4.853 9.566-7.92 13.966-1.49 1.896-3.939 2.765-6.29 2.234-2.353-.531-4.19-2.368-4.721-4.72-.531-2.353.338-4.801 2.234-6.291zM115.321 55.688c-3.068 4.4-5.719 9.075-7.92 13.966-.466.783-.341 1.783.303 2.428.645.644 1.645.769 2.428.303 4.891-2.2 9.567-4.851 13.965-7.92 1.896-1.49 2.766-3.938 2.235-6.29-.531-2.353-2.368-4.19-4.721-4.721-2.352-.531-4.8.338-6.29 2.234z"/>
        <path fill="#F0C419" d="M96.207 116.283c-.942-5.279-2.374-10.46-4.277-15.473-.225-.882-1.02-1.5-1.93-1.5-.91 0-1.705.618-1.93 1.5-1.904 5.013-3.336 10.194-4.277 15.473-.295 2.399.82 4.753 2.862 6.046 2.043 1.293 4.647 1.293 6.69 0 2.041-1.293 3.156-3.647 2.862-6.046zM63.717 83.793c5.28.942 10.46 2.374 15.474 4.277.882.225 1.498 1.02 1.498 1.93 0 .91-.616 1.705-1.498 1.93-5.014 1.904-10.195 3.335-15.474 4.277-2.4.294-4.753-.82-6.046-2.862-1.292-2.043-1.292-4.647 0-6.69 1.293-2.042 3.647-3.156 6.046-2.862zM116.283 83.793c-5.28.942-10.46 2.374-15.474 4.277-.882.225-1.499 1.02-1.499 1.93 0 .91.617 1.705 1.499 1.93 5.014 1.904 10.194 3.335 15.474 4.277 2.399.294 4.753-.82 6.045-2.862 1.293-2.043 1.293-4.647 0-6.69-1.292-2.042-3.646-3.156-6.045-2.862z"/>
    </g>
    <path fill="#ECFADE" d="M134 85c0 24.301-19.7 44-44 44-24.301 0-44-19.699-44-44 0-24.3 19.699-44 44-44 24.3 0 44 19.7 44 44z"/>
    <path fill="#6DD400" fill-rule="evenodd" d="M35 85c0 30.376 24.624 55 55 55 30.361-.034 54.965-24.639 55-55 0-30.375-24.625-55-55-55-30.376 0-55 24.625-55 55zm3.666 0c0-28.35 22.983-51.333 51.334-51.333 28.337.032 51.301 22.996 51.333 51.333 0 28.351-22.983 51.334-51.334 51.334-28.35 0-51.333-22.983-51.333-51.334z" clip-rule="evenodd"/>
    <path fill="#6DD400" d="M79 105.167c-.742 0-1.41-.447-1.694-1.132-.284-.684-.126-1.473.397-1.998l36.667-36.666c.72-.695 1.863-.685 2.57.022.707.707.717 1.85.023 2.57L80.296 104.63c-.344.344-.81.537-1.296.537z"/>
    <path fill="#6DD400" d="M79 105.167c-.487 0-.953-.193-1.297-.537L63.036 89.963c-.694-.72-.684-1.863.023-2.57.707-.707 1.85-.717 2.57-.022l14.667 14.666c.523.525.68 1.314.397 1.998-.284.685-.952 1.132-1.694 1.132z"/>
</svg>