<svg xmlns="http://www.w3.org/2000/svg" width="20" height="20" fill="none" viewBox="0 0 20 20">
    <path fill="#579FD7" d="M8.462 0H.769C.344 0 0 .344 0 .77v7.692c0 .424.344.769.77.769h7.692c.424 0 .769-.345.769-.77V.77C9.23.344 8.886 0 8.46 0z"/>
    <path fill="#A7D9FF" d="M19.231 0H11.54c-.425 0-.77.344-.77.77v7.692c0 .424.345.769.77.769h7.692c.425 0 .77-.345.77-.77V.77C20 .344 19.655 0 19.23 0zM8.462 10.77H.769c-.425 0-.769.344-.769.769v7.692c0 .425.344.77.77.77h7.692c.424 0 .769-.345.769-.77v-7.693c0-.424-.345-.769-.77-.769z"/>
    <path fill="#579FD7" d="M19.231 10.77H11.54c-.425 0-.77.344-.77.769v7.692c0 .425.345.77.77.77h7.692c.425 0 .77-.345.77-.77v-7.693c0-.424-.345-.769-.77-.769z"/>
</svg>
