<svg xmlns="http://www.w3.org/2000/svg" width="32" height="32" fill="none" viewBox="0 0 32 32">
    <path fill="#D8D8D8" d="M0 0H32V32H0z" opacity=".01"/>
    <path fill="#579FD7" d="M6 19.511c0 .205.144.366.349.366h.557c.374-.825 1.225-1.45 2.214-1.45.99 0 1.841.625 2.216 1.45h7.237v-2.961H6v2.595z"/>
    <path fill="#6D7278" d="M9.12 19.21c-.906 0-1.641.735-1.641 1.641s.735 1.641 1.641 1.641 1.64-.735 1.642-1.641c0-.906-.735-1.641-1.642-1.641z"/>
    <path fill="#579FD7" d="M25.787 15.71l-1.564-.687H19.35v4.854h.946c.374-.825 1.226-1.45 2.215-1.45.989 0 1.84.625 2.215 1.45h.925c.205 0 .35-.16.35-.366v-3.448c.004-.15-.08-.288-.215-.353z"/>
    <path fill="#A7D9FF" d="M22.616 12.224c-.195-.374-.584-.606-1.006-.6h-2.26v2.622h4.316l-1.05-2.022zM17.458 9.003H7.108C6.486 9.003 6 9.517 6 10.141v5.998h12.573v-5.998-.005c.005-.62-.494-1.128-1.115-1.133z"/>
    <path fill="#6D7278" d="M22.51 19.21c-.906 0-1.64.735-1.64 1.641 0 .907.734 1.641 1.64 1.641.906 0 1.64-.735 1.642-1.641 0-.906-.735-1.641-1.642-1.641z"/>
</svg>
