<svg xmlns="http://www.w3.org/2000/svg" width="32" height="32" fill="none" viewBox="0 0 32 32">
    <path fill="#A7D9FF" d="M13.377 12.047l1.576-4.9c.322-1.003 1.743-1.005 2.068-.002l1.59 4.902h5.173c1.054 0 1.491 1.348.638 1.967l-4.177 3.029 1.604 4.888c.328 1.002-.819 1.838-1.672 1.218l-4.162-3.025-4.176 3.043c-.852.62-2-.213-1.673-1.215l1.6-4.913-4.187-3.024c-.855-.617-.419-1.968.636-1.968h5.162z"/>
    <path fill="#579FD7" d="M11.2 23.774c-.303 0-.606-.096-.87-.288-.53-.384-.74-1.034-.538-1.656l1.512-4.64-3.956-2.856c-.53-.383-.743-1.033-.542-1.655.202-.623.755-1.026 1.41-1.026h4.875l1.487-4.626c.2-.623.753-1.026 1.408-1.027h.002c.654 0 1.206.402 1.408 1.024l1.5 4.63h.53c.217 0 .393.176.393.393 0 .218-.176.394-.394.394h-.815c-.17 0-.322-.11-.374-.272l-1.59-4.902c-.114-.354-.415-.48-.659-.48-.244 0-.545.127-.66.481l-1.575 4.9c-.052.163-.203.273-.374.273H8.215c-.372 0-.584.248-.66.48-.074.232-.047.557.254.775l4.189 3.024c.139.1.197.278.144.44l-1.601 4.914c-.116.353.054.632.251.775.197.143.515.218.816 0l4.176-3.043c.138-.1.325-.1.463 0l4.162 3.024c.3.219.618.143.815 0 .197-.144.367-.423.25-.776l-1.603-4.889c-.053-.162.004-.34.143-.441l4.177-3.03c.301-.217.328-.542.253-.774-.075-.232-.288-.48-.66-.48h-.814c-.218 0-.394-.175-.394-.393 0-.217.176-.394.394-.394h.815c.653 0 1.206.402 1.408 1.024.202.622-.01 1.272-.54 1.655l-3.944 2.86 1.514 4.616c.204.622-.006 1.273-.535 1.658-.529.386-1.213.386-1.742.001l-3.93-2.856-3.945 2.874c-.264.193-.568.29-.871.29z"/>
    <path fill="#579FD7" d="M16 26.163c-.217 0-.394-.177-.394-.394v-3.185c0-.218.177-.394.394-.394.218 0 .394.176.394.394v3.185c0 .217-.176.394-.394.394zM25.607 19.184c-.04 0-.082-.007-.122-.02l-3.03-.984c-.206-.067-.32-.29-.252-.496.067-.207.29-.32.496-.253l3.03.984c.206.067.32.29.252.496-.054.167-.208.273-.374.273zM20.064 10.467c-.08 0-.16-.024-.23-.075-.177-.128-.216-.374-.088-.55l1.872-2.577c.128-.176.374-.215.55-.087.176.128.215.374.087.55l-1.872 2.577c-.077.106-.197.162-.319.162zM11.935 10.468c-.122 0-.242-.057-.319-.163L9.744 7.73c-.128-.176-.089-.423.087-.55.176-.128.423-.09.55.087l1.872 2.576c.128.176.09.423-.087.55-.07.051-.15.076-.23.076zM6.394 19.183c-.166 0-.32-.105-.375-.272-.067-.207.046-.429.253-.496l3.03-.984c.206-.067.428.046.495.253.068.206-.046.429-.252.496l-3.03.984c-.04.013-.08.02-.121.02zM21.198 12.44c-.104 0-.206-.041-.279-.114-.073-.074-.115-.175-.115-.279 0-.103.042-.205.115-.278.073-.074.174-.116.279-.116.103 0 .205.042.278.116.073.073.115.175.115.278 0 .104-.042.205-.115.278-.073.074-.175.116-.278.116z"/>
</svg>