<svg xmlns="http://www.w3.org/2000/svg" width="20" height="20" fill="none" viewBox="0 0 20 20">
    <g clip-path="url(#clip0)">
        <path fill="#B8BFC5" d="M19.46 8.699v-.001L11.3.54C10.954.192 10.49 0 10 0c-.492 0-.954.191-1.302.54L.543 8.692l-.008.009c-.715.718-.713 1.883.003 2.6.327.327.76.517 1.222.537.018.002.038.002.057.002h.325v6.004c0 1.188.966 2.155 2.155 2.155h3.192c.323 0 .585-.262.585-.586v-4.707c0-.542.442-.983.984-.983h1.882c.543 0 .984.44.984.983v4.707c0 .324.262.586.585.586h3.192c1.189 0 2.155-.967 2.155-2.155v-6.004h.302c.491 0 .954-.191 1.302-.539.717-.718.717-1.885 0-2.603z"/>
        <path fill="#ABB1B6" d="M19.46 8.699v-.001L11.3.54C10.954.192 10.49 0 10 0v13.724h.941c.543 0 .984.44.984.983v4.707c0 .324.262.586.585.586h3.192c1.189 0 2.155-.967 2.155-2.155v-6.004h.302c.491 0 .954-.191 1.302-.539.717-.718.717-1.885 0-2.603z"/>
    </g>
</svg>
