<svg width="48" height="48" viewBox="0 0 48 48" fill="none" xmlns="http://www.w3.org/2000/svg">
<path fill-rule="evenodd" clip-rule="evenodd" d="M24 48C37.2548 48 48 37.2548 48 24C48 10.7452 37.2548 0 24 0C10.7452 0 0 10.7452 0 24C0 37.2548 10.7452 48 24 48Z" fill="#FD9D00"/>
<path d="M15.4399 38.7C13.7899 36.825 12.1399 34.875 11.0899 32.55C10.0399 30.075 9.73987 27.225 10.2649 24.525C10.7899 21.825 11.9899 19.275 13.7149 17.1C13.5649 18.975 14.2399 20.925 15.5149 22.35C14.7649 18.75 15.9649 14.85 18.3649 12C20.7649 9.15007 24.0649 7.27498 27.5149 6C25.7899 7.8 25.5649 10.65 26.2399 13.05C26.9149 15.45 28.3399 17.55 29.6149 19.725C30.8899 21.9 32.0899 24.15 32.1649 26.625C32.8399 25.35 33.5899 24.075 34.0399 22.65C34.4899 21.225 34.7149 19.725 34.34 18.3C35.69 19.95 36.44 21.6 36.815 23.7C37.1899 25.8 37.115 27.975 36.89 30.075C36.59 32.4 35.99 34.8 34.715 36.75C33.215 39.075 30.815 40.725 28.19 41.625C23.5399 42.45 18.9649 41.775 15.4399 38.7Z" fill="white"/>
<path d="M21.1399 41.4749C27.2899 43.8749 33.3649 36.5999 29.9899 30.9749C29.9899 30.8999 29.9148 30.8999 29.9148 30.8249C30.2149 33.8999 29.4648 36.1499 28.0398 37.4249C28.7898 35.6249 28.2648 33.5249 27.3648 31.7249C26.4648 29.9999 25.1898 28.4249 24.2148 26.7749C23.2398 25.0499 22.4898 23.0999 22.9398 21.1499C21.1398 22.4999 19.8649 24.5249 19.3398 26.6999C18.8148 28.8749 19.1148 31.2749 20.0899 33.2999C18.9649 32.4749 18.1399 31.1249 18.0649 29.6999C16.8648 31.1249 16.1149 32.9999 16.1898 34.8749C16.1899 37.7999 18.5149 40.4249 21.1399 41.4749Z" fill="#FFD15C"/>
</svg>