<svg xmlns="http://www.w3.org/2000/svg" width="98" height="98" fill="none" viewBox="0 0 98 98">
    <rect width="98" height="98" fill="#F2F5FA" rx="13"/>
    <path fill="#B7D4E2" d="M49.508 33.418H37.776l1.858-4.612h8.016l1.44 3.576.418 1.036z"/>
    <path fill="#668FA3" d="M39.634 26.584v2.222h8.016v-2.222c0-.322-.261-.584-.584-.584h-6.848c-.323 0-.584.262-.584.584z"/>
    <path fill="#D4EFFF" d="M37.776 33.418h11.732v8.12H37.776v-8.12z"/>
    <path fill="#B7D4E2" d="M49.508 33.418v8.12h-4.312l1.225-6.088c.157-.779.531-1.48 1.06-2.032h2.027z"/>
    <path fill="#3EB1FF" d="M49.508 35.265v6.274h-9.925v-5.83c0-.245.2-.444.445-.444h9.48z"/>
    <path fill="#4390FF" d="M49.508 35.265v6.274h-4.312l1.225-6.089c.013-.062.027-.123.043-.185h3.044z"/>
    <path fill="#FFC73B" d="M59.995 38.186l-.744 3.693H46.94l1.223-6.078c.17-.84.784-1.518 1.6-1.77l1.816-.563c.817-.252 1.432-.931 1.6-1.77l.601-2.986 2.47.498 1.307.264-.6 2.985c-.17.84.134 1.704.79 2.253l1.457 1.221c.656.55.959 1.414.79 2.253z"/>
    <path fill="#FFA73E" d="M59.995 38.186l-.744 3.693h-1.36l.797-3.956c.072-.36-.058-.73-.34-.968l-1.457-1.221c-1.03-.863-1.506-2.218-1.24-3.537l.6-2.987 1.307.264-.6 2.986c-.17.839.134 1.703.79 2.252l1.457 1.221c.656.55.959 1.415.79 2.253z"/>
    <path fill="#99BAC6" d="M49.508 33.418h-2.026c.44-.46.988-.819 1.608-1.037l.418 1.037z"/>
    <path fill="#D4EFFF" d="M57.437 37.836l-.815 4.043h-7.017l1.18-5.393c.056-.251.303-.413.556-.361l5.725 1.153c.256.053.422.302.37.558z"/>
    <path fill="#668FA3" d="M58.01 27.23l-.452 2.244-1.303-.263-.003-.001-2.47-.498.451-2.242c.064-.317.372-.522.688-.458l1.338.269 1.294.261c.316.064.52.372.458.688z"/>
    <path fill="#4C7889" d="M58.01 27.23l-.452 2.244-1.303-.263h-.003l.451-2.244c.063-.312-.136-.616-.444-.686l1.294.262c.316.064.52.371.458.688z"/>
    <path fill="#44E0AC" d="M64.045 64.019c-.008 3.103-.46 5.186-1.382 6.368-.575.735-1.35 1.124-2.246 1.124H36.694c-.894 0-1.67-.39-2.245-1.124-.923-1.182-1.374-3.265-1.382-6.368-.007-2.361.252-5.302.766-8.742.814-5.44 2.025-10.453 2.195-11.145V41.54c0-.368.298-.667.666-.667h23.723c.368 0 .667.299.667.667v2.593c.17.692 1.381 5.705 2.194 11.145.515 3.44.773 6.38.767 8.742z"/>
    <path fill="#0DBFA9" d="M64.044 64.019c-.007 3.103-.459 5.186-1.38 6.368-.576.735-1.352 1.124-2.247 1.124H57.75c.895 0 1.671-.39 2.246-1.124.922-1.182 1.375-3.265 1.382-6.368.006-2.361-.252-5.302-.766-8.742-.814-5.44-2.025-10.453-2.195-11.145V41.54c0-.368-.299-.667-.667-.667h2.667c.368 0 .667.299.667.667v2.593c.17.692 1.381 5.705 2.194 11.145.515 3.44.773 6.38.767 8.742z"/>
    <path fill="#668FA3" d="M61.084 41.539v2.593H36.028V41.54c0-.368.298-.667.666-.667h23.723c.368 0 .667.299.667.667z"/>
    <path fill="#4C7889" d="M61.084 41.539v2.593h-2.667V41.54c0-.368-.299-.667-.667-.667h2.667c.368 0 .667.299.667.667z"/>
    <path fill="#668FA3" d="M56.284 48.826v5.504c0 4.28-3.483 7.764-7.765 7.764-.225 0-.447-.01-.666-.029-3.97-.339-7.098-3.68-7.098-7.735v-5.504h2.666v5.504c0 2.81 2.288 5.098 5.098 5.098 2.812 0 5.098-2.287 5.098-5.098v-5.504h2.667z"/>
    <path fill="#4C7889" d="M56.284 48.826v5.504c0 4.28-3.483 7.764-7.765 7.764-.225 0-.447-.01-.666-.029 3.97-.339 7.097-3.68 7.097-7.735v-5.504h1.334z"/>
    <path fill="#364C59" d="M44.755 48.159h-5.333c-.368 0-.667.298-.667.667 0 .368.298.666.667.666h5.333c.368 0 .667-.298.667-.666 0-.369-.299-.667-.667-.667zM57.617 48.159h-5.333c-.368 0-.667.298-.667.667 0 .368.299.666.667.666h5.333c.368 0 .667-.298.667-.666 0-.369-.299-.667-.667-.667z"/>
</svg>