
<svg xmlns="http://www.w3.org/2000/svg" width="48" height="48" fill="none" viewBox="0 0 48 48">
    <path fill="#A6EC00" fill-rule="evenodd" d="M24 48c13.255 0 24-10.745 24-24S37.255 0 24 0 0 10.745 0 24s10.745 24 24 24z" clip-rule="evenodd"/>
    <path fill="#E5FFA8" d="M20.85 20.57h2.283v2.282h-2.284V20.57z"/>
    <path fill="#fff" fill-rule="evenodd" d="M20.85 23.423h2.283c.151 0 .296-.06.404-.167.107-.107.167-.252.167-.403v-2.284c0-.151-.06-.296-.168-.403-.107-.108-.252-.168-.403-.168h-2.284c-.151 0-.296.06-.403.168-.107.107-.168.252-.168.403v2.284c0 .151.06.296.168.403.107.107.252.167.403.167zm1.712-1.141H21.42V21.14h1.142v1.142z" clip-rule="evenodd"/>
    <path fill="#E5FFA8" d="M25.416 21.14h1.713v1.142h-1.713V21.14z"/>
    <path fill="#fff" d="M28.27 21.14h7.992v1.142H28.27V21.14z"/>
    <path fill="#E5FFA8" d="M20.85 25.136h2.283v2.283h-2.284v-2.283z"/>
    <path fill="#fff" fill-rule="evenodd" d="M20.85 27.99h2.283c.151 0 .296-.06.404-.167.107-.107.167-.252.167-.404v-2.283c0-.151-.06-.297-.168-.404-.107-.107-.252-.167-.403-.167h-2.284c-.151 0-.296.06-.403.167-.107.107-.168.253-.168.404v2.284c0 .15.06.296.168.403.107.107.252.167.403.167zm1.712-1.141H21.42v-1.142h1.142v1.142z" clip-rule="evenodd"/>
    <path fill="#E5FFA8" d="M25.416 25.707h1.713v1.142h-1.713v-1.142z"/>
    <path fill="#fff" d="M28.27 25.707h7.992v1.142H28.27v-1.142z"/>
    <path fill="#E5FFA8" d="M20.85 29.703h2.283v2.283h-2.284v-2.283z"/>
    <path fill="#fff" fill-rule="evenodd" d="M20.85 32.557h2.283c.151 0 .296-.06.404-.167.107-.107.167-.252.167-.404v-2.283c0-.152-.06-.297-.168-.404-.107-.107-.252-.167-.403-.167h-2.284c-.151 0-.296.06-.403.167-.107.107-.168.252-.168.404v2.283c0 .152.06.297.168.404.107.107.252.167.403.167zm1.712-1.142H21.42v-1.142h1.142v1.142z" clip-rule="evenodd"/>
    <path fill="#E5FFA8" d="M25.416 30.274h1.713v1.141h-1.713v-1.141z"/>
    <path fill="#fff" d="M28.27 30.274h7.992v1.141H28.27v-1.141z"/>
    <path fill="#E5FFA8" d="M20.85 34.27h2.283v2.283h-2.284V34.27z"/>
    <path fill="#fff" fill-rule="evenodd" d="M20.85 37.124h2.283c.151 0 .296-.06.404-.167.107-.107.167-.253.167-.404V34.27c0-.152-.06-.297-.168-.404-.107-.107-.252-.167-.403-.167h-2.284c-.151 0-.296.06-.403.167-.107.107-.168.252-.168.404v2.283c0 .151.06.297.168.404.107.107.252.167.403.167zm1.712-1.142H21.42V34.84h1.142v1.142z" clip-rule="evenodd"/>
    <path fill="#E5FFA8" d="M25.416 34.84h1.713v1.142h-1.713v-1.141z"/>
    <path fill="#fff" d="M28.27 34.84h7.992v1.142H28.27v-1.141zM10.003 12.006v24.547h7.992V17.715h19.41v-5.709H10.002z"/>
    <path fill="#E5FFA8" d="M10.003 17.715h7.992v1.142h-7.992v-1.142zM36.262 12.006h1.142v5.709h-1.142v-5.709z"/>
</svg>