<svg xmlns="http://www.w3.org/2000/svg" width="48" height="48" fill="none" viewBox="0 0 48 48">
    <path fill="#DC6262" fill-rule="evenodd" d="M24 48c13.255 0 24-10.745 24-24S37.255 0 24 0 0 10.745 0 24s10.745 24 24 24z" clip-rule="evenodd"/>
    <path fill="#fff" d="M35.175 25.275c.55-.63.825-1.375.825-2.235 0-.78-.285-1.455-.854-2.025-.57-.57-1.245-.855-2.025-.855h-4.155c.04-.14.08-.26.12-.36.04-.1.095-.21.165-.33.07-.12.12-.21.15-.27.18-.34.317-.62.413-.84.095-.22.189-.52.284-.9.095-.38.143-.76.143-1.14 0-.24-.003-.435-.008-.585-.005-.15-.03-.375-.075-.675-.045-.3-.105-.55-.18-.75-.075-.2-.195-.425-.36-.675-.165-.25-.365-.453-.6-.608-.235-.155-.535-.285-.9-.39-.365-.104-.778-.157-1.238-.157-.26 0-.485.095-.675.285-.2.2-.37.45-.51.75s-.238.56-.293.78c-.055.22-.117.525-.187.915-.09.42-.157.722-.203.907-.045.185-.132.428-.262.728s-.285.54-.465.72c-.33.33-.835.93-1.515 1.8-.49.64-.995 1.245-1.515 1.815-.52.57-.9.865-1.14.885-.25.02-.465.122-.645.307s-.27.403-.27.653v9.615c0 .26.095.482.285.667.19.185.415.283.675.293.35.01 1.14.23 2.37.66.77.26 1.372.457 1.807.592.435.135 1.043.28 1.822.435.78.155 1.5.233 2.16.233h1.935c1.33-.02 2.315-.41 2.955-1.17.58-.69.825-1.595.735-2.715.39-.37.66-.84.81-1.41.17-.61.17-1.195 0-1.755.46-.61.675-1.294.645-2.054.001-.32-.074-.7-.224-1.14z"/>
    <path fill="#FCC" d="M17.28 22.08h-4.32c-.26 0-.485.095-.675.285-.19.19-.285.415-.285.675v9.6c0 .26.095.485.285.675.19.19.415.285.675.285h4.32c.26 0 .485-.095.675-.285.19-.19.285-.415.285-.675v-9.6c0-.26-.095-.485-.285-.675-.19-.19-.415-.285-.675-.285zm-1.725 9.323c-.19.185-.415.277-.675.277-.27 0-.498-.092-.683-.277-.184-.185-.277-.413-.277-.683 0-.26.092-.485.277-.675.186-.19.413-.285.683-.285.26 0 .485.095.675.285.19.19.285.415.285.675 0 .27-.095.498-.285.683z"/>
</svg>