<svg xmlns="http://www.w3.org/2000/svg" width="64" height="64" fill="none" viewBox="0 0 64 64">
    <rect width="64" height="64" fill="#F2F5FA" rx="13"/>
    <path fill="#B9785F" d="M43.172 41.887H20.828V22.414c0-.229.185-.414.413-.414H42.76c.228 0 .413.186.413.414v19.473z"/>
    <path fill="#AA6455" d="M43.172 28.593c-.084.021-.172.036-.263.036-.602 0-1.09-.49-1.09-1.092 0 .603-.49 1.092-1.092 1.092-.602 0-1.09-.49-1.09-1.092 0 .603-.49 1.092-1.092 1.092-.602 0-1.09-.49-1.09-1.092 0 .603-.489 1.092-1.091 1.092-.603 0-1.091-.49-1.091-1.092 0 .603-.489 1.092-1.091 1.092-.603 0-1.091-.49-1.091-1.092 0 .603-.489 1.092-1.091 1.092-.603 0-1.091-.49-1.091-1.092 0 .603-.488 1.092-1.091 1.092s-1.09-.49-1.09-1.092c0 .603-.49 1.092-1.092 1.092-.602 0-1.09-.49-1.09-1.092 0 .603-.49 1.092-1.092 1.092-.602 0-1.09-.49-1.09-1.092 0 .603-.489 1.092-1.091 1.092-.603 0-1.091-.49-1.091-1.092 0 .603-.489 1.092-1.091 1.092-.092 0-.179-.015-.264-.036v.838c.087.012.173.027.264.027.405 0 .78-.127 1.09-.342.31.215.687.341 1.092.341.404 0 .78-.126 1.09-.341.31.215.686.341 1.091.341.405 0 .781-.126 1.091-.341.31.215.686.341 1.091.341.405 0 .781-.126 1.091-.341.31.215.686.341 1.091.341.405 0 .781-.126 1.091-.341.31.215.686.341 1.09.341.406 0 .782-.126 1.092-.341.31.215.686.341 1.09.341.406 0 .782-.126 1.092-.341.31.215.686.341 1.09.341.406 0 .782-.126 1.092-.341.31.215.686.341 1.09.341.405 0 .781-.126 1.091-.341.31.215.686.341 1.091.341.405 0 .781-.126 1.091-.341.31.215.686.341 1.091.341.09 0 .177-.014.263-.026v-.838z"/>
    <path fill="#B4E1FA" d="M22.896 30.286H34.482V37.744H22.896z"/>
    <path fill="#DAF0FD" d="M32.414 37.33h-.828l-4.965-6.63h.827l4.966 6.63z"/>
    <path fill="#D2555A" d="M29.818 28.629c-.602 0-1.09-.49-1.09-1.092v-.98h2.181v.98c0 .603-.488 1.092-1.09 1.092zM34.182 28.629c-.603 0-1.091-.49-1.091-1.092v-.98h2.182v.98c0 .603-.489 1.092-1.091 1.092zM25.455 28.629c-.603 0-1.091-.49-1.091-1.092v-.98h2.181v.98c0 .603-.488 1.092-1.09 1.092zM21.09 28.629c-.602 0-1.09-.49-1.09-1.092v-.98h2.182v.98c0 .603-.489 1.092-1.091 1.092zM38.545 28.629c-.602 0-1.09-.49-1.09-1.092v-.98h2.181v.98c0 .603-.488 1.092-1.09 1.092z"/>
    <path fill="#C7CFE2" d="M27.636 28.629c-.602 0-1.09-.49-1.09-1.092v-.98h2.181v.98c0 .603-.488 1.092-1.09 1.092zM36.364 28.629c-.603 0-1.091-.49-1.091-1.092v-.98h2.181v.98c0 .603-.488 1.092-1.09 1.092z"/>
    <path fill="#D2555A" d="M42.909 28.629c-.602 0-1.09-.49-1.09-1.092v-.98H44v.98c0 .603-.489 1.092-1.091 1.092z"/>
    <path fill="#C7CFE2" d="M40.727 28.629c-.602 0-1.09-.49-1.09-1.092v-.98h2.181v.98c0 .603-.488 1.092-1.09 1.092zM23.273 28.629c-.603 0-1.091-.49-1.091-1.092v-.98h2.182v.98c0 .603-.489 1.092-1.091 1.092zM32 28.629c-.602 0-1.091-.49-1.091-1.092v-.98h2.182v.98c0 .603-.489 1.092-1.091 1.092z"/>
    <path fill="#FF6464" d="M30.91 26.558h-2.183l.226-3.315h2.031l-.075 3.315zM35.273 26.558H33.09l-.075-3.315h2.031l.226 3.315zM26.545 26.558h-2.181l.526-3.315h2.032l-.377 3.315zM22.182 26.558H20l.828-3.315h2.03l-.676 3.315zM39.636 26.558h-2.181l-.377-3.315h2.032l.526 3.315z"/>
    <path fill="#EFF2FA" d="M28.727 26.558h-2.182l.377-3.315h2.031l-.226 3.315zM37.455 26.558h-2.182l-.226-3.315h2.031l.377 3.315z"/>
    <path fill="#FF6464" d="M44 26.558h-2.182l-.677-3.315h2.031L44 26.558z"/>
    <path fill="#EFF2FA" d="M41.818 26.558h-2.182l-.526-3.315h2.031l.677 3.315zM24.364 26.558h-2.182l.677-3.315h2.031l-.526 3.315zM33.09 26.558H30.91l.075-3.315h2.032l.075 3.315z"/>
    <path fill="#C7CFE2" d="M43.586 42.302H20.414c-.229 0-.414-.186-.414-.415 0-.229.185-.414.414-.414h23.172c.229 0 .414.185.414.414 0 .229-.185.415-.414.415z"/>
    <path fill="#AFB9D2" d="M20.828 40.644H43.173V41.473H20.828z" opacity=".97"/>
    <path fill="#AA6455" d="M20.828 38.987H43.173V40.644000000000005H20.828z"/>
    <path fill="#5B5D6E" fill-rule="evenodd" d="M22.896 29.872h11.587c.228 0 .414.185.414.414v7.458c0 .229-.186.414-.414.414H22.897c-.229 0-.414-.185-.414-.414v-7.458c0-.229.185-.414.413-.414zM34.07 37.33V30.7H23.31v6.63H34.07z" clip-rule="evenodd"/>
    <path fill="#5B5D6E" d="M41.103 29.872h-4.138c-.228 0-.413.185-.413.414v10.358h4.965V30.286c0-.229-.185-.414-.414-.414z"/>
    <path fill="#B4E1FA" d="M37.379 30.701H40.689V37.33H37.379z"/>
    <path fill="#A0D2F0" d="M23.31 30.701H34.069V31.53H23.31zM37.379 30.701H40.689V31.53H37.379z"/>
    <path fill="#A0D2F0" d="M30.759 37.33h-1.655l-4.966-6.63h1.655l4.966 6.63z"/>
    <path fill="#B4E1FA" d="M28.069 31.53l-.62-.83h-.828l.62.83h.828z"/>
    <path fill="#DAF0FD" d="M40.69 34.015l-2.483-3.314h-.828l3.31 4.42v-1.106z"/>
    <path fill="#B4E1FA" d="M38.828 31.53l-.621-.83h-.828l.621.83h.828z"/>
    <path fill="#A0D2F0" d="M37.379 30.701H40.689V31.53H37.379z"/>
    <path fill="#DAF0FD" d="M40.69 34.015l-2.483-3.314h-.828l3.31 4.42v-1.106z"/>
    <path fill="#A0D2F0" d="M37.38 31.805v2.21l2.482 3.315h.828v-1.105l-3.31-4.42z"/>
</svg>