<svg width="18" height="18" viewBox="0 0 18 18" fill="none" xmlns="http://www.w3.org/2000/svg">
<path fill-rule="evenodd" clip-rule="evenodd" d="M5.39982 14.3995C4.40986 14.3995 3.60888 15.2095 3.60888 16.1995C3.60888 17.1894 4.40986 17.9994 5.39982 17.9994C6.38979 17.9994 7.19976 17.1894 7.19976 16.1995C7.19976 15.2095 6.38979 14.3995 5.39982 14.3995ZM0 0V1.79994H1.79994L5.03983 8.6307L3.82487 10.8356C3.68087 11.0876 3.59988 11.3846 3.59988 11.6996C3.59988 12.6896 4.40985 13.4995 5.39981 13.4995H16.1994V11.6996H5.7778C5.65181 11.6996 5.55281 11.6006 5.55281 11.4746L5.57981 11.3666L6.38978 9.89966H13.0946C13.7695 9.89966 14.3635 9.53067 14.6695 8.97269L17.8914 3.13189C18.0424 2.8525 18.0355 2.51427 17.8732 2.24127C17.7109 1.96827 17.417 1.80067 17.0994 1.79994H3.78887L2.9429 0H0ZM14.3995 14.3995C13.4095 14.3995 12.6086 15.2095 12.6086 16.1995C12.6086 17.1894 13.4095 17.9994 14.3995 17.9994C15.3895 17.9994 16.1995 17.1894 16.1995 16.1995C16.1995 15.2095 15.3895 14.3995 14.3995 14.3995Z" fill="#212C3D"/>
</svg>