<svg xmlns="http://www.w3.org/2000/svg" width="48" height="48" fill="none" viewBox="0 0 48 48">
    <path fill="#62A9DC" fill-rule="evenodd" d="M24 48c13.255 0 24-10.745 24-24S37.255 0 24 0 0 10.745 0 24s10.745 24 24 24z" clip-rule="evenodd"/>
    <g clip-path="url(#clip0)">
        <path fill="#fff" d="M27.65 28.45v7.549H24.4v-7.1c0-.22-.178-.4-.399-.4-.22 0-.4.18-.4.4V36h-3.25v-7.55c0-.661.539-1.2 1.2-1.2h4.9c.661 0 1.2.539 1.2 1.2zm6.6-3.774c-1.387.568-3.006.338-4.189-.66-.151-.128-.37-.128-.521 0-1.523 1.286-3.754 1.286-5.277 0-.152-.127-.372-.127-.524 0-1.524 1.287-3.756 1.285-5.278 0-.151-.129-.37-.128-.521 0-1.184.998-2.803 1.228-4.188.66-.262-.108-.55.086-.55.37V34c0 1.104.895 2 2 2h4.35v-7.55c0-1.102.896-2 2-2h4.899c1.102 0 2 .898 2 2V36h4.35c1.104 0 2-.896 2-2v-8.953c0-.284-.288-.477-.551-.37zM15.002 18.8c-.23 0-.415-.194-.4-.427.014-.212.2-.373.413-.373h20.238c.288 0 .482-.295.367-.559l-2.253-5.2c-.063-.146-.207-.24-.367-.24H15.002c-.16 0-.304.094-.367.24l-2.6 6c-.047.106-.033-.055-.033 2.64.003 1.82 1.483 3.3 3.3 3.3 1.134 0 2.137-.578 2.731-1.454.081-.12.254-.12.334 0 1.314 1.939 4.155 1.935 5.467.001.08-.119.253-.119.334 0 1.313 1.935 4.152 1.936 5.466 0 .08-.117.251-.121.33-.004.602.889 1.624 1.47 2.779 1.456C34.557 24.157 36 22.644 36 20.83V19.2c0-.221-.18-.4-.4-.4H15.002z"/>
    </g>
    <defs>
        <clipPath id="clip0">
            <path fill="#fff" d="M0 0H24V24H0z" transform="translate(12 12)"/>
        </clipPath>
    </defs>
</svg>
