
<svg xmlns="http://www.w3.org/2000/svg" width="184" height="184" fill="none" viewBox="0 0 184 184">
    <path fill="#F2F5FA" fill-rule="evenodd" d="M92 184c50.81 0 92-41.19 92-92S142.81 0 92 0 0 41.19 0 92s41.19 92 92 92z" clip-rule="evenodd"/>
    <path fill="#EA9F26" d="M49.467 73.533l7.333 35.2h55.733l7.334-35.2h-70.4z"/>
    <path fill="#2D85CC" d="M68.533 82.333l22 17.6v8.8H67.067l-2.934-26.4h4.4z"/>
    <path fill="#EB423F" d="M56.8 108.733h16.133l-.841-10.098-6.492 1.298-8.8 8.8z"/>
    <path fill="#FFD33A" d="M53.867 73.533h14.666l-4.4-8.8h-5.866l-4.4 8.8zM53.867 73.533v17.6h10.266v-8.8h4.4v-8.8H53.867z"/>
    <path fill="#248256" d="M53.867 91.133v-1.466l10.266-7.334 1.467 8.8h5.867l1.466 17.6H56.8l-3.667-17.6h.734z"/>
    <path fill="#EA9F26" d="M62.667 58.867h-2.934c-1.62 0-2.933 1.313-2.933 2.933v2.933h8.8V61.8c0-1.62-1.313-2.933-2.933-2.933z"/>
    <path fill="#996046" d="M97.867 99.933v8.8h14.666l1.834-8.8h-16.5z"/>
    <path fill="#35A872" d="M92 69.133v13.2h26.4l2.758-14.514-.101-.152c-.899-1.352-2.416-2.162-4.04-2.157-.324 0-.648.032-.966.095l.002-.095c0-3.67-3.02-6.643-6.746-6.643-2.833-.012-5.37 1.747-6.353 4.404-1.054-1.92-3.268-2.89-5.394-2.365-2.127.525-3.634 2.414-3.674 4.604 0 1.08.373 2.126 1.056 2.963-.347-.077-.701-.116-1.056-.116L92 69.133z"/>
    <path fill="#C48669" d="M94.933 53H71.467v20.533h23.466V53z"/>
    <path fill="#D49073" d="M94.933 53h-17.6v20.533h17.6V53z"/>
    <path fill="#996046" d="M83.2 60.333h5.867c.81 0 1.466-.656 1.466-1.466 0-.81-.656-1.467-1.466-1.467H83.2c-.81 0-1.467.657-1.467 1.467s.657 1.466 1.467 1.466z"/>
    <path fill="#248256" d="M92 82.333h7.333l-1.466 8.8h7.333l7.333 8.8h1.834l5.5-26.4H92v8.8z"/>
    <path fill="#D0D2D4" d="M53.867 121.933h58.666c3.239-.003 5.863-2.628 5.867-5.866v-2.934c-.004-3.238-2.628-5.863-5.867-5.866h-1.466c-.81 0-1.467.656-1.467 1.466 0 .81.657 1.467 1.467 1.467h1.466c1.619.002 2.932 1.314 2.934 2.933v2.934c-.002 1.619-1.315 2.931-2.934 2.933H53.867c-.81 0-1.467.657-1.467 1.467s.657 1.466 1.467 1.466z"/>
    <path fill="#7E8589" d="M106.667 130.733c-3.24 0-5.867-2.626-5.867-5.866 0-3.24 2.627-5.867 5.867-5.867s5.866 2.627 5.866 5.867-2.626 5.866-5.866 5.866zM65.6 130.733c-3.24 0-5.867-2.626-5.867-5.866 0-3.24 2.627-5.867 5.867-5.867s5.867 2.627 5.867 5.867-2.627 5.866-5.867 5.866z"/>
    <path fill="#414649" d="M106.667 126.333c-.81 0-1.467-.656-1.467-1.466 0-.81.657-1.467 1.467-1.467s1.466.657 1.466 1.467-.656 1.466-1.466 1.466zM65.6 126.333c-.81 0-1.467-.656-1.467-1.466 0-.81.657-1.467 1.467-1.467s1.467.657 1.467 1.467-.657 1.466-1.467 1.466z"/>
    <path fill="#EB423F" d="M84.667 91.133l2.933-8.8H92v-8.8H68.533v8.8l10.267 8.8h5.867z"/>
    <path fill="#D0D2D4" fill-rule="evenodd" d="M48.329 72.608c.278-.343.696-.541 1.138-.541h70.187l3.185-13.536c.156-.663.747-1.131 1.428-1.131h10.266c.81 0 1.467.657 1.467 1.467s-.657 1.466-1.467 1.466h-9.105l-11.467 48.736c-.156.663-.747 1.131-1.428 1.131H56.8c-.695 0-1.294-.487-1.436-1.167l-7.333-35.2c-.09-.433.02-.882.298-1.225zM75.927 75H64.328l.734 5.867h11.11L75.927 75zm17.235 5.867L93.407 75h11.599l-.733 5.867h-11.11zM118.964 75h-11.003l-.733 5.867h10.355L118.964 75zm-12.103 8.8h10.032l-1.38 5.867h-9.385l.733-5.867zm7.961 8.8h-9.061l-.733 5.867h8.415l1.379-5.867zm-2.07 8.8l-1.381 5.867h-7.443l.733-5.867h8.091zm-8.847-17.6H93.04l-.245 5.867h10.377l.733-5.867zm-11.232 8.8h10.132l-.733 5.867h-9.643l.244-5.867zm8.299 14.667l.733-5.867h-9.398l-.245 5.867h8.91zm-11.845 0h-8.92l-.244-5.867h9.408l-.244 5.867zm-9.287-8.8h9.653l.245-5.867H79.596l.244 5.867zm10.02-8.8H79.473L79.23 83.8h10.875l-.244 5.867zm-10.754-8.8h11.12L90.472 75H78.862l.245 5.867zm-1.835 26.4h-8.91l-.733-5.867h9.399l.244 5.867zm-10.01-8.8h9.644L76.66 92.6H66.528l.733 5.867zm9.277-8.8H66.16l-.733-5.867h10.865l.245 5.867zm-18.546 17.6h7.413l-.733-5.867H56.77l1.222 5.867zm6.313-8.8h-8.147L54.937 92.6h8.635l.733 5.867zm-9.98-8.8h8.88l-.733-5.867h-9.368l1.221 5.867zm7.78-8.8h-9.613L51.27 75h10.102l.733 5.867z" clip-rule="evenodd"/>
</svg>
