<svg xmlns="http://www.w3.org/2000/svg" width="16" height="16" fill="none" viewBox="0 0 16 16">
    <path fill="#D8D8D8" d="M0 0H16V16H0z" opacity=".01"/>
    <path fill="#212C3D" d="M8.063 5.455L6.305 3.11c-.11-.148-.358-.148-.469 0L4.078 5.455c-.144.192-.007.468.235.468h.878v5.567c0 .162.132.293.293.293h1.172c.162 0 .29-.131.29-.293V5.923h.882c.242 0 .379-.276.235-.468zM11.344 10.07h-.883V4.504c0-.162-.127-.293-.289-.293H9c-.162 0-.293.131-.293.293v5.566h-.879c-.241 0-.379.277-.234.469l1.758 2.344c.117.156.352.156.468 0l1.758-2.344c.145-.192.007-.469-.234-.469z"/>
</svg>