<svg xmlns="http://www.w3.org/2000/svg" width="32" height="32" fill="none" viewBox="0 0 32 32">
    <path fill="#A7D9FF" fill-rule="evenodd" d="M16 32c8.837 0 16-7.163 16-16S24.837 0 16 0 0 7.163 0 16s7.163 16 16 16z" clip-rule="evenodd" opacity=".2"/>
    <g clip-path="url(#clip0)">
        <path fill="#62A9DC" d="M18.434 18.966V24h-2.167v-4.733c0-.147-.12-.266-.266-.266-.148 0-.267.119-.267.266V24h-2.166v-5.033c0-.44.358-.8.8-.8h3.266c.44 0 .8.36.8.8zm4.4-2.515c-.925.378-2.005.225-2.793-.44-.101-.085-.247-.085-.348 0-1.015.857-2.502.857-3.518 0-.101-.085-.248-.085-.349 0-1.016.858-2.504.857-3.519 0-.1-.086-.246-.086-.347 0-.79.665-1.869.819-2.792.44-.175-.072-.367.057-.367.247v5.968c0 .736.597 1.333 1.333 1.333h2.9v-5.033c0-.735.598-1.333 1.333-1.333h3.267c.735 0 1.333.598 1.333 1.333V24h2.9c.736 0 1.333-.597 1.333-1.333v-5.968c0-.19-.192-.319-.367-.247zM10 12.533c-.153 0-.276-.129-.266-.284.01-.142.133-.249.275-.249h13.492c.192 0 .321-.196.245-.373l-1.502-3.466c-.043-.098-.139-.16-.245-.16H10.001c-.106 0-.202.062-.245.16l-1.733 4c-.03.07-.022-.037-.022 1.76.002 1.213.99 2.2 2.2 2.2.756 0 1.425-.385 1.821-.97.054-.079.17-.079.223 0 .876 1.293 2.77 1.29 3.644.001.054-.079.17-.079.223 0 .875 1.29 2.768 1.29 3.644 0 .053-.078.168-.08.22-.002.401.592 1.083.98 1.853.97C23.038 16.105 24 15.096 24 13.887V12.8c0-.147-.12-.267-.267-.267H10.001z"/>
    </g>
    <defs>
        <clipPath id="clip0">
            <path fill="#fff" d="M0 0H16V16H0z" transform="translate(8 8)"/>
        </clipPath>
    </defs>
</svg>