
<svg xmlns="http://www.w3.org/2000/svg" width="24" height="24" fill="none" viewBox="0 0 24 24">
    <path fill="#000" d="M0 0H24V24H0z" opacity=".01"/>
    <path fill="#E02020" fill-rule="evenodd" d="M15 7.5h3.75c.414 0 .75.337.75.75 0 .415-.336.75-.75.75H18v8.25c0 1.243-1.007 2.25-2.25 2.25h-7.5C7.007 19.5 6 18.493 6 17.25V9h-.75c-.414 0-.75-.335-.75-.75 0-.413.336-.75.75-.75H9V6.249c.037-1 .875-1.78 1.875-1.747h2.25c1-.034 1.838.748 1.875 1.747v1.253zm-5.25 8.25c.414 0 .75-.335.75-.75v-3c0-.414-.336-.75-.75-.75S9 11.587 9 12v3c0 .415.336.75.75.75zm.75-9.502c0-.12.158-.247.375-.247h2.25c.217 0 .375.127.375.247v1.253h-3V6.248zm3.75 9.502c.414 0 .75-.335.75-.75v-3c0-.414-.336-.75-.75-.75s-.75.336-.75.75v3c0 .415.336.75.75.75z" clip-rule="evenodd"/>
</svg>
