<svg xmlns="http://www.w3.org/2000/svg" width="32" height="32" fill="none" viewBox="0 0 32 32">
    <path fill="#F4F4F4" fill-rule="evenodd" d="M16 32c8.837 0 16-7.163 16-16S24.837 0 16 0 0 7.163 0 16s7.163 16 16 16z" clip-rule="evenodd" opacity=".01"/>
    <path fill="#067BC2" d="M20.333 9.954h-8.666C9.643 9.957 8.002 11.597 8 13.621v.667c0 .184.15.333.333.333h15.334c.184 0 .333-.15.333-.333v-.667c-.002-2.024-1.642-3.664-3.667-3.667z"/>
    <path fill="#A7D9FF" d="M21.632 12.138L20.22 9.316c-.576-1.153-1.978-1.62-3.13-1.044l-.063.032-6.851 3.69c-.162.087-.223.29-.135.451.058.108.17.175.293.175h11c.184 0 .333-.149.333-.333 0-.052-.012-.103-.035-.15v.001z"/>
    <path fill="#579FD7" d="M10.333 11.954h11.334C22.955 11.954 24 13 24 14.288v6.666c0 1.289-1.045 2.334-2.333 2.334H10.333C9.045 23.288 8 22.243 8 20.954v-6.666c0-1.289 1.045-2.334 2.333-2.334z"/>
    <path fill="#A7D9FF" d="M23.667 15.288H21c-1.289 0-2.333 1.046-2.332 2.334 0 1.288 1.044 2.332 2.332 2.332h2.667c.184 0 .333-.149.333-.333v-4c0-.184-.15-.333-.333-.333z"/>
    <path fill="#579FD7" d="M21 18.62c.552 0 1-.447 1-1 0-.551-.448-1-1-1s-1 .449-1 1c0 .553.448 1 1 1z"/>
</svg>
