<svg xmlns="http://www.w3.org/2000/svg" width="360" height="720" viewBox="0 0 360 720">
    <g opacity=".092">
        <g fill="#579FD7" opacity=".29">
            <path d="M363.027 719.846L353.156 719.846 351.601 715.741 351.481 715.407 332.978 664.55 332.143 662.226 329.667 655.434 324.68 669.063 323.883 671.247 319.098 684.353 319.119 684.353 306.897 717.95 306.198 719.846 293.894 719.846 292.339 715.741 292.219 715.407 273.716 664.55 272.881 662.226 270.405 655.434 265.418 669.063 264.621 671.247 259.819 684.353 259.857 684.353 247.635 717.95 246.919 719.846 234.632 719.846 233.081 715.741 232.957 715.407 214.458 664.55 213.597 662.226 211.147 655.434 206.156 669.063 205.359 671.247 200.556 684.353 200.578 684.353 188.372 717.95 187.657 719.846 175.353 719.846 173.798 715.741 173.695 715.407 155.175 664.55 154.335 662.226 151.885 655.434 146.898 669.063 146.876 669.063 146.097 671.247 141.294 684.353 141.316 684.353 129.093 717.95 128.395 719.846 116.091 719.846 114.536 715.741 114.416 715.407 95.913 664.55 95.077 662.226 92.601 655.434 87.614 669.063 86.818 671.247 82.015 684.353 82.054 684.353 69.831 717.95 69.137 719.846 56.829 719.846 55.274 715.741 55.154 715.407 36.651 664.55 35.794 662.226 33.339 655.434 28.352 669.063 27.555 671.247 22.753 684.353 22.791 684.353 10.569 717.95 9.853 719.846 0 719.846 28.845 641.024 37.837 641.024 62.981 709.685 88.124 641.024 97.099 641.024 122.243 709.685 147.386 641.024 156.362 641.024 181.505 709.685 206.648 641.024 215.641 641.024 240.784 709.71 265.911 641.024 274.903 641.024 300.046 709.685 325.19 641.024 334.165 641.024zM363.027 628.276L353.156 628.276 351.601 624.166 351.481 623.832 332.978 572.98 332.143 570.651 329.667 563.859 324.68 577.488 323.883 579.672 319.098 592.778 319.119 592.778 306.897 626.375 306.198 628.276 293.894 628.276 292.339 624.166 292.219 623.832 273.716 572.98 272.881 570.651 270.405 563.859 265.418 577.488 264.621 579.672 259.819 592.778 259.857 592.778 247.635 626.375 246.919 628.276 234.632 628.276 233.081 624.166 232.957 623.832 214.458 572.98 213.597 570.651 211.147 563.859 206.156 577.488 205.359 579.672 200.556 592.778 200.578 592.778 188.372 626.375 187.657 628.276 175.353 628.276 173.798 624.166 173.695 623.832 155.175 572.98 154.335 570.651 151.885 563.859 146.898 577.488 146.876 577.488 146.097 579.672 141.294 592.778 141.316 592.778 129.093 626.375 128.395 628.276 116.091 628.276 114.536 624.166 114.416 623.832 95.913 572.98 95.077 570.651 92.601 563.859 87.614 577.488 86.818 579.672 82.015 592.778 82.054 592.778 69.831 626.375 69.137 628.276 56.829 628.276 55.274 624.166 55.154 623.832 36.651 572.98 35.794 570.651 33.339 563.859 28.352 577.488 27.555 579.672 22.753 592.778 22.791 592.778 10.569 626.375 9.853 628.276 0 628.276 28.845 549.449 37.837 549.449 62.981 618.11 88.124 549.449 97.099 549.449 122.243 618.11 147.386 549.449 156.362 549.449 181.505 618.11 206.648 549.449 215.641 549.449 240.784 618.135 265.911 549.449 274.903 549.449 300.046 618.11 325.19 549.449 334.165 549.449zM363.027 536.701L353.156 536.701 351.601 532.591 351.481 532.258 332.978 481.405 332.143 479.076 329.667 472.284 324.68 485.913 323.883 488.097 319.098 501.204 319.119 501.204 306.897 534.8 306.198 536.701 293.894 536.701 292.339 532.591 292.219 532.258 273.716 481.405 272.881 479.076 270.405 472.284 265.418 485.913 264.621 488.097 259.819 501.204 259.857 501.204 247.635 534.8 246.919 536.701 234.632 536.701 233.081 532.591 232.957 532.258 214.458 481.405 213.597 479.076 211.147 472.284 206.156 485.913 205.359 488.097 200.556 501.204 200.578 501.204 188.372 534.8 187.657 536.701 175.353 536.701 173.798 532.591 173.695 532.258 155.175 481.405 154.335 479.076 151.885 472.284 146.898 485.913 146.876 485.913 146.097 488.097 141.294 501.204 141.316 501.204 129.093 534.8 128.395 536.701 116.091 536.701 114.536 532.591 114.416 532.258 95.913 481.405 95.077 479.076 92.601 472.284 87.614 485.913 86.818 488.097 82.015 501.204 82.054 501.204 69.831 534.8 69.137 536.701 56.829 536.701 55.274 532.591 55.154 532.258 36.651 481.405 35.794 479.076 33.339 472.284 28.352 485.913 27.555 488.097 22.753 501.204 22.791 501.204 10.569 534.8 9.853 536.701 0 536.701 28.845 457.874 37.837 457.874 62.981 526.535 88.124 457.874 97.099 457.874 122.243 526.535 147.386 457.874 156.362 457.874 181.505 526.535 206.648 457.874 215.641 457.874 240.784 526.56 265.911 457.874 274.903 457.874 300.046 526.535 325.19 457.874 334.165 457.874zM363.027 445.126L353.156 445.126 351.601 441.016 351.481 440.683 332.978 389.83 332.143 387.501 329.667 380.709 324.68 394.338 323.883 396.522 319.098 409.629 319.119 409.629 306.897 443.225 306.198 445.126 293.894 445.126 292.339 441.016 292.219 440.683 273.716 389.83 272.881 387.501 270.405 380.709 265.418 394.338 264.621 396.522 259.819 409.629 259.857 409.629 247.635 443.225 246.919 445.126 234.632 445.126 233.081 441.016 232.957 440.683 214.458 389.83 213.597 387.501 211.147 380.709 206.156 394.338 205.359 396.522 200.556 409.629 200.578 409.629 188.372 443.225 187.657 445.126 175.353 445.126 173.798 441.016 173.695 440.683 155.175 389.83 154.335 387.501 151.885 380.709 146.898 394.338 146.876 394.338 146.097 396.522 141.294 409.629 141.316 409.629 129.093 443.225 128.395 445.126 116.091 445.126 114.536 441.016 114.416 440.683 95.913 389.83 95.077 387.501 92.601 380.709 87.614 394.338 86.818 396.522 82.015 409.629 82.054 409.629 69.831 443.225 69.137 445.126 56.829 445.126 55.274 441.016 55.154 440.683 36.651 389.83 35.794 387.501 33.339 380.709 28.352 394.338 27.555 396.522 22.753 409.629 22.791 409.629 10.569 443.225 9.853 445.126 0 445.126 28.845 366.299 37.837 366.299 62.981 434.961 88.124 366.299 97.099 366.299 122.243 434.961 147.386 366.299 156.362 366.299 181.505 434.961 206.648 366.299 215.641 366.299 240.784 434.985 265.911 366.299 274.903 366.299 300.046 434.961 325.19 366.299 334.165 366.299zM363.027 353.551L353.156 353.551 351.601 349.441 351.481 349.108 332.978 298.255 332.143 295.926 329.667 289.134 324.68 302.763 323.883 304.948 319.098 318.054 319.119 318.054 306.897 351.651 306.198 353.551 293.894 353.551 292.339 349.441 292.219 349.108 273.716 298.255 272.881 295.926 270.405 289.134 265.418 302.763 264.621 304.948 259.819 318.054 259.857 318.054 247.635 351.651 246.919 353.551 234.632 353.551 233.081 349.441 232.957 349.108 214.458 298.255 213.597 295.926 211.147 289.134 206.156 302.763 205.359 304.948 200.556 318.054 200.578 318.054 188.372 351.651 187.657 353.551 175.353 353.551 173.798 349.441 173.695 349.108 155.175 298.255 154.335 295.926 151.885 289.134 146.898 302.763 146.876 302.763 146.097 304.948 141.294 318.054 141.316 318.054 129.093 351.651 128.395 353.551 116.091 353.551 114.536 349.441 114.416 349.108 95.913 298.255 95.077 295.926 92.601 289.134 87.614 302.763 86.818 304.948 82.015 318.054 82.054 318.054 69.831 351.651 69.137 353.551 56.829 353.551 55.274 349.441 55.154 349.108 36.651 298.255 35.794 295.926 33.339 289.134 28.352 302.763 27.555 304.948 22.753 318.054 22.791 318.054 10.569 351.651 9.853 353.551 0 353.551 28.845 274.725 37.837 274.725 62.981 343.386 88.124 274.725 97.099 274.725 122.243 343.386 147.386 274.725 156.362 274.725 181.505 343.386 206.648 274.725 215.641 274.725 240.784 343.411 265.911 274.725 274.903 274.725 300.046 343.386 325.19 274.725 334.165 274.725zM363.027 261.977L353.156 261.977 351.601 257.866 351.481 257.533 332.978 206.68 332.143 204.352 329.667 197.56 324.68 211.188 323.883 213.373 319.098 226.479 319.119 226.479 306.897 260.076 306.198 261.977 293.894 261.977 292.339 257.866 292.219 257.533 273.716 206.68 272.881 204.352 270.405 197.56 265.418 211.188 264.621 213.373 259.819 226.479 259.857 226.479 247.635 260.076 246.919 261.977 234.632 261.977 233.081 257.866 232.957 257.533 214.458 206.68 213.597 204.352 211.147 197.56 206.156 211.188 205.359 213.373 200.556 226.479 200.578 226.479 188.372 260.076 187.657 261.977 175.353 261.977 173.798 257.866 173.695 257.533 155.175 206.68 154.335 204.352 151.885 197.56 146.898 211.188 146.876 211.188 146.097 213.373 141.294 226.479 141.316 226.479 129.093 260.076 128.395 261.977 116.091 261.977 114.536 257.866 114.416 257.533 95.913 206.68 95.077 204.352 92.601 197.56 87.614 211.188 86.818 213.373 82.015 226.479 82.054 226.479 69.831 260.076 69.137 261.977 56.829 261.977 55.274 257.866 55.154 257.533 36.651 206.68 35.794 204.352 33.339 197.56 28.352 211.188 27.555 213.373 22.753 226.479 22.791 226.479 10.569 260.076 9.853 261.977 0 261.977 28.845 183.15 37.837 183.15 62.981 251.811 88.124 183.15 97.099 183.15 122.243 251.811 147.386 183.15 156.362 183.15 181.505 251.811 206.648 183.15 215.641 183.15 240.784 251.836 265.911 183.15 274.903 183.15 300.046 251.811 325.19 183.15 334.165 183.15zM363.027 170.402L353.156 170.402 351.601 166.292 351.481 165.958 332.978 115.105 332.143 112.777 329.667 105.985 324.68 119.614 323.883 121.798 319.098 134.904 319.119 134.904 306.897 168.501 306.198 170.402 293.894 170.402 292.339 166.292 292.219 165.958 273.716 115.105 272.881 112.777 270.405 105.985 265.418 119.614 264.621 121.798 259.819 134.904 259.857 134.904 247.635 168.501 246.919 170.402 234.632 170.402 233.081 166.292 232.957 165.958 214.458 115.105 213.597 112.777 211.147 105.985 206.156 119.614 205.359 121.798 200.556 134.904 200.578 134.904 188.372 168.501 187.657 170.402 175.353 170.402 173.798 166.292 173.695 165.958 155.175 115.105 154.335 112.777 151.885 105.985 146.898 119.614 146.876 119.614 146.097 121.798 141.294 134.904 141.316 134.904 129.093 168.501 128.395 170.402 116.091 170.402 114.536 166.292 114.416 165.958 95.913 115.105 95.077 112.777 92.601 105.985 87.614 119.614 86.818 121.798 82.015 134.904 82.054 134.904 69.831 168.501 69.137 170.402 56.829 170.402 55.274 166.292 55.154 165.958 36.651 115.105 35.794 112.777 33.339 105.985 28.352 119.614 27.555 121.798 22.753 134.904 22.791 134.904 10.569 168.501 9.853 170.402 0 170.402 28.845 91.575 37.837 91.575 62.981 160.236 88.124 91.575 97.099 91.575 122.243 160.236 147.386 91.575 156.362 91.575 181.505 160.236 206.648 91.575 215.641 91.575 240.784 160.261 265.911 91.575 274.903 91.575 300.046 160.236 325.19 91.575 334.165 91.575zM363.027 78.827L353.156 78.827 351.601 74.717 351.481 74.383 332.978 23.531 332.143 21.202 329.667 14.41 324.68 28.039 323.883 30.223 319.098 43.329 319.119 43.329 306.897 76.926 306.198 78.827 293.894 78.827 292.339 74.717 292.219 74.383 273.716 23.531 272.881 21.202 270.405 14.41 265.418 28.039 264.621 30.223 259.819 43.329 259.857 43.329 247.635 76.926 246.919 78.827 234.632 78.827 233.081 74.717 232.957 74.383 214.458 23.531 213.597 21.202 211.147 14.41 206.156 28.039 205.359 30.223 200.556 43.329 200.578 43.329 188.372 76.926 187.657 78.827 175.353 78.827 173.798 74.717 173.695 74.383 155.175 23.531 154.335 21.202 151.885 14.41 146.898 28.039 146.876 28.039 146.097 30.223 141.294 43.329 141.316 43.329 129.093 76.926 128.395 78.827 116.091 78.827 114.536 74.717 114.416 74.383 95.913 23.531 95.077 21.202 92.601 14.41 87.614 28.039 86.818 30.223 82.015 43.329 82.054 43.329 69.831 76.926 69.137 78.827 56.829 78.827 55.274 74.717 55.154 74.383 36.651 23.531 35.794 21.202 33.339 14.41 28.352 28.039 27.555 30.223 22.753 43.329 22.791 43.329 10.569 76.926 9.853 78.827 0 78.827 28.845 0 37.837 0 62.981 68.661 88.124 0 97.099 0 122.243 68.661 147.386 0 156.362 0 181.505 68.661 206.648 0 215.641 0 240.784 68.686 265.911 0 274.903 0 300.046 68.661 325.19 0 334.165 0z" transform="translate(-2)"/>
        </g>
    </g>
</svg>
