<svg xmlns="http://www.w3.org/2000/svg" width="32" height="32" fill="none" viewBox="0 0 32 32">
    <path fill="#F4F4F4" fill-rule="evenodd" d="M16 32c8.837 0 16-7.163 16-16S24.837 0 16 0 0 7.163 0 16s7.163 16 16 16z" clip-rule="evenodd" opacity=".01"/>
    <path fill="#579FD7" d="M15.997 25.28c5.127 0 9.282-4.157 9.282-9.283 0-5.127-4.155-9.283-9.282-9.283s-9.283 4.156-9.283 9.283 4.156 9.282 9.283 9.282z"/>
    <path fill="#A7D9FF" d="M20.043 15.283h-3.332V11.95c0-.405-.31-.715-.714-.715-.405 0-.714.31-.714.714v3.333H11.95c-.405 0-.714.31-.714.714 0 .404.309.714.714.714h3.332v3.332c0 .405.31.714.714.714.404 0 .714-.31.714-.714v-3.332h3.332c.405 0 .714-.31.714-.714 0-.405-.31-.714-.714-.714z"/>
</svg>
