<svg xmlns="http://www.w3.org/2000/svg" width="32" height="32" fill="none" viewBox="0 0 32 32">
    <path fill="#D8D8D8" d="M0 0H32V32H0z" opacity=".01"/>
    <path fill="#A7D9FF" d="M12.762 10.999c-.988 0-1.789.801-1.789 1.79 0 .988.801 1.789 1.79 1.789.988 0 1.789-.802 1.789-1.79v-.026c0-.974-.79-1.763-1.763-1.763h-.027zm-4-2.237c.198-.19.463-.295.737-.29l6.579-.183c.433-.002.85.168 1.157.473l8.29 8.289c.617.595.635 1.578.04 2.195l-.04.042-6.237 6.236c-.595.617-1.578.636-2.195.041l-.042-.041-8.288-8.289c-.306-.308-.476-.724-.474-1.158L8.473 9.5c-.006-.274.099-.54.29-.737z"/>
    <path fill="#579FD7" d="M11.5 12.026c-.14-.002-.272-.059-.369-.158L6.105 6.842c-.174-.233-.127-.562.106-.737.187-.14.444-.14.631 0l5.026 5.026c.203.187.217.503.03.706l-.03.03c-.097.1-.23.157-.369.159zM23.024 17.867l-5.157 5.157-4.447-4.473 5.131-5.131 4.473 4.447z"/>
</svg>
