<svg xmlns="http://www.w3.org/2000/svg" width="40" height="42" viewBox="0 0 40 42">
    <g fill="none">
        <path fill="#6FE3FF" d="M39.04 38.14c.447.719.469 1.622.058 2.361-.41.74-1.19 1.199-2.035 1.199H22.399c-1.287 0-2.331-1.043-2.332-2.33 0-.436.124-.862.355-1.23l1.177-2.044L27.755 25.4c.425-.683 1.172-1.097 1.976-1.097s1.552.414 1.977 1.097l1.106 1.922 6.226 10.82z"/>
        <path fill="#CC7350" d="M32.833 4.61v22.7l-.019.01-1.106-1.921c-.456-.738-1.286-1.16-2.15-1.09l-.006-.063V1.79c0-.378-.119-.746-.341-1.052l1.372.55c1.36.543 2.25 1.86 2.25 3.323z"/>
        <path fill="#E48E66" d="M29.552 24.246l.005.062c-.742.052-1.413.458-1.802 1.09l-6.156 10.698-.01-.005H1.813c-.377 0-.745-.119-1.05-.341v-.001c-.465-.337-.74-.875-.739-1.448V1.79C.024.8.824 0 1.814 0h25.948c.989 0 1.79.801 1.79 1.79v22.456zM23.537 9.842V5.325H6.04v4.517h17.498zm-.547 5.983c0-.85-.689-1.538-1.538-1.538-.85 0-1.538.689-1.538 1.539s.69 1.537 1.539 1.537c.408 0 .8-.162 1.088-.45.288-.289.45-.68.45-1.088zm0 6.152c0-.85-.688-1.539-1.537-1.54-.85 0-1.539.69-1.539 1.54 0 .849.69 1.538 1.539 1.537.849 0 1.537-.688 1.537-1.537zm0 6.357c0-.85-.688-1.539-1.537-1.539-.85 0-1.539.689-1.539 1.538 0 .85.69 1.538 1.539 1.538s1.537-.688 1.537-1.537zm-6.664-12.51c0-.849-.689-1.537-1.538-1.537-.85 0-1.538.689-1.538 1.538 0 .85.688 1.538 1.538 1.538.85 0 1.538-.689 1.538-1.538zm0 6.153c0-.85-.688-1.539-1.537-1.54-.85 0-1.539.69-1.539 1.538 0 .85.688 1.539 1.538 1.54.849-.001 1.538-.689 1.538-1.538zm0 6.357c0-.85-.688-1.539-1.537-1.539-.85 0-1.539.688-1.539 1.537 0 .85.688 1.539 1.538 1.54.849-.001 1.538-.69 1.538-1.538zm-6.664-12.51c0-.849-.689-1.537-1.538-1.537-.85 0-1.538.689-1.538 1.538 0 .85.688 1.538 1.537 1.538.85 0 1.54-.689 1.539-1.538zm0 6.153c0-.85-.688-1.539-1.538-1.54-.849 0-1.538.69-1.538 1.538 0 .85.688 1.539 1.537 1.54.85-.001 1.538-.689 1.539-1.538zm0 6.357c0-.85-.688-1.539-1.538-1.539-.849 0-1.538.688-1.538 1.537 0 .85.688 1.539 1.537 1.54.85-.001 1.538-.69 1.539-1.538z"/>
        <path fill="#F8EC7D" d="M23.537 5.325L23.537 9.842 6.039 9.842 6.039 5.325zM21.453 14.287c.85 0 1.538.689 1.537 1.539 0 .85-.689 1.537-1.538 1.537-.85 0-1.538-.69-1.538-1.538 0-.408.162-.8.45-1.088.29-.288.681-.45 1.089-.45zM21.453 20.438c.849 0 1.538.689 1.537 1.538 0 .85-.688 1.538-1.537 1.538-.85 0-1.538-.688-1.539-1.537 0-.85.689-1.54 1.539-1.54zM21.453 26.795c.849 0 1.538.689 1.537 1.538 0 .85-.688 1.538-1.537 1.538-.85 0-1.538-.688-1.539-1.537 0-.85.689-1.54 1.539-1.539z"/>
        <path fill="#CC7350" d="M21.599 36.096l-1.177 2.045c-.231.367-.355.793-.355 1.229l-.088.002H4.635c-1.464 0-2.78-.891-3.324-2.25L.763 35.75c.305.222.673.342 1.05.34H21.59l.01.006z"/>
        <g fill="#F8EC7D">
            <path d="M8.216.081c.85 0 1.538.688 1.539 1.538 0 .85-.69 1.538-1.538 1.538-.85 0-1.539-.689-1.538-1.538 0-.85.688-1.537 1.537-1.538zM8.216 6.232c.85 0 1.538.688 1.539 1.538 0 .85-.688 1.538-1.538 1.538-.85 0-1.538-.688-1.538-1.537 0-.85.688-1.538 1.537-1.539zM8.216 12.59c.85-.001 1.538.687 1.539 1.537 0 .849-.688 1.538-1.538 1.538-.85 0-1.538-.688-1.538-1.537 0-.85.688-1.538 1.537-1.539zM1.552.081c.85 0 1.539.688 1.539 1.538 0 .85-.689 1.538-1.539 1.538S.014 2.468.014 1.62C.014.769.703.082 1.552.08zM1.552 6.232c.85 0 1.538.688 1.539 1.538 0 .85-.689 1.538-1.538 1.538-.85 0-1.538-.688-1.539-1.537 0-.85.689-1.538 1.538-1.539zM1.552 12.59c.85-.001 1.538.687 1.539 1.537 0 .849-.689 1.538-1.538 1.538-.85 0-1.538-.688-1.539-1.537 0-.85.689-1.538 1.538-1.539zM9.859 20.106H6.574c-.32 0-.58-.26-.58-.58 0-.32.26-.58.58-.58H9.86c.32 0 .58.26.58.58 0 .32-.26.58-.58.58z" transform="translate(6.571 14.206)"/>
        </g>
        <path fill="#2561A1" d="M29.73 36.434c-.32 0-.58-.26-.58-.58v-6.29c0-.32.26-.58.58-.58.321 0 .58.26.58.58v6.29c0 .32-.259.58-.58.58zM29.73 39.11c-.32 0-.58-.259-.58-.58v-.596c0-.32.26-.58.58-.58.321 0 .58.26.58.58v.597c0 .32-.259.58-.58.58z"/>
        <path fill="#CC7350" d="M14.788 8.52c-.518 0-.938-.42-.938-.938s.42-.937.939-.937c.518 0 .937.42.937.938s-.42.938-.938.938zm0-1.159c-.123 0-.223.1-.223.222 0 .123.1.222.223.222.122 0 .222-.099.222-.222s-.1-.222-.222-.222zM18.01 8.52c-.518 0-.939-.419-.939-.937s.42-.938.938-.938.938.42.938.938-.42.937-.937.938zm0-1.159c-.09 0-.172.053-.207.136-.034.083-.015.18.048.243.064.064.16.083.242.049.084-.035.138-.116.138-.206 0-.122-.1-.221-.221-.222zM21.23 8.52c-.518 0-.938-.419-.938-.937s.42-.938.938-.938.938.42.938.938-.42.937-.937.938zm0-1.159c-.122 0-.222.1-.222.222 0 .123.1.222.223.222.122 0 .222-.099.222-.222s-.1-.222-.222-.222zM8.346 8.52c-.518 0-.938-.419-.939-.937 0-.518.42-.938.938-.938.519 0 .938.42.938.938s-.42.937-.937.938zm0-1.159c-.09 0-.172.053-.206.136-.035.083-.016.18.047.243.064.064.16.083.242.049.084-.035.138-.116.138-.206 0-.122-.099-.221-.221-.222zM11.567 8.52c-.518 0-.939-.419-.939-.937s.42-.938.938-.938.939.42.938.938c0 .518-.42.937-.937.938zm0-1.159c-.123 0-.223.1-.223.222 0 .123.1.222.223.222s.222-.099.222-.222-.1-.222-.222-.222z"/>
    </g>
</svg>
