<svg xmlns="http://www.w3.org/2000/svg" width="18" height="18" viewBox="0 0 18 18">
    <path fill="#579FD7" d="M9 0C4.03 0 0 4.03 0 9s4.03 9 9 9 9-4.03 9-9c0-2.387-.948-4.676-2.636-6.364C13.676.948 11.387 0 9 0zm0 14.4c-.497 0-.9-.403-.9-.9s.403-.9.9-.9.9.403.9.9-.403.9-.9.9zm.9-4.644V10.8c0 .497-.403.9-.9.9s-.9-.403-.9-.9V9c0-.497.403-.9.9-.9.746 0 1.35-.604 1.35-1.35 0-.746-.604-1.35-1.35-1.35-.746 0-1.35.604-1.35 1.35 0 .497-.403.9-.9.9s-.9-.403-.9-.9c-.007-1.624 1.222-2.986 2.838-3.147 1.615-.161 3.089.932 3.403 2.525.313 1.593-.635 3.164-2.191 3.628z"/>
</svg>
