<svg xmlns="http://www.w3.org/2000/svg" width="18" height="18" viewBox="0 0 18 18">
    <g fill="#579FD7">
        <path d="M13.937 9.434L16.046 9.434 16.046 14.484 13.937 14.484zM9.942 9.434L12.052 9.434 12.052 14.484 9.942 14.484zM5.948 9.434L8.058 9.434 8.058 14.484 5.948 14.484zM1.954 9.434L4.063 9.434 4.063 14.484 1.954 14.484zM16.75 7.852v-.527H1.25v.527c0 .291.237.527.528.527h14.444c.291 0 .527-.236.527-.527zM17.472 15.54H.528c-.291 0-.527.235-.527.526v1.407c0 .29.236.527.527.527h16.944c.292 0 .528-.236.528-.527v-1.407c0-.29-.236-.527-.528-.527zM.527 6.27h16.946c.236 0 .443-.157.507-.384s-.03-.469-.23-.593L9.275.078c-.169-.104-.383-.104-.552 0L.25 5.293c-.201.124-.295.366-.23.593.063.227.27.384.506.384zm8.115-3.168h.717c.29 0 .527.236.527.527 0 .291-.236.527-.527.527h-.717c-.292 0-.528-.236-.528-.527 0-.291.236-.527.528-.527z"/>
    </g>
</svg>
