<svg xmlns="http://www.w3.org/2000/svg" width="79" height="79" fill="none" viewBox="0 0 79 79">
    <g clip-path="url(#clip0)">
        <path fill="#2196F3" d="M16.458 16.458c4.536 0 8.23-3.693 8.23-8.229S20.993 0 16.457 0C11.922 0 8.23 3.693 8.23 8.23c0 4.535 3.693 8.228 8.23 8.228zM23.865 19.75H9.052C4.06 19.75 0 23.809 0 28.802v1.646c0 1.363 1.106 2.469 2.469 2.469h27.979c1.363 0 2.469-1.106 2.469-2.47v-1.645c0-4.993-4.059-9.052-9.052-9.052z"/>
        <path fill="#1D83D4" d="M16.458 0C11.922 0 8.23 3.693 8.23 8.23c0 4.535 3.693 8.228 8.23 8.228V0zM16.458 19.75H9.052C4.06 19.75 0 23.809 0 28.802v1.646c0 1.363 1.106 2.469 2.469 2.469h13.99V19.75z"/>
        <path fill="#4CAF50" d="M62.542 62.542c-4.536 0-8.23-3.694-8.23-8.23 0-4.535 3.694-8.229 8.23-8.229 4.536 0 8.229 3.694 8.229 8.23 0 4.535-3.693 8.229-8.23 8.229zM76.531 79H48.552c-1.362 0-2.468-1.106-2.468-2.469v-1.646c0-4.993 4.058-9.052 9.052-9.052h14.812c4.994 0 9.052 4.059 9.052 9.052v1.646C79 77.894 77.894 79 76.531 79z"/>
        <path fill="#429846" d="M62.542 46.083c-4.536 0-8.23 3.694-8.23 8.23 0 4.535 3.694 8.229 8.23 8.229V46.083zM62.542 65.833h-7.406c-4.994 0-9.053 4.059-9.053 9.052v1.646c0 1.363 1.107 2.469 2.47 2.469h13.989V65.833z"/>
        <path fill="#607D8B" d="M66.656 36.208c-1.363 0-2.469-1.106-2.469-2.468V18.927c0-2.268-1.846-4.114-4.114-4.114H35.385c-1.362 0-2.468-1.107-2.468-2.47 0-1.362 1.105-2.468 2.468-2.468h24.688c4.993 0 9.052 4.059 9.052 9.052V33.74c0 1.362-1.106 2.468-2.469 2.468z"/>
        <path fill="#607D8B" d="M66.656 36.208c-.632 0-1.264-.24-1.745-.724l-5.76-5.76c-.705-.705-.918-1.768-.537-2.69.382-.921 1.284-1.524 2.282-1.524h11.52c.998 0 1.9.603 2.282 1.524.381.922.17 1.985-.537 2.69l-5.76 5.76c-.481.484-1.113.724-1.745.724z"/>
        <path fill="#546D79" d="M66.643 36.208h0zm-.007 0h.007-.007zm-.01 0h.007-.007zm-.885-.174c.273.108.573.171.885.174-.3-.003-.602-.062-.885-.174zm-5.234-23.69h-27.59c0 1.363 1.105 2.469 2.468 2.469h24.688c2.268 0 4.114 1.846 4.114 4.114v6.583h2.47v-7.017c0-3.397-2.753-6.15-6.15-6.15z"/>
        <path fill="#546D79" d="M66.656 25.51h-5.76c-.998 0-1.9.603-2.281 1.524-.382.922-.172 1.985.536 2.69l5.76 5.76c.244.244.53.428.833.55.284.112.583.171.886.174H66.659V25.51h-.003z"/>
        <path fill="#607D8B" d="M37.031 69.125H18.927c-4.993 0-9.052-4.059-9.052-9.052V45.26c0-1.362 1.106-2.468 2.469-2.468 1.363 0 2.469 1.106 2.469 2.468v14.813c0 2.268 1.846 4.114 4.114 4.114h18.104c1.363 0 2.469 1.106 2.469 2.47 0 1.362-1.106 2.468-2.469 2.468z"/>
        <path fill="#607D8B" d="M18.104 53.49H6.584c-.998 0-1.9-.603-2.282-1.525-.382-.921-.171-1.984.537-2.689l5.76-5.76c.965-.965 2.528-.965 3.493 0l5.76 5.76c.704.705.918 1.768.537 2.69-.386.921-1.287 1.524-2.285 1.524z"/>
        <path fill="#546D79" d="M14.813 53.49h-2.47v6.682c0 3.581 2.904 6.484 6.485 6.484H39.5c0-1.363-1.106-2.469-2.469-2.469H18.927c-2.268 0-4.114-1.846-4.114-4.114v-6.584zm-.728-9.98l.007.006c-.004-.003-.007-.003-.007-.007zm-.007-.007l.004.003s-.004 0-.004-.003zm-.006-.004c.003 0 .003 0 0 0zm-.003-.006s0 .003 0 0zm-1.725-.701c.326 0 .655.066.96.194-.295-.125-.618-.194-.96-.194z"/>
        <path fill="#546D79" d="M12.344 42.792v10.697h5.76c.998 0 1.9-.602 2.281-1.523.382-.922.171-1.985-.536-2.69l-5.76-5.76-.007-.007-.004-.003-.003-.003-.003-.004-.003-.003-.004-.003-.003-.004c-.227-.22-.484-.388-.757-.503-.306-.128-.635-.194-.961-.194z"/>
    </g>
    <defs>
        <clipPath id="clip0">
            <path fill="#fff" d="M0 0H79V79H0z"/>
        </clipPath>
    </defs>
</svg>
