<svg xmlns="http://www.w3.org/2000/svg" width="18" height="18" viewBox="0 0 18 18">
    <g fill="none" transform="translate(-6 -7)">
        <g>
            <path fill="#579FD7" d="M17.847 13.757c-.05.665-.111 1.328-.185 1.992-.07.632-.582 1.124-1.217 1.175-4.963.4-9.927.4-14.89 0-.638-.051-1.147-.548-1.218-1.183-.453-4.07-.45-8.14.01-12.21.068-.598.533-1.076 1.13-1.164 2.282-.336 4.326-.344 6.288-.023.587.095 1.04.57 1.106 1.16l.025.23c.074.677.647 1.188 1.329 1.185 2.143-.01 4.287.054 6.43.193.67.044 1.203.58 1.244 1.25.15 2.465.133 4.93-.052 7.395z" transform="translate(6 7)"/>
            <path fill="#A7D9FF" d="M14.704 6.723V.529c0-.29-.236-.526-.526-.526h-3.536c-.29 0-.526.236-.526.526v6.194H8.613c-.469 0-.704.566-.372.898l3.358 3.359c.448.447 1.174.447 1.621 0l3.36-3.36c.33-.33.096-.897-.373-.897h-1.503z" transform="translate(6 7)"/>
        </g>
    </g>
</svg>
