<svg xmlns="http://www.w3.org/2000/svg" width="18" height="16" viewBox="0 0 18 16">
    <g fill="#579FD7">
        <circle cx="8.575" cy="7.718" r="1.286"/>
        <path d="M11.395 12.964l-1.106-1.149-.06-.06-1.088-1.089c-.173.03-.348.048-.523.052-.803.011-1.577-.3-2.15-.864-.571-.563-.893-1.333-.893-2.136.004-.176.021-.35.051-.523L3.912 5.481 2.575 4.178c-.968.911-1.796 1.96-2.46 3.111-.153.265-.153.592 0 .857.54.935 3.428 5.572 8.477 5.572h.214c.95-.028 1.887-.223 2.769-.574l-.18-.18zM5.652 2.37l2.4 2.4c.173-.031.348-.048.523-.052 1.657 0 3 1.343 3 3-.004.175-.021.35-.052.523l2.298 2.297.72.72c.98-.91 1.82-1.958 2.494-3.112.153-.265.153-.592 0-.857-.549-.951-3.566-5.725-8.692-5.571-.949.028-1.886.222-2.768.574l.077.077zM16.04 13.966l-1.114-1.105-1.714-1.715-8.16-8.168-1.26-1.26L2.326.252C2.11.035 1.792-.05 1.495.03 1.198.11.966.341.886.638c-.08.297.006.614.223.831l1.92 1.963 1.5 1.457 6.266 6.257.06.06 1.148 1.149.506.506 2.314 2.323c.161.162.38.253.609.253.229 0 .448-.091.609-.253.162-.161.253-.38.253-.609 0-.229-.091-.448-.253-.609z"/>
    </g>
</svg>
