<svg xmlns="http://www.w3.org/2000/svg" width="14" height="18" viewBox="0 0 14 18">
    <g fill="#579FD7">
        <path d="M8.965 1.055h-.99L7.85.703C7.701.283 7.301 0 6.855 0c-.446 0-.845.283-.994.703l-.125.352h-.99c-.582 0-1.055.472-1.055 1.054v.528c0 .291.237.527.528.527h5.273c.291 0 .528-.236.528-.527v-.528c0-.582-.473-1.054-1.055-1.054z"/>
        <path d="M12.129 2.11h-1.055v.527c0 .872-.71 1.582-1.582 1.582H4.22c-.873 0-1.582-.71-1.582-1.582v-.528H1.582C.71 2.11 0 2.82 0 3.691v12.657C0 17.22.71 18 1.582 18h10.547c.872 0 1.582-.78 1.582-1.652V3.69c0-.872-.71-1.582-1.582-1.582zM6.174 13.555l-2.11 2.11c-.103.103-.238.154-.373.154-.134 0-.27-.051-.372-.154L2.264 14.61c-.206-.206-.206-.54 0-.746.206-.206.54-.206.746 0l.681.682 1.737-1.736c.206-.206.54-.206.746 0 .206.206.206.54 0 .745zm0-3.691l-2.11 2.11c-.103.102-.238.154-.373.154-.134 0-.27-.052-.372-.155L2.264 10.92c-.206-.206-.206-.54 0-.746.206-.206.54-.206.746 0l.681.682 1.737-1.737c.206-.206.54-.206.746 0 .206.206.206.54 0 .746zm0-3.691l-2.11 2.109c-.103.103-.238.155-.373.155-.134 0-.27-.052-.372-.155L2.264 7.228c-.206-.206-.206-.54 0-.745.206-.206.54-.206.746 0l.681.681 1.737-1.736c.206-.206.54-.206.746 0 .206.206.206.54 0 .746zm4.9 8.592H7.91c-.291 0-.527-.236-.527-.528 0-.291.236-.527.527-.527h3.164c.292 0 .528.236.528.527 0 .292-.236.528-.528.528zm0-3.692H7.91c-.291 0-.527-.236-.527-.527 0-.292.236-.527.527-.527h3.164c.292 0 .528.235.528.527 0 .291-.236.527-.528.527zm0-3.691H7.91c-.291 0-.527-.236-.527-.528 0-.291.236-.527.527-.527h3.164c.292 0 .528.236.528.527 0 .292-.236.528-.528.528z"/>
    </g>
</svg>
