<svg xmlns="http://www.w3.org/2000/svg" width="18" height="18" viewBox="0 0 18 18">
    <g fill="#E02020">
        <path d="M11.25 9.75c-.415 0-.75.336-.75.75v3c0 .413-.336.75-.75.75H7.5V3c0-.64-.408-1.213-1.021-1.426L6.256 1.5H9.75c.414 0 .75.337.75.75V4.5c0 .414.335.75.75.75s.75-.336.75-.75V2.25C12 1.01 10.99 0 9.75 0H1.687c-.028 0-.052.013-.08.017C1.571.014 1.537 0 1.5 0 .673 0 0 .673 0 1.5V15c0 .64.408 1.213 1.021 1.426l4.514 1.504c.153.048.305.07.465.07.827 0 1.5-.673 1.5-1.5v-.75h2.25c1.24 0 2.25-1.01 2.25-2.25v-3c0-.414-.335-.75-.75-.75z"/>
        <path d="M17.78 6.97l-3-3c-.214-.215-.537-.28-.817-.163-.28.116-.463.39-.463.693v2.25h-3c-.414 0-.75.336-.75.75s.336.75.75.75h3v2.25c0 .303.183.577.463.693.28.116.603.052.817-.163l3-3c.293-.293.293-.767 0-1.06z"/>
    </g>
</svg>
