<svg xmlns="http://www.w3.org/2000/svg" width="18" height="18" viewBox="0 0 18 18">
    <path fill="#579FD7" d="M14.478 0H3.522C1.58 0 0 1.58 0 3.522v10.956C0 16.42 1.58 18 3.522 18h10.956C16.42 18 18 16.42 18 14.478V3.522C18 1.58 16.42 0 14.478 0zm-3.157 12.736c.027.053.042.114.042.177 0 .216-.175.391-.39.391h-3.93c-.116 0-.226-.051-.3-.141-.075-.09-.106-.208-.084-.323l.618-3.286c-.64-.518-1.016-1.293-1.016-2.12C6.26 5.925 7.49 4.697 9 4.697c1.51 0 2.74 1.228 2.74 2.739 0 .826-.377 1.601-1.017 2.12l.598 3.181z"/>
</svg>
