<svg xmlns="http://www.w3.org/2000/svg" width="16" height="18" viewBox="0 0 16 18">
    <g fill="none" transform="translate(-8 -7)">
        <g>
            <path fill="#A7D9FF" d="M7.664 5.57c-1.891 0-3.43 1.54-3.43 3.43 0 1.891 1.539 3.43 3.43 3.43 1.89 0 3.43-1.539 3.43-3.43 0-1.89-1.54-3.43-3.43-3.43zM9.7 8.355l-2.457 2.457c-.103.104-.238.155-.373.155-.136 0-.27-.051-.374-.155l-.939-.939c-.206-.206-.206-.54 0-.746.206-.207.54-.207.747 0l.566.565 2.083-2.083c.206-.207.54-.207.747 0 .206.206.206.54 0 .746z" transform="translate(8 7)"/>
            <path fill="#579FD7" d="M15.31 4.884V4.87c-.008-.173-.013-.356-.017-.56-.014-.992-.803-1.813-1.796-1.868-2.07-.116-3.67-.79-5.038-2.124L8.447.307c-.446-.41-1.12-.41-1.566 0l-.011.01C5.502 1.652 3.9 2.328 1.83 2.443.84 2.497.05 3.318.035 4.31c-.003.202-.008.385-.016.559l-.001.032c-.04 2.11-.09 4.737.788 7.121.484 1.311 1.215 2.45 2.175 3.387 1.093 1.067 2.525 1.914 4.256 2.517.056.02.114.036.174.048.084.017.169.025.253.025.085 0 .17-.008.253-.025.06-.012.119-.028.176-.048 1.728-.604 3.158-1.452 4.25-2.518.96-.937 1.692-2.077 2.175-3.388.882-2.391.832-5.023.792-7.137zm-7.646 8.602c-2.474 0-4.486-2.012-4.486-4.486 0-2.473 2.012-4.486 4.486-4.486 2.473 0 4.486 2.013 4.486 4.486 0 2.474-2.013 4.486-4.486 4.486z" transform="translate(8 7)"/>
        </g>
    </g>
</svg>
