<svg xmlns="http://www.w3.org/2000/svg" width="15" height="18" viewBox="0 0 15 18">
    <g fill="none">
        <path fill="#579FD7" d="M14.259 12.444c-1.113-.94-1.75-2.314-1.75-3.77V6.621c0-2.59-1.924-4.732-4.415-5.092V.736c0-.407-.33-.736-.736-.736-.406 0-.736.329-.736.736v.794c-2.492.36-4.415 2.503-4.415 5.092v2.051c0 1.457-.638 2.831-1.757 3.777-.286.245-.45.601-.45.978 0 .71.578 1.288 1.288 1.288h12.14c.71 0 1.288-.578 1.288-1.288 0-.377-.164-.733-.457-.984z"/>
        <path fill="#A7D9FF" d="M7.358 17.659c1.332 0 2.447-.95 2.703-2.207H4.655c.256 1.257 1.37 2.207 2.703 2.207z"/>
    </g>
</svg>
