<svg xmlns="http://www.w3.org/2000/svg" width="18" height="18" viewBox="0 0 18 18">
    <g fill="none" transform="translate(-7 -7)">
        <g>
            <path fill="#A7D9FF" d="M16.198 15.44c2.654-3.062 2.328-7.678-.666-10.357 1.538 5.39-2.529 10.772-8.132 10.772l-2.02-.012C6.781 17.24 8.65 18 10.6 18l6.875-.035c.468-.002.702-.573.368-.903l-1.645-1.623z" transform="translate(7 7)"/>
            <path fill="#579FD7" d="M7.4 14.8c4.08 0 7.4-3.319 7.4-7.4 0-4.08-3.32-7.4-7.4-7.4S0 3.32 0 7.4c0 1.797.636 3.496 1.802 4.84L.157 13.863c-.333.329-.102.9.368.903L7.4 14.8zM4.254 4.782h6.328c.291 0 .527.236.527.528 0 .29-.236.527-.527.527H4.254c-.291 0-.527-.236-.527-.527 0-.292.236-.528.527-.528zm0 2.11h6.328c.291 0 .527.236.527.527 0 .291-.236.527-.527.527H4.254c-.291 0-.527-.236-.527-.527 0-.291.236-.527.527-.527zm-.527 2.636c0-.29.236-.527.527-.527h6.328c.291 0 .527.236.527.527 0 .292-.236.528-.527.528H4.254c-.291 0-.527-.236-.527-.528z" transform="translate(7 7)"/>
        </g>
    </g>
</svg>
