<svg xmlns="http://www.w3.org/2000/svg" width="14" height="18" viewBox="0 0 14 18">
    <path fill="#579FD7" d="M13.773 4.797L9.887.297C9.723.11 9.487.001 9.24 0h-7C1.653-.007 1.087.226.667.648.247 1.07.007 1.646 0 2.25v13.5c.007.604.247 1.18.667 1.602.42.422.986.655 1.573.648h9.52c.587.007 1.153-.226 1.573-.648.42-.422.66-.998.667-1.602V5.4c0-.223-.082-.438-.227-.603zM4.375 9H7c.483 0 .875.403.875.9s-.392.9-.875.9H4.375c-.483 0-.875-.403-.875-.9s.392-.9.875-.9zm5.25 5.4h-5.25c-.483 0-.875-.403-.875-.9s.392-.9.875-.9h5.25c.483 0 .875.403.875.9s-.392.9-.875.9zm-.254-9c-.375-.038-.651-.378-.621-.765V1.8l3.273 3.6H9.37z"/>
</svg>
