<svg xmlns="http://www.w3.org/2000/svg" width="18" height="18" viewBox="0 0 18 18">
    <g fill="none" fill-rule="evenodd" transform="translate(-7 -7)">
        <g fill-rule="nonzero">
            <path fill="#579FD7" d="M.606 6.761c1.62.963 5.598 3.325 7.585 4.464.243.14.52.213.796.213.277 0 .553-.073.797-.214 1.986-1.138 5.965-3.5 7.584-4.463.38-.227.606-.616.606-1.042 0-.426-.226-.815-.606-1.042-1.251-.744-5.493-3.265-7.584-4.464C9.538.073 9.264 0 8.987 0c-.269.001-.542.072-.8.216 0 0-5.687 3.34-7.58 4.46C.227 4.904 0 5.293 0 5.72c0 .426.227.815.606 1.042z" transform="translate(7 7)"/>
            <path fill="#A7D9FF" d="M17.382 7.956c-.128-.079-.29-.08-.42-.002-2.2 1.305-5.16 3.056-6.772 3.98-.735.42-1.671.42-2.405 0-1.627-.933-4.58-2.68-6.772-3.98-.129-.078-.293-.077-.422.002C.221 8.183 0 8.57 0 8.987c0 .426.227.815.606 1.042 1.62.963 5.598 3.325 7.585 4.464.243.14.52.213.796.213.277 0 .553-.073.797-.213 1.986-1.139 5.965-3.501 7.584-4.464.38-.227.606-.616.606-1.042 0-.418-.22-.804-.592-1.03z" transform="translate(7 7)"/>
            <path fill="#CDE9FF" d="M17.382 11.224c-.128-.078-.29-.08-.42-.002-2.2 1.305-5.16 3.056-6.772 3.98-.735.42-1.671.42-2.405 0-1.627-.933-4.58-2.68-6.772-3.98-.129-.078-.293-.076-.422.002-.37.227-.591.613-.591 1.031 0 .426.227.815.606 1.042 1.62.963 5.598 3.325 7.585 4.464.243.14.52.213.796.213.277 0 .553-.073.797-.213 1.986-1.139 5.965-3.501 7.584-4.464.38-.227.606-.616.606-1.042 0-.418-.22-.804-.592-1.03z" transform="translate(7 7)"/>
        </g>
    </g>
</svg>
