<svg xmlns="http://www.w3.org/2000/svg" width="16" height="12" viewBox="0 0 16 12">
    <g fill="#E02020" fill-rule="evenodd" transform="translate(-6 -10)">
        <path fill-rule="nonzero" d="M18.733 18.015l2.658 1.473c.163.09.367.032.456-.129.032-.058.046-.125.04-.192l-.864-8.863c-.018-.184-.183-.32-.367-.304-.042.004-.083.015-.12.034l-7.975 3.964c-.165.083-.23.284-.146.449.03.06.078.109.137.142l2.643 1.465c-2.031 3.208-7.144 4.382-7.953 3.976l-.017-.01c-.163-.086-.364-.028-.452.131-.09.161-.03.365.133.455l.015.008c3.295 1.75 9.14 1.781 11.812-2.6z"/>
    </g>
</svg>
