<svg xmlns="http://www.w3.org/2000/svg" width="18" height="20" viewBox="0 0 18 20">
    <g fill="none" fill-rule="evenodd" transform="translate(-7 -6)">
        <g fill-rule="nonzero">
            <g>
                <path fill="#7EB457" d="M12.673 13.791c0 .618-.5 1.119-1.118 1.119H1.118C.501 14.91 0 14.409 0 13.79c0-.242.078-.477.224-.67l.894-1.193V7.156l.001-.109c.051-2.169 1.6-4.012 3.727-4.438h2.982c1.05.21 1.997.778 2.676 1.607.071.087.14.177.204.27.552.78.848 1.713.847 2.67v4.772l.895 1.192c.145.194.223.43.223.671z" transform="matrix(-1 0 0 1 24.8 6.4) translate(4.38 3.727)"/>
                <path fill="#79AD54" d="M12.673 13.791c0 .618-.5 1.119-1.118 1.119H1.118C.501 14.91 0 14.409 0 13.79c0-.242.078-.477.224-.67l.894-1.193v-.065c3.541-1.44 6.96-3.785 9.59-7.378.552.782.848 1.714.847 2.67v4.773l.895 1.192c.145.194.223.43.223.671z" transform="matrix(-1 0 0 1 24.8 6.4) translate(4.38 3.727)"/>
                <path fill="#5F943A" d="M7.597 11.202V9.555H6.201l-1.076 1.647H4.47V9.555h-.752v-.512h.752v-.5h-.752v-.512h.752V6.29h.644v1.74H6.46l1.137-1.74h.648v1.74h.732v.513h-.732v.5h.732v.512h-.732v1.647h-.648zM7.196 8.03h.401v-.614l-.401.614zm-.661 1.012h1.062v-.5h-.735l-.327.5zm-1.42 0h.688l.323-.5H5.114v.5zm0 1.049l.35-.537h-.35v.537z" transform="matrix(-1 0 0 1 24.8 6.4) translate(4.38 3.727)"/>
                <path fill="#74A650" d="M4.846 2.609L4.1 0 8.573 0 7.828 2.609z" transform="matrix(-1 0 0 1 24.8 6.4) translate(4.38 3.727)"/>
            </g>
            <path fill="#79AD54" d="M9.903 7.044l.487 1.529-1.567.343-.343 1.567-1.529-.487-1.08 1.186-.372-.407c.05-2.17 1.599-4.013 3.726-4.438h1.455l-.777.707z" transform="matrix(-1 0 0 1 24.8 6.4)"/>
            <path fill="#FFB531" d="M5.218 0L6.299 1.186 7.828 0.699 8.17 2.266 9.738 2.609 9.251 4.138 10.437 5.218 9.251 6.299 9.738 7.828 8.17 8.17 7.828 9.738 6.299 9.251 5.218 10.437 4.138 9.251 2.609 9.738 2.266 8.17 0.699 7.828 1.186 6.299 0 5.218 1.186 4.138 0.699 2.609 2.266 2.266 2.609 0.699 4.138 1.186z" transform="matrix(-1 0 0 1 24.8 6.4)"/>
            <g fill="#F98500">
                <path d="M-0.027 2.237L5.243 2.237 5.243 2.982 -0.027 2.982z" transform="matrix(-1 0 0 1 24.8 6.4) translate(2.61 2.61) rotate(-45 2.608 2.61)"/>
                <path d="M1.118 2.236C.501 2.236 0 1.736 0 1.118 0 .501.5 0 1.118 0c.618 0 1.118.5 1.118 1.118 0 .618-.5 1.118-1.118 1.118zm0-1.49c-.206 0-.373.166-.373.372s.167.373.373.373.373-.167.373-.373-.167-.372-.373-.373zM4.473 4.846c-.618 0-1.118-.501-1.118-1.119 0-.617.5-1.118 1.118-1.118.617 0 1.118.5 1.118 1.118 0 .618-.5 1.118-1.118 1.119zm0-1.491c-.206 0-.373.167-.373.372 0 .206.167.373.373.373s.373-.167.373-.373c0-.205-.167-.372-.373-.372z" transform="matrix(-1 0 0 1 24.8 6.4) translate(2.61 2.61)"/>
            </g>
        </g>
    </g>
</svg>
