<svg xmlns="http://www.w3.org/2000/svg" width="119" height="110" viewBox="0 0 119 110">
    <g fill="none">
        <path fill="#F2D422" d="M113.219 109.945H5.045c-3.817 0-6.246-4.09-4.43-7.441L54.7 2.694c1.907-3.519 6.963-3.507 8.861 0 58.653 108.235 54.701 100.379 54.701 102.211 0 2.776-2.247 5.04-5.044 5.04z"/>
        <path fill="#585A60" d="M104.756 102.63H13.509c-2.094 0-3.426-2.244-2.43-4.082l45.623-84.192c1.045-1.93 3.818-1.922 4.86 0l45.624 84.192c1 1.846-.344 4.082-2.43 4.082zM18.15 97.102h81.963L59.132 21.474 18.15 97.102z"/>
        <g fill="#585A60" transform="translate(54.538 48.53)">
            <path d="M6.347.164H2.873C1.42.164.243 1.34.243 2.794l.658 19.558c0 1.453 1.177 2.63 2.63 2.63h2.158c1.453 0 2.63-1.178 2.63-2.63l.658-19.558c0-1.453-1.178-2.63-2.63-2.63z"/>
            <circle cx="4.69" cy="35.251" r="4.542"/>
        </g>
    </g>
</svg>
