<svg xmlns="http://www.w3.org/2000/svg" width="46" height="46" viewBox="0 0 46 46">
    <g fill="none">
        <circle cx="22.965" cy="22.967" r="22.965" fill="#65B1EF"/>
        <g fill="#E9EFF4">
            <path d="M11.805 40.803l-.015.025c.035.01.068.023.102.03l-.087-.055zM10.36 8.432l-.046-.093c.384-.057.41-.328.702-.427.332-.11.218.01.544 0 .265-.011.426.181.728.04-.074.13-.193.219-.312.307-.249.176-.503.357-.8.426-.296.068-.643-.004-.816-.253z" transform="translate(0 1.438)"/>
            <path d="M14.954 28.902c-.005.203-.125.38-.228.551-.462.753-.742 1.626-.804 2.51-.062.847-.024 1.89-.762 2.307-.42.234-1.013.193-1.293.588-.088.12-.13.27-.172.411-.18.66-.363 1.32-.544 1.98-.235-.02-.473-.046-.706-.072.276.087.467.461.302.717-.265-.14-.613.026-.76.292-.139.264-.119.586-.04.878.24.863.977 1.558 1.845 1.765-.151.286-.613.161-.894-.03-2.011-1.36-3.53-3.431-4.222-5.758-.245-.821-.401-1.694-.88-2.4-.4-.596-1.003-1.033-1.403-1.63-.56-.856-.666-1.968-1.315-2.751-.364-.447-.926-.996-.604-1.475.13-.197.405-.384.296-.592-.036-.068-.11-.11-.167-.167-.218-.234-.067-.602.042-.904.181-.525.181-1.085.103-1.646-.546-.489-.977-1.095-1.247-1.777-.161-.415-.375-.934-.821-.94-.115-.322-.234-.644-.35-.966-.041.115-.155.187-.28.203C.395 14.733 2.517 9.958 5.82 6.258c.073-.032.145-.074.218-.115C6.821 5.685 7.445 5 8.203 4.5c.156-.104.332-.203.525-.183.187.016.364.207.296.384-.026.073-.088.131-.15.177-.888.755-1.86 1.414-2.893 1.96-.124.063-.254.136-.31.26-.105.214.071.478.296.556.222.077.473.031.701-.02-.192.274-.25.644-.15.966.212.02.28-.27.343-.473.258-.805 1.542-1.133 1.459-1.981.348.181.701-.224.914-.556.213-.338.686-.67.946-.374.014.165.034.332.05.499.457-.115.92-.235 1.377-.35-.26.183-.348.572-.198.853.15.28.525.42.82.306-.003.244-.222.431-.42.576-.503.38-1.044.77-1.63.956l.135.28c-.015.006-.03.012-.046.012-.374.036-.77-.233-1.17-.181-.243.032-.544.032-.685.28-.02.032-.108.467-.046.432l.65-.374c.066.177.082.374.046.566.264-.026.54.03.775.171-.245.567-.873.946-1.49.899-.007-.187-.017-.374-.022-.561-.51-.042-.925.395-1.18.832-.258.442-.455.946-.882 1.227-.259.176-.576.244-.857.39-.274.15-.529.436-.471.742.026.145.12.28.115.432-.016.28-.342.41-.56.592-.374.312-.468.884-.868 1.158-.29.203-.675.199-1.013.302-.338.104-.676.442-.539.77-.167.057-.37-.068-.385-.245-.597 1.174-.99 2.452-1.152 3.762.296.207.597-.266.654-.624.062-.358.374-.827.664-.614-.067.515-.135 1.024-.2 1.538-.017.1-.027.203.02.29.058.11.182.156.277.234.264.228.228.634.244.981.016.426.157.841.38 1.205-.022-.073-.036-.145-.052-.218.405.051.826-.08 1.133-.35.16-.145.296-.332.499-.405.208-.078.436-.022.65.036.66.18 1.36.384 1.802.903.223.264.364.598.63.815.602.508 1.621.284 2.172.85.44.458.359 1.195.24 1.823-.302-.165-.706.25-.53.547.162-.177.348-.364.583-.364.238-.006.447.322.27.473.415-.53 1.433-.312 1.594.348.582.041 1.169.082 1.751.13-.112.853 1.676.903 1.64 1.761zM11.414 4.869c-.224.11-.534-.014-.617-.25-.085-.236.075-.528.32-.584.153-.036.367-.019.415-.17.014-.045.005-.096.005-.143-.005-.285.25-.52.524-.592.274-.07.565-.016.843.038.1.206.128.445.08.667l-.573.025c.018.317-.014.717-.309.835-.264.105-.61-.09-.83.088M14.39 1.696c.523-.25.964-.644 1.479-.908.885-.454 1.919-.495 2.913-.526L25.575.05c-.525.288-1.05.577-1.576.864-.428.236-.916.478-1.386.344-.01.378.334.729.713.726-.93.575-2.22-.013-3.202.47-.412.203-.744.585-1.196.657-.262.042-.534-.029-.794.029-.436.094-.71.507-1.032.815-.37.355-.916.598-1.4.428-.485-.17-.738-.89-.35-1.226.192-.165.465-.193.69-.31.226-.114.404-.423.235-.612-.074-.082-.194-.113-.262-.2-.073-.096-.066-.23-.126-.334-.23-.404-.87.14-1.306-.023M21.266 3.607c.307-.07.573-.252.859-.384.286-.132.626-.21.907-.07.083.208-.157.398-.368.472-.406.143-.846.182-1.27.111M39.777 5.891c-.083.01-.171.006-.26-.016-.39-.083-.686-.384-1.02-.602-.768-.509-1.818-.575-2.649-.16.197-.286.297-.64.275-.987l-.12.041c-1.36-.789-2.956-1.608-4.441-1.078-.344.125-.654.312-1.002.432-.37.129-.78.182-1.096.41-.322.23-.493.734-.217 1.008.235.235.608.171.936.203.322.032.692.352.515.628-1.423.666-2.85 1.337-4.274 2.008.654.213 1.087.955.946 1.63-.479.084-.94-.206-1.423-.238-.702-.036-1.371.582-1.386 1.284-.02.701.624 1.35 1.326 1.34.524-.006 1.039-.323 1.548-.189.02-.479.348-.884.684-1.226.654-.656 1.588-1.248 2.462-.926.286.104.53.296.77.487.524.416 1.049.836 1.575 1.257.167-.171.332-.344.499-.51l.862.91c.145-.1.296-.193.442-.292.103.27.212.534.317.805.042-.297.078-.587.114-.879.343.01.707.02 1.018-.135.312-.15.54-.525.41-.847-.068-.17-.23-.306-.26-.488-.069-.364.45-.613.788-.447.332.16.5.54.64.888.078-.354.15-.701.228-1.055.325.854.794 1.653 1.376 2.355-1.065-.203-2.188-.087-3.184.323.318.447.863.712 1.409.69.244-.006.514-.062.701.093.141.12.177.312.203.49.083.498.167.991.244 1.484-.562-.461-1.37-.41-2.104-.424-.733-.02-1.59-.223-1.86-.903-.29.328-.42.795-.337 1.232-.759-.18-1.631-.471-1.85-1.22-.592.218-1.33-.16-1.49-.768-.058-.213-.074-.473-.26-.586-.114-.068-.26-.058-.396-.042-1.127.13-2.25.256-3.37.387-.613.073-1.247.146-1.788.447-.54.296-.97.878-.908 1.492-1.034.614-1.91 1.502-2.503 2.547-.187.322-.348.692-.274 1.055.051.28.238.52.296.795.099.473-.171.93-.285 1.397-.322 1.33.687 2.582 1.623 3.588.441.468.952.976 1.596 1.002.4.016.779-.16 1.153-.307 1.07-.421 2.233-.614 3.38-.568-.26.203.01.644.334.711.322.068.67-.037.982.072.712.255.614 1.298.292 1.98.16-.032.328-.063.493-.094-.088.229-.177.457-.265.68.976.124 1.346 1.408 1.119 2.368-.223.962-.794 1.844-.81 2.832-.004.54.161 1.065.328 1.578l1.25 3.916c1.164.14 1.832-1.341 2.913-1.804.406-.177.883-.213 1.2-.515.307-.29.207-.972-.186-.972.534-.057.991-.546 1.007-1.086.006-.151-.016-.302.005-.452.035-.212.17-.4.3-.582.825-1.184 1.36-2.541 1.895-3.881.14-.36.28-.712.42-1.071l1.582-4c.207-.525.415-1.044.622-1.57-.286.473-1.033.41-1.46.057-.431-.352-.656-.888-.993-1.33-.286-.38-.672-.715-.807-1.178-.077-.265-.063-.55-.109-.827-.105-.598-.499-1.095-.77-1.636-.27-.54-.41-1.24-.03-1.715 1.092 1.906 2.085 3.869 2.984 5.88.099-.312.327-.583.618-.733.212-.115.451-.161.675-.255.593-.26 1.002-.888 1.002-1.532-.006-.644-.415-1.272-1.013-1.527-.296-.125-.634-.165-.914-.338-.28-.165-.483-.545-.307-.82.166-.26.567-.255.841-.11.276.151.479.406.738.577.187.125.405.207.608.322 1.097.628 1.367 2.057 1.597 3.303.125.67.266 1.335.433 1.99.005-.141.004-.287.004-.426-.006-6.04-2.342-11.53-6.157-15.627zm2.103 7.547c-.15-.01-.29-.11-.411-.203-.197-.155-.395-.338-.453-.582-.067-.29.072-.624-.083-.883-.074-.125-.203-.202-.312-.29-.286-.229-.495-.556-.572-.909-.068-.311.03-.727.348-.779.15-.026.316.058.383.197l-.212.115c.358.042.524.582.25.815-.036.036-.084.068-.084.12 0 .031.02.061.048.083.223.244.556.332.847.487.29.151.576.432.53.754-.093.036-.181.067-.275.103-.099.1-.02.276.084.374.103.098.238.197.244.342 0 .157-.177.266-.332.256zM42.03 29.42l-.376.266c.131.46-.13.999-.575 1.179-.234.095-.546.136-.625.376-.066.204.092.411.114.624.034.354-.296.618-.535.881-.239.263-.365.758-.047.916.073.037.158.045.24.052.345.03.723.04 1.004-.161.808-.577.04-2.14.838-2.733.114-.083.256-.144.318-.27.188-.372-.506-.742-.356-1.13z" transform="translate(0 1.438)"/>
        </g>
    </g>
</svg>
