<svg xmlns="http://www.w3.org/2000/svg" width="19" height="19" fill="none" viewBox="0 0 19 19">
    <path fill="#8C9092" fill-rule="evenodd" d="M0 9.23C0 4.134 4.133 0 9.23 0c5.096.006 9.226 4.135 9.232 9.23 0 5.099-4.133 9.232-9.231 9.232S0 14.329 0 9.23zm13.27 4.424c.193 0 .374-.098.48-.26.109-.163.127-.369.05-.548-.722-1.796-2.442-2.99-4.377-3.038-1.934.049-3.654 1.243-4.376 3.038-.078.179-.06.384.047.547.107.163.288.26.483.26h7.692zm-2.922-8.248c-.986-.011-1.944-.33-2.74-.91-.046-.034-.074-.087-.077-.144-.004-.057.018-.114.06-.154.615-.584 1.469-.844 2.305-.702.836.142 1.556.67 1.944 1.424.026.05.028.11.007.162-.022.052-.065.092-.12.11-.446.141-.911.214-1.38.214zm1.7.924c-.049-.042-.116-.057-.178-.04-.497.138-1.01.208-1.525.208-1.163.001-2.298-.355-3.252-1.021-.052-.036-.12-.045-.179-.022s-.103.074-.118.136c-.044.184-.067.373-.068.563-.01 1.432 1.1 2.623 2.529 2.715 1.429.092 2.682-.947 2.855-2.369.008-.064-.016-.128-.064-.17z" clip-rule="evenodd"/>
</svg>
