<svg xmlns="http://www.w3.org/2000/svg" width="19" height="16" fill="none" viewBox="0 0 19 16">
    <path fill="#22A8FF" d="M18.461 5.765c-.003-.647-.412-1.223-1.023-1.44-.118-.043-.25-.025-.352.047-.102.072-.163.19-.163.315l.005 2.942c0 .125.062.242.164.314.103.071.234.089.352.046.611-.22 1.019-.8 1.017-1.45v-.774z" opacity=".5"/>
    <path fill="#22A8FF" d="M15.77 1.154c-.002-.394-.205-.76-.54-.97-.64-.407-1.13-.065-2.096.4-2.392 1.29-5.054 1.998-7.77 2.068-.205.011-.364.18-.364.384v6.62c.03 2.395 1.395 4.572 3.538 5.642.247.124.541.107.771-.046.23-.152.362-.416.343-.692-.018-.275-.182-.52-.43-.64-1.591-.793-2.619-2.394-2.677-4.17 2.299.176 4.537.823 6.576 1.9 1.059.497 1.491.795 2.12.384.33-.213.528-.58.526-.972l.002-9.908zM3.846 3.09c0-.212-.172-.384-.384-.384l-.78.006C1.195 2.719-.005 3.93 0 5.417l.007 1.539c.007 1.486 1.218 2.686 2.705 2.679h.75c.212 0 .384-.172.384-.385V3.09z"/>
</svg>
