<svg xmlns="http://www.w3.org/2000/svg" width="19" height="19" fill="none" viewBox="0 0 19 19">
    <path fill="#8C9092" fill-rule="evenodd" d="M4.606 0h9.212c2.544 0 4.606 2.062 4.606 4.606v9.212c0 2.544-2.062 4.606-4.606 4.606H4.606C2.062 18.424 0 16.362 0 13.818V4.606C0 2.062 2.062 0 4.606 0z" clip-rule="evenodd"/>
    <path fill="#fff" fill-rule="evenodd" d="M5.182 1.727c1.908 0 3.455 1.547 3.455 3.455 0 1.908-1.547 3.454-3.455 3.454-1.908 0-3.454-1.546-3.454-3.454 0-1.908 1.546-3.455 3.454-3.455zM13.243 1.727c1.907 0 3.454 1.547 3.454 3.455 0 1.908-1.546 3.454-3.454 3.454-1.908 0-3.455-1.546-3.455-3.454 0-1.908 1.547-3.455 3.455-3.455zM5.182 9.788c1.908 0 3.455 1.546 3.455 3.454 0 1.908-1.547 3.455-3.455 3.455-1.908 0-3.454-1.547-3.454-3.455 0-1.908 1.546-3.454 3.454-3.454z" clip-rule="evenodd"/>
</svg>
