<svg xmlns="http://www.w3.org/2000/svg" width="18" height="18" viewBox="0 0 18 18">
    <g fill="none" transform="translate(-7 -7)">
        <g>
            <path fill="#A7D9FF" d="M15.468 17.106l2.265.627-.627-2.265c.566-.87.894-1.908.894-3.023 0-3.067-2.487-5.554-5.555-5.554-3.067 0-5.554 2.487-5.554 5.554C6.89 15.513 9.378 18 12.445 18c1.115 0 2.153-.328 3.023-.894z" transform="translate(7 7)"/>
            <path fill="#579FD7" d="M6.873 0L4.061 6.873l2.812 6.873c3.79 0 6.873-3.083 6.873-6.873S10.663 0 6.873 0z" transform="translate(7 7)"/>
            <path fill="#579FD7" d="M0 6.873c0 1.235.329 2.438.953 3.494L.025 13.72l3.355-.928c1.055.624 2.258.953 3.493.953V0C3.083 0 0 3.083 0 6.873z" transform="translate(7 7)"/>
            <path fill="#FFF" d="M6.346 9.527L7.4 9.527 7.4 10.582 6.346 10.582zM6.346 7.186L6.346 8.473 6.873 8.473 7.225 7.588 6.873 6.703zM4.764 5.273h1.054c0-.581.473-1.054 1.055-1.054l.352-.528-.352-.527c-1.163 0-2.11.946-2.11 2.11z" transform="translate(7 7)"/>
            <path fill="#FFF" d="M6.873 3.164V4.22c.582 0 1.055.473 1.055 1.054 0 .3-.122.576-.344.779l-.711.651v1.77H7.4V7.65l.896-.82c.436-.399.686-.966.686-1.557 0-1.163-.946-2.109-2.109-2.109z" transform="translate(7 7)"/>
        </g>
    </g>
</svg>
