<svg xmlns="http://www.w3.org/2000/svg" width="26" height="8" fill="none" viewBox="0 0 26 8">
    <path fill="#ABBBC8" d="M3.876 7.08C2.127 7.08.706 5.66.706 3.91c0-1.748 1.421-3.17 3.17-3.17 1.748 0 3.17 1.422 3.17 3.17 0 1.749-1.422 3.17-3.17 3.17z"/>
    <path fill="#56636D" fill-rule="evenodd" d="M0 3.91c0 2.137 1.738 3.875 3.875 3.875S7.751 6.047 7.751 3.91 6.012.035 3.875.035C1.738.035 0 1.773 0 3.91zm1.41 0c0-1.36 1.105-2.466 2.465-2.466 1.36 0 2.466 1.106 2.466 2.466S5.235 6.376 3.875 6.376 1.41 5.27 1.41 3.91z" clip-rule="evenodd"/>
    <path fill="#ABBBC8" d="M13 7.08c-1.748 0-3.17-1.421-3.17-3.17C9.83 2.162 11.25.74 13 .74c1.748 0 3.17 1.422 3.17 3.17 0 1.749-1.422 3.17-3.17 3.17z"/>
    <path fill="#56636D" fill-rule="evenodd" d="M9.035 3.91c0 2.137 1.739 3.875 3.876 3.875 2.136 0 3.875-1.738 3.875-3.875S15.047.035 12.91.035c-2.136 0-3.875 1.738-3.875 3.875zm1.41 0c0-1.36 1.106-2.466 2.466-2.466s2.466 1.106 2.466 2.466-1.107 2.466-2.466 2.466c-1.36 0-2.467-1.106-2.467-2.466z" clip-rule="evenodd"/>
    <path fill="#ABBBC8" d="M22 7.08c-1.748 0-3.17-1.421-3.17-3.17 0-1.748 1.422-3.17 3.17-3.17s3.17 1.422 3.17 3.17c0 1.749-1.422 3.17-3.17 3.17z"/>
    <path fill="#56636D" fill-rule="evenodd" d="M18.125 3.91c0 2.137 1.738 3.875 3.875 3.875s3.876-1.738 3.876-3.875S24.137.035 22 .035c-2.137 0-3.875 1.738-3.875 3.875zm1.41 0c0-1.36 1.105-2.466 2.465-2.466 1.36 0 2.466 1.106 2.466 2.466S23.36 6.376 22 6.376 19.534 5.27 19.534 3.91z" clip-rule="evenodd"/>
</svg>
