<svg xmlns="http://www.w3.org/2000/svg" width="19" height="19" fill="none" viewBox="0 0 19 19">
    <path fill="#ABBBC8" d="M16.327 18.057l2.391.661-.661-2.391c.596-.918.943-2.014.943-3.19 0-3.239-2.625-5.864-5.863-5.864-3.239 0-5.864 2.625-5.864 5.864 0 3.238 2.625 5.863 5.864 5.863 1.176 0 2.272-.347 3.19-.943z"/>
    <path fill="#56636D" d="M7.255 0L4.286 7.255l2.969 7.255c4 0 7.255-3.255 7.255-7.255S11.255 0 7.255 0z"/>
    <path fill="#56636D" d="M0 7.255c0 1.304.347 2.573 1.006 3.688l-.98 3.54 3.541-.98c1.115.66 2.384 1.007 3.688 1.007V0C3.255 0 0 3.254 0 7.255z"/>
    <path fill="#fff" d="M6.698 10.057h1.114v1.113H6.698v-1.113zM6.698 7.585v1.358h.557l.371-.934-.371-.934-.557.51zM5.028 5.566h1.114c0-.613.499-1.113 1.113-1.113l.371-.557-.371-.556c-1.228 0-2.227.999-2.227 2.226z"/>
    <path fill="#fff" d="M7.255 3.34v1.113c.614 0 1.113.5 1.113 1.113 0 .317-.129.608-.362.822l-.751.687v1.868h.557v-.868l.945-.865c.46-.422.724-1.02.724-1.644 0-1.227-.998-2.226-2.226-2.226z"/>
</svg>
