<svg xmlns="http://www.w3.org/2000/svg" width="20" height="20" viewBox="0 0 20 20">
    <g fill="none" transform="translate(-6 -6)">
        <circle cx="15.881" cy="15.877" r="1.481" fill="#A7D9FF"/>
        <path fill="#579FD7" d="M25.65 14.217l-.781-2.489c-.17-.58-.57-1.068-1.106-1.35-.536-.28-1.164-.332-1.739-.141l-.335.109c-.534.176-1.12.08-1.57-.257l-.11-.08c-.438-.335-.691-.86-.68-1.411V8.32c.004-.62-.238-1.217-.672-1.66-.418-.421-.987-.66-1.58-.661h-2.52c-1.257.016-2.266 1.043-2.26 2.301v.237c-.003.581-.268 1.13-.722 1.492l-.128.098c-.503.38-1.161.488-1.758.287-.546-.19-1.146-.146-1.66.118-.535.266-.935.742-1.106 1.314l-.81 2.568c-.39 1.205.261 2.5 1.462 2.904h.158c.54.202.95.65 1.106 1.204l.06.158c.223.614.138 1.297-.228 1.838-.76 1.035-.544 2.49.484 3.259l2.045 1.55c.387.282.855.43 1.333.425.128.013.257.013.385 0 .6-.116 1.124-.473 1.452-.988l.227-.325c.323-.464.848-.746 1.413-.761.593-.015 1.152.276 1.481.77l.119.168c.34.507.875.85 1.477.95.602.098 1.218-.056 1.703-.426l2.005-1.501c.984-.765 1.2-2.164.494-3.19l-.257-.376c-.313-.483-.4-1.078-.237-1.63.165-.592.613-1.065 1.195-1.264l.197-.069c1.189-.412 1.835-1.693 1.462-2.894zm-9.769 5.116c-1.398 0-2.658-.842-3.193-2.134-.535-1.291-.24-2.778.749-3.767.989-.988 2.475-1.284 3.767-.75 1.292.536 2.134 1.796 2.134 3.195 0 1.909-1.548 3.456-3.457 3.456z"/>
    </g>
</svg>
