<svg xmlns="http://www.w3.org/2000/svg" width="20" height="20" fill="none" viewBox="0 0 20 20">
    <path fill="#ABBBC8" d="M13.788 17.06v-1.892H.046v1.893c0 1.607 1.296 2.93 2.93 2.93h13.56c-1.53-.104-2.748-1.349-2.748-2.93z"/>
    <path fill="#56636D" fill-rule="evenodd" d="M16.951 2.411L14.255 0l-2.697 2.411L8.862 0 6.165 2.411 3.47.026v15.142h10.32v1.893c0 1.581 1.218 2.826 2.748 2.93h.181c.804 0 1.556-.338 2.074-.856.545-.545.856-1.27.856-2.074V.026L16.95 2.41zM7.358 8.245h4.797c.44 0 .777-.337.777-.778 0-.44-.337-.778-.777-.778H7.358c-.44 0-.778.338-.778.778 0 .441.337.778.778.778zm0 2.074h8.427c.44 0 .777.337.777.778 0 .44-.337.778-.778.778H7.358c-.44 0-.778-.337-.778-.778 0-.44.337-.778.778-.778z" clip-rule="evenodd"/>
</svg>