<svg xmlns="http://www.w3.org/2000/svg" width="19" height="19" fill="none" viewBox="0 0 19 19">
    <path fill="#8C9092" fill-rule="evenodd" d="M15.77.235c1.486 0 2.692 1.205 2.692 2.692v8.46c0 1.488-1.206 2.693-2.693 2.693h-.57c-.107 0-.193-.086-.193-.192V8.547c-.002-.452-.075-.901-.216-1.33-.02-.06-.01-.123.027-.173.036-.048.093-.077.154-.077h.798c.319 0 .577-.258.577-.577 0-.319-.258-.577-.577-.577h-1.627c-.06 0-.117-.025-.154-.071-.576-.705-1.355-1.213-2.231-1.457l-.066-.017c-.093-.026-.153-.116-.14-.212.013-.095.095-.166.191-.166h4.026c.32 0 .577-.258.577-.577 0-.319-.258-.577-.576-.577H6.17c-.017 0-.034-.002-.05-.007l-2.692-.743c-.199-.055-.412 0-.559.145-.146.144-.205.356-.153.556.051.199.205.356.404.41l8.327 2.297c1.416.394 2.397 1.683 2.4 3.154v7.456c.021.684-.277 1.34-.807 1.773-.376.295-.842.453-1.32.448-.2 0-.399-.025-.593-.071l-8.584-2.016C1.087 15.735.058 14.437 0 12.927v-10c0-.653.237-1.283.668-1.773.027-.046.063-.085.107-.115C1.28.524 1.97.234 2.692.235H15.77zm-5.385 13.077c.85 0 1.538-.69 1.538-1.539 0-.85-.689-1.538-1.538-1.538-.85 0-1.539.688-1.539 1.538 0 .85.689 1.539 1.539 1.539z" clip-rule="evenodd"/>
</svg>
