<svg xmlns="http://www.w3.org/2000/svg" width="19" height="18" fill="none" viewBox="0 0 19 18">
    <path fill="#8C9092" fill-rule="evenodd" d="M15.77 0c1.486 0 2.692 1.205 2.692 2.692v8.461c0 1.487-1.206 2.692-2.693 2.692h-.57c-.107 0-.193-.086-.193-.192v-5.34c-.002-.453-.075-.902-.216-1.331-.02-.059-.01-.123.027-.173.036-.048.093-.076.154-.077h.798c.319 0 .577-.258.577-.577 0-.318-.258-.577-.577-.577h-1.627c-.06.001-.117-.025-.154-.071-.576-.704-1.355-1.213-2.231-1.456l-.066-.018c-.093-.026-.153-.116-.14-.211.013-.096.095-.167.191-.167h4.026c.32 0 .577-.258.577-.577 0-.318-.258-.576-.576-.576H6.17c-.017 0-.034-.003-.05-.007l-2.692-.743c-.199-.055-.412 0-.559.144-.146.145-.205.357-.153.556.051.2.205.356.404.411l8.327 2.296c1.416.395 2.397 1.684 2.4 3.154v7.456c.021.684-.277 1.34-.807 1.773-.376.296-.842.454-1.32.448-.2 0-.399-.024-.593-.07l-8.584-2.017c-1.456-.402-2.485-1.7-2.543-3.21v-10C0 2.04.237 1.408.668.918.695.874.731.835.775.805 1.28.289 1.97-.001 2.692 0H15.77zm-5.385 13.077c.85 0 1.538-.689 1.538-1.538 0-.85-.689-1.539-1.538-1.539-.85 0-1.539.689-1.539 1.539s.689 1.538 1.539 1.538z" clip-rule="evenodd"/>
</svg>
