<svg xmlns="http://www.w3.org/2000/svg" width="49" height="48" viewBox="0 0 49 48">
    <g fill="none">
        <path fill="#5E5E5E" d="M25.337.021h-1.764c-.777 0-1.407.63-1.407 1.407v46.359c.73.069 1.47.105 2.217.105.797 0 1.584-.04 2.36-.118V1.428c0-.777-.63-1.407-1.406-1.407z"/>
        <path fill="#333" d="M24.455 17.377V1.427c0-.686.493-1.257 1.144-1.38-.085-.016-.172-.026-.262-.026h-1.764c-.777 0-1.407.63-1.407 1.407v46.359c.73.07 1.47.105 2.217.105.384 0 .765-.01 1.145-.028-.36-.018-.718-.043-1.073-.077V37.4c0-.949.767-1.718 1.715-1.72.242 0 .441-.002.573-.003v-3.424h-2.288v-9.73c0-.948.767-1.717 1.715-1.72.242 0 .441 0 .573-.002v-3.424h-2.288z"/>
        <path fill="#068FC5" d="M41.476 8.604H5.58c-.497 0-.98.174-1.362.493L.766 11.974c-1.021.852-1.021 2.42 0 3.272l1.633 1.36 1.82 1.517c.382.319.865.493 1.363.493H46.99c-.991-3.8-2.917-7.224-5.515-10.012zM47.91 27.04l-.275-.228-3.177-2.648c-.383-.319-.866-.494-1.364-.494H1.038c-.01.285-.018.571-.018.859 0 3.249.664 6.343 1.863 9.154h40.211c.498 0 .98-.175 1.363-.493l2.299-1.916 1.154-.961c1.021-.852 1.021-2.42 0-3.272z"/>
        <path fill="#0676A2" d="M46.438 16.805H10.58c-1.127 0-2.22-.396-3.086-1.118l-.53-.441c-1.021-.851-1.021-2.42 0-3.272l3.453-2.877c.383-.319.865-.493 1.363-.493H5.582c-.498 0-.98.174-1.363.493L.766 11.974c-.296.247-.506.555-.63.888l-.003.008c-.04.105-.07.213-.091.323l-.003.011c-.02.108-.033.218-.037.327v.017c-.002.054-.002.108 0 .161.003.055.008.108.014.162l.004.023c.006.051.015.103.025.154l.001.003c.01.052.024.103.039.154l.008.028c.015.048.03.096.05.144l.001.006c.02.048.04.096.063.144l.015.03c.022.045.046.09.072.134l.003.006c.027.045.056.09.087.133l.021.03c.03.042.062.083.096.123l.004.004c.034.041.071.08.11.12l.028.027c.04.039.08.076.123.112l1.633 1.36 1.82 1.517c.382.319.865.493 1.363.493H46.99c-.16-.614-.344-1.218-.552-1.811zM48.474 27.77c-.127.273-.315.523-.564.73l-1.154.962-2.298 1.916c-.383.319-.866.493-1.364.493H11.257c-2.408 0-4.45-1.776-4.777-4.162-.142-1.04-.215-2.101-.215-3.18 0-.288.007-.574.017-.859H1.038c-.01.285-.018.571-.018.859 0 3.249.664 6.343 1.863 9.154h40.211c.498 0 .98-.175 1.363-.493l2.299-1.916 1.154-.961c.772-.644.96-1.698.564-2.542z"/>
        <g fill="#333" transform="translate(23.554 9.536)">
            <circle cx=".806" cy=".784" r="1"/>
            <circle cx=".806" cy="7.364" r="1"/>
            <circle cx=".806" cy="15.851" r="1"/>
            <circle cx=".806" cy="22.431" r="1"/>
        </g>
    </g>
</svg>
