<svg xmlns="http://www.w3.org/2000/svg" width="24" height="48" viewBox="0 0 24 48">
    <g fill="none">
        <path fill="#E6FFF1" d="M20.492.047H3.508C1.579.047 0 1.604 0 3.506v16.793c7.48-6.62 15.104-13.086 23.056-19.146C22.414.479 21.504.047 20.492.047z"/>
        <path fill="#C8FFE0" d="M23.056 1.16C15.104 7.22 7.48 13.685 0 20.306v24.188c0 1.902 1.58 3.459 3.508 3.459h16.984c1.929 0 3.508-1.557 3.508-3.459V3.512c0-.89-.349-1.699-.91-2.312-.013-.013-.02-.027-.034-.04z"/>
        <g>
            <path fill="#1FB25E" d="M6.26 1C3.38 1 1.044 3.239 1.044 6s2.336 5 5.218 5c2.881 0 5.217-2.239 5.217-5 0-1.326-.55-2.598-1.528-3.536C8.972 1.527 7.645 1 6.26 1zm2.244 3.805l-2.384 3c-.099.123-.25.195-.412.195-.16 0-.313-.07-.412-.19L4.023 6.255c-.115-.141-.142-.33-.072-.496.07-.166.227-.283.412-.307.185-.025.37.047.484.188l.85 1.04 1.973-2.5c.113-.143.298-.217.484-.194.186.023.345.14.417.305.073.166.047.356-.067.499v.015z" transform="translate(5.74 18)"/>
        </g>
        <path fill="#394A5F" d="M20.492 0H3.508C1.579 0 0 1.557 0 3.458v40.99c0 1.9 1.58 3.458 3.508 3.458h16.984c1.929 0 3.508-1.558 3.508-3.459V3.465C24 1.557 22.42 0 20.492 0zm1.99 39.978c0 1.9-1.58 3.458-3.508 3.458H5.04c-1.928 0-3.507-1.557-3.507-3.458V5.076c0-1.9 1.58-3.458 3.507-3.458h13.935c1.929 0 3.508 1.557 3.508 3.458v34.902z"/>
        <path fill="#E3E5FC" d="M14.393 1.146h-4.78c-.04 0-.068-.034-.068-.067V.822c0-.04.034-.067.069-.067h4.78c.04 0 .068.034.068.067v.257c0 .033-.035.067-.069.067z"/>
        <ellipse cx="12" cy="45.573" fill="#F2E4F4" rx="1.244" ry="1.227"/>
    </g>
</svg>
