<svg xmlns="http://www.w3.org/2000/svg" width="106" height="106" fill="none" viewBox="0 0 106 106">
    <path fill="#579FD7" d="M43.862 78.586h18.276V98.69H43.862V78.586z"/>
    <path fill="#BDD1F2" d="M53 89.552c-1.01 0-1.828-.819-1.828-1.828v-9.138c0-1.01.819-1.827 1.828-1.827 1.01 0 1.828.818 1.828 1.827v9.138c0 1.01-.819 1.828-1.828 1.828z"/>
    <rect width="106" height="63.965" y="14.621" fill="#D3ECFF" rx="4.711"/>
    <path fill="#A7D9FF" d="M38.38 98.69h29.24V106H38.38v-7.31z"/>
    <path fill="#579FD7" d="M20.104 14.62h65.793v43.863H20.103V14.62z"/>
    <path fill="#FFC431" d="M20.104 14.62h10.965v5.484c0 3.027-2.455 5.482-5.483 5.482-3.028 0-5.482-2.454-5.482-5.482V14.62z"/>
    <path fill="#FFB401" d="M31.069 14.62h10.966v5.484c0 3.027-2.455 5.482-5.483 5.482-3.028 0-5.483-2.454-5.483-5.482V14.62z"/>
    <path fill="#FFC431" d="M42.035 14.62H53v5.484c0 3.027-2.455 5.482-5.483 5.482-3.028 0-5.483-2.454-5.483-5.482V14.62z"/>
    <path fill="#FFB401" d="M53 14.62h10.965v5.484c0 3.027-2.454 5.482-5.482 5.482S53 23.132 53 20.104V14.62z"/>
    <path fill="#FFC431" d="M63.965 14.62h10.966v5.484c0 3.027-2.455 5.482-5.483 5.482-3.028 0-5.482-2.454-5.482-5.482V14.62z"/>
    <path fill="#FFB401" d="M74.931 14.62h10.966v5.484c0 3.027-2.455 5.482-5.483 5.482-3.028 0-5.483-2.454-5.483-5.482V14.62z"/>
    <path fill="#A7D9FF" d="M62.138 32.897h14.62v25.586h-14.62V32.897zM29.241 32.897H53v16.448H29.241V32.897z"/>
    <path fill="#B2C6EB" d="M67.62 47.517c1.01 0 1.828-.818 1.828-1.827 0-1.01-.818-1.828-1.827-1.828-1.01 0-1.828.818-1.828 1.828 0 1.009.818 1.827 1.828 1.827z"/>
    <path fill="#FFB401" d="M31.069 14.62L38.379 0H27.414l-7.31 14.62h10.965z"/>
    <path fill="#FFA100" d="M42.035 14.62L49.345 0H38.379l-7.31 14.62h10.966z"/>
    <path fill="#FFB401" d="M53 14.62L60.31 0H49.345l-7.31 14.62H53z"/>
    <path fill="#FFA100" d="M63.965 14.62L71.275 0H60.31L53 14.62h10.965z"/>
    <path fill="#FFB401" d="M80.414 3.655L74.93 14.621H63.966L71.275 0h7.31l1.828 3.655z"/>
    <path fill="#FFA100" d="M85.897 14.62H74.93l5.483-10.965 5.483 10.966z"/>
    <path fill="#BDD1F2" d="M9.138 56.655h87.724v3.655H9.138v-3.655z"/>
</svg>
