<svg xmlns="http://www.w3.org/2000/svg" width="80" height="68" viewBox="0 0 80 68">
    <g fill="none">
        <rect width="72.464" height="47.273" y="20.486" fill="#3A51C1" rx="5.333"/>
        <rect width="72.464" height="47.273" x="7.536" y=".067" fill="#4C60DC" rx="5.333"/>
        <path fill="#3A51C1" d="M75.826 37.97c-.672 0-1.217-.545-1.217-1.217v-5.566c0-.672.545-1.217 1.217-1.217s1.217.545 1.217 1.217v5.566c0 .672-.545 1.217-1.217 1.217z"/>
        <circle cx="64.058" cy="10.502" r="4.174" fill="#E5371A"/>
        <circle cx="69.565" cy="10.502" r="4.174" fill="#F7502F"/>
        <g fill="#EFEFFB">
            <path d="M0 46.02L72.464 46.02 72.464 52.281 0 52.281zM35.014 26.818h-20.87c-.672 0-1.217-.545-1.217-1.217 0-.673.545-1.218 1.218-1.218h20.87c.672 0 1.217.545 1.217 1.218 0 .672-.545 1.217-1.218 1.217zM27.826 2.504H14.145c-.673 0-1.218-.545-1.218-1.217S13.472.07 14.145.07h13.681c.435 0 .837.232 1.054.608.218.377.218.841 0 1.218-.217.376-.619.608-1.054.608zM35.014 31.435h-20.87c-.672 0-1.217-.545-1.217-1.217 0-.673.545-1.218 1.218-1.218h20.87c.672 0 1.217.545 1.217 1.218 0 .672-.545 1.217-1.218 1.217z" transform="translate(0 9.217)"/>
        </g>
    </g>
</svg>
