<svg xmlns="http://www.w3.org/2000/svg" width="32" height="32" fill="none" viewBox="0 0 32 32">
    <circle cx="16" cy="16" r="16" fill="#D8D8D8" opacity=".01"/>
    <path fill="#579FD7" d="M7.606 13.761c1.62.963 5.598 3.325 7.585 4.464.243.14.52.213.796.213.277 0 .553-.073.797-.213 1.986-1.14 5.965-3.501 7.584-4.464.38-.227.607-.616.607-1.042 0-.425-.227-.815-.607-1.042-1.251-.744-5.493-3.265-7.584-4.464-.246-.14-.52-.214-.797-.213-.269.001-.542.072-.8.216 0 0-5.687 3.34-7.58 4.46-.38.227-.607.616-.607 1.043 0 .426.227.815.606 1.042z"/>
    <path fill="#A7D9FF" d="M24.382 14.956c-.128-.079-.29-.08-.42-.002-2.2 1.305-5.16 3.056-6.772 3.98-.735.42-1.671.42-2.405 0-1.627-.933-4.58-2.68-6.772-3.98-.129-.078-.292-.077-.422.002-.37.227-.591.613-.591 1.031 0 .426.227.815.606 1.042 1.62.963 5.598 3.325 7.585 4.464.243.14.52.213.796.213.277 0 .553-.073.797-.213 1.986-1.139 5.965-3.501 7.584-4.464.38-.227.607-.616.607-1.042 0-.418-.222-.804-.593-1.03z"/>
    <path fill="#CDE9FF" d="M24.382 18.224c-.128-.078-.29-.08-.42-.002-2.2 1.305-5.16 3.056-6.772 3.98-.735.42-1.671.42-2.405 0-1.627-.933-4.58-2.68-6.772-3.98-.129-.078-.292-.076-.422.002-.37.227-.591.613-.591 1.031 0 .426.227.815.606 1.042 1.62.963 5.598 3.325 7.585 4.464.243.14.52.213.796.213.277 0 .553-.073.797-.213 1.986-1.139 5.965-3.501 7.584-4.464.38-.227.607-.616.607-1.042 0-.418-.222-.803-.593-1.03z"/>
</svg>