<svg xmlns="http://www.w3.org/2000/svg" width="32" height="32" fill="none" viewBox="0 0 32 32">
    <rect width="32" height="32" x="32" y="32" fill="#F2F5FA" opacity=".01" rx="16" transform="rotate(180 32 32)"/>
    <path fill="#FF3D43" d="M15.214 9.985c-.104-.133-2.582-3.238-4.537-2.968-.693.096-1.227.583-1.587 1.449-.496 1.193-.538 2.164-.123 2.884.517.896 1.54 1.04 1.584 1.047l.035.002h4.42c.147 0 .265-.118.265-.264v-1.987c0-.059-.02-.117-.057-.163zM22.91 8.466c-.36-.866-.894-1.353-1.587-1.449-1.955-.27-4.433 2.835-4.537 2.968-.037.046-.057.104-.057.163v1.987c0 .146.118.264.264.264h4.421c.012 0 .023 0 .035-.002.043-.006 1.067-.15 1.584-1.047.415-.72.373-1.69-.123-2.884z"/>
    <path fill="#D62D2D" d="M15.007 11.184h-4.421c-.012 0-.023-.001-.035-.003-.043-.005-1.067-.15-1.583-1.046-.1-.173-.173-.36-.22-.562-.131.7-.059 1.294.22 1.777.516.896 1.54 1.04 1.583 1.047l.035.002h4.421c.146 0 .264-.118.264-.264v-1.216c0 .146-.118.265-.264.265zM23.033 10.135c-.517.896-1.54 1.04-1.584 1.046-.012.002-.023.003-.035.003h-4.42c-.147 0-.265-.119-.265-.264v1.215c0 .146.118.264.264.264h4.421c.012 0 .023 0 .035-.002.043-.006 1.067-.15 1.584-1.047.278-.483.35-1.078.22-1.777-.048.201-.12.389-.22.562z"/>
    <path fill="#D62D2D" d="M16.993 9.884h-1.986c-.146 0-.264.118-.264.264v1.987c0 .146.118.264.264.264h1.986c.146 0 .264-.118.264-.264v-1.987c0-.146-.118-.264-.264-.264z"/>
    <path fill="#9E1219" d="M14.743 11.184v.95c0 .147.118.265.264.265h1.986c.146 0 .264-.118.264-.264v-.951h-2.514z"/>
    <path fill="#FFD039" d="M23.401 14.48H8.6c-.146 0-.265.118-.265.264v7.699c0 .633.515 1.148 1.148 1.148h13.035c.633 0 1.148-.515 1.148-1.148v-7.699c0-.146-.118-.264-.264-.264z"/>
    <path fill="#F4B70C" d="M23.401 14.48H8.6c-.146 0-.265.118-.265.264v1.135h15.331v-1.135c0-.146-.118-.264-.264-.264z"/>
    <path fill="#FFDF65" d="M24.736 11.87H7.264c-.146 0-.264.119-.264.265v2.61c0 .145.118.263.264.263h17.472c.146 0 .264-.118.264-.264v-2.61c0-.145-.118-.263-.264-.263z"/>
    <path fill="#FFCD2C" d="M7 13.793v.951c0 .146.118.264.264.264h17.472c.146 0 .264-.118.264-.264v-.95H7z"/>
    <path fill="#FF3D43" d="M17.306 11.87h-2.612c-.146 0-.264.119-.264.265v11.191c0 .146.118.265.264.265h2.612c.146 0 .264-.119.264-.265V12.135c0-.146-.118-.264-.264-.264z"/>
    <path fill="#D62D2D" d="M17.306 11.87h-.951v11.72h.951c.146 0 .264-.118.264-.264V12.135c0-.146-.118-.264-.264-.264z"/>
</svg>