<svg xmlns="http://www.w3.org/2000/svg" width="32" height="32" fill="none" viewBox="0 0 32 32">
    <circle cx="16" cy="16" r="16" fill="#F2F5FA" opacity=".01"/>
    <path fill="#7EB457" d="M7.747 23.919c0 .617.5 1.118 1.118 1.118h10.437c.617 0 1.118-.5 1.118-1.118 0-.242-.079-.478-.224-.671l-.894-1.193v-4.772l-.001-.109c-.051-2.168-1.6-4.012-3.727-4.437h-2.982c-1.05.21-1.997.777-2.676 1.607-.071.087-.14.177-.204.269-.552.78-.848 1.714-.847 2.67v4.772l-.895 1.193c-.145.193-.223.429-.223.67z"/>
    <path fill="#79AD54" d="M7.747 23.919c0 .617.5 1.118 1.118 1.118h10.437c.617 0 1.118-.5 1.118-1.118 0-.242-.079-.477-.224-.671l-.894-1.193v-.065c-3.541-1.44-6.96-3.784-9.59-7.377-.552.781-.848 1.714-.847 2.67v4.772l-.895 1.193c-.145.193-.223.429-.223.67z"/>
    <path fill="#5F943A" fill-rule="evenodd" d="M12.823 21.329v-1.646h1.396l1.076 1.646h.655v-1.646h.752v-.513h-.752v-.5h.752v-.512h-.752v-1.74h-.645v1.74H13.96l-1.136-1.74h-.648v1.74h-.732v.513h.732v.5h-.732v.512h.732v1.646h.648zm.401-3.17h-.401v-.615l.401.614zm-.401 1.011h1.062l-.327-.5h-.735v.5zm2.482 0h-.688l-.324-.5h1.012v.5zm-.35.513l.35.536v-.536h-.35z" clip-rule="evenodd"/>
    <path fill="#74A650" d="M15.574 12.737l.746-2.61h-4.473l.745 2.61h2.982z"/>
    <path fill="#79AD54" d="M14.896 13.444l-.486 1.529 1.567.343.343 1.567 1.529-.487 1.08 1.186.372-.408c-.051-2.168-1.6-4.012-3.727-4.437H14.12l.776.707z"/>
    <path fill="#FFB531" d="M19.581 6.4l-1.08 1.186-1.529-.487-.343 1.567-1.567.343.487 1.529-1.186 1.08 1.186 1.08-.487 1.53 1.568.342.342 1.568 1.529-.487 1.08 1.186 1.08-1.186 1.53.487.342-1.568 1.568-.342-.487-1.53 1.186-1.08-1.186-1.08.487-1.529-1.568-.343-.342-1.567-1.53.487-1.08-1.186z"/>
    <path fill="#F98500" d="M21.71 13.219l-3.727-3.727-.527.527 3.726 3.727.527-.527z"/>
    <path fill="#F98500" fill-rule="evenodd" d="M22.19 10.127c0 .618-.5 1.119-1.118 1.119-.617-.001-1.117-.501-1.118-1.119 0-.617.5-1.118 1.118-1.118.618 0 1.118.5 1.118 1.118zm-.745 0c0-.205-.167-.372-.373-.372s-.372.167-.372.372c0 .206.166.373.372.373s.373-.167.373-.373zM18.836 12.736c0 .618-.5 1.119-1.118 1.119-.618-.001-1.118-.501-1.119-1.119 0-.617.501-1.118 1.119-1.118.617 0 1.118.5 1.118 1.118zm-.745 0c0-.205-.167-.372-.373-.372s-.373.167-.373.372c0 .206.167.373.373.373s.372-.167.372-.373z" clip-rule="evenodd"/>
</svg>
