<svg xmlns="http://www.w3.org/2000/svg" width="32" height="32" fill="none" viewBox="0 0 32 32">
    <circle cx="16" cy="16" r="16" fill="#4E9700" opacity=".01"/>
    <path fill="#4E9700" d="M13.038 15.136l-2.55-1.413c-.156-.087-.352-.03-.439.126-.031.057-.045.121-.039.186l.793 8.57c.017.178.174.308.352.292.04-.004.08-.015.115-.033l7.688-3.87c.16-.08.224-.274.143-.433-.03-.058-.075-.106-.131-.137l-2.536-1.406c1.967-3.113 6.89-4.27 7.667-3.88l.017.009c.156.083.35.026.435-.129.086-.156.03-.352-.126-.439l-.014-.008c-3.162-1.679-8.785-1.683-11.375 2.565z"/>
</svg>
