<svg xmlns="http://www.w3.org/2000/svg" width="80" height="80" viewBox="0 0 80 80">
    <g fill="none">
        <path fill="#BEC8CF" d="M9.112 0C4.096 0 .03 4.05.03 9.044v70.878l4.412-4.414 4.341 4.344 4.342-4.344 4.341 4.344 4.342-4.344 4.341 4.344 4.342-4.344 4.341 4.344 4.342-4.344 4.34 4.344 4.343-4.344 4.341 4.344 4.342-4.344 4.411 4.414V28.276L70.031 0H9.112z"/>
        <path fill="#E1E6E9" d="M70.031 0c-5.014 0-9.08 4.048-9.08 9.042v19.234h18.16V9.042c0-4.994-4.065-9.042-9.08-9.042z"/>
        <path fill="#27A2DB" d="M5.295 9.668H23.1V13.078999999999999H5.295z"/>
        <g fill="#7B7D87">
            <path d="M.027.189H25.471V3.6H.027zM.027 10.413H25.471V13.824H.027zM.027 20.643H32.544000000000004V24.054000000000002H.027zM.027 30.873H20.264V34.284H.027zM.027 41.099H25.471V44.51H.027zM42.684 10.413H50.186V13.824H42.684zM42.684 20.643H50.186V24.054000000000002H42.684zM42.684 30.873H50.186V34.284H42.684zM42.684 41.099H50.186V44.51H42.684z" transform="translate(5.268 19.707)"/>
        </g>
    </g>
</svg>