<svg xmlns="http://www.w3.org/2000/svg" width="48" height="48" fill="none" viewBox="0 0 48 48">
    <circle cx="24" cy="24" r="24" fill="#F2F5FA"/>
    <path fill="#BEC8CF" d="M15.942 13.565c-1.308 0-2.369 1.056-2.369 2.36v18.49l1.151-1.152 1.133 1.133 1.132-1.133 1.133 1.133 1.132-1.133 1.133 1.133 1.133-1.133 1.132 1.133 1.133-1.133 1.132 1.133 1.133-1.133 1.132 1.133 1.133-1.133 1.15 1.151V20.941l2.37-7.376H15.941z"/>
    <path fill="#E1E6E9" d="M31.834 13.565c-1.308 0-2.368 1.056-2.368 2.359v5.018h4.737v-5.018c0-1.303-1.06-2.359-2.369-2.359z"/>
    <path fill="#27A2DB" d="M14.947 16.087H19.592V16.977H14.947z"/>
    <path fill="#7B7D87" d="M14.947 18.756H21.585V19.646H14.947zM14.947 21.423H21.585V22.313H14.947zM14.947 24.091H23.43V24.981H14.947zM14.947 26.76H20.226V27.650000000000002H14.947zM14.947 29.428H21.585V30.318H14.947zM26.075 21.423H28.032V22.313H26.075zM26.075 24.091H28.032V24.981H26.075zM26.075 26.76H28.032V27.650000000000002H26.075zM26.075 29.428H28.032V30.318H26.075z"/>
</svg>