<svg xmlns="http://www.w3.org/2000/svg" width="24" height="24" fill="none" viewBox="0 0 24 24">
    <circle cx="12" cy="12" r="12" fill="#5C42FF"/>
    <path fill="#E0DBFF" d="M12.19 6.056C12.127 6.014 12.063 6 12 6s-.127.014-.19.056l-5.557 3.46.534.703h9.954l1.006-.703-5.557-3.46zM8.11 16.594h-.704c-.157 0-.295-.105-.338-.256-.475-1.673-.475-3.488 0-5.16.043-.152.181-.256.338-.256h.703c.158 0 .296.104.339.255.474 1.673.474 3.488 0 5.161-.043.151-.181.256-.339.256zM16.594 16.594h-.703c-.158 0-.296-.105-.338-.256-.475-1.673-.475-3.488 0-5.16.042-.152.18-.256.338-.256h.703c.157 0 .295.104.338.255.475 1.673.475 3.488 0 5.161-.043.151-.181.256-.338.256zM10.945 16.594h-.703c-.157 0-.295-.105-.338-.256-.475-1.673-.475-3.488 0-5.16.043-.152.181-.256.338-.256h.703c.158 0 .296.104.338.255.475 1.673.475 3.488 0 5.161-.042.151-.18.256-.338.256zM13.758 16.594h-.703c-.157 0-.296-.105-.338-.256-.475-1.673-.475-3.488 0-5.16.042-.152.18-.256.338-.256h.703c.157 0 .295.104.338.255.475 1.673.475 3.488 0 5.161-.043.151-.18.256-.338.256z"/>
    <path fill="#fff" d="M17.747 9.516H6.253c-.148.091-.253.161-.253.351v.703c0 .584.471 1.055 1.055 1.055h9.89c.584 0 1.055-.471 1.055-1.055v-.703c0-.19-.105-.26-.253-.351zM12.352 8.46c0 .198-.155.352-.352.352-.197 0-.352-.154-.352-.351 0-.197.155-.352.352-.352.197 0 .352.155.352.352zM16.945 15.89h-9.89C6.47 15.89 6 16.363 6 16.946v.703c0 .197.155.352.352.352h11.296c.197 0 .352-.155.352-.352v-.703c0-.583-.471-1.054-1.055-1.054z"/>
</svg>
