<svg xmlns="http://www.w3.org/2000/svg" width="24" height="24" viewBox="0 0 24 24">
    <g fill="none" fill-rule="evenodd">
        <circle cx="12" cy="12" r="12" fill="#22A8FF"/>
        <g fill="#E9F6FF" fill-rule="nonzero">
            <path d="M9.813 9.25c-1.036 0-1.876-.84-1.876-1.875 0-1.036.84-1.875 1.875-1.875h1.126c.069 0 .124-.056.124-.125v-1.25c0-.69-.56-1.25-1.25-1.25h-8.5c-.69 0-1.25.56-1.25 1.25v6.5c0 .69.56 1.25 1.25 1.25h8.5c.69 0 1.25-.56 1.25-1.25v-1.25c0-.069-.055-.125-.124-.125H9.812z" transform="translate(6 6)"/>
            <path d="M11.313 6.25h-1.5c-.622 0-1.126.504-1.126 1.125S9.191 8.5 9.813 8.5h1.5c.364-.063.628-.38.624-.75V7c.004-.37-.26-.687-.624-.75z" transform="translate(6 6)"/>
            <path d="M9.906.588C9.866.429 9.765.293 9.624.21c-.141-.083-.31-.106-.468-.064L2.72 1.879c-.06.016-.099.075-.09.136.008.062.06.109.123.109l7.38.011c.038 0 .075-.017.099-.048.023-.03.032-.07.022-.108L9.906.589z" opacity=".5" transform="translate(6 6)"/>
        </g>
    </g>
</svg>
