<svg xmlns="http://www.w3.org/2000/svg" width="98" height="98" fill="none" viewBox="0 0 98 98">
    <path fill="#475673" d="M69.197 56.763c.636.636 1.14 1.391 1.485 2.222.344.83.521 1.72.521 2.62 0 .9-.177 1.79-.521 2.62-.344.831-.849 1.586-1.485 2.222L57.988 77.82l-6.5-6.58c-1.868-1.893-2.918-4.444-2.921-7.104-.003-2.66 1.04-5.213 2.904-7.11 6.055-2.004 11.738-4.991 16.82-8.843l.007.007c-.855 1.316-1.233 2.886-1.069 4.446.164 1.56.859 3.018 1.968 4.127zM36.743 24.309c1.109 1.11 2.566 1.804 4.126 1.967 1.56.164 3.13-.214 4.445-1.07-3.913 5.121-6.949 10.857-8.983 16.972-1.908 1.801-4.441 2.79-7.065 2.76-2.623-.03-5.133-1.077-7-2.92l-6.582-6.5 11.375-11.21c.636-.635 1.39-1.14 2.222-1.484.83-.344 1.72-.521 2.62-.521.9 0 1.79.177 2.62.521.831.344 1.586.849 2.222 1.485z"/>
    <path fill="#ED6337" d="M91.412 2.105c.002 4.46-.506 8.905-1.514 13.25l-.065-.016c-5.105-2.439-9.228-6.543-11.69-11.637l-.028-.06c4.358-1.023 8.82-1.539 13.297-1.537z"/>
    <path fill="#E5F5FD" d="M39.818 50.106l-4.81-4.81c.284-1.05.597-2.09.94-3.118 2.034-6.115 5.07-11.85 8.983-16.972h.002c8.233-10.81 19.96-18.431 33.182-21.564l.029.06c2.461 5.094 6.584 9.198 11.689 11.637l.065.016c-1.915 8.211-5.596 15.907-10.788 22.551-3.127 4.009-6.764 7.592-10.818 10.66-5.083 3.851-10.766 6.84-16.82 8.842-1.103.366-2.221.698-3.354.998L43.7 53.988l-3.882-3.882z"/>
    <path fill="#ED6337" d="M43.7 53.988l-2.444 9.886-11.611-11.612 10.173-2.156 3.882 3.882z"/>
    <path fill="#FADF4A" d="M35.17 62.61c0 1.02-.372 2.005-1.047 2.77-.675.763-1.607 1.253-2.62 1.377l-5.318.66.658-5.321c.13-1.056.66-2.022 1.478-2.701.819-.68 1.865-1.021 2.927-.956 1.062.066 2.059.534 2.787 1.31.729.774 1.134 1.798 1.134 2.862z"/>
    <path fill="#50A6EA" d="M64.455 36.311c4.003 0 7.248-3.245 7.248-7.248s-3.245-7.248-7.248-7.248-7.248 3.245-7.248 7.248 3.245 7.248 7.248 7.248z"/>
    <path fill="#A6B7D0" d="M78.144 3.702l-.03-.06C64.893 6.775 53.166 14.396 44.934 25.206h-.002c-3.913 5.121-6.949 10.857-8.983 16.972-.343 1.028-.656 2.068-.94 3.118l3.828 3.828c.284-1.05.597-2.09.94-3.118 2.034-6.115 5.07-11.85 8.983-16.972h.002c7.955-10.442 19.178-17.92 31.878-21.24-.961-1.281-1.797-2.651-2.495-4.092z"/>
    <path fill="#F9D438" d="M27.658 76.187h-1.81c-.304 0-.596-.12-.811-.336-.216-.215-.337-.507-.337-.812 0-.305.121-.597.337-.812.215-.216.507-.337.812-.337h1.81c.625 0 1.249-.073 1.858-.218.296-.071.608-.022.868.138s.445.415.516.711c.071.296.021.609-.138.868-.16.26-.415.446-.711.517-.784.187-1.588.281-2.394.281z"/>
    <path fill="#F9D438" d="M21.703 76.187h-3.136c-.266 0-.524-.092-.73-.26-.204-.17-.345-.404-.397-.665-.418-2.833.286-5.717 1.963-8.039l-.866-.022c-.3-.007-.584-.131-.793-.346-.21-.215-.327-.502-.326-.802-.002-1.372.269-2.73.798-3.996.53-1.266 1.306-2.414 2.284-3.376.947-.953 2.075-1.708 3.318-2.22 1.243-.51 2.576-.768 3.92-.757.406.003.812.03 1.215.082.322.04.656.099.988.174 1.886.432 3.61 1.39 4.975 2.76 1.365 1.372 2.314 3.1 2.738 4.988.071.322.127.648.166.968.194 1.548.032 3.119-.474 4.594-.507 1.475-1.343 2.815-2.447 3.917-.106.11-.233.196-.372.256-.14.06-.29.09-.443.092-.152 0-.303-.028-.444-.086-.14-.058-.268-.143-.376-.25-.107-.108-.192-.236-.25-.377-.058-.14-.087-.291-.086-.443.001-.153.032-.303.092-.443s.146-.267.255-.373c.74-.736 1.327-1.611 1.726-2.576.4-.964.604-1.998.601-3.042 0-.33-.02-.66-.062-.987-.03-.253-.073-.503-.128-.75-.33-1.463-1.065-2.804-2.123-3.867-1.058-1.063-2.395-1.805-3.856-2.141-.258-.058-.517-.104-.768-.136-.313-.04-.628-.06-.944-.063h-.06c-1.03.002-2.05.207-3.001.603-.952.397-1.815.977-2.542 1.708-1.263 1.243-2.08 2.868-2.326 4.623l2.174.055c.23.006.454.081.642.216.187.135.33.323.409.54.078.217.09.453.033.677-.057.223-.18.425-.354.577-.99.85-1.781 1.908-2.315 3.1-.533 1.191-.796 2.486-.77 3.79h2.093c.305 0 .597.122.812.337.215.216.336.508.336.812 0 .305-.12.597-.336.812-.215.216-.507.337-.812.337l-.001-.001z"/>
    <path fill="#CCD3DF" d="M75.731 49.94c-.236 0-.466-.072-.66-.208-.193-.136-.34-.328-.42-.55-.08-.223-.09-.464-.028-.692.062-.228.193-.432.375-.582.787-.652 1.568-1.334 2.32-2.03.111-.103.241-.184.383-.238.142-.053.293-.078.445-.073.152.005.3.04.439.104.138.063.262.154.365.265.103.112.182.242.234.385.053.143.076.294.069.446-.007.151-.044.3-.109.438-.064.137-.156.26-.268.362-.782.722-1.594 1.431-2.412 2.109-.206.171-.465.265-.733.264zM81.72 44.221c-.223 0-.44-.064-.627-.186-.187-.121-.334-.294-.424-.497-.09-.204-.118-.429-.083-.649.036-.22.134-.424.284-.588 1.6-1.76 3.088-3.618 4.457-5.562.863-1.225 1.687-2.501 2.45-3.79.62-1.049 1.215-2.13 1.765-3.214 1.512-2.977 2.758-6.081 3.725-9.277.088-.291.289-.536.557-.68.269-.144.583-.175.875-.087.291.088.536.288.68.557.144.268.175.583.087.875-1.006 3.325-2.303 6.554-3.876 9.652-.573 1.128-1.19 2.253-1.836 3.343-.794 1.34-1.651 2.667-2.549 3.942-1.424 2.022-2.972 3.954-4.635 5.785-.108.119-.239.214-.385.278-.147.065-.306.099-.466.099zM4.018 47.95c-.227 0-.45-.068-.638-.195-.189-.126-.336-.305-.423-.515-.087-.21-.11-.44-.065-.663.044-.223.153-.428.314-.588l.88-.88c.217-.21.507-.327.81-.325.301.002.59.123.803.336.214.214.335.503.337.805.002.302-.115.592-.326.808l-.88.88c-.106.107-.233.191-.372.25-.14.057-.29.087-.44.086zM7.392 44.575c-.228 0-.45-.068-.638-.194-.19-.126-.337-.305-.423-.515-.087-.21-.11-.441-.066-.664.045-.222.154-.427.315-.588l3.93-3.93c.106-.106.232-.19.372-.248.14-.058.289-.088.44-.088.15 0 .3.03.439.088.14.057.266.142.372.249.107.106.192.233.25.372.057.14.087.289.087.44 0 .15-.03.3-.088.44-.057.139-.142.265-.249.372l-3.93 3.93c-.106.106-.233.19-.372.249-.14.057-.289.087-.44.087zM5.748 52.242c-.227 0-.45-.067-.638-.194-.19-.126-.337-.305-.423-.515-.087-.21-.11-.44-.066-.664.045-.222.154-.427.315-.588l4.619-4.619c.215-.215.507-.336.812-.336.304 0 .597.12.812.336.215.215.336.507.336.812 0 .305-.12.597-.336.812l-4.62 4.62c-.106.106-.232.191-.372.249-.14.057-.288.087-.44.087zM12.625 45.363c-.227 0-.449-.067-.638-.193-.188-.127-.336-.306-.422-.516-.087-.21-.11-.44-.066-.663.044-.223.154-.428.314-.588l1.708-1.708c.106-.108.233-.194.373-.253.14-.059.29-.09.441-.09.152 0 .302.03.442.087.14.058.268.142.375.25.107.107.192.234.25.374.057.14.087.29.086.442 0 .152-.031.302-.09.442s-.145.266-.253.372l-1.708 1.709c-.107.106-.233.19-.373.248-.139.058-.288.087-.439.087zM3.633 60.378c-.227 0-.449-.067-.638-.193s-.336-.306-.423-.516c-.087-.21-.11-.44-.065-.663.044-.223.154-.427.314-.588l5.103-5.102c.106-.108.233-.195.373-.253.14-.06.29-.09.441-.09.152-.001.302.028.442.086.14.058.268.143.375.25.107.107.192.235.25.375.057.14.087.29.086.442 0 .151-.031.301-.09.44-.059.14-.145.267-.253.374l-5.103 5.102c-.106.107-.233.192-.372.25-.14.057-.29.087-.44.086zM11.366 52.646c-.227 0-.45-.068-.639-.194s-.336-.305-.423-.515c-.087-.21-.11-.442-.065-.664.044-.224.154-.428.315-.589l5.978-5.977c.106-.11.233-.196.373-.256.14-.06.29-.09.442-.092.152 0 .303.028.444.086.14.058.268.143.376.25.107.108.193.236.25.377.058.14.087.291.086.443 0 .152-.032.303-.092.443s-.146.267-.255.373l-5.978 5.978c-.107.107-.233.192-.373.25-.139.057-.288.087-.44.087zM40.682 84.613c-.227 0-.45-.067-.638-.193-.19-.126-.336-.306-.423-.515-.087-.21-.11-.441-.066-.664.044-.223.154-.427.315-.588l.879-.88c.216-.212.507-.33.81-.33.303.002.593.123.807.337.215.214.336.504.337.807.001.303-.117.595-.33.81l-.88.881c-.106.107-.233.191-.372.249-.14.057-.288.087-.44.086zM44.057 81.24c-.228 0-.45-.068-.638-.194-.19-.127-.336-.306-.423-.516-.087-.21-.11-.44-.066-.663.045-.223.154-.428.315-.588l3.93-3.93c.216-.21.506-.327.808-.325.302.002.59.123.804.336.214.214.334.503.337.805.002.301-.115.592-.326.808l-3.93 3.93c-.106.107-.233.191-.372.25-.14.057-.289.087-.44.086zM42.412 88.906c-.227 0-.45-.067-.638-.194-.189-.126-.336-.305-.423-.515-.087-.21-.11-.44-.065-.663.044-.223.153-.428.314-.588l4.62-4.62c.105-.108.232-.195.372-.255.14-.06.29-.09.443-.092.152 0 .303.028.443.086.141.058.269.143.376.25.108.108.193.236.25.377.059.14.088.291.087.443-.001.152-.033.303-.092.443-.06.14-.147.266-.256.373l-4.62 4.619c-.106.107-.232.191-.372.249-.139.058-.288.087-.44.087zM49.29 82.028c-.227 0-.45-.067-.638-.193-.19-.126-.337-.306-.424-.515-.086-.21-.11-.441-.065-.664.045-.223.154-.428.315-.588l1.707-1.708c.215-.215.507-.336.812-.336.305 0 .597.12.812.336.216.216.337.508.337.812 0 .305-.121.597-.337.812l-1.707 1.708c-.107.107-.233.192-.373.25-.14.057-.288.087-.44.087zM40.298 97.043c-.227 0-.45-.068-.638-.194-.19-.126-.336-.305-.423-.515-.087-.21-.11-.44-.066-.664.045-.222.154-.427.315-.588l5.102-5.102c.107-.108.233-.194.373-.253.14-.059.29-.09.441-.09.152 0 .302.029.442.087.14.057.268.142.375.25.107.107.192.234.25.374.058.14.087.29.086.442 0 .152-.03.302-.09.441-.059.14-.145.267-.253.373l-5.102 5.103c-.107.106-.233.191-.373.249-.139.057-.288.087-.44.087zM48.03 89.31c-.227 0-.449-.067-.638-.194-.189-.126-.336-.305-.423-.515-.087-.21-.11-.44-.065-.663.044-.223.154-.428.314-.588l5.978-5.978c.107-.109.233-.195.373-.253.14-.06.29-.09.441-.09.152-.001.302.028.442.086.14.058.268.143.375.25.107.107.192.235.25.375.058.14.087.29.086.442 0 .151-.031.301-.09.441s-.145.266-.253.373l-5.978 5.978c-.106.106-.233.191-.372.249-.14.058-.289.087-.44.087z"/>
    <path fill="#50A6EA" d="M85.717 67.434c-.942-.318-1.797-.85-2.499-1.554-.702-.704-1.23-1.56-1.546-2.503-.076-.23-.222-.428-.418-.57-.196-.14-.43-.216-.672-.216-.24 0-.476.076-.671.217-.196.14-.342.34-.418.569-.316.942-.845 1.8-1.547 2.503-.702.704-1.557 1.236-2.499 1.554-.228.077-.427.223-.568.419-.14.195-.216.43-.216.67 0 .241.076.476.216.671.141.196.34.342.568.419.942.318 1.797.85 2.5 1.554.701.704 1.23 1.56 1.546 2.503.076.23.222.428.418.57.195.14.43.216.671.216.241 0 .476-.076.672-.217.195-.14.342-.34.418-.569.315-.942.844-1.8 1.546-2.503.702-.704 1.557-1.236 2.5-1.554.228-.077.426-.223.567-.419.14-.195.216-.43.216-.67 0-.241-.075-.476-.216-.671-.14-.196-.34-.342-.568-.419zM14.514 21.305c-.942-.318-1.797-.85-2.499-1.553-.702-.705-1.231-1.562-1.546-2.504-.076-.23-.223-.428-.418-.57-.196-.14-.43-.216-.672-.216-.241 0-.476.076-.672.217-.195.14-.341.34-.418.569-.315.942-.844 1.8-1.546 2.503-.702.704-1.557 1.236-2.499 1.554-.228.077-.427.223-.568.419-.14.195-.216.43-.216.67 0 .241.076.476.216.672.141.195.34.341.568.418.942.318 1.797.85 2.5 1.554.7.704 1.23 1.56 1.545 2.503.077.23.223.428.418.57.196.14.43.216.672.216.241 0 .476-.076.672-.217.195-.14.342-.34.418-.569.315-.942.844-1.8 1.546-2.503.702-.704 1.557-1.236 2.5-1.554.227-.077.426-.223.567-.419.14-.195.216-.43.216-.67 0-.241-.075-.476-.216-.671-.14-.196-.34-.342-.568-.419z"/>
    <path fill="#D8FF33" d="M24.316 12.441c-.417.001-.824-.122-1.17-.353-.347-.231-.618-.56-.777-.944-.16-.385-.202-.808-.121-1.217.08-.409.28-.784.575-1.079.294-.295.67-.495 1.078-.577.409-.081.832-.04 1.217.12.385.159.714.429.945.775.232.346.356.753.356 1.17 0 .558-.222 1.093-.616 1.488s-.93.617-1.487.617zM76.953 87.281c-.417 0-.824-.122-1.17-.353-.348-.231-.618-.56-.778-.944-.16-.385-.202-.809-.12-1.217.08-.409.28-.784.575-1.079.294-.295.67-.496 1.078-.577.408-.082.832-.04 1.217.12.385.159.714.428.945.775.232.346.355.753.355 1.17 0 .558-.221 1.093-.616 1.488-.394.394-.928.617-1.486.617z"/>
</svg>