<svg xmlns="http://www.w3.org/2000/svg" width="24" height="24" fill="none" viewBox="0 0 24 24">
    <circle cx="12" cy="12" r="12" fill="#FF6C3E"/>
    <g clip-path="url(#clip0)">
        <path fill="#FFEFF0" d="M7.614 11.6c-.01-.066-.014-.133-.014-.201 0-.739.586-1.357 1.323-1.397.807-.043 1.477.6 1.477 1.398v.002c0 .109.089.198.198.198h.809c.107 0 .193-.086.193-.193V9.8c0-.152.086-.29.221-.358.136-.068.298-.053.42.038.107.082.238.123.374.12.305-.008.56-.25.583-.553.027-.352-.252-.647-.598-.647-.129 0-.252.04-.355.116-.084.062-.187.095-.29.082-.21-.027-.355-.201-.355-.398V6.193c0-.107-.087-.193-.193-.193H6.4c-.22 0-.4.18-.4.4v5.007c0 .107.086.193.193.193h1.421z"/>
        <path fill="#FFBDA8" d="M12.4 7.459c0 .081.068.145.15.142l.05-.001c.797 0 1.441.67 1.398 1.477-.04.737-.658 1.322-1.397 1.323l-.053-.001c-.081-.003-.148.064-.148.145v.863c0 .107.086.193.193.193h1.597c.127 0 .25.055.327.155.111.146.109.344.003.485-.082.108-.123.239-.12.375.008.305.25.56.553.583.352.027.647-.252.647-.598 0-.129-.04-.251-.116-.355-.062-.084-.095-.187-.082-.29.027-.21.202-.355.398-.355h2.007c.107 0 .193-.086.193-.193V6.4c0-.22-.18-.4-.4-.4h-5.007c-.107 0-.193.086-.193.193V7.46zM11.45 16.4c-.051.001-.102 0-.154-.004-.685-.049-1.238-.6-1.292-1.283-.064-.823.587-1.513 1.396-1.513l.05.001c.082.003.15-.06.15-.142v-.866c0-.106-.086-.193-.193-.193H9.809c-.126 0-.249-.055-.326-.155-.111-.146-.11-.344-.003-.485.082-.108.123-.238.12-.375-.007-.304-.249-.56-.553-.583-.352-.027-.647.252-.647.598 0 .13.04.252.116.355.062.084.095.187.082.29-.027.211-.201.355-.398.355H6.193c-.107 0-.193.087-.193.193V17.6c0 .221.18.4.4.4h5.007c.107 0 .193-.086.193-.193v-1.265c0-.082-.069-.146-.15-.143z"/>
        <path fill="#FFEFF0" d="M16.399 12.547l.001.053c0 .737-.582 1.356-1.318 1.398-.809.046-1.482-.599-1.482-1.398v-.05c.004-.082-.06-.15-.141-.15h-.866c-.107 0-.193.087-.193.193V14.2c0 .18-.12.342-.302.388-.12.03-.246-.001-.346-.074-.097-.07-.21-.11-.33-.114-.318-.01-.596.235-.62.553-.027.352.252.647.598.647.129 0 .251-.04.355-.116.084-.062.187-.095.29-.082.21.027.355.202.355.398v2.007c0 .107.086.193.193.193H17.6c.22 0 .4-.179.4-.4v-5.007c0-.106-.087-.193-.193-.193h-1.264c-.08 0-.147.066-.144.147z"/>
        <path fill="#AECAFC" d="M13.635 11.6h-1.042 1.042z"/>
    </g>
    <defs>
        <clipPath id="clip0">
            <path fill="#fff" d="M0 0H12V12H0z" transform="translate(6 6)"/>
        </clipPath>
    </defs>
</svg>
