<svg xmlns="http://www.w3.org/2000/svg" width="24" height="24" viewBox="0 0 24 24">
    <g fill="none" fill-rule="evenodd">
        <circle cx="12" cy="12" r="12" fill="#6236FF"/>
        <g fill-rule="nonzero">
            <path fill="#AA92FF" d="M7.188 15.886c-.68.174-1.401-.137-1.79-.772l-2.906-4.749 3.309-.849L8.116 13.3c.612 1 .142 2.311-.928 2.586zM14.025 7.11l-.552.142c-.722.185-1.458-.25-1.643-.972l-.107-.414c-.185-.722.25-1.458.972-1.643l.552-.142c.722-.185 1.458.25 1.643.972l.106.414c.186.722-.25 1.458-.971 1.643z" transform="translate(4 4)"/>
            <path fill="#AA92FF" d="M14.93 5.208l-3.16.84.06.232c.185.722.92 1.157 1.643.972l.552-.142c.722-.185 1.157-.92.971-1.643l-.066-.259z" transform="translate(4 4)"/>
            <path fill="#F3F0FF" d="M15.004 11.19L3.688 10.866 2.379 5.768 12.141 0.034z" transform="translate(4 4)"/>
            <path fill="#AA92FF" d="M2.38 5.768l-1.156.296C.348 6.289-.167 7.23.073 8.166l.439 1.71c.24.935 1.145 1.511 2.021 1.287l1.155-.297-1.309-5.098z" transform="translate(4 4)"/>
        </g>
    </g>
</svg>
