<svg xmlns="http://www.w3.org/2000/svg" width="24" height="24" viewBox="0 0 24 24">
    <g fill="none" fill-rule="evenodd">
        <circle cx="12" cy="12" r="12" fill="#03B361"/>
        <g fill="#DFF2EC" fill-rule="nonzero">
            <path d="M8.469 5.132c-.765.562-1.806.562-2.571 0-.765.562-1.806.562-2.57 0-.758.584-1.814.584-2.572 0v5.58c0 .71.576 1.285 1.286 1.285h2.142V7.284c0-.237.192-.429.429-.429h2.57c.237 0 .429.192.429.429v4.713h2.142c.71 0 1.285-.576 1.285-1.286v-5.57-.009c-.757.584-1.813.584-2.57 0z" transform="translate(6 6)"/>
            <path d="M.756 3.428c0 .71.576 1.285 1.286 1.285.37 0 .722-.163.963-.445.167-.178.448-.186.626-.019l.019.02c.476.53 1.293.576 1.825.1.035-.032.069-.066.1-.1.168-.179.448-.187.627-.02l.019.02c.476.53 1.293.576 1.825.1.035-.032.068-.066.1-.1.168-.179.448-.187.626-.02l.02.02c.24.281.591.444.962.444.71 0 1.285-.576 1.285-1.285H.756zM1.185 0C1 0 .837.118.778.293L.02 2.571H2.9V0H1.185zM3.756 0H5.47V2.571H3.756zM11.017.293C10.96.118 10.795 0 10.611 0H8.897v2.57h2.88l-.76-2.277zM6.326 0H8.04V2.571H6.326z" opacity=".5" transform="translate(6 6)"/>
        </g>
    </g>
</svg>
