<svg xmlns="http://www.w3.org/2000/svg" width="80" height="80" fill="none" viewBox="0 0 80 80">
    <path fill="#9E593C" d="M12.38 70H45c.995 0 1.948-.395 2.652-1.098.703-.704 1.098-1.657 1.098-2.652V35H7.163c-.906 0-1.774.36-2.413 1-.64.64-1 1.507-1 2.413V61.37c0 2.289.91 4.484 2.528 6.102C7.896 69.091 10.09 70 12.38 70z"/>
    <path fill="#6E8BEB" d="M26.25 56.25L30 60l3.75-3.75L37.5 60l3.75-3.75L45 60l3.75-3.75L52.5 60l3.75-3.75V15h-25c-1.326 0-2.598.527-3.535 1.465-.938.937-1.465 2.209-1.465 3.535v36.25z"/>
    <path fill="#B36F42" d="M3.75 65.934c0 1.15.396 2.263 1.12 3.155.726.891 1.735 1.506 2.86 1.74l25.677 5.35c.228.047.46.07.693.07.447 0 .889-.087 1.301-.258.413-.17.788-.421 1.103-.737.316-.316.566-.69.737-1.103.171-.412.259-.854.259-1.3V51.658c0-1.168-.409-2.3-1.156-3.197-.747-.899-1.785-1.507-2.934-1.72L6.54 41.768c-.783-.145-1.491-.56-2.001-1.173-.51-.613-.789-1.385-.789-2.182v27.522z"/>
    <path fill="#5771E5" d="M51.25 42.5h-10c-1.326 0-2.598-.527-3.535-1.465-.938-.937-1.465-2.209-1.465-3.535V20c0-1.326-.527-2.598-1.465-3.535C33.849 15.527 32.576 15 31.25 15h20v27.5z"/>
    <path fill="#89A8F5" d="M71.25 42.5c1.326 0 2.598-.527 3.535-1.465.938-.937 1.465-2.209 1.465-3.535V3.75L72.5 7.5l-3.75-3.75L65 7.5l-3.75-3.75L57.5 7.5l-3.75-3.75L50 7.5l-3.75-3.75V37.5c0 1.326-.527 2.598-1.465 3.535-.937.938-2.209 1.465-3.535 1.465h30z"/>
    <path fill="#A2C1FA" d="M61.25 16.25c1.38 0 2.5-1.12 2.5-2.5s-1.12-2.5-2.5-2.5-2.5 1.12-2.5 2.5 1.12 2.5 2.5 2.5z"/>
    <path fill="#6E8BEB" d="M53.75 20H60v2.5h-6.25V20zM62.5 20h6.25v2.5H62.5V20zM56.25 25h10v2.5h-10V25zM50 30h3.75v2.5H50V30zM50 35h7.5v2.5H50V35zM56.25 30h2.5v2.5h-2.5V30zM66.25 30h6.25v2.5h-6.25V30zM68.75 35h3.75v2.5h-3.75V35z"/>
</svg>
