<svg xmlns="http://www.w3.org/2000/svg" width="14" height="20" viewBox="0 0 14 20">
    <g fill="#22A8FF">
        <path d="M10.833 0H2.5C1.12 0 0 1.12 0 2.5v15C0 18.88 1.12 20 2.5 20h8.333c1.381 0 2.5-1.12 2.5-2.5v-15c0-1.38-1.119-2.5-2.5-2.5zm.834 15.833c0 .23-.187.417-.417.417H2.083c-.23 0-.416-.187-.416-.417V2.917c0-.23.186-.417.416-.417h9.167c.23 0 .417.187.417.417v12.916z"/>
        <path d="M3.75 7.5c-.46 0-.833.373-.833.833v2.5c0 .46.373.834.833.834.46 0 .833-.373.833-.834v-2.5c0-.46-.373-.833-.833-.833zM9.583 7.5c-.46 0-.833.373-.833.833v2.5c0 .46.373.834.833.834.46 0 .834-.373.834-.834v-2.5c0-.46-.373-.833-.834-.833zM6.667 5.417c-.46 0-.834.373-.834.833v6.667c0 .46.373.833.834.833.46 0 .833-.373.833-.833V6.25c0-.46-.373-.833-.833-.833z" opacity=".5"/>
    </g>
</svg>
