<svg xmlns="http://www.w3.org/2000/svg" width="32" height="32" fill="none" viewBox="0 0 32 32">
    <g clip-path="url(#clip0)">
        <path fill="#83CEFF" d="M30.686 2.003H1.314C.588 2.003 0 2.59 0 3.317v10.68c0 .726.588 1.315 1.314 1.315h1.273c.415 0 .751-.336.751-.751V5.987c0-.726.588-1.314 1.314-1.314h22.696c.726 0 1.314.588 1.314 1.314v8.574c0 .415.336.75.75.75h1.274c.726 0 1.314-.588 1.314-1.313V3.317c0-.726-.588-1.314-1.314-1.314z"/>
        <path fill="#22A8FF" d="M24.678 7.343H7.322c-.726 0-1.314.588-1.314 1.314v20.026c0 .726.588 1.314 1.314 1.314h17.356c.726 0 1.314-.588 1.314-1.314V8.657c0-.726-.588-1.314-1.314-1.314zm-12.683 4.673h4.672c.726 0 1.315.588 1.315 1.314 0 .726-.589 1.314-1.315 1.314h-4.672c-.726 0-1.314-.588-1.314-1.314 0-.726.588-1.314 1.314-1.314zm6.008 11.973h-6.008c-.726 0-1.314-.588-1.314-1.314 0-.726.588-1.314 1.314-1.314h6.008c.725 0 1.314.588 1.314 1.314 0 .726-.589 1.314-1.314 1.314zm2.002-4.672h-8.01c-.726 0-1.314-.589-1.314-1.314 0-.726.588-1.315 1.314-1.315h8.01c.726 0 1.314.589 1.314 1.315 0 .725-.588 1.314-1.314 1.314z"/>
    </g>
    <defs>
        <clipPath id="clip0">
            <path fill="#fff" d="M0 0H32V32H0z"/>
        </clipPath>
    </defs>
</svg>
