<svg xmlns="http://www.w3.org/2000/svg" width="20" height="20" viewBox="0 0 20 20">
    <g fill="#FA0">
        <path d="M13.958 4.375C13.958 1.959 12 0 9.583 0 7.167 0 5.208 1.959 5.208 4.375S7.168 8.75 9.583 8.75c2.415-.003 4.373-1.96 4.375-4.375zM9.583 7.083c-.894 0-1.73-.441-2.235-1.18-.505-.738-.613-1.677-.289-2.51.023-.06.073-.106.135-.125.061-.018.128-.007.18.03.991.702 2.176 1.078 3.39 1.077.449 0 .896-.051 1.334-.153.046-.011.095 0 .133.03.037.03.06.075.059.123-.002 1.494-1.212 2.706-2.707 2.708zM9.074 9.955c.02-.097.105-.166.204-.167h.611c.099 0 .184.07.204.167l.806 3.632c.02.096.105.166.204.166h3.908c.206 0 .399-.101.515-.271.117-.17.142-.386.068-.579-.947-2.497-3.34-4.15-6.01-4.15-2.672 0-5.065 1.653-6.011 4.15-.075.193-.05.41.067.579.117.17.31.271.516.271h3.908c.099 0 .184-.07.204-.166l.806-3.632z"/>
        <path d="M20 15.833c0-.46-.373-.833-.833-.833H.833c-.46 0-.833.373-.833.833 0 .46.373.834.833.834h.209c.115 0 .208.093.208.208v2.292c0 .46.373.833.833.833h15.834c.46 0 .833-.373.833-.833v-2.292c0-.115.093-.208.208-.208h.209c.46 0 .833-.373.833-.834z" opacity=".5"/>
    </g>
</svg>
