<svg xmlns="http://www.w3.org/2000/svg" width="67" height="20" fill="none" viewBox="0 0 67 20">
    <path fill="#9684FF" d="M17.163 7.915v4.495L20 11.332 16.07 1.46 0 7.915"/>
    <path fill="#EAE7FF" d="M17.98 12.1V7.096H2.036l-1.218.49v.328h16.346v4.495l.818-.31z"/>
    <path fill="#9684FF" d="M0 7.915h17.163V18.54H0V7.915z"/>
    <path fill="#B9ADFF" d="M1.635 11.474c.924-.277 1.648-1 1.924-1.925h10.045c.277.925 1 1.649 1.925 1.925v3.506c-.925.277-1.648 1-1.925 1.925H3.56c-.277-.925-1-1.648-1.924-1.925v-3.506z"/>
    <path fill="#9684FF" d="M8.582 15.27c1.128 0 2.043-.914 2.043-2.043 0-1.128-.915-2.043-2.043-2.043-1.129 0-2.043.915-2.043 2.043 0 1.129.914 2.043 2.043 2.043z"/>
    <path fill="#B9ADFF" d="M16.88 7.915l-.969-2.493-.044-.11c-.961.085-1.9-.319-2.5-1.075l-.11.044-8.762 3.634H16.88z"/>
    <path fill="#EAE7FF" d="M6.466 7.097l-1.97.818H16.88l-.317-.818H6.466z"/>
    <path fill="#9684FF" d="M4.087 13.636c.225 0 .408-.183.408-.409 0-.226-.183-.409-.408-.409-.226 0-.41.184-.41.41 0 .225.184.408.41.408zM13.077 13.636c.226 0 .409-.183.409-.409 0-.226-.183-.409-.409-.409-.226 0-.409.184-.409.41 0 .225.183.408.409.408zM57.316.094C57.211.024 57.106 0 57 0c-.105 0-.21.023-.316.094l-9.262 5.765.89 1.172h16.59l1.676-1.172L57.316.094zM50.516 17.656h-1.172c-.262 0-.492-.174-.564-.425-.791-2.789-.791-5.814 0-8.602.072-.252.302-.426.564-.426h1.172c.262 0 .492.174.563.426.792 2.788.792 5.813 0 8.601-.071.252-.301.426-.563.426zM64.656 17.656h-1.172c-.262 0-.492-.174-.563-.425-.792-2.789-.792-5.814 0-8.602.071-.252.301-.426.563-.426h1.172c.262 0 .492.174.564.426.791 2.788.791 5.813 0 8.601-.072.252-.302.426-.564.426zM55.242 17.656H54.07c-.262 0-.492-.174-.563-.425-.792-2.789-.792-5.814 0-8.602.071-.252.301-.426.563-.426h1.172c.262 0 .492.174.564.426.791 2.788.791 5.813 0 8.601-.072.252-.302.426-.564.426zM59.93 17.656h-1.172c-.262 0-.492-.174-.564-.425-.791-2.789-.791-5.814 0-8.602.072-.252.302-.426.564-.426h1.172c.262 0 .492.174.563.426.792 2.788.792 5.813 0 8.601-.071.252-.301.426-.563.426z"/>
    <path fill="#B9ADFF" d="M66.578 5.86H47.422c-.246.152-.422.269-.422.585v1.172c0 .973.785 1.758 1.758 1.758h16.484c.973 0 1.758-.785 1.758-1.758V6.445c0-.316-.176-.433-.422-.586z"/>
    <path fill="#D8D1FF" d="M57.586 4.102c0 .328-.258.585-.586.585-.328 0-.586-.257-.586-.585 0-.329.258-.586.586-.586.328 0 .586.257.586.586z"/>
    <path fill="#B9ADFF" d="M65.242 16.484H48.758c-.973 0-1.758.785-1.758 1.758v1.172c0 .328.258.586.586.586h18.828c.328 0 .586-.258.586-.586v-1.172c0-.973-.785-1.758-1.758-1.758z"/>
    <path fill="#9684FF" d="M37.914 9.777l-3-3.333c-.063-.07-.153-.11-.247-.11h-2c-.132 0-.25.077-.305.197-.053.12-.031.261.057.359L35.218 10l-2.8 3.11c-.087.098-.11.239-.056.359s.173.198.305.198h2c.094 0 .184-.041.248-.11l3-3.334c.114-.126.114-.32 0-.446z"/>
    <path fill="#B9ADFF" d="M33.581 9.777l-3-3.333c-.063-.07-.153-.11-.247-.11h-2c-.132 0-.251.077-.305.197-.053.12-.031.261.057.359L30.885 10l-2.8 3.11c-.087.098-.11.239-.056.359s.173.198.305.198h2c.094 0 .184-.041.248-.11l3-3.334c.113-.126.113-.32 0-.446z"/>
</svg>
