<svg xmlns="http://www.w3.org/2000/svg" width="20" height="20" fill="none" viewBox="0 0 20 20">
    <g clip-path="url(#clip0)">
        <path fill="#FF5C28" d="M19.18 5.038v9.924c0 .492-.284.94-.728 1.152l-7.902 3.762c-.174.083-.362.124-.55.124-.188 0-.376-.041-.55-.124l-7.902-3.762c-.444-.212-.728-.66-.728-1.152V5.038c0-.255.077-.5.213-.704.125-.19.302-.347.516-.448L9.45.124c.347-.165.75-.165 1.099 0l7.902 3.762c.214.101.39.258.515.448.136.205.213.449.213.704z"/>
        <path fill="#FFB3A9" d="M10 8.603V20c-.188 0-.376-.041-.55-.124l-7.902-3.762c-.444-.212-.728-.66-.728-1.152V5.038c0-.255.077-.5.213-.704L10 8.603z"/>
        <path fill="#FF6C3E" d="M19.18 5.038v9.924c0 .487-.278.931-.715 1.146l-.013.006-7.902 3.762c-.174.083-.362.124-.55.124V8.603l8.967-4.27c.136.206.213.45.213.705z"/>
        <path fill="#F1F1F1" d="M15.986 12.078c.077-.572-.202-1.081-.623-1.138-.422-.057-.826.36-.903.931-.078.572.201 1.082.623 1.139.421.056.825-.36.903-.932zM7.507 11.328c.423-.023.74-.51.708-1.086-.032-.576-.4-1.024-.822-1-.423.022-.74.508-.708 1.085.032.576.4 1.024.822 1zM3.125 15.118c.422-.023.74-.509.707-1.085-.031-.576-.4-1.024-.822-1.001-.423.023-.74.51-.708 1.085.032.576.4 1.025.823 1.001zM6.34 4.835c.576-.031 1.024-.4 1-.822-.023-.423-.509-.74-1.085-.708-.576.032-1.024.4-1.001.823.023.422.51.739 1.086.707zM9.957 3.046c.576-.032 1.025-.4 1.001-.823-.023-.423-.509-.74-1.085-.708-.576.032-1.025.4-1.001.823.023.422.509.74 1.085.708zM13.747 4.96c.576-.032 1.024-.4 1-.823-.022-.423-.508-.74-1.085-.708-.576.032-1.024.4-1 .823.022.422.508.739 1.085.707zM10.214 6.621c.576-.032 1.025-.4 1.002-.822-.024-.423-.51-.74-1.086-.708-.576.032-1.024.4-1.001.822.023.423.509.74 1.085.708z"/>
    </g>
    <defs>
        <clipPath id="clip0">
            <path fill="#fff" d="M0 0H20V20H0z"/>
        </clipPath>
    </defs>
</svg>
