<svg xmlns="http://www.w3.org/2000/svg" width="26" height="20" viewBox="0 0 26 20">
    <g fill="#22A8FF">
        <path d="M24.98 4.832L13.164.142c-.234-.094-.494-.094-.728 0L.62 4.831c-.381.152-.629.525-.62.935v6.164c0 .544.44.985.985.985.543 0 .984-.441.984-.985V7.835c0-.16.078-.31.208-.402.13-.092.297-.116.448-.063l9.846 3.476c.211.076.443.076.654 0L24.94 6.677c.389-.135.652-.498.66-.91.008-.41-.24-.784-.622-.935h.002z"/>
        <path d="M19.226 11.171l-5.77 2.036c-.425.15-.887.15-1.312 0l-5.77-2.036c-.301-.106-.635-.06-.896.125-.26.185-.415.485-.415.804v4.232c0 .418.264.79.658.928l5.066 1.788c1.302.46 2.722.46 4.024 0l5.068-1.788c.394-.139.658-.51.658-.928V12.1c0-.32-.154-.619-.415-.804-.26-.184-.595-.231-.896-.125z" opacity=".5"/>
    </g>
</svg>