<svg width="14" height="20" viewBox="0 0 14 20" fill="none" xmlns="http://www.w3.org/2000/svg">
<path d="M13.6942 7.49408C13.6248 7.36004 13.4864 7.27589 13.3354 7.2759H7.37501L8.88127 0.492869C8.92356 0.305176 8.82762 0.113704 8.65197 0.0352008C8.47632 -0.0433027 8.26968 0.0129405 8.15804 0.169637L0.0772335 11.4828C-0.0123384 11.606 -0.0249994 11.7691 0.0444869 11.9047C0.113973 12.0402 0.253795 12.1252 0.406122 12.1244H6.36653L4.86026 18.9042C4.81798 19.0919 4.91391 19.2833 5.08957 19.3619C5.26522 19.4404 5.47186 19.3841 5.5835 19.2274L13.6643 7.91428C13.7523 7.7909 13.7638 7.62867 13.6942 7.49408Z" fill="#9684FF"/>
</svg>
