<svg xmlns="http://www.w3.org/2000/svg" width="21" height="20" viewBox="0 0 21 20">
    <g fill="none">
        <path fill="#CDB2DE" d="M18.06 9.545l1.53-1.189c.276-.214.326-.612.112-.889L17.64 4.814l-.212.164c-.22.178-.492.278-.774.285-.389.002-.755-.183-.984-.496-.23-.314-.295-.718-.176-1.088.082-.243.237-.456.443-.61l.217-.167L14.094.248c-.103-.132-.255-.219-.422-.24-.166-.02-.335.025-.467.129L1.093 9.545H18.06zM4.406 19.683L4.633 19.975 5.009 19.683z"/>
        <path fill="#BD96D6" d="M17.662 4.841c-.037 2.608-2.16 4.703-4.769 4.704h5.167l1.53-1.189c.276-.214.326-.612.112-.889l-2.04-2.626z"/>
        <path fill="#FFEAD2" d="M19.646 20H.636c-.35 0-.634-.284-.634-.634v-3.485h.26c.662 0 1.254-.482 1.318-1.14.036-.357-.081-.711-.321-.977-.24-.265-.582-.417-.94-.417H.002V9.86c0-.35.284-.633.634-.633h19.01c.168 0 .329.066.448.185.119.12.185.28.185.448v3.486h-.26c-.661 0-1.253.482-1.318 1.14-.035.356.082.711.322.977.24.265.582.417.94.417h.316v3.485c0 .35-.283.634-.633.634z"/>
        <path fill="#FAD4B1" d="M20.019 13.347h.26V9.86c0-.35-.283-.633-.633-.633h-2.54C15.751 15.388 10.265 20 3.698 20h15.947c.168 0 .329-.067.448-.186.119-.118.185-.28.185-.448v-3.485h-.316c-.358 0-.7-.152-.94-.417-.24-.266-.357-.62-.322-.977.065-.658.657-1.14 1.318-1.14z"/>
        <path fill="#EA8668" d="M11.408 8.606l-.086-.024c-.1-.028-2.448-.713-2.448-2.593 0-.835.72-1.514 1.604-1.514.331-.001.655.096.93.28.275-.184.6-.281.93-.28.885 0 1.605.68 1.605 1.514 0 1.88-2.349 2.565-2.449 2.593l-.086.024z"/>
        <g fill="#F9B775">
            <path d="M.002 7.92c0-.174.142-.316.317-.316.175 0 .316.142.317.317 0 .175-.142.316-.317.317-.175 0-.316-.142-.317-.317zm0-1.267c0-.174.142-.316.317-.316.175 0 .316.142.317.316 0 .175-.142.317-.317.317-.175 0-.316-.142-.317-.317zm0-1.267c0-.175.142-.316.317-.317.175 0 .316.142.317.317 0 .175-.142.316-.317.317-.175 0-.316-.142-.317-.317zm0-1.267c0-.175.142-.317.317-.317.175 0 .316.142.317.317 0 .175-.142.316-.317.317-.175 0-.316-.142-.317-.317zm0-1.268c0-.174.142-.316.317-.316.175 0 .316.142.317.316 0 .175-.142.317-.317.317-.175 0-.316-.142-.317-.317zm0-1.267c0-.175.142-.316.317-.317.175 0 .316.142.317.317 0 .175-.142.316-.317.317-.175 0-.316-.142-.317-.317zm0-1.267C.002.142.144 0 .32 0c.175 0 .316.142.317.317 0 .175-.142.316-.317.317C.144.634.003.492.002.317zM4.755 2.218H1.586c-.175 0-.316-.142-.316-.317 0-.175.141-.317.316-.317h3.169c.175 0 .317.142.317.317 0 .175-.142.317-.317.317zM4.755 3.485H1.586c-.175 0-.316-.142-.316-.317 0-.175.141-.317.316-.317h3.169c.175 0 .317.142.317.317 0 .175-.142.317-.317.317zM4.755 4.752H1.586c-.175 0-.316-.141-.316-.316 0-.175.141-.317.316-.317h3.169c.175 0 .317.142.317.317 0 .175-.142.316-.317.316zM3.487 6.02h-1.9c-.176 0-.317-.142-.317-.317 0-.175.141-.317.316-.317h1.901c.175 0 .317.142.317.317 0 .175-.142.317-.317.317z" transform="translate(12.04 10.495)"/>
        </g>
        <path fill="#E57055" d="M10.141 16.636c-.098 0-.195-.023-.284-.067L8.24 15.76v-2.292l1.617-.81c.197-.097.43-.087.617.028.187.116.3.32.3.54v2.776c0 .35-.283.634-.633.634zM13.468 8.606l-.086-.023c-.068-.02-1.657-.479-1.657-1.762 0-.594.514-1.078 1.145-1.078.21-.001.416.054.598.158.181-.104.388-.16.597-.158.632 0 1.145.484 1.145 1.078 0 1.283-1.59 1.743-1.657 1.762l-.085.023z"/>
        <path fill="#E0563F" d="M8.28 15.78l1.577.789c.197.098.43.088.617-.028.187-.115.3-.32.3-.539v-2.776c-.001-.022-.004-.043-.007-.063-.453 1.165-1.346 2.105-2.487 2.617z"/>
        <rect width="5.703" height="4.436" x="3.171" y="12.396" fill="#EA8668" rx="1.354"/>
        <path fill="#E57055" d="M8.211 12.445c-.246 2.285-2.044 4.093-4.327 4.353.077.021.157.033.237.034h3.802c.525 0 .95-.426.95-.95v-2.535c0-.413-.269-.777-.662-.902z"/>
        <path fill="#E0563F" d="M6.656 14.297H5.388c-.175 0-.316-.142-.316-.317 0-.175.141-.317.316-.317h1.268c.175 0 .317.142.317.317 0 .175-.142.317-.317.317zM5.388 15.564c-.041 0-.082-.009-.12-.025-.038-.016-.074-.039-.105-.067-.122-.124-.122-.324 0-.45.031-.027.067-.05.105-.066.118-.048.254-.022.345.067.03.03.052.065.067.104.016.038.025.08.025.12 0 .085-.033.165-.092.225-.06.058-.14.091-.225.092zM6.656 15.564c-.085.001-.166-.032-.225-.092-.06-.06-.093-.14-.092-.224 0-.042.009-.083.025-.121.015-.04.037-.075.067-.104.101-.103.26-.125.384-.053.126.072.187.22.15.359-.038.14-.165.236-.31.235z"/>
        <path fill="#E57055" d="M12.338 4.475c-.102.001-.205.011-.306.03-.091 1.468-1.23 2.655-2.692 2.806.69.891 1.91 1.25 1.982 1.271l.086.024.086-.024c.1-.028 2.449-.713 2.449-2.593 0-.835-.72-1.514-1.605-1.514z"/>
        <path fill="#EA8668" d="M13.468 8.606l-.086-.023c-.068-.02-1.657-.479-1.657-1.762 0-.594.514-1.078 1.145-1.078.21-.001.416.054.598.158.181-.104.388-.16.597-.158.632 0 1.145.484 1.145 1.078 0 1.283-1.59 1.743-1.657 1.762l-.085.023z"/>
        <path fill="#E57055" d="M14.723 5.941c-.38 1.087-1.346 1.863-2.49 1.997.471.449 1.107.633 1.15.644l.085.024.085-.024c.068-.019 1.657-.478 1.657-1.761-.004-.357-.187-.687-.487-.88z"/>
        <circle cx="12.834" cy="6.851" r="1" fill="#FFD0C2"/>
        <circle cx="9.982" cy="5.584" r="1" fill="#FFD0C2"/>
        <circle cx="1.586" cy="10.812" r="1" fill="#FFFCED"/>
        <circle cx="4.279" cy="13.505" r="1" fill="#FFD0C2"/>
    </g>
</svg>
