<svg xmlns="http://www.w3.org/2000/svg" width="31" height="31" fill="none" viewBox="0 0 31 31">
    <g clip-path="url(#clip0)">
        <path fill="#42B4FF" d="M29.729 7.81v15.38c0 .763-.44 1.458-1.129 1.787l-12.248 5.83c-.27.129-.56.193-.852.193-.291 0-.582-.064-.852-.193L2.4 24.977c-.69-.329-1.129-1.024-1.129-1.786V7.81c0-.397.119-.775.33-1.093.194-.294.468-.536.8-.693L14.647.192c.54-.256 1.165-.256 1.704 0L28.6 6.024c.332.157.605.4.8.693.21.318.329.696.329 1.093z"/>
        <path fill="#139CF5" d="M29.4 6.717c-.195-.294-.468-.536-.8-.693L16.352.192c-.539-.256-1.165-.256-1.703 0l-.084.04 12.163 5.792c.332.157.605.4.8.693.21.318.329.696.329 1.093v15.38c0 .763-.44 1.458-1.129 1.787l-12.164 5.79.085.04c.269.129.56.193.851.193.291 0 .583-.064.852-.193l12.248-5.83c.69-.329 1.129-1.024 1.129-1.786V7.81c0-.397-.118-.775-.33-1.093z"/>
        <path fill="#83CEFF" d="M15.5 13.335V31c-.291 0-.582-.064-.852-.193L2.4 24.977c-.69-.329-1.129-1.024-1.129-1.787V7.81c0-.397.119-.775.33-1.093L15.5 13.335z"/>
        <path fill="#22A8FF" d="M29.729 7.81v15.38c0 .755-.43 1.444-1.108 1.777l-.02.01-12.249 5.83c-.27.129-.56.193-.852.193V13.335l13.9-6.618c.21.318.329.696.329 1.092z"/>
        <path fill="#139CF5" d="M29.4 6.717l-1.575.75c.02.112.031.226.031.342v15.382c0 .754-.43 1.443-1.108 1.776l-.02.01L15.5 30.322V31c.291 0 .583-.064.852-.193l12.248-5.83.02-.01c.678-.333 1.108-1.022 1.108-1.776V7.809c0-.396-.118-.774-.329-1.092z"/>
        <path fill="#F1F1F1" d="M24.778 18.72c.12-.885-.312-1.675-.965-1.763-.653-.089-1.28.558-1.4 1.444-.12.886.313 1.676.966 1.764.653.088 1.28-.558 1.4-1.444zM11.636 17.558c.655-.036 1.147-.79 1.097-1.682-.049-.893-.62-1.588-1.275-1.552-.655.036-1.146.79-1.097 1.682.05.893.62 1.588 1.275 1.552zM4.844 23.434c.654-.036 1.146-.79 1.096-1.683-.049-.893-.62-1.588-1.275-1.551-.655.036-1.146.789-1.096 1.682.049.893.62 1.588 1.275 1.552zM9.827 7.495c.893-.05 1.588-.62 1.552-1.275-.036-.655-.79-1.146-1.683-1.097-.893.049-1.588.62-1.552 1.275.036.655.79 1.146 1.683 1.097zM15.434 4.72c.893-.048 1.588-.62 1.552-1.274-.036-.655-.79-1.146-1.682-1.097-.893.05-1.588.62-1.552 1.275.036.655.79 1.146 1.682 1.097zM21.308 7.687c.893-.05 1.588-.62 1.552-1.275-.036-.655-.79-1.146-1.682-1.097-.893.05-1.588.62-1.552 1.275.036.655.79 1.146 1.682 1.097zM15.832 10.263c.893-.05 1.588-.62 1.552-1.275-.036-.655-.79-1.146-1.683-1.097-.893.05-1.588.62-1.552 1.275.036.655.79 1.146 1.683 1.097z"/>
    </g>
    <defs>
        <clipPath id="clip0">
            <path fill="#fff" d="M0 0H31V31H0z"/>
        </clipPath>
    </defs>
</svg>
