<svg xmlns="http://www.w3.org/2000/svg" width="20" height="20" fill="none" viewBox="0 0 20 20">
    <path fill="#FF6C3E" d="M2.859 3.629C1.349 3.812.294 4.12 0 4.186v14.1l.728-.183c2.974-.743 6.298-.743 9.272 0L2.859 3.63z"/>
    <path fill="#FFB3A9" d="M18.828 3.919c-2.873-.596-5.985-.531-8.828.14-.204-.1-2.613-2.11-6.484-2.307-.198-.01-.38-.037-.586-.037h-.586v14.062h.586c4.06 0 6.626 2.12 7.07 2.344.119-.015 4.361-1.243 9.272-.018l.728.182V4.187c-.293-.069-.929-.218-1.172-.268z"/>
    <path fill="#FF6C3E" d="M18.828 3.919c-2.873-.596-5.985-.531-8.828.14V18.12c.119-.015 4.361-1.243 9.272-.018l.728.182V4.187c-.293-.069-.929-.218-1.172-.268z"/>
    <path fill="#fff" d="M12.93 13.942V7.065l5.197 3.439-5.197 3.438z"/>
</svg>
