<svg xmlns="http://www.w3.org/2000/svg" width="20" height="20" viewBox="0 0 20 20">
    <g fill="none">
        <path fill="#03B361" d="M14.114 8.553c-1.274.937-3.01.937-4.284 0-1.275.937-3.01.937-4.285 0-1.262.973-3.022.973-4.284 0v9.299c0 1.183.959 2.142 2.142 2.142h3.57V12.14c0-.394.32-.714.715-.714h4.284c.394 0 .714.32.714.714v7.855h3.57c1.184 0 2.143-.959 2.143-2.142V8.57v-.016c-1.263.973-3.022.973-4.285 0z"/>
        <path fill="#00B361" d="M1.26 5.713c0 1.183.96 2.142 2.143 2.142.618 0 1.204-.271 1.605-.741.28-.297.746-.311 1.043-.032.011.01.022.02.032.032.794.886 2.156.96 3.042.167.059-.053.115-.109.167-.167.28-.297.747-.311 1.044-.032l.032.032c.794.886 2.156.96 3.042.167.058-.053.114-.109.167-.167.28-.297.746-.311 1.043-.032.011.01.022.02.032.032.4.47.987.74 1.605.74 1.183 0 2.142-.958 2.142-2.141H1.26zM1.975 0c-.308 0-.58.197-.678.488L.032 4.285h4.8V0H1.974zM6.259 0H9.115V4.285H6.259zM18.362.488C18.265.197 17.992 0 17.685 0h-2.857v4.285h4.8L18.362.488zM10.544 0H13.4V4.285H10.544z" opacity=".5"/>
    </g>
</svg>
