<svg width="14" height="20" viewBox="0 0 14 20" fill="none" xmlns="http://www.w3.org/2000/svg">
<path fill-rule="evenodd" clip-rule="evenodd" d="M2.5 0H10.8333C12.214 0 13.3333 1.11929 13.3333 2.5V17.5C13.3333 18.8807 12.214 20 10.8333 20H2.5C1.11929 20 0 18.8807 0 17.5V2.5C0 1.11929 1.11929 0 2.5 0ZM11.25 16.25C11.4801 16.25 11.6667 16.0635 11.6667 15.8333V2.91667C11.6667 2.68655 11.4801 2.5 11.25 2.5H2.08333C1.85321 2.5 1.66667 2.68655 1.66667 2.91667V15.8333C1.66667 16.0635 1.85321 16.25 2.08333 16.25H11.25Z" fill="#9684FF"/>
<path opacity="0.5" d="M3.75002 7.5C3.28978 7.5 2.91669 7.8731 2.91669 8.33333V10.8333C2.91669 11.2936 3.28978 11.6667 3.75002 11.6667C4.21026 11.6667 4.58335 11.2936 4.58335 10.8333V8.33333C4.58335 7.8731 4.21026 7.5 3.75002 7.5Z" fill="#9684FF"/>
<path opacity="0.5" d="M9.58333 7.5C9.1231 7.5 8.75 7.8731 8.75 8.33333V10.8333C8.75 11.2936 9.1231 11.6667 9.58333 11.6667C10.0436 11.6667 10.4167 11.2936 10.4167 10.8333V8.33333C10.4167 7.8731 10.0436 7.5 9.58333 7.5Z" fill="#9684FF"/>
<path opacity="0.5" d="M6.66665 5.41663C6.20641 5.41663 5.83331 5.78972 5.83331 6.24996V12.9166C5.83331 13.3769 6.20641 13.75 6.66665 13.75C7.12688 13.75 7.49998 13.3769 7.49998 12.9166V6.24996C7.49998 5.78972 7.12688 5.41663 6.66665 5.41663Z" fill="#9684FF"/>
</svg>
