<svg xmlns="http://www.w3.org/2000/svg" width="24" height="20" viewBox="0 0 24 20">
    <g fill="none">
        <path fill="#F3D55B" d="M23.301.076c-.106-.077-.244-.092-.364-.04L2.429 8.31 0 9.319l7.34 2.972h.009v.004l1.963 6.855c.04.138.15.245.289.28.139.036.286-.004.388-.106l4.089-4.183 5.519 2.17c.227.094.485.077.698-.045.214-.122.36-.335.395-.578L23.476.497c.035-.163-.034-.331-.175-.421zM11.43 14.114l.02-.072.032.01-.052.062z"/>
        <path fill="#F29C1F" d="M14.078 15.141l-4.09 4.183c.048-.052.083-.114.102-.182l1.32-5.086.02-.024 1.757.737.786.332.105.04z"/>
        <path fill="#F0C419" d="M23.331.097L11.43 14.032l-.012-.004-.008.028-1.32 5.086c-.019.068-.054.13-.101.182-.102.102-.25.142-.388.106-.14-.035-.249-.142-.289-.28L7.35 12.295v-.004h-.004v-.004L23.33.097z"/>
    </g>
</svg>
