<svg xmlns="http://www.w3.org/2000/svg" width="24" height="20" viewBox="0 0 24 20">
    <g fill="#22A8FF">
        <path d="M1.686 7.3l1.853.854c.066.03.137.046.21.046h6.5c.915 0 1.5-1.1 1.5-1.855V6.2c0-.552-.448-1-1-1h-8.5c-.552 0-1 .448-1 1v.292c0 .265.105.52.293.707.041.042.09.076.144.101zM22.348 15.452h-6.2c-.125 0-.23.092-.247.216-.02.135-.029.272-.029.409.032 1.842 1.534 3.318 3.375 3.318 1.842 0 3.344-1.476 3.376-3.318 0-.136-.01-.273-.028-.408-.017-.124-.122-.216-.247-.217zM8.691 16.452H2.806c-.074 0-.143.033-.191.089-.048.056-.068.13-.056.203.256 1.563 1.606 2.71 3.19 2.71 1.583 0 2.933-1.147 3.189-2.71.012-.073-.008-.147-.056-.203-.048-.056-.117-.089-.191-.089z" opacity=".5"/>
        <path d="M19.25 9.452h-.793c-.071 0-.14-.03-.186-.084-.05-.054-.072-.127-.063-.2.026-.207.04-.416.042-.625V6.12c0-.095.053-.182.138-.225.085-.042.186-.033.262.025.623.428 1.347.685 2.1.747.552 0 1-.448 1-1v-2.93c0-.288-.124-.563-.341-.753-.216-.19-.504-.277-.789-.239-.747.079-1.459.36-2.059.812-.066.054-.156.07-.237.044-.081-.027-.143-.093-.164-.176C17.88 1.322 16.888.55 15.75.548h-1.5c-.552 0-1 .448-1 1s.448 1 1 1h1.5c.276 0 .5.224.5.5v5.5c-.002 1.856-1.041 3.554-2.693 4.4-.066.034-.144.037-.213.008-.068-.03-.12-.087-.141-.159-.57-2.268-2.614-3.855-4.953-3.845h-2.5C2.577 8.956.005 11.527 0 14.7c0 .414.336.75.75.75h10.5c1.274.041 2.532-.294 3.617-.964.04-.023.084-.036.13-.036h8.254c.414 0 .749-.336.749-.75-.15-2.48-2.27-4.375-4.75-4.248z"/>
    </g>
</svg>