<svg xmlns="http://www.w3.org/2000/svg" width="67" height="20" fill="none" viewBox="0 0 67 20">
    <g clip-path="url(#clip0)">
        <path fill="#C6BCFF" d="M15.417 2.872H4.583C2.053 2.875.003 4.925 0 7.456v.833c0 .23.187.417.417.417h19.166c.23 0 .417-.187.417-.417v-.833c-.003-2.53-2.053-4.58-4.583-4.584z"/>
        <path fill="#B9ADFF" d="M17.04 5.602l-1.765-3.528C14.555.634 12.803.049 11.362.77l-.078.04-8.565 4.612c-.202.109-.278.362-.169.564.073.135.214.219.367.219h13.75c.23 0 .416-.187.416-.417 0-.065-.015-.129-.044-.186z"/>
        <path fill="#9684FF" d="M2.917 5.372h14.166C18.694 5.372 20 6.678 20 8.29v8.333c0 1.611-1.306 2.917-2.917 2.917H2.917C1.306 19.539 0 18.233 0 16.622V8.29c0-1.61 1.306-2.917 2.917-2.917z"/>
        <path fill="#B9ADFF" d="M19.583 9.539H16.25c-1.61 0-2.916 1.307-2.915 2.918 0 1.61 1.305 2.914 2.915 2.915h3.333c.23 0 .417-.186.417-.416v-5c0-.23-.187-.417-.417-.417z"/>
        <path fill="#9684FF" d="M16.25 13.706c.69 0 1.25-.56 1.25-1.25s-.56-1.25-1.25-1.25-1.25.56-1.25 1.25.56 1.25 1.25 1.25z"/>
    </g>
    <path fill="#9684FF" d="M64.163 7.915v4.495L67 11.332 63.07 1.46 47 7.915"/>
    <path fill="#EAE7FF" d="M64.98 12.1V7.096H49.036l-1.218.49v.328h16.346v4.495l.818-.31z"/>
    <path fill="#9684FF" d="M47 7.915h17.163V18.54H47V7.915z"/>
    <path fill="#B9ADFF" d="M48.635 11.474c.924-.277 1.648-1 1.924-1.925h10.045c.277.925 1 1.649 1.925 1.925v3.506c-.925.277-1.648 1-1.925 1.925H50.56c-.277-.925-1-1.648-1.924-1.925v-3.506z"/>
    <path fill="#9684FF" d="M55.582 15.27c1.128 0 2.043-.914 2.043-2.043 0-1.128-.915-2.043-2.043-2.043-1.129 0-2.044.915-2.044 2.043 0 1.129.915 2.043 2.044 2.043z"/>
    <path fill="#B9ADFF" d="M63.88 7.915l-.969-2.493-.044-.11c-.961.085-1.9-.319-2.5-1.075l-.11.044-8.762 3.634H63.88z"/>
    <path fill="#EAE7FF" d="M53.466 7.097l-1.97.818H63.88l-.317-.818H53.466z"/>
    <path fill="#9684FF" d="M51.087 13.636c.225 0 .408-.183.408-.409 0-.226-.183-.409-.408-.409-.226 0-.41.184-.41.41 0 .225.184.408.41.408zM60.077 13.636c.226 0 .409-.183.409-.409 0-.226-.183-.409-.409-.409-.226 0-.409.184-.409.41 0 .225.183.408.409.408zM37.914 9.777l-3-3.333c-.063-.07-.153-.11-.247-.11h-2c-.132 0-.25.077-.305.197-.053.12-.031.261.057.359L35.218 10l-2.8 3.11c-.087.098-.11.239-.056.359s.173.198.305.198h2c.094 0 .184-.041.248-.11l3-3.334c.114-.126.114-.32 0-.446z"/>
    <path fill="#B9ADFF" d="M33.581 9.777l-3-3.333c-.063-.07-.153-.11-.247-.11h-2c-.132 0-.251.077-.305.197-.053.12-.031.261.057.359L30.885 10l-2.8 3.11c-.087.098-.11.239-.056.359s.173.198.305.198h2c.094 0 .184-.041.248-.11l3-3.334c.113-.126.113-.32 0-.446z"/>
    <defs>
        <clipPath id="clip0">
            <path fill="#fff" d="M0 0H20V20H0z"/>
        </clipPath>
    </defs>
</svg>
