<svg xmlns="http://www.w3.org/2000/svg" width="83" height="83" fill="none" viewBox="0 0 83 83">
    <path fill="#6DD7A7" d="M41.5 83C64.42 83 83 64.42 83 41.5S64.42 0 41.5 0 0 18.58 0 41.5 18.58 83 41.5 83z"/>
    <path fill="#fff" d="M41.5 11.9c-16.347 0-29.6 13.252-29.6 29.6s13.253 29.6 29.6 29.6c16.349 0 29.601-13.252 29.601-29.6s-13.252-29.6-29.6-29.6z"/>
    <path fill="#579FD7" d="M41.5 17.405c-13.307 0-24.095 10.788-24.095 24.096s10.788 24.095 24.096 24.095c13.307 0 24.095-10.788 24.095-24.095 0-13.308-10.788-24.096-24.095-24.096z"/>
    <path fill="url(#prefix__paint0_linear)" d="M49.97 32.495c0-4.678-3.792-8.47-8.47-8.47-4.677 0-8.469 3.792-8.469 8.47 0 3.546 2.18 6.58 5.272 7.843l-3.408 18.638h13.212l-3.408-18.638c3.091-1.262 5.271-4.297 5.271-7.843z"/>
    <defs>
        <linearGradient id="prefix__paint0_linear" x1="19.141" x2="58.443" y1="41.5" y2="41.5" gradientUnits="userSpaceOnUse">
            <stop stop-color="#5B5A5F"/>
            <stop offset="1"/>
        </linearGradient>
    </defs>
</svg>
