<svg xmlns="http://www.w3.org/2000/svg" width="20" height="20" viewBox="0 0 20 20">
    <g fill="none" fill-rule="evenodd" transform="translate(-6 -6)">
        <g fill-rule="nonzero">
            <g fill="#579FD7">
                <path d="M9.529.09C9.428.023 9.326 0 9.225 0c-.101 0-.202.023-.304.09L.03 5.625.885 6.75h15.926l1.609-1.125L9.529.09zM3 16.95H1.875c-.252 0-.472-.167-.541-.409-.76-2.677-.76-5.58 0-8.257.069-.242.29-.409.541-.409H3c.252 0 .472.167.541.409.76 2.676.76 5.58 0 8.257-.069.242-.29.409-.541.409z" transform="translate(6 6) translate(.375)"/>
            </g>
            <path fill="#579FD7" d="M16.95 16.95h-1.125c-.252 0-.472-.167-.541-.409-.76-2.677-.76-5.58 0-8.257.069-.242.29-.409.541-.409h1.125c.252 0 .472.167.541.409.76 2.676.76 5.58 0 8.257-.069.242-.29.409-.541.409zM7.912 16.95H6.787c-.251 0-.472-.167-.54-.409-.76-2.677-.76-5.58 0-8.257.068-.242.289-.409.54-.409h1.125c.252 0 .473.167.542.409.76 2.676.76 5.58 0 8.257-.07.242-.29.409-.542.409zM12.412 16.95h-1.125c-.251 0-.472-.167-.54-.409-.76-2.677-.76-5.58 0-8.257.068-.242.289-.409.54-.409h1.125c.252 0 .473.167.542.409.76 2.676.76 5.58 0 8.257-.07.242-.29.409-.542.409z" transform="translate(6 6)"/>
            <g fill="#A7D9FF">
                <path d="M18.795 2.25H.405C.169 2.396 0 2.509 0 2.813v1.124c0 .934.754 1.688 1.688 1.688h15.824c.934 0 1.688-.754 1.688-1.688V2.813c0-.304-.169-.417-.405-.563zM10.162.563c0 .315-.247.562-.562.562-.315 0-.563-.247-.563-.563C9.037.247 9.285 0 9.6 0c.315 0 .563.247.563.563z" transform="translate(6 6) translate(0 3.375)"/>
            </g>
            <path fill="#579FD7" d="M17.186 6.75H9.6V0c.101 0 .203.023.304.09l8.891 5.535-1.609 1.125z" transform="translate(6 6)"/>
            <g fill="#A7D9FF">
                <path d="M0 1.125V0c.315 0 .563.247.563.563 0 .315-.248.562-.563.562zM9.6 2.813v1.124c0 .934-.754 1.688-1.688 1.688H0V2.25h9.195c.236.146.405.259.405.563z" transform="translate(6 6) translate(9.6 3.375)"/>
            </g>
            <path fill="#A7D9FF" d="M17.512 15.825H1.688c-.933 0-1.687.754-1.687 1.688v1.124c0 .315.247.563.563.563h18.075c.315 0 .562-.248.562-.563v-1.125c0-.933-.754-1.687-1.688-1.687z" transform="translate(6 6)"/>
            <path fill="#A7D9FF" d="M19.2 17.512v1.125c0 .315-.247.563-.563.563H9.6v-3.375h7.912c.934 0 1.688.754 1.688 1.688z" transform="translate(6 6)"/>
        </g>
    </g>
</svg>
