<svg xmlns="http://www.w3.org/2000/svg" width="20" height="14" viewBox="0 0 20 14">
    <g fill="none" fill-rule="evenodd" transform="translate(-6 -9)">
        <g fill-rule="nonzero">
            <path fill="#A7D9FF" d="M17.091.02H2.883C1.293.02 0 1.369 0 3.027v7.292c0 1.659 1.293 3.008 2.883 3.008h14.38c1.495 0 2.711-1.268 2.711-2.826V3.027c0-1.658-1.293-3.007-2.883-3.007z" transform="translate(6 9)"/>
            <path fill="#A7D9FF" d="M17.091.02H2.883C1.293.02 0 1.369 0 3.027v1.216c0 .453.367.82.82.82h18.334c.453 0 .82-.367.82-.82V3.027c0-1.658-1.293-3.007-2.883-3.007z" transform="translate(6 9)"/>
            <path fill="#579FD7" d="M4.987 7.103h-1.25c-.453 0-.82.367-.82.82 0 .453.367.82.82.82h1.25c.453 0 .82-.367.82-.82 0-.453-.367-.82-.82-.82zM0 4.056L19.987 4.056 19.987 5.697 0 5.697z" transform="translate(6 9)"/>
        </g>
    </g>
</svg>
