<svg xmlns="http://www.w3.org/2000/svg" width="18" height="18" viewBox="0 0 18 18">
    <g fill="none" fill-rule="evenodd" transform="translate(-7 -7)">
        <g fill="#579FD7" fill-rule="nonzero">
            <path d="M2.25 0C1.01 0 0 1.01 0 2.25S1.01 4.5 2.25 4.5 4.5 3.49 4.5 2.25 3.49 0 2.25 0zM2.25 6.75C1.01 6.75 0 7.76 0 9s1.01 2.25 2.25 2.25S4.5 10.24 4.5 9 3.49 6.75 2.25 6.75zM2.25 13.5C1.01 13.5 0 14.51 0 15.75S1.01 18 2.25 18s2.25-1.01 2.25-2.25-1.01-2.25-2.25-2.25zM9 0C7.76 0 6.75 1.01 6.75 2.25S7.76 4.5 9 4.5s2.25-1.01 2.25-2.25S10.24 0 9 0zM9 6.75C7.76 6.75 6.75 7.76 6.75 9S7.76 11.25 9 11.25s2.25-1.01 2.25-2.25S10.24 6.75 9 6.75zM9 13.5c-1.24 0-2.25 1.01-2.25 2.25S7.76 18 9 18s2.25-1.01 2.25-2.25S10.24 13.5 9 13.5zM15.75 4.5C16.99 4.5 18 3.49 18 2.25S16.99 0 15.75 0 13.5 1.01 13.5 2.25s1.01 2.25 2.25 2.25zM15.75 6.75c-1.24 0-2.25 1.01-2.25 2.25s1.01 2.25 2.25 2.25S18 10.24 18 9s-1.01-2.25-2.25-2.25zM15.75 13.5c-1.24 0-2.25 1.01-2.25 2.25S14.51 18 15.75 18 18 16.99 18 15.75s-1.01-2.25-2.25-2.25z" transform="translate(7 7)"/>
        </g>
    </g>
</svg>
