<svg xmlns="http://www.w3.org/2000/svg" width="32" height="32" fill="none" viewBox="0 0 32 32">
    <rect width="32" height="32" x="32" y="32" fill="#579FD7" opacity=".01" rx="16" transform="rotate(180 32 32)"/>
    <path fill="#579FD7" fill-rule="evenodd" d="M16 7c-4.963 0-9 4.037-9 9s4.037 9 9 9 9-4.037 9-9-4.038-9-9-9zm.105 14.427c-.424.079-.929.173-1.23.198-.366.03-.71-.179-.921-.48-.211-.3-.262-.684-.136-1.03l1.7-4.677H13.75c-.002-.975.73-1.692 1.665-1.967.446-.131 1.277-.311 1.71-.284.26.017.71.18.921.48.211.3.262.685.136 1.03l-1.7 4.678h1.768c0 .974-.704 1.805-1.665 1.965-.129.021-.297.053-.48.087zM16 11.5c0 .621.504 1.125 1.125 1.125s1.125-.504 1.125-1.125-.504-1.125-1.125-1.125S16 10.879 16 11.5z" clip-rule="evenodd"/>
</svg>
