<svg xmlns="http://www.w3.org/2000/svg" width="235" height="141" fill="none" viewBox="0 0 235 141">
    <rect width="172" height="40" x="57.95" y="16.523" fill="#fff" stroke="#233B5C" stroke-width="3" rx="5.5" transform="rotate(-4.796 57.95 16.523)"/>
    <path fill="#233B5C" d="M106.728 41.406c-1.355.114-2.685.056-3.989-.171-1.303-.228-2.377-.587-3.221-1.078l1.261-3.623c.791.432 1.694.757 2.708.977 1.013.22 1.999.29 2.955.21 1.818-.153 2.689-.684 2.612-1.592-.04-.479-.332-.807-.877-.986-.531-.197-1.38-.374-2.55-.533-1.282-.165-2.358-.364-3.229-.596-.872-.248-1.639-.69-2.303-1.324-.663-.635-1.044-1.534-1.141-2.698-.086-1.02.116-1.96.606-2.82.488-.876 1.262-1.6 2.322-2.17 1.076-.572 2.419-.926 4.029-1.061 1.101-.093 2.196-.056 3.285.11 1.088.149 2.059.429 2.913.839l-1.164 3.638c-1.667-.727-3.249-1.028-4.748-.902-.941.079-1.614.28-2.021.603-.407.307-.593.684-.555 1.13.037.447.321.76.85.94.528.181 1.369.343 2.521.487 1.298.164 2.375.37 3.231.62.871.232 1.638.665 2.301 1.3.678.618 1.066 1.508 1.164 2.672.084 1.005-.119 1.937-.608 2.797-.49.86-1.272 1.584-2.347 2.172-1.076.572-2.411.925-4.005 1.059zm15.82-18.525c1.515-.127 2.852.017 4.011.434 1.157.4 2.078 1.046 2.763 1.935.684.874 1.078 1.941 1.184 3.2.106 1.26-.105 2.378-.633 3.353-.529.976-1.329 1.766-2.403 2.37-1.074.588-2.369.945-3.884 1.072l-2.917.245.367 4.377-4.735.398-1.406-16.741 7.653-.643zm.438 8.658c.973-.082 1.689-.35 2.148-.807.458-.472.655-1.099.589-1.88-.066-.781-.364-1.366-.894-1.755-.53-.39-1.282-.543-2.254-.461l-2.631.22.411 4.903 2.631-.22zm20.817 3.14l-7.079.595-1.042 3.363-4.831.406 5.984-17.362 4.664-.391 8.819 16.118-4.926.414-1.589-3.142zm-1.68-3.375l-2.602-5.176-1.703 5.538 4.305-.361zm17.679 5.645c-1.754.147-3.363-.087-4.828-.703-1.45-.632-2.629-1.577-3.537-2.834-.909-1.256-1.433-2.721-1.574-4.395-.14-1.674.133-3.207.819-4.597.686-1.39 1.692-2.51 3.017-3.36 1.34-.867 2.887-1.374 4.641-1.522 1.531-.128 2.933.027 4.206.466 1.273.439 2.359 1.134 3.258 2.087l-2.785 2.979c-1.194-1.216-2.564-1.76-4.11-1.63-.909.077-1.706.344-2.39.803-.668.458-1.17 1.07-1.507 1.837-.323.75-.444 1.594-.365 2.535.079.94.34 1.762.784 2.463.459.684 1.056 1.196 1.791 1.536.751.338 1.581.469 2.49.393 1.546-.13 2.807-.894 3.781-2.293l3.243 2.474c-.728 1.088-1.683 1.955-2.865 2.6-1.182.646-2.538 1.032-4.069 1.16zm22.415-5.904l.308 3.659-13.441 1.128-1.406-16.74 13.13-1.103.307 3.659-8.442.709.237 2.822 7.438-.625.297 3.54-7.438.624.257 3.062 8.753-.735zm8.847 3.279c-1.355.114-2.685.057-3.989-.171-1.303-.228-2.377-.587-3.221-1.078l1.261-3.623c.791.432 1.694.757 2.708.977 1.013.22 1.999.29 2.955.21 1.818-.153 2.689-.684 2.612-1.592-.04-.479-.332-.807-.877-.986-.531-.197-1.38-.374-2.55-.533-1.282-.165-2.358-.364-3.229-.596-.872-.248-1.639-.69-2.303-1.324-.663-.634-1.044-1.534-1.142-2.698-.085-1.02.117-1.96.607-2.82.488-.876 1.262-1.6 2.322-2.17 1.076-.572 2.419-.926 4.029-1.061 1.101-.093 2.195-.056 3.285.11 1.088.149 2.059.429 2.913.839l-1.164 3.638c-1.667-.727-3.249-1.028-4.748-.902-.941.079-1.614.28-2.021.603-.408.307-.593.684-.555 1.13.037.447.321.76.85.94.528.181 1.369.343 2.521.487 1.298.164 2.375.371 3.231.62.871.232 1.638.666 2.301 1.3.678.618 1.066 1.508 1.164 2.672.084 1.005-.119 1.937-.608 2.797-.49.86-1.272 1.584-2.347 2.172-1.076.572-2.411.925-4.005 1.059z"/>
    <rect width="172" height="39" x="30.817" y="58.369" fill="#fff" stroke="#233B5C" stroke-width="3" rx="5.5" transform="rotate(-4.796 30.817 58.37)"/>
    <path fill="#233B5C" d="M75.296 68.691l-5.142.432-.315-3.755 14.995-1.26.315 3.756-5.118.43 1.09 12.986-4.735.397-1.09-12.986zm19.653 6.948l-2.583.217.373 4.448-4.735.398-1.406-16.741 7.653-.643c1.515-.127 2.852.018 4.01.434 1.158.4 2.079 1.046 2.764 1.936.684.873 1.078 1.94 1.184 3.2.102 1.212-.096 2.296-.594 3.253-.483.94-1.229 1.709-2.239 2.307l4.054 4.959-5.07.425-3.411-4.193zm2.477-6.35c-.066-.78-.364-1.366-.894-1.755-.53-.389-1.282-.543-2.254-.46l-2.631.22.411 4.903 2.631-.221c.973-.082 1.689-.35 2.148-.807.458-.472.655-1.098.589-1.88zm6.875-6.815l4.736-.397 1.406 16.74-4.736.398-1.406-16.74zm25.038-2.102l-5.769 17.343-4.663.392-8.557-16.14 5.118-.43 5.46 10.524 3.724-11.296 4.687-.393zm.98-.083l4.736-.397 1.405 16.74-4.735.398-1.406-16.74zm20.454 11.867l-7.079.594-1.043 3.363-4.831.406 5.985-17.362 4.663-.392 8.82 16.119-4.927.414-1.588-3.142zm-1.681-3.376l-2.602-5.176-1.702 5.538 4.304-.362z"/>
    <rect width="172" height="40" x="1.62" y="98.978" fill="#fff" stroke="#233B5C" stroke-width="3" rx="5.5" transform="rotate(-4.796 1.62 98.978)"/>
    <path fill="#233B5C" d="M59.189 113.312l4.185-.352.583 6.936c-.9.766-1.955 1.384-3.168 1.855-1.213.472-2.441.759-3.685.864-1.754.147-3.363-.087-4.828-.703-1.466-.631-2.653-1.575-3.561-2.832-.908-1.256-1.433-2.721-1.573-4.395-.141-1.674.132-3.207.818-4.597.686-1.39 1.708-2.512 3.065-3.364 1.356-.869 2.927-1.378 4.713-1.528 1.562-.131 2.987.014 4.275.436 1.288.422 2.388 1.092 3.3 2.011l-2.784 2.979c-1.237-1.148-2.644-1.656-4.223-1.524-1.435.121-2.554.656-3.357 1.607-.805.934-1.146 2.127-1.024 3.578.077.925.346 1.737.806 2.437.46.684 1.065 1.203 1.817 1.557.751.339 1.589.469 2.514.392.909-.077 1.746-.332 2.513-.765l-.386-4.592zm18.864 3.931l-7.08.595-1.041 3.363-4.832.405 5.985-17.361 4.663-.392 8.82 16.118-4.927.414-1.588-3.142zm-1.68-3.375l-2.603-5.177-1.702 5.538 4.305-.361zm24.652 4.721l-.793-8.868-3.698 7.584-2.105.177-4.867-6.624.725 8.633-4.377.368-1.405-16.741 3.898-.328 6.694 9.168 4.929-10.144 3.898-.327 1.454 16.737-4.353.365zm20.837-5.434l.307 3.659-13.44 1.129-1.406-16.741 13.13-1.103.307 3.659-8.442.709.237 2.822 7.437-.624.298 3.539-7.438.625.257 3.061 8.753-.735z"/>
</svg>
