<svg xmlns="http://www.w3.org/2000/svg" width="48" height="48" fill="none" viewBox="0 0 48 48">
    <path fill="#FED843" d="M38.14 22.828H9.86c-.392 0-.758-.196-.975-.522l-4.688-7.031c-.262-.394-.262-.906 0-1.3l4.688-7.031c.217-.326.583-.522.975-.522h28.28c.392 0 .758.196.976.522l4.687 7.031c.262.394.262.906 0 1.3l-4.687 7.031c-.218.326-.584.522-.975.522z"/>
    <path fill="#FABE2C" d="M24 22.828h14.14c.392 0 .758-.196.976-.522l4.687-7.031c.262-.394.262-.906 0-1.3l-4.687-7.031c-.218-.326-.584-.522-.975-.522H24v16.406z"/>
    <path fill="#474F54" d="M35.797 13.453H24c-.648 0-1.172-.524-1.172-1.172 0-.648.524-1.172 1.172-1.172h11.797c.648 0 1.172.524 1.172 1.172 0 .648-.524 1.172-1.172 1.172zM26.344 18.14h-14.14c-.649 0-1.173-.524-1.173-1.171 0-.648.524-1.172 1.172-1.172h14.14c.648 0 1.173.524 1.173 1.172 0 .647-.524 1.172-1.172 1.172z"/>
    <path fill="#32393F" d="M35.797 18.14H31.03c-.647 0-1.172-.524-1.172-1.171 0-.648.524-1.172 1.172-1.172h4.766c.648 0 1.172.524 1.172 1.172 0 .647-.524 1.172-1.172 1.172z"/>
    <path fill="#474F54" d="M19.313 13.453h-7.11c-.648 0-1.172-.524-1.172-1.172 0-.648.524-1.172 1.172-1.172h7.11c.647 0 1.171.524 1.171 1.172 0 .648-.524 1.172-1.172 1.172z"/>
    <path fill="#32393F" d="M35.797 13.453c.648 0 1.172-.524 1.172-1.172 0-.648-.524-1.172-1.172-1.172H24v2.344h11.797zM24 18.14h2.344c.647 0 1.172-.524 1.172-1.171 0-.648-.524-1.172-1.172-1.172H24v2.344z"/>
    <path fill="#FED843" d="M19.313 32.203H7.516c-.311 0-.609-.123-.828-.343l-2.344-2.344c-.458-.458-.458-1.2 0-1.657l2.344-2.344c.22-.22.517-.343.828-.343h11.797c.311 0 .609.123.829.343l2.343 2.344c.458.458.458 1.2 0 1.657l-2.343 2.344c-.22.22-.518.343-.829.343z"/>
    <path fill="#FABE2C" d="M40.485 32.203H28.688c-.312 0-.61-.123-.829-.343l-2.344-2.344c-.457-.458-.457-1.2 0-1.657l2.344-2.344c.22-.22.517-.343.829-.343h11.797c.31 0 .608.123.828.343l2.344 2.344c.458.458.458 1.2 0 1.657l-2.344 2.344c-.22.22-.517.343-.828.343zM40.485 41.578H28.688c-.312 0-.61-.123-.829-.343l-2.344-2.344c-.457-.458-.457-1.2 0-1.657l2.344-2.344c.22-.22.517-.343.829-.343h11.797c.31 0 .608.123.828.343l2.344 2.344c.458.458.458 1.2 0 1.657l-2.344 2.344c-.22.22-.517.343-.828.343z"/>
    <path fill="#FED843" d="M19.313 41.578H7.516c-.311 0-.609-.123-.828-.343L4.344 38.89c-.458-.458-.458-1.2 0-1.657l2.344-2.344c.22-.22.517-.343.828-.343h11.797c.311 0 .609.123.829.343l2.343 2.344c.458.458.458 1.2 0 1.657l-2.343 2.344c-.22.22-.518.343-.829.343z"/>
</svg>
