<svg xmlns="http://www.w3.org/2000/svg" width="41" height="40" fill="none" viewBox="0 0 41 40">
    <g clip-path="url(#clip0)">
        <path fill="#FFC34D" d="M6.22 18.946l1.714-8.57c.196-.98 1.464-1.268 2.064-.467l5.076 6.768c.806 1.074-.19 1.325-3.53 5.444-4.424-2.17-5.61-1.744-5.324-3.175z"/>
        <path fill="#F93" d="M29.862 22.12c-3.359-4.03-4.435-4.34-3.608-5.443l5.076-6.768c.6-.8 1.868-.513 2.065.468l1.713 8.57c.298 1.49-1.135 1.113-5.246 3.174z"/>
        <path fill="#FFEA80" d="M38.6 14.311l-8.303 6.175L21.67 5.393c-.221-.39-.613-.584-1.005-.584-.392 0-.785.195-1.007.584L11.03 20.487 2.73 14.31c-.874-.65-2.083.162-1.816 1.216l3.17 12.467 2.097 1.263-1.509 1.056.957 3.764c.13.513.594.874 1.124.874h27.824c.53 0 .994-.36 1.124-.874l.957-3.764-.921-1.16 1.51-1.159 3.169-12.466c.268-1.057-.943-1.866-1.816-1.217z"/>
        <path fill="#FFC34D" d="M40.415 15.527l-3.169 12.467-1.51 1.16.921 1.16-.957 3.763c-.13.513-.593.874-1.124.874H20.665V4.808c.393 0 .784.195 1.006.584l8.626 15.095 8.302-6.176c.873-.649 2.084.16 1.816 1.216z"/>
        <path fill="#FF6A4D" d="M25.136 22.76l-3.478-5.796c-.226-.376-.609-.563-.993-.563-.385 0-.77.189-.995.563l-3.478 5.796c-.22.367-.22.827 0 1.194l3.478 5.796c.226.376.61.563.995.563.384 0 .769-.19.993-.563l3.478-5.796c.22-.367.22-.826 0-1.194z"/>
        <path fill="#F03800" d="M25.136 23.954l-3.478 5.796c-.224.374-.609.562-.993.563V16.401c.384 0 .767.187.993.563l3.478 5.796c.22.367.22.827 0 1.194z"/>
        <path fill="#FFC34D" d="M12.549 29.154c0 .64-.52 1.16-1.16 1.16H4.671l-.589-2.32h7.307c.64 0 1.16.52 1.16 1.16z"/>
        <path fill="#F93" d="M37.246 27.995l-.589 2.318H29.94c-.64 0-1.16-.52-1.16-1.159 0-.64.52-1.16 1.16-1.16h7.307z"/>
    </g>
    <defs>
        <clipPath id="clip0">
            <path fill="#fff" d="M0 0H39.577V39.577H0z" transform="translate(.875 .09)"/>
        </clipPath>
    </defs>
</svg>
