<svg xmlns="http://www.w3.org/2000/svg" width="48" height="48" fill="none" viewBox="0 0 48 48">
    <path fill="#FED843" d="M24.094 39.094c8.646 0 15.656-6.989 15.656-15.61 0-8.62-7.01-15.609-15.656-15.609-8.647 0-15.657 6.989-15.657 15.61 0 8.62 7.01 15.609 15.657 15.609z"/>
    <path fill="#FABE2C" d="M24 7.876v31.217h.094c8.646 0 15.656-6.988 15.656-15.609 0-8.62-7.01-15.609-15.656-15.609L24 7.876z"/>
    <path fill="#FF641A" d="M24 2.906C12.356 2.906 2.906 12.356 2.906 24c0 11.644 9.45 21.094 21.094 21.094 11.644 0 21.094-9.45 21.094-21.094 0-11.644-9.45-21.094-21.094-21.094zm0 35.157c-7.762 0-14.063-6.3-14.063-14.063 0-7.762 6.3-14.063 14.063-14.063 7.762 0 14.063 6.3 14.063 14.063 0 7.762-6.3 14.063-14.063 14.063z"/>
    <path fill="#F03800" d="M38.063 24c0 7.762-6.3 14.063-14.063 14.063v7.03c11.644 0 21.094-9.45 21.094-21.093 0-11.644-9.45-21.094-21.094-21.094v7.031c7.762 0 14.063 6.3 14.063 14.063z"/>
    <path fill="#474F54" d="M24 48c-.777 0-1.406-.629-1.406-1.406V35.25c0-.777.629-1.406 1.406-1.406.777 0 1.406.629 1.406 1.406v11.344C25.406 47.37 24.777 48 24 48zM24 14.156c-.777 0-1.406-.629-1.406-1.406V1.406C22.594.63 23.223 0 24 0c.777 0 1.406.629 1.406 1.406V12.75c0 .777-.629 1.406-1.406 1.406zM12.75 25.406H1.406C.63 25.406 0 24.777 0 24c0-.777.629-1.406 1.406-1.406H12.75c.777 0 1.406.629 1.406 1.406 0 .777-.629 1.406-1.406 1.406z"/>
    <path fill="#32393F" d="M46.594 25.406H35.25c-.777 0-1.406-.629-1.406-1.406 0-.777.629-1.406 1.406-1.406h11.344c.777 0 1.406.629 1.406 1.406 0 .777-.629 1.406-1.406 1.406zM25.406 46.594V35.25c0-.777-.629-1.406-1.406-1.406V48c.777 0 1.406-.629 1.406-1.406zM25.406 12.75V1.406C25.406.63 24.777 0 24 0v14.156c.777 0 1.406-.629 1.406-1.406z"/>
    <path fill="#474F54" d="M20.993 28.144c1.824 0 3.06-1.188 3.06-2.748 0-1.704-1.284-2.604-2.724-2.604-.876 0-1.68.492-2.052 1.032-.012-.06-.012-.108-.012-.168 0-1.272.828-2.268 2.004-2.268.708 0 1.164.216 1.596.624l.768-1.308c-.576-.492-1.392-.828-2.364-.828-2.364 0-3.732 1.716-3.732 4.14 0 2.256 1.02 4.128 3.456 4.128zm-.096-1.512c-1.116 0-1.548-.852-1.62-1.62.384-.48.96-.756 1.56-.756.768 0 1.488.36 1.488 1.2 0 .564-.504 1.176-1.428 1.176z"/>
    <path fill="#32393F" d="M28.15 28.144c2.28 0 3.312-2.076 3.312-4.14 0-2.064-1.032-4.128-3.312-4.128-2.292 0-3.312 2.064-3.312 4.128s1.02 4.14 3.312 4.14zm0-1.512c-1.152 0-1.584-1.152-1.584-2.628 0-1.476.432-2.616 1.584-2.616 1.14 0 1.572 1.14 1.572 2.616 0 1.476-.432 2.628-1.572 2.628z"/>
</svg>
