<svg xmlns="http://www.w3.org/2000/svg" width="151" height="72" fill="none" viewBox="0 0 151 72">
    <rect width="125.137" height="28.485" x="21.488" y="12.083" fill="#fff" stroke="#233B5C" stroke-width="3" rx="5.5" transform="rotate(-4.796 21.488 12.083)"/>
    <path fill="#233B5C" d="M61.757 17.187l3.157-.265.937 11.16-3.157.266-.937-11.16zm16.022-1.345l.937 11.16-2.599.219-5.426-5.534.5 5.947-3.094.26-.937-11.16 2.599-.219 5.426 5.534-.5-5.947 3.094-.26zm7.329-.616c1.01-.085 1.9.012 2.673.29.772.267 1.386.697 1.843 1.29.455.582.718 1.294.789 2.133.07.84-.07 1.585-.423 2.236-.352.65-.885 1.177-1.601 1.58-.716.391-1.58.63-2.59.714l-1.944.164.245 2.917-3.157.265-.938-11.16 5.103-.429zm.292 5.772c.648-.054 1.125-.234 1.432-.538.305-.314.436-.732.392-1.253-.044-.52-.242-.91-.596-1.17-.353-.26-.855-.362-1.503-.307l-1.754.147.275 3.268 1.754-.147zm12.202 4.643c-1.658.14-2.987-.204-3.988-1.03-.99-.826-1.555-2.069-1.694-3.727l-.52-6.186 3.158-.265.511 6.09c.15 1.786.932 2.62 2.346 2.5 1.402-.117 2.03-1.069 1.88-2.854l-.512-6.091 3.109-.261.519 6.186c.139 1.658-.215 2.978-1.064 3.96-.838.98-2.087 1.54-3.745 1.678zm8.843-9.686l-3.428.288-.21-2.503 9.997-.84.21 2.504-3.412.286.727 8.658-3.157.265-.727-8.658z"/>
    <rect width="125.137" height="27.753" x="1.62" y="42.724" fill="#fff" stroke="#233B5C" stroke-width="3" rx="5.5" transform="rotate(-4.796 1.62 42.724)"/>
    <path fill="#233B5C" d="M23.427 60.75c-1.658.14-2.987-.203-3.988-1.03-.99-.826-1.554-2.069-1.694-3.727l-.52-6.186 3.158-.265.511 6.09c.15 1.786.932 2.62 2.346 2.501 1.403-.118 2.03-1.07 1.88-2.855l-.512-6.09 3.109-.262.52 6.186c.139 1.658-.216 2.978-1.065 3.96-.838.98-2.087 1.54-3.745 1.679zm11.307-.949c-.904.076-1.79.038-2.66-.114-.868-.152-1.584-.391-2.147-.719l.841-2.414c.527.287 1.129.504 1.805.65.676.148 1.333.194 1.97.14 1.212-.101 1.793-.455 1.742-1.061-.027-.319-.222-.538-.585-.657-.354-.131-.92-.25-1.7-.355-.855-.11-1.572-.243-2.153-.398-.581-.165-1.093-.46-1.535-.882-.442-.423-.696-1.023-.761-1.799-.057-.68.077-1.307.404-1.88.326-.584.842-1.066 1.548-1.447.718-.381 1.613-.617 2.687-.707.733-.062 1.463-.037 2.19.073.725.1 1.372.286 1.94.56l-.775 2.425c-1.111-.485-2.166-.685-3.165-.601-.627.052-1.077.186-1.347.402-.272.204-.396.456-.37.753.024.298.213.507.566.627.352.12.913.229 1.68.325.866.109 1.584.247 2.155.413.58.154 1.092.443 1.534.867.452.411.71 1.005.776 1.78.056.67-.08 1.292-.406 1.865-.326.574-.848 1.056-1.564 1.448-.717.382-1.607.617-2.67.706zM49.87 55.85l.205 2.439-8.96.752-.937-11.16 8.753-.735.205 2.44-5.629.472.158 1.881 4.959-.416.198 2.36-4.959.416.172 2.04 5.835-.49zm6.587-1.083l-1.722.144.249 2.966-3.157.265-.937-11.16 5.102-.43c1.01-.084 1.9.012 2.673.29.772.267 1.386.697 1.843 1.29.456.583.719 1.294.79 2.134.067.808-.065 1.53-.397 2.169-.322.626-.82 1.139-1.492 1.538l2.702 3.305-3.38.284-2.274-2.795zm1.651-4.233c-.043-.521-.242-.911-.596-1.17-.353-.26-.854-.362-1.503-.308l-1.753.147.274 3.269 1.754-.147c.648-.055 1.126-.234 1.432-.538.305-.315.436-.733.392-1.253zm15.203-5.436l.937 11.161-2.599.218-5.426-5.533.5 5.947-3.094.26-.937-11.16 2.599-.22 5.426 5.534-.5-5.947 3.094-.26zm10.46 8.178l-4.72.396-.695 2.242-3.22.27 3.989-11.574 3.109-.26 5.88 10.745-3.285.276-1.059-2.095zm-1.12-2.25l-1.736-3.451-1.135 3.692 2.87-.241zm16.434 3.148l-.528-5.913-2.466 5.056-1.403.118-3.245-4.416.483 5.756-2.917.245-.938-11.161 2.6-.218 4.462 6.112 3.286-6.763 2.599-.218.969 11.158-2.902.243zm13.891-3.624l.205 2.44-8.96.752-.937-11.16 8.753-.736.205 2.44-5.629.473.158 1.88 4.959-.415.198 2.36-4.958.416.171 2.04 5.835-.49z"/>
</svg>
