<svg xmlns="http://www.w3.org/2000/svg" width="14" height="14" viewBox="0 0 14 14">
    <g fill="none">
        <path fill="#E02020" d="M14 4h-3.333V2.887C10.634 1.998 9.889 1.303 9 1.333H7c-.889-.03-1.634.665-1.667 1.554V4H2c-.368 0-.667.298-.667.667 0 .368.299.666.667.666h.667v7.334c0 1.104.895 2 2 2h6.666c1.105 0 2-.896 2-2V5.333H14c.368 0 .667-.298.667-.666 0-.369-.299-.667-.667-.667zm-7.333 6.667c0 .368-.299.666-.667.666-.368 0-.667-.298-.667-.666V8c0-.368.299-.667.667-.667.368 0 .667.299.667.667v2.667zm0-7.78c0-.107.14-.22.333-.22h2c.193 0 .333.113.333.22V4H6.667V2.887zm4 7.78c0 .368-.299.666-.667.666-.368 0-.667-.298-.667-.666V8c0-.368.299-.667.667-.667.368 0 .667.299.667.667v2.667z" transform="translate(-1 -1)"/>
    </g>
</svg>
