<svg xmlns="http://www.w3.org/2000/svg" width="14" height="12" viewBox="0 0 14 12">
    <g fill="none">
        <path fill="#4E86C6" d="M14.6 8c0-.073-.04-.147-.06-.22-.03-.13-.071-.256-.12-.38-.033-.08-.08-.16-.12-.247-.04-.086-.1-.2-.16-.293-.06-.093-.14-.14-.14-.193 0-.054-.133-.167-.207-.247-.073-.08-.14-.133-.213-.2L13.333 6l-.24-.16c-.094-.058-.192-.109-.293-.153l-.26-.12c-.109-.04-.22-.074-.333-.1-.09-.027-.181-.047-.274-.06l-.153-.074C11.222 3.723 9.705 2.642 8 2.642c-1.705 0-3.222 1.08-3.78 2.691l-.12.034c-.092.013-.184.033-.273.06-.113.026-.225.06-.334.1l-.26.12c-.1.044-.199.095-.293.153L2.7 6l-.247.207c-.073.066-.146.126-.213.2-.067.073-.14.166-.207.246-.066.08-.12.154-.173.24-.053.087-.107.194-.16.294-.053.1-.087.166-.12.246-.049.124-.09.251-.12.38 0 .074-.047.147-.06.22-.041.209-.064.421-.067.634.003.203.024.406.06.606 0 .067.034.127.047.194.033.13.073.26.12.386l.08.194c.059.128.125.253.2.373l.093.147c.01.018.021.036.034.053l.033.047C2.63 11.506 3.617 12 4.667 12h2v-.913c-.203.117-.433.18-.667.18-.361-.004-.706-.15-.96-.407-.246-.254-.38-.596-.374-.95.006-.354.152-.691.407-.937l2-1.933c.25-.24.581-.374.927-.373.353.001.691.143.94.393l2 2c.517.52.517 1.36 0 1.88-.249.25-.587.392-.94.393-.235.003-.465-.06-.667-.18V12h2c1.05 0 2.037-.494 2.667-1.333l.033-.034c.013-.016.024-.034.034-.053l.093-.147c.075-.12.141-.244.2-.373l.08-.193c.047-.127.087-.256.12-.387 0-.067.033-.127.047-.193.037-.205.057-.412.06-.62-.001-.224-.023-.447-.067-.667z" transform="translate(-1 -2)"/>
        <path fill="#4E86C6" d="M8.473 7.527c-.259-.254-.674-.254-.933 0l-2 1.933c-.193.16-.28.413-.227.657.054.244.24.438.481.502.242.064.499-.013.666-.199l.873-.847v3.76c0 .369.299.667.667.667.368 0 .667-.298.667-.667V9.607l.86.866c.125.127.295.198.473.198s.348-.071.473-.198c.127-.125.198-.295.198-.473s-.071-.348-.198-.473l-2-2z" transform="translate(-1 -2)"/>
    </g>
</svg>
