<svg xmlns="http://www.w3.org/2000/svg" width="79" height="85" viewBox="0 0 79 85">
    <g fill="none">
        <path fill="#E58E13" d="M51.735 72.345c0 5.819-3.925 10.717-9.27 12.197-1.077.298-2.211.458-3.383.458-6.988 0-12.654-5.665-12.654-12.655l12.675-6.513 12.632 6.513z"/>
        <path fill="#F7D360" d="M51.123 76.249c-1.303 4.02-4.564 7.16-8.658 8.293-2.574-.712-4.818-2.216-6.454-4.234-1.318-1.627-.129-4.06 1.965-4.06h13.147zM71.754 59.692l-27.187 5.88-38.158-5.88c2.994 0 4.687-1.566 5.649-4.163 4.649-12.538-7.734-49.08 27.024-49.08 34.759 0 22.374 36.542 27.023 49.08.963 2.597 2.656 4.163 5.649 4.163z"/>
        <path fill="#E58E13" d="M78.08 66.02c0 3.493-2.833 6.325-6.326 6.325H6.409c-1.746 0-3.329-.707-4.473-1.853C.79 69.348.083 67.766.083 66.02c0-3.494 2.833-6.327 6.326-6.327h65.345c1.746 0 3.329.709 4.473 1.853 1.145 1.145 1.853 2.727 1.853 4.474zM66.105 55.529H32.143c-3.662 0-6.59-3.03-6.476-6.69.479-15.484-1.991-42.095 13.161-42.388-41.593.216-15.005 53.241-32.418 53.241h65.344c-2.993 0-4.686-1.566-5.649-4.163z"/>
        <path fill="#F7D360" d="M78.08 66.02c0 3.493-2.833 6.325-6.326 6.325H24.692c-1.747 0-3.33-.707-4.474-1.853-1.145-1.144-1.853-2.726-1.853-4.473 0-3.494 2.832-6.327 6.327-6.327h47.062c1.746 0 3.329.709 4.473 1.853 1.145 1.145 1.853 2.727 1.853 4.474z"/>
        <path fill="#E58E13" d="M45.513 6.934c.014-.16.019-.321.019-.485 0-3.56-2.888-6.449-6.45-6.449-3.562 0-6.449 2.888-6.449 6.45 0 .163.005.324.019.484"/>
        <g fill="#E6E6E6">
            <path d="M69.994 23.528c-.718 0-1.3-.583-1.3-1.301 0-6.022-1.548-11.16-4.6-15.274-2.28-3.07-4.597-4.392-4.62-4.406-.625-.35-.85-1.142-.5-1.768.348-.626 1.135-.853 1.762-.507.111.062 2.746 1.54 5.354 5.007 2.375 3.156 5.206 8.658 5.206 16.948 0 .718-.583 1.3-1.302 1.3zM75.719 16.068c-.719 0-1.301-.582-1.301-1.3 0-8.305-4.918-11.607-5.128-11.743-.6-.39-.774-1.194-.386-1.796.387-.602 1.185-.78 1.789-.395.259.164 6.327 4.139 6.327 13.934 0 .718-.583 1.3-1.301 1.3zM7.172 23.528c-.718 0-1.3-.583-1.3-1.301 0-8.29 2.83-13.792 5.204-16.948C13.686 1.813 16.32.333 16.43.272c.63-.347 1.421-.119 1.769.51.347.628.12 1.418-.507 1.766-.05.03-2.352 1.354-4.618 4.405-3.053 4.114-4.6 9.252-4.6 15.274 0 .718-.583 1.3-1.302 1.3zM1.448 16.068c-.718 0-1.3-.582-1.3-1.3C.147 4.973 6.215.998 6.473.834c.606-.386 1.41-.207 1.796.399.385.604.208 1.406-.394 1.792-.216.142-5.127 3.444-5.127 11.743 0 .718-.582 1.3-1.3 1.3z" transform="translate(.498 4.316)"/>
        </g>
    </g>
</svg>
