<svg xmlns="http://www.w3.org/2000/svg" width="32" height="32" viewBox="0 0 32 32">
    <g fill="none" fill-rule="evenodd">
        <circle cx="16" cy="16" r="16" fill="#067BC2" opacity=".2"/>
        <g fill-rule="nonzero">
            <path fill="#AFB4C8" d="M8.985 19.857c-.849.218-1.752-.171-2.237-.965l-3.633-5.935 4.136-1.062 2.895 4.73c.765 1.25.176 2.89-1.16 3.232z" transform="translate(6 6)"/>
            <path fill="#579FD7" d="M17.53 8.888l-.69.177c-.902.231-1.821-.313-2.053-1.215l-.133-.518c-.231-.902.312-1.822 1.215-2.053l.69-.178c.902-.231 1.822.313 2.053 1.215l.133.518c.232.903-.312 1.822-1.214 2.054z" transform="translate(6 6)"/>
            <path fill="#067BC2" d="M18.662 6.51l-3.95 1.05.075.29c.232.903 1.151 1.446 2.054 1.215l.69-.177c.902-.232 1.446-1.151 1.214-2.054l-.083-.324z" transform="translate(6 6)"/>
            <path fill="#FFF" d="M18.755 13.988L4.61 13.583 2.974 7.21 15.176 0.042z" transform="translate(6 6)"/>
            <path fill="#E9EDF5" d="M3.807 10.455L4.61 13.583 18.755 13.988 16.953 6.964z" transform="translate(6 6)"/>
            <path fill="#DCE1EB" d="M2.974 7.21l-1.443.37C.435 7.861-.21 9.037.09 10.207l.549 2.137c.3 1.17 1.431 1.89 2.526 1.61l1.444-.371L2.974 7.21z" transform="translate(6 6)"/>
            <path fill="#CDD2E1" d="M.388 11.363l.252.981c.3 1.17 1.431 1.89 2.526 1.61l1.444-.371-.803-3.128-3.42.908z" transform="translate(6 6)"/>
        </g>
    </g>
</svg>
