<svg xmlns="http://www.w3.org/2000/svg" width="32" height="32" viewBox="0 0 32 32">
    <g fill="#4E9700" fill-rule="evenodd">
        <circle cx="16" cy="16" r="16" opacity=".2"/>
        <path fill-rule="nonzero" d="M13.038 15.136l-2.55-1.413c-.156-.087-.353-.03-.439.126-.031.057-.045.121-.039.186l.793 8.57c.017.178.174.308.352.292.04-.004.08-.015.115-.033l7.688-3.87c.16-.08.223-.274.143-.433-.03-.058-.075-.106-.132-.137l-2.535-1.406c1.967-3.113 6.89-4.27 7.667-3.88l.017.009c.156.083.35.026.435-.128.086-.157.03-.353-.126-.44l-.014-.008c-3.162-1.679-8.785-1.683-11.375 2.565z"/>
    </g>
</svg>
