<svg xmlns="http://www.w3.org/2000/svg" width="360" height="701" fill="none" viewBox="0 0 360 701">
    <mask id="1zpbe0f14a" width="360" height="701" x="0" y="0" maskUnits="userSpaceOnUse">
        <path fill="#22A8FF" d="M0 0H360V701H0z"/>
    </mask>
    <g mask="url(#1zpbe0f14a)">
        <path fill="#22A8FF" d="M377.705-20.76H-21.37v875.583h399.075V-20.76z"/>
        <g fill="#A7D9FF" opacity=".5">
            <path d="M227.93 336.636c-.033 0-.034.041-.034.041l.034.04.033-.04s0-.041-.033-.041zM215.217 321.277c.129 0 .235-.129.235-.289 0-.161-.106-.29-.235-.29-.13 0-.235.129-.235.29 0 .16.105.289.235.289zM189.757 290.062c.222 0 .402-.222.402-.497 0-.274-.18-.496-.402-.496-.223 0-.403.222-.403.496 0 .275.18.497.403.497zM177.044 273.295c-.235 0-.437.249-.437.539 0 .289.202.538.437.538.234 0 .436-.249.436-.538 0-.29-.202-.539-.436-.539zM164.297 258.682c.241 0 .436-.241.436-.539 0-.297-.195-.538-.436-.538s-.436.241-.436.538c0 .298.195.539.436.539zM151.584 242.992c.24 0 .436-.241.436-.538 0-.297-.196-.538-.436-.538-.241 0-.437.241-.437.538 0 .297.196.538.437.538zM138.837 226.267c-.235 0-.403.207-.403.497 0 .29.168.497.403.497.235 0 .402-.207.402-.497 0-.29-.167-.497-.402-.497zM126.124 210.742c-.135 0-.235.125-.235.29 0 .166.1.29.235.29.134 0 .234-.124.234-.29.034-.165-.1-.29-.234-.29zM100.663 179.651c.018 0 .033-.018.033-.041 0-.022-.015-.041-.033-.041-.018 0-.033.019-.033.041 0 .023.015.041.033.041zM278.85 367.436c-.302 0-.537.29-.537.662 0 .373.235.663.537.663.302 0 .537-.29.537-.663 0-.372-.235-.662-.537-.662zM266.103 352.16c-.1 0-.201.124-.201.248s.101.248.201.248.201-.124.201-.248c0-.165-.067-.248-.201-.248zM253.39 336.139c-.235 0-.436.249-.436.539 0 .289.201.538.436.538s.436-.249.436-.538c0-.29-.201-.539-.436-.539zM240.677 319.744c-.537 0-1.006.539-1.006 1.242 0 .704.436 1.242 1.006 1.242.537 0 1.006-.538 1.006-1.242 0-.703-.469-1.242-1.006-1.242zM227.93 304.469c-.369 0-.637.372-.637.786 0 .456.302.787.637.787.369 0 .637-.373.637-.787.034-.414-.268-.786-.637-.786zM215.217 288.573c-.436 0-.805.455-.805.993s.369.994.805.994c.436 0 .805-.456.805-.994s-.369-.993-.805-.993zM202.47 272.758c-.503 0-.906.497-.906 1.118 0 .621.403 1.117.906 1.117s.906-.496.906-1.117-.403-1.118-.906-1.118zM189.757 259.883c.778 0 1.409-.779 1.409-1.739 0-.96-.631-1.739-1.409-1.739s-1.409.779-1.409 1.739c0 .96.631 1.739 1.409 1.739zM177.044 241.336c-.504 0-.906.496-.906 1.117s.402 1.118.906 1.118c.503 0 .905-.497.905-1.118-.033-.621-.436-1.117-.905-1.117zM164.297 225.645c-.504 0-.906.497-.906 1.118 0 .621.402 1.118.906 1.118.503 0 .905-.497.905-1.118 0-.621-.402-1.118-.905-1.118zM151.584 209.418c-.705 0-1.309.704-1.309 1.614 0 .911.571 1.615 1.309 1.615.704 0 1.308-.704 1.308-1.615 0-.91-.604-1.614-1.308-1.614zM138.837 194.349c-.436 0-.805.455-.805.993 0 .539.369.994.805.994.436 0 .805-.455.805-.994 0-.538-.336-.993-.805-.993zM126.124 178.866c-.336 0-.604.331-.604.745s.268.745.604.745c.335 0 .603-.331.603-.745s-.268-.745-.603-.745zM113.41 163.382c-.235 0-.436.249-.436.539 0 .289.201.538.436.538s.436-.249.436-.538c0-.29-.201-.539-.436-.539zM100.664 147.278c-.403 0-.739.414-.739.911 0 .497.336.911.739.911.402 0 .737-.414.737-.911.034-.497-.301-.911-.737-.911zM87.95 132.333c-.067 0-.134.083-.134.165 0 .083.067.165.134.165s.134-.082.134-.165c0-.082-.067-.165-.134-.165zM62.49 101.036c-.033 0-.034.041-.034.041 0 .041.034.041.034.041l.034-.041c.033 0 0-.041-.034-.041zM317.023 383.375c-.201 0-.335.207-.335.414 0 .248.168.414.335.414.202 0 .336-.207.336-.414s-.134-.414-.336-.414zM304.31 367.188c-.402 0-.738.414-.738.911 0 .497.336.911.738.911.403 0 .738-.414.738-.911 0-.497-.335-.911-.738-.911zM291.563 351.705c-.302 0-.536.29-.536.663 0 .372.234.662.536.662.302 0 .537-.29.537-.662.034-.332-.235-.663-.537-.663zM278.85 335.394c-.57 0-1.04.579-1.04 1.283s.47 1.283 1.04 1.283c.57 0 1.04-.579 1.04-1.283s-.47-1.283-1.04-1.283zM266.103 319.373c-.704 0-1.308.703-1.308 1.614 0 .869.57 1.615 1.308 1.615.705 0 1.309-.704 1.309-1.615s-.571-1.614-1.309-1.614zM253.39 304.055c-.537 0-1.006.538-1.006 1.242 0 .663.436 1.242 1.006 1.242.537 0 1.006-.538 1.006-1.242s-.469-1.242-1.006-1.242zM240.677 287.702c-.839 0-1.51.828-1.51 1.863 0 1.035.671 1.863 1.51 1.863s1.509-.828 1.509-1.863c0-1.035-.704-1.863-1.509-1.863zM227.93 271.764c-.939 0-1.711.952-1.711 2.111 0 1.159.772 2.111 1.711 2.111.939 0 1.711-.952 1.711-2.111 0-1.159-.772-2.111-1.711-2.111zM215.217 260.38c1 0 1.811-1.001 1.811-2.236 0-1.235-.811-2.236-1.811-2.236-1 0-1.811 1.001-1.811 2.236 0 1.235.811 2.236 1.811 2.236zM202.47 244.193c.778 0 1.409-.779 1.409-1.739 0-.96-.631-1.739-1.409-1.739s-1.409.779-1.409 1.739c0 .96.631 1.739 1.409 1.739zM189.757 224.446c-1.007 0-1.845 1.035-1.845 2.277 0 1.242.838 2.277 1.845 2.277 1.006 0 1.845-1.035 1.845-2.277 0-1.242-.839-2.277-1.845-2.277zM177.044 208.839c-1.007 0-1.812.993-1.812 2.235s.805 2.236 1.812 2.236c1.006 0 1.811-.994 1.811-2.236-.034-1.242-.839-2.235-1.811-2.235zM164.297 193.727c-.705 0-1.308.704-1.308 1.614 0 .87.57 1.615 1.308 1.615.704 0 1.308-.704 1.308-1.615 0-.91-.57-1.614-1.308-1.614zM151.584 181.639c.907 0 1.643-.908 1.643-2.028 0-1.121-.736-2.029-1.643-2.029-.908 0-1.644.908-1.644 2.029 0 1.12.736 2.028 1.644 2.028zM138.837 162.057c-.839 0-1.51.828-1.51 1.863 0 1.035.671 1.863 1.51 1.863.838 0 1.509-.828 1.509-1.863 0-1.035-.671-1.863-1.509-1.863zM126.123 146.615c-.704 0-1.308.704-1.308 1.615 0 .869.57 1.615 1.308 1.615.705 0 1.309-.704 1.309-1.615s-.604-1.615-1.309-1.615zM113.41 131.588c-.402 0-.738.414-.738.911 0 .496.336.91.738.91.403 0 .738-.414.738-.91 0-.497-.335-.911-.738-.911zM100.663 115.567c-.536 0-1.006.538-1.006 1.242 0 .662.436 1.242 1.006 1.242.571 0 1.007-.539 1.007-1.242 0-.704-.436-1.242-1.007-1.242zM87.95 101.864c.352 0 .637-.352.637-.787 0-.434-.285-.786-.637-.786-.352 0-.637.352-.637.786 0 .435.285.787.637.787zM75.203 85.427c.018 0 .033-.019.033-.041 0-.023-.015-.04-.033-.04-.018 0-.033.017-.033.04 0 .022.015.04.033.04zM62.49 69.986c.13 0 .235-.13.235-.29 0-.16-.105-.29-.235-.29s-.235.13-.235.29c0 .16.105.29.235.29zM355.196 399.56c.018 0 .033-.018.033-.041 0-.022-.015-.04-.033-.04-.018 0-.033.018-.033.04 0 .023.015.041.033.041zM342.483 383.126c-.302 0-.536.29-.536.663 0 .372.234.662.536.662.302 0 .537-.29.537-.662 0-.373-.235-.663-.537-.663zM329.737 366.857c-.537 0-1.007.539-1.007 1.242 0 .663.437 1.242 1.007 1.242.537 0 1.006-.538 1.006-1.242 0-.662-.436-1.242-1.006-1.242zM317.023 351.167c-.536 0-1.006.538-1.006 1.241 0 .663.436 1.242 1.006 1.242.571 0 1.007-.538 1.007-1.242 0-.703-.47-1.241-1.007-1.241zM304.31 335.104c-.704 0-1.308.704-1.308 1.615 0 .869.57 1.614 1.308 1.614.705 0 1.308-.704 1.308-1.614-.033-.911-.603-1.615-1.308-1.615zM291.563 323.015c.908 0 1.644-.908 1.644-2.028 0-1.121-.736-2.029-1.644-2.029-.907 0-1.643.908-1.643 2.029 0 1.12.736 2.028 1.643 2.028zM278.85 303.226c-.906 0-1.643.911-1.643 2.029 0 1.118.737 2.028 1.643 2.028s1.644-.91 1.644-2.028c0-1.118-.738-2.029-1.644-2.029zM266.103 287.247c-1.039 0-1.912 1.035-1.912 2.36 0 1.283.839 2.36 1.912 2.36 1.04 0 1.912-1.035 1.912-2.36s-.838-2.36-1.912-2.36zM253.39 276.4c1.13 0 2.046-1.13 2.046-2.525s-.916-2.525-2.046-2.525-2.046 1.13-2.046 2.525.916 2.525 2.046 2.525zM240.677 254.997c-1.409 0-2.55 1.408-2.55 3.147 0 1.738 1.141 3.146 2.55 3.146 1.409 0 2.549-1.408 2.549-3.146-.033-1.739-1.14-3.147-2.549-3.147zM227.93 245.227c1.241 0 2.248-1.242 2.248-2.774 0-1.531-1.007-2.773-2.248-2.773-1.241 0-2.247 1.242-2.247 2.773 0 1.532 1.006 2.774 2.247 2.774zM215.217 229.578c1.26 0 2.281-1.26 2.281-2.815 0-1.554-1.021-2.815-2.281-2.815-1.26 0-2.281 1.261-2.281 2.815 0 1.555 1.021 2.815 2.281 2.815zM202.47 213.847c1.26 0 2.281-1.26 2.281-2.815s-1.021-2.815-2.281-2.815c-1.26 0-2.281 1.26-2.281 2.815s1.021 2.815 2.281 2.815zM189.757 198.156c1.26 0 2.281-1.26 2.281-2.815s-1.021-2.815-2.281-2.815c-1.26 0-2.281 1.26-2.281 2.815s1.021 2.815 2.281 2.815zM177.044 176.96c-1.175 0-2.147 1.201-2.147 2.65 0 1.449.972 2.649 2.147 2.649 1.174 0 2.146-1.2 2.146-2.649s-.972-2.65-2.146-2.65zM164.297 166.445c1.13 0 2.046-1.131 2.046-2.526 0-1.394-.916-2.525-2.046-2.525s-2.047 1.131-2.047 2.525c0 1.395.917 2.526 2.047 2.526zM151.584 145.208c-1.342 0-2.449 1.366-2.449 3.022 0 1.656 1.107 3.022 2.449 3.022 1.341 0 2.448-1.366 2.448-3.022 0-1.697-1.107-3.022-2.448-3.022zM138.837 130.222c-1.007 0-1.845 1.035-1.845 2.277 0 1.242.838 2.277 1.845 2.277 1.006 0 1.845-1.035 1.845-2.277 0-1.242-.805-2.277-1.845-2.277zM126.124 118.795c.889 0 1.61-.89 1.61-1.987 0-1.098-.721-1.987-1.61-1.987-.89 0-1.611.889-1.611 1.987 0 1.097.721 1.987 1.611 1.987zM113.41 99.545c-.704 0-1.241.703-1.241 1.531 0 .87.57 1.532 1.241 1.532.705 0 1.241-.704 1.241-1.532 0-.828-.57-1.531-1.241-1.531zM100.663 83.855c-.704 0-1.24.703-1.24 1.531 0 .87.57 1.532 1.24 1.532.705 0 1.242-.704 1.242-1.532 0-.87-.537-1.531-1.242-1.531zM87.95 68.579c-.503 0-.905.497-.905 1.118 0 .62.402 1.117.905 1.117.504 0 .906-.496.906-1.117s-.402-1.118-.906-1.118zM75.204 53.303c-.302 0-.537.29-.537.662 0 .373.235.662.537.662.301 0 .536-.29.536-.662.034-.373-.201-.662-.536-.662zM62.49 37.57c-.302 0-.537.29-.537.663 0 .373.235.663.537.663.302 0 .537-.29.537-.663 0-.331-.235-.662-.537-.662zM49.776 22.502c-.033 0-.033.041-.033.041l.033.04c.033 0 .033-.04.033-.04s0-.04-.033-.04zM355.197 366.484c-.705 0-1.309.704-1.309 1.615 0 .869.571 1.614 1.309 1.614.704 0 1.308-.704 1.308-1.614 0-.87-.57-1.615-1.308-1.615zM342.483 353.775c.612 0 1.107-.612 1.107-1.366 0-.755-.495-1.367-1.107-1.367-.611 0-1.107.612-1.107 1.367 0 .754.496 1.366 1.107 1.366zM329.737 334.856c-.839 0-1.51.828-1.51 1.863 0 1.035.671 1.863 1.51 1.863.838 0 1.509-.828 1.509-1.863 0-1.035-.671-1.863-1.509-1.863zM317.023 323.637c1.186 0 2.147-1.186 2.147-2.65 0-1.463-.961-2.649-2.147-2.649-1.185 0-2.147 1.186-2.147 2.649 0 1.464.962 2.65 2.147 2.65zM304.31 302.938c-1.04 0-1.912 1.035-1.912 2.359 0 1.284.839 2.36 1.912 2.36 1.04 0 1.912-1.035 1.912-2.36-.033-1.324-.872-2.359-1.912-2.359zM291.563 286.916c-1.174 0-2.146 1.201-2.146 2.65 0 1.448.972 2.649 2.146 2.649s2.147-1.201 2.147-2.649c0-1.449-.939-2.65-2.147-2.65zM278.85 277.27c1.519 0 2.751-1.52 2.751-3.395s-1.232-3.395-2.751-3.395-2.75 1.52-2.75 3.395 1.231 3.395 2.75 3.395zM266.104 254.542c-1.611 0-2.952 1.614-2.952 3.643 0 1.987 1.308 3.643 2.952 3.643 1.643 0 2.951-1.615 2.951-3.643 0-2.029-1.308-3.643-2.951-3.643zM253.39 239.307c-1.409 0-2.549 1.407-2.549 3.146 0 1.739 1.14 3.146 2.549 3.146s2.55-1.407 2.55-3.146c0-1.739-1.141-3.146-2.55-3.146zM240.677 222.913c-1.711 0-3.086 1.697-3.086 3.809 0 2.111 1.375 3.808 3.086 3.808 1.711 0 3.086-1.697 3.086-3.808 0-2.07-1.375-3.809-3.086-3.809zM227.93 214.924c1.741 0 3.153-1.743 3.153-3.892s-1.412-3.891-3.153-3.891-3.153 1.742-3.153 3.891 1.412 3.892 3.153 3.892zM215.217 198.737c1.519 0 2.751-1.52 2.751-3.395s-1.232-3.394-2.751-3.394-2.751 1.519-2.751 3.394c0 1.875 1.232 3.395 2.751 3.395zM202.47 176.299c-1.476 0-2.683 1.49-2.683 3.311 0 1.822 1.207 3.312 2.683 3.312 1.476 0 2.684-1.49 2.684-3.312.033-1.821-1.174-3.311-2.684-3.311zM189.757 160.112c-1.711 0-3.086 1.697-3.086 3.809 0 2.111 1.375 3.808 3.086 3.808 1.711 0 3.086-1.697 3.086-3.808 0-2.112-1.375-3.809-3.086-3.809zM177.043 144.629c-1.61 0-2.884 1.615-2.884 3.56 0 1.988 1.308 3.561 2.884 3.561 1.611 0 2.885-1.615 2.885-3.561 0-1.945-1.308-3.56-2.885-3.56zM164.297 135.52c1.352 0 2.449-1.353 2.449-3.022 0-1.669-1.097-3.022-2.449-3.022-1.352 0-2.449 1.353-2.449 3.022 0 1.669 1.097 3.022 2.449 3.022zM151.583 120.204c1.52 0 2.751-1.52 2.751-3.395s-1.231-3.395-2.751-3.395c-1.519 0-2.75 1.52-2.75 3.395s1.231 3.395 2.75 3.395zM138.837 98.055c-1.342 0-2.449 1.366-2.449 3.022 0 1.656 1.107 3.022 2.449 3.022 1.341 0 2.448-1.366 2.448-3.022 0-1.656-1.073-3.022-2.448-3.022zM126.123 83.027c-1.039 0-1.912 1.035-1.912 2.36 0 1.283.839 2.36 1.912 2.36 1.04 0 1.913-1.035 1.913-2.36 0-1.283-.873-2.36-1.913-2.36zM113.41 67.875c-.805 0-1.442.787-1.442 1.78 0 .994.637 1.78 1.442 1.78.805 0 1.443-.786 1.443-1.78 0-.993-.671-1.78-1.443-1.78zM100.663 56.076c.945 0 1.711-.945 1.711-2.11 0-1.167-.766-2.112-1.711-2.112-.944 0-1.71.945-1.71 2.111 0 1.166.766 2.111 1.71 2.111zM87.95 36.992c-.57 0-1.04.58-1.04 1.284 0 .703.47 1.283 1.04 1.283.57 0 1.04-.58 1.04-1.283 0-.704-.47-1.284-1.04-1.284zM75.204 21.84c-.336 0-.604.33-.604.744 0 .415.268.746.604.746.335 0 .603-.331.603-.745 0-.415-.268-.746-.603-.746zM62.49 5.86c-.436 0-.805.456-.805.994s.369.993.805.993c.436 0 .805-.455.805-.993s-.369-.994-.805-.994zM355.197 334.234c-1.107 0-2.013 1.118-2.013 2.484 0 1.366.906 2.484 2.013 2.484 1.107 0 2.012-1.118 2.012-2.484 0-1.408-.905-2.484-2.012-2.484zM342.483 323.885c1.297 0 2.349-1.298 2.349-2.898 0-1.601-1.052-2.898-2.349-2.898-1.296 0-2.348 1.297-2.348 2.898 0 1.6 1.052 2.898 2.348 2.898zM329.737 302.606c-1.174 0-2.147 1.201-2.147 2.649 0 1.449.973 2.65 2.147 2.65s2.146-1.201 2.146-2.65c0-1.448-.939-2.649-2.146-2.649zM317.023 286.171c-1.509 0-2.75 1.532-2.75 3.395s1.241 3.394 2.75 3.394c1.51 0 2.751-1.531 2.751-3.394 0-1.863-1.241-3.395-2.751-3.395zM304.31 277.56c1.649 0 2.986-1.65 2.986-3.685s-1.337-3.684-2.986-3.684c-1.649 0-2.985 1.649-2.985 3.684s1.336 3.685 2.985 3.685zM291.563 254.045c-1.845 0-3.354 1.863-3.354 4.14 0 2.277 1.509 4.14 3.354 4.14 1.845 0 3.355-1.863 3.355-4.14 0-2.319-1.51-4.14-3.355-4.14zM278.85 238.313c-1.845 0-3.354 1.863-3.354 4.14 0 2.277 1.509 4.14 3.354 4.14 1.845 0 3.355-1.863 3.355-4.14-.034-2.277-1.51-4.14-3.355-4.14zM266.103 222.499c-1.912 0-3.455 1.904-3.455 4.264 0 2.36 1.543 4.264 3.455 4.264 1.913 0 3.456-1.904 3.456-4.264 0-2.36-1.543-4.264-3.456-4.264zM253.39 206.603c-1.979 0-3.589 1.987-3.589 4.429 0 2.443 1.61 4.43 3.589 4.43 1.979 0 3.589-1.987 3.589-4.43 0-2.442-1.61-4.429-3.589-4.429zM240.677 190.912c-1.979 0-3.589 1.987-3.589 4.43 0 2.442 1.61 4.429 3.589 4.429 1.979 0 3.589-1.987 3.589-4.429 0-2.443-1.61-4.43-3.589-4.43zM227.93 175.181c-1.979 0-3.589 1.987-3.589 4.429 0 2.443 1.61 4.43 3.589 4.43 1.979 0 3.589-1.987 3.589-4.43 0-2.442-1.61-4.429-3.589-4.429zM215.217 159.49c-1.979 0-3.589 1.987-3.589 4.43 0 2.442 1.61 4.43 3.589 4.43 1.979 0 3.589-1.988 3.589-4.43 0-2.443-1.61-4.43-3.589-4.43zM202.47 152.494c1.908 0 3.455-1.909 3.455-4.264 0-2.355-1.547-4.264-3.455-4.264-1.908 0-3.455 1.909-3.455 4.264 0 2.355 1.547 4.264 3.455 4.264zM189.757 136.763c1.908 0 3.455-1.909 3.455-4.264 0-2.355-1.547-4.264-3.455-4.264-1.908 0-3.455 1.909-3.455 4.264 0 2.355 1.547 4.264 3.455 4.264zM177.044 112.792c-1.778 0-3.254 1.78-3.254 4.016 0 2.235 1.442 4.016 3.254 4.016 1.777 0 3.253-1.781 3.253-4.016 0-2.236-1.476-4.016-3.253-4.016zM164.297 104.762c1.649 0 2.985-1.65 2.985-3.685s-1.336-3.684-2.985-3.684c-1.649 0-2.986 1.65-2.986 3.684 0 2.035 1.337 3.685 2.986 3.685zM151.584 89.07c1.648 0 2.985-1.649 2.985-3.684 0-2.034-1.337-3.684-2.985-3.684-1.649 0-2.986 1.65-2.986 3.684 0 2.035 1.337 3.685 2.986 3.685zM138.837 66.343c-1.476 0-2.684 1.49-2.684 3.312 0 1.822 1.208 3.312 2.684 3.312 1.476 0 2.683-1.49 2.683-3.312.034-1.821-1.174-3.312-2.683-3.312zM126.124 56.863c1.296 0 2.348-1.297 2.348-2.898 0-1.6-1.052-2.898-2.348-2.898-1.297 0-2.349 1.298-2.349 2.898s1.052 2.898 2.349 2.898zM113.41 36.163c-.939 0-1.711.952-1.711 2.111 0 1.16.772 2.112 1.711 2.112.939 0 1.711-.952 1.711-2.112-.034-1.159-.772-2.11-1.711-2.11zM100.664 24.904c1.055 0 1.912-1.057 1.912-2.36s-.857-2.36-1.912-2.36c-1.056 0-1.913 1.057-1.913 2.36s.856 2.36 1.913 2.36zM87.95 5.074c-.805 0-1.442.786-1.442 1.78 0 .993.637 1.78 1.442 1.78.805 0 1.443-.787 1.443-1.78 0-.994-.638-1.78-1.443-1.78zM355.197 302.15c-1.409 0-2.55 1.407-2.55 3.146 0 1.739 1.141 3.146 2.55 3.146 1.409 0 2.549-1.407 2.549-3.146 0-1.739-1.14-3.146-2.549-3.146zM342.483 293.208c1.631 0 2.952-1.631 2.952-3.643 0-2.012-1.321-3.643-2.952-3.643-1.63 0-2.951 1.631-2.951 3.643 0 2.012 1.321 3.643 2.951 3.643zM329.737 269.735c-1.845 0-3.355 1.863-3.355 4.14 0 2.277 1.51 4.14 3.355 4.14s3.354-1.863 3.354-4.14c0-2.277-1.509-4.14-3.354-4.14zM317.023 262.905c2.131 0 3.858-2.131 3.858-4.761 0-2.629-1.727-4.761-3.858-4.761-2.13 0-3.857 2.132-3.857 4.761 0 2.63 1.727 4.761 3.857 4.761zM304.31 238.024c-1.979 0-3.589 1.987-3.589 4.429 0 2.443 1.61 4.43 3.589 4.43 1.979 0 3.589-1.987 3.589-4.43 0-2.442-1.61-4.429-3.589-4.429zM291.563 222.044c-2.079 0-3.79 2.112-3.79 4.678 0 2.567 1.711 4.678 3.79 4.678 2.08 0 3.791-2.111 3.791-4.678 0-2.566-1.677-4.678-3.791-4.678zM278.85 216.331c2.371 0 4.294-2.372 4.294-5.299 0-2.927-1.923-5.299-4.294-5.299-2.371 0-4.294 2.372-4.294 5.299 0 2.927 1.923 5.299 4.294 5.299zM266.103 190.457c-2.18 0-3.958 2.194-3.958 4.885s1.778 4.885 3.958 4.885c2.181 0 3.959-2.194 3.959-4.885s-1.778-4.885-3.959-4.885zM253.39 174.643c-2.247 0-4.059 2.235-4.059 5.009 0 2.774 1.812 5.009 4.059 5.009 2.248 0 4.059-2.235 4.059-5.009 0-2.774-1.811-5.009-4.059-5.009zM240.677 158.455c-2.449 0-4.428 2.443-4.428 5.465s1.979 5.465 4.428 5.465 4.428-2.443 4.428-5.465-1.979-5.465-4.428-5.465zM227.93 142.806c-2.415 0-4.394 2.442-4.394 5.423s1.979 5.423 4.394 5.423 4.394-2.442 4.394-5.423-1.945-5.423-4.394-5.423zM215.217 137.301c2.149 0 3.891-2.15 3.891-4.802 0-2.653-1.742-4.803-3.891-4.803s-3.891 2.15-3.891 4.803c0 2.652 1.742 4.802 3.891 4.802zM202.47 112.13c-2.08 0-3.79 2.112-3.79 4.678 0 2.567 1.71 4.678 3.79 4.678s3.791-2.111 3.791-4.678c0-2.566-1.678-4.678-3.791-4.678zM189.757 106.128c2.26 0 4.092-2.261 4.092-5.051s-1.832-5.05-4.092-5.05-4.093 2.26-4.093 5.05 1.833 5.051 4.093 5.051zM177.044 80.957c-1.98 0-3.59 1.987-3.59 4.43 0 2.442 1.61 4.43 3.59 4.43 1.979 0 3.589-1.988 3.589-4.43 0-2.443-1.61-4.43-3.589-4.43zM164.297 65.68c-1.778 0-3.254 1.78-3.254 4.016 0 2.236 1.442 4.016 3.254 4.016 1.811 0 3.254-1.78 3.254-4.016 0-2.235-1.443-4.015-3.254-4.015zM151.584 49.66c-1.946 0-3.489 1.945-3.489 4.305 0 2.401 1.577 4.306 3.489 4.306 1.945 0 3.488-1.946 3.488-4.306 0-2.36-1.576-4.305-3.488-4.305zM138.837 34.674c-1.61 0-2.885 1.614-2.885 3.56 0 1.987 1.308 3.56 2.885 3.56 1.576 0 2.885-1.614 2.885-3.56.033-1.946-1.275-3.56-2.885-3.56zM126.124 25.608c1.371 0 2.482-1.372 2.482-3.064s-1.111-3.063-2.482-3.063c-1.371 0-2.483 1.371-2.483 3.063 0 1.692 1.112 3.064 2.483 3.064zM113.41 4.328c-1.14 0-2.046 1.117-2.046 2.525s.906 2.525 2.046 2.525c1.141 0 2.046-1.117 2.046-2.525s-.939-2.525-2.046-2.525zM355.197 269.197c-2.08 0-3.791 2.111-3.791 4.678 0 2.567 1.711 4.678 3.791 4.678 2.079 0 3.79-2.111 3.79-4.678 0-2.608-1.677-4.678-3.79-4.678zM342.483 263.236c2.279 0 4.126-2.28 4.126-5.092s-1.847-5.092-4.126-5.092c-2.278 0-4.126 2.28-4.126 5.092s1.848 5.092 4.126 5.092zM329.737 237.693c-2.114 0-3.858 2.111-3.858 4.76 0 2.609 1.711 4.761 3.858 4.761 2.113 0 3.857-2.111 3.857-4.761 0-2.608-1.711-4.76-3.857-4.76zM317.023 221.34c-2.415 0-4.394 2.443-4.394 5.424 0 2.98 1.979 5.423 4.394 5.423 2.416 0 4.395-2.443 4.395-5.423 0-3.023-1.979-5.424-4.395-5.424zM304.31 205.319c-2.549 0-4.629 2.567-4.629 5.713s2.08 5.713 4.629 5.713c2.55 0 4.629-2.567 4.629-5.713s-2.079-5.713-4.629-5.713zM291.563 190.043c-2.381 0-4.293 2.36-4.293 5.299 0 2.939 1.912 5.299 4.293 5.299 2.382 0 4.294-2.36 4.294-5.299 0-2.939-1.912-5.299-4.294-5.299zM278.85 173.774c-2.616 0-4.73 2.608-4.73 5.837 0 3.229 2.114 5.837 4.73 5.837 2.617 0 4.73-2.608 4.73-5.837 0-3.229-2.113-5.837-4.73-5.837zM266.103 157.876c-2.717 0-4.897 2.691-4.897 6.044 0 3.353 2.18 6.044 4.897 6.044s4.898-2.691 4.898-6.044c0-3.353-2.181-6.044-4.898-6.044zM253.39 142.186c-2.717 0-4.897 2.691-4.897 6.044 0 3.353 2.18 6.044 4.897 6.044s4.898-2.691 4.898-6.044c0-3.353-2.181-6.044-4.898-6.044zM240.677 126.454c-2.717 0-4.897 2.691-4.897 6.044 0 3.353 2.18 6.044 4.897 6.044s4.897-2.691 4.897-6.044c-.033-3.312-2.214-6.044-4.897-6.044zM227.93 110.93c-2.616 0-4.73 2.608-4.73 5.837 0 3.229 2.114 5.837 4.73 5.837 2.617 0 4.73-2.608 4.73-5.837.033-3.188-2.113-5.837-4.73-5.837zM215.217 106.748c2.538 0 4.595-2.539 4.595-5.671 0-3.133-2.057-5.672-4.595-5.672s-4.596 2.54-4.596 5.672c0 3.132 2.058 5.671 4.596 5.671zM202.47 90.438c2.26 0 4.092-2.262 4.092-5.051 0-2.79-1.832-5.05-4.092-5.05s-4.092 2.26-4.092 5.05 1.832 5.05 4.092 5.05zM189.757 64.273c-2.415 0-4.394 2.443-4.394 5.424 0 2.98 1.979 5.423 4.394 5.423s4.394-2.443 4.394-5.423c0-3.022-1.979-5.424-4.394-5.424zM177.044 48.914c-2.248 0-4.093 2.277-4.093 5.05 0 2.774 1.845 5.051 4.093 5.051 2.247 0 4.092-2.277 4.092-5.05 0-2.774-1.845-5.051-4.092-5.051zM164.297 33.97c-1.946 0-3.489 1.946-3.489 4.306 0 2.4 1.577 4.305 3.489 4.305s3.488-1.946 3.488-4.305c0-2.401-1.543-4.306-3.488-4.306zM151.583 27.098c2.038 0 3.69-2.04 3.69-4.554 0-2.515-1.652-4.554-3.69-4.554-2.037 0-3.689 2.039-3.689 4.554s1.652 4.553 3.689 4.553zM138.837 10.87c1.797 0 3.254-1.799 3.254-4.016 0-2.218-1.457-4.016-3.254-4.016s-3.254 1.798-3.254 4.016c0 2.217 1.457 4.015 3.254 4.015zM355.197 247.793c2.39 0 4.327-2.391 4.327-5.34 0-2.95-1.937-5.341-4.327-5.341-2.39 0-4.328 2.391-4.328 5.341 0 2.949 1.938 5.34 4.328 5.34zM342.483 221.009c-2.549 0-4.629 2.567-4.629 5.713 0 3.147 2.08 5.713 4.629 5.713 2.55 0 4.63-2.566 4.63-5.713 0-3.146-2.08-5.713-4.63-5.713zM329.737 204.946c-2.717 0-4.931 2.733-4.931 6.086s2.214 6.086 4.931 6.086 4.931-2.733 4.931-6.086c.033-3.353-2.181-6.086-4.931-6.086zM317.024 189.215c-2.718 0-4.931 2.733-4.931 6.086s2.213 6.086 4.931 6.086c2.717 0 4.931-2.733 4.931-6.086s-2.214-6.086-4.931-6.086zM304.31 173.276c-2.851 0-5.132 2.857-5.132 6.334 0 3.519 2.315 6.334 5.132 6.334 2.851 0 5.132-2.856 5.132-6.334 0-3.477-2.314-6.334-5.132-6.334zM291.563 170.378c2.89 0 5.233-2.892 5.233-6.458 0-3.567-2.343-6.459-5.233-6.459-2.89 0-5.232 2.892-5.232 6.459 0 3.566 2.342 6.458 5.232 6.458zM278.85 141.234c-3.119 0-5.635 3.105-5.635 6.955s2.516 6.955 5.635 6.955c3.12 0 5.636-3.105 5.636-6.955 0-3.809-2.516-6.955-5.636-6.955zM266.104 139.04c2.927 0 5.299-2.928 5.299-6.541 0-3.612-2.372-6.541-5.299-6.541-2.928 0-5.301 2.929-5.301 6.541 0 3.613 2.373 6.541 5.301 6.541zM253.39 110.351c-2.885 0-5.233 2.898-5.233 6.458s2.348 6.458 5.233 6.458 5.233-2.898 5.233-6.458c0-3.602-2.348-6.458-5.233-6.458zM240.677 94.204c-3.086 0-5.602 3.105-5.602 6.914 0 3.809 2.516 6.914 5.602 6.914 3.086 0 5.602-3.105 5.602-6.914-.034-3.85-2.516-6.914-5.602-6.914zM227.93 91.597c2.779 0 5.032-2.78 5.032-6.21s-2.253-6.21-5.032-6.21-5.032 2.78-5.032 6.21 2.253 6.21 5.032 6.21zM215.217 63.57c-2.717 0-4.931 2.732-4.931 6.085 0 3.353 2.214 6.086 4.931 6.086s4.931-2.733 4.931-6.086-2.214-6.086-4.931-6.086zM202.47 59.637c2.538 0 4.596-2.54 4.596-5.672 0-3.132-2.058-5.672-4.596-5.672-2.538 0-4.595 2.54-4.595 5.672 0 3.132 2.057 5.672 4.595 5.672zM189.757 43.947c2.538 0 4.595-2.54 4.595-5.672 0-3.132-2.057-5.671-4.595-5.671s-4.596 2.539-4.596 5.671c0 3.133 2.058 5.672 4.596 5.672zM177.043 17.245c-2.381 0-4.293 2.36-4.293 5.3 0 2.938 1.912 5.298 4.293 5.298 2.382 0 4.294-2.36 4.294-5.299 0-2.898-1.945-5.299-4.294-5.299zM164.297 11.614c2.13 0 3.857-2.131 3.857-4.76 0-2.63-1.727-4.761-3.857-4.761-2.131 0-3.858 2.131-3.858 4.76 0 2.63 1.727 4.761 3.858 4.761zM355.197 217.739c3.001 0 5.434-3.003 5.434-6.706 0-3.704-2.433-6.707-5.434-6.707-3.001 0-5.434 3.003-5.434 6.707 0 3.703 2.433 6.706 5.434 6.706zM342.483 188.925c-2.851 0-5.199 2.856-5.199 6.417 0 3.518 2.315 6.416 5.199 6.416 2.852 0 5.2-2.856 5.2-6.416-.034-3.561-2.348-6.417-5.2-6.417zM329.737 172.903c-3.019 0-5.435 3.022-5.435 6.707 0 3.726 2.449 6.707 5.435 6.707 3.019 0 5.434-3.023 5.434-6.707.033-3.685-2.415-6.707-5.434-6.707zM317.023 171.206c3.261 0 5.904-3.262 5.904-7.286 0-4.024-2.643-7.286-5.904-7.286-3.26 0-5.903 3.262-5.903 7.286 0 4.024 2.643 7.286 5.903 7.286zM304.31 140.819c-3.321 0-6.004 3.312-6.004 7.41 0 4.099 2.683 7.411 6.004 7.411 3.321 0 6.005-3.312 6.005-7.411-.034-4.098-2.718-7.41-6.005-7.41zM291.563 125.544c-3.119 0-5.635 3.105-5.635 6.955s2.516 6.955 5.635 6.955c3.12 0 5.636-3.105 5.636-6.955s-2.516-6.955-5.636-6.955zM278.85 109.398c-3.321 0-6.004 3.312-6.004 7.41 0 4.099 2.683 7.411 6.004 7.411 3.321 0 6.005-3.312 6.005-7.411-.034-4.098-2.718-7.41-6.005-7.41zM266.103 93.708c-3.321 0-6.004 3.312-6.004 7.41 0 4.099 2.683 7.411 6.004 7.411 3.321 0 6.005-3.312 6.005-7.411 0-4.098-2.684-7.41-6.005-7.41zM253.39 78.473c-3.086 0-5.602 3.105-5.602 6.914 0 3.809 2.516 6.914 5.602 6.914 3.086 0 5.602-3.105 5.602-6.914 0-3.809-2.516-6.914-5.602-6.914zM240.677 62.41c-3.254 0-5.904 3.27-5.904 7.287 0 4.015 2.65 7.286 5.904 7.286s5.904-3.27 5.904-7.286-2.65-7.287-5.904-7.287zM227.93 47.01c-3.12 0-5.635 3.105-5.635 6.955s2.515 6.955 5.635 6.955c3.12 0 5.635-3.105 5.635-6.955s-2.515-6.955-5.635-6.955zM215.217 31.941c-2.852 0-5.133 2.857-5.133 6.334 0 3.52 2.315 6.334 5.133 6.334 2.851 0 5.132-2.856 5.132-6.334 0-3.518-2.315-6.334-5.132-6.334zM203.264 28.396c2.634-.525 4.424-3.586 3.998-6.836-.426-3.25-2.906-5.46-5.539-4.934-2.634.525-4.424 3.586-3.998 6.836.426 3.25 2.906 5.46 5.539 4.934zM189.757 13.022c2.76 0 4.998-2.762 4.998-6.169 0-3.406-2.238-6.168-4.998-6.168-2.761 0-4.998 2.762-4.998 6.168 0 3.407 2.237 6.169 4.998 6.169zM355.197 172.283c-3.288 0-5.938 3.27-5.938 7.328 0 4.057 2.65 7.327 5.938 7.327 3.287 0 5.937-3.27 5.937-7.327 0-4.016-2.65-7.328-5.937-7.328zM342.483 171.537c3.409 0 6.173-3.41 6.173-7.617s-2.764-7.618-6.173-7.618c-3.408 0-6.172 3.411-6.172 7.618 0 4.207 2.764 7.617 6.172 7.617zM329.737 140.406c-3.489 0-6.34 3.519-6.34 7.824 0 4.306 2.851 7.825 6.34 7.825 3.488 0 6.34-3.519 6.34-7.825 0-4.347-2.818-7.824-6.34-7.824zM317.023 140.323c3.502 0 6.34-3.503 6.34-7.824 0-4.322-2.838-7.825-6.34-7.825-3.501 0-6.339 3.503-6.339 7.825 0 4.321 2.838 7.824 6.339 7.824zM304.31 108.901c-3.522 0-6.373 3.519-6.373 7.866 0 4.347 2.851 7.866 6.373 7.866 3.522 0 6.374-3.519 6.374-7.866 0-4.306-2.852-7.866-6.374-7.866zM291.563 108.942c3.52 0 6.374-3.521 6.374-7.865s-2.854-7.866-6.374-7.866c-3.52 0-6.373 3.522-6.373 7.866 0 4.344 2.853 7.865 6.373 7.865zM278.85 93.253c3.52 0 6.374-3.522 6.374-7.866 0-4.344-2.854-7.865-6.374-7.865-3.52 0-6.373 3.521-6.373 7.865s2.853 7.866 6.373 7.866zM266.103 61.873c-3.488 0-6.34 3.518-6.34 7.824 0 4.305 2.852 7.824 6.34 7.824 3.489 0 6.34-3.519 6.34-7.824 0-4.347-2.818-7.824-6.34-7.824zM253.39 61.542c3.39 0 6.139-3.392 6.139-7.576 0-4.184-2.749-7.576-6.139-7.576s-6.139 3.392-6.139 7.576c0 4.184 2.749 7.576 6.139 7.576zM240.677 30.7c-3.388 0-6.139 3.394-6.139 7.576 0 4.18 2.751 7.576 6.139 7.576 3.388 0 6.139-3.395 6.139-7.576 0-4.182-2.751-7.576-6.139-7.576zM227.93 29.83c3.261 0 5.904-3.262 5.904-7.286 0-4.025-2.643-7.287-5.904-7.287-3.26 0-5.904 3.262-5.904 7.287 0 4.023 2.644 7.286 5.904 7.286zM215.217 13.684c3.057 0 5.535-3.059 5.535-6.831 0-3.773-2.478-6.831-5.535-6.831s-5.535 3.058-5.535 6.83c0 3.773 2.478 6.832 5.535 6.832zM355.197 139.66c-3.824 0-6.944 3.85-6.944 8.569 0 4.72 3.12 8.57 6.944 8.57s6.944-3.85 6.944-8.57c0-4.76-3.12-8.569-6.944-8.569zM342.483 140.736c3.687 0 6.676-3.688 6.676-8.238 0-4.55-2.989-8.238-6.676-8.238-3.686 0-6.675 3.688-6.675 8.238 0 4.55 2.989 8.238 6.675 8.238zM329.737 108.488c-3.724 0-6.743 3.725-6.743 8.321 0 4.595 3.019 8.321 6.743 8.321 3.723 0 6.742-3.726 6.742-8.321 0-4.596-3.019-8.321-6.742-8.321zM317.023 92.218c-3.958 0-7.178 3.974-7.178 8.859s3.22 8.859 7.178 8.859c3.959 0 7.179-3.974 7.179-8.859s-3.22-8.86-7.179-8.86zM304.31 77.024c-3.757 0-6.776 3.768-6.776 8.363s3.053 8.362 6.776 8.362c3.757 0 6.776-3.767 6.776-8.362 0-4.595-3.053-8.363-6.776-8.363zM291.563 61.376c-3.723 0-6.742 3.725-6.742 8.32 0 4.596 3.019 8.322 6.742 8.322 3.724 0 6.743-3.726 6.743-8.321 0-4.596-3.019-8.322-6.743-8.322zM278.85 62.784c3.946 0 7.145-3.948 7.145-8.818 0-4.87-3.199-8.818-7.145-8.818-3.946 0-7.145 3.948-7.145 8.818 0 4.87 3.199 8.818 7.145 8.818zM266.103 46.472c3.669 0 6.642-3.67 6.642-8.197 0-4.527-2.973-8.197-6.642-8.197-3.668 0-6.641 3.67-6.641 8.197 0 4.527 2.973 8.197 6.641 8.197zM255.79 29.787c3.249-1.67 4.786-6.276 3.432-10.286-1.353-4.01-5.084-5.907-8.333-4.236-3.25 1.67-4.786 6.275-3.433 10.285 1.353 4.01 5.085 5.907 8.334 4.236zM240.677-1.26c-3.623 0-6.575 3.643-6.575 8.114 0 4.471 2.952 8.114 6.575 8.114s6.575-3.643 6.575-8.114c0-4.47-2.952-8.114-6.575-8.114zM355.197 107.7c-4.093 0-7.38 4.099-7.38 9.108 0 5.051 3.321 9.108 7.38 9.108 4.092 0 7.379-4.099 7.379-9.108 0-5.05-3.287-9.108-7.379-9.108zM343.635 110.313c4.115-.82 6.912-5.601 6.248-10.68-.664-5.078-4.538-8.53-8.653-7.711-4.115.82-6.912 5.6-6.248 10.679.664 5.079 4.538 8.531 8.653 7.712zM329.737 76.527c-3.959 0-7.179 3.975-7.179 8.86s3.22 8.859 7.179 8.859c3.958 0 7.178-3.974 7.178-8.86.034-4.884-3.187-8.859-7.178-8.859zM317.023 60.3c-4.193 0-7.581 4.18-7.581 9.355 0 5.175 3.388 9.356 7.581 9.356 4.193 0 7.581-4.181 7.581-9.356 0-5.133-3.388-9.356-7.581-9.356zM304.31 63.28c4.168 0 7.548-4.17 7.548-9.315s-3.38-9.315-7.548-9.315-7.547 4.17-7.547 9.315c0 5.144 3.379 9.315 7.547 9.315zM291.563 29.457c-3.924 0-7.145 3.933-7.145 8.818s3.187 8.818 7.145 8.818c3.959 0 7.145-3.933 7.145-8.818s-3.186-8.818-7.145-8.818zM278.85 31.61c4.057 0 7.346-4.06 7.346-9.067 0-5.007-3.289-9.066-7.346-9.066s-7.346 4.059-7.346 9.066c0 5.007 3.289 9.066 7.346 9.066zM266.103-1.965c-3.924 0-7.145 3.933-7.145 8.818 0 4.844 3.187 8.818 7.145 8.818 3.959 0 7.145-3.933 7.145-8.818s-3.186-8.818-7.145-8.818zM367.943 91.1c-4.461 0-8.084 4.47-8.084 9.977 0 5.506 3.623 9.977 8.084 9.977 4.462 0 8.084-4.471 8.084-9.977s-3.622-9.977-8.084-9.977zM355.197 95.074c4.335 0 7.849-4.338 7.849-9.688 0-5.35-3.514-9.687-7.849-9.687-4.335 0-7.85 4.337-7.85 9.687s3.515 9.688 7.85 9.688zM342.483 59.886c-4.394 0-7.95 4.388-7.95 9.811 0 5.424 3.556 9.812 7.95 9.812 4.395 0 7.951-4.388 7.951-9.812 0-5.423-3.59-9.811-7.951-9.811zM329.737 44.196c-4.395 0-7.95 4.388-7.95 9.811 0 5.424 3.555 9.812 7.95 9.812 4.394 0 7.95-4.389 7.95-9.812 0-5.423-3.556-9.811-7.95-9.811zM317.023 28.464c-4.394 0-7.95 4.388-7.95 9.811 0 5.424 3.556 9.812 7.95 9.812 4.395 0 7.95-4.388 7.95-9.812 0-5.423-3.555-9.811-7.95-9.811zM304.31 12.898c-4.327 0-7.849 4.346-7.849 9.687 0 5.34 3.522 9.687 7.849 9.687s7.85-4.347 7.85-9.687c0-5.34-3.523-9.688-7.85-9.688zM291.563 16.21c4.187 0 7.581-4.19 7.581-9.357 0-5.167-3.394-9.356-7.581-9.356-4.186 0-7.581 4.19-7.581 9.356 0 5.168 3.395 9.356 7.581 9.356zM278.85.768c4.298 0 7.782-4.3 7.782-9.605 0-5.304-3.484-9.604-7.782-9.604s-7.782 4.3-7.782 9.604c0 5.305 3.484 9.605 7.782 9.605zM367.943 59.14c-4.729 0-8.52 4.72-8.52 10.515 0 5.837 3.824 10.515 8.52 10.515 4.697 0 8.521-4.72 8.521-10.515 0-5.796-3.824-10.515-8.521-10.515z" opacity=".5"/>
            <path d="M355.197 43.326c-4.763 0-8.621 4.761-8.621 10.64 0 5.878 3.858 10.64 8.621 10.64s8.621-4.762 8.621-10.64c.033-5.879-3.858-10.64-8.621-10.64z" opacity=".5"/>
            <path d="M342.483 28.05c-4.562 0-8.285 4.595-8.285 10.225s3.723 10.226 8.285 10.226 8.286-4.596 8.286-10.226c0-5.672-3.724-10.225-8.286-10.225z" opacity=".5"/>
            <path d="M329.737 32.686c4.539 0 8.218-4.541 8.218-10.143S334.276 12.4 329.737 12.4s-8.219 4.541-8.219 10.143 3.68 10.143 8.219 10.143z" opacity=".5"/>
            <path d="M317.024 17.328c4.687 0 8.486-4.69 8.486-10.474 0-5.785-3.799-10.474-8.486-10.474-4.688 0-8.487 4.69-8.487 10.474s3.799 10.474 8.487 10.474z" opacity=".5"/>
            <path d="M304.31-19.062c-4.562 0-8.285 4.595-8.285 10.225S299.748 1.39 304.31 1.39s8.285-4.595 8.285-10.226c0-5.671-3.723-10.225-8.285-10.225zM367.943 49.287c4.928 0 8.923-4.93 8.923-11.012 0-6.082-3.995-11.012-8.923-11.012-4.927 0-8.922 4.93-8.922 11.012 0 6.082 3.995 11.012 8.922 11.012z" opacity=".5"/>
            <path d="M355.197 33.638c4.965 0 8.99-4.967 8.99-11.095 0-6.127-4.025-11.095-8.99-11.095s-8.99 4.968-8.99 11.095c0 6.128 4.025 11.095 8.99 11.095z" opacity=".5"/>
            <path d="M342.483 17.865c4.928 0 8.923-4.93 8.923-11.012 0-6.082-3.995-11.012-8.923-11.012-4.927 0-8.922 4.93-8.922 11.012 0 6.082 3.995 11.012 8.922 11.012z" opacity=".5"/>
            <path d="M329.737 1.885c4.798 0 8.688-4.8 8.688-10.722s-3.89-10.723-8.688-10.723-8.688 4.801-8.688 10.723c0 5.921 3.89 10.722 8.688 10.722zM371.663 17.789c4.913-2.512 7.245-9.462 5.211-15.525-2.035-6.062-7.667-8.941-12.579-6.43-4.913 2.511-7.245 9.462-5.211 15.524 2.035 6.063 7.667 8.942 12.579 6.43z" opacity=".5"/>
            <path d="M355.197-20.636c-5.267 0-9.527 5.258-9.527 11.757 0 6.5 4.26 11.757 9.527 11.757 5.266 0 9.526-5.257 9.526-11.757 0-6.458-4.26-11.757-9.526-11.757z" opacity=".5"/>
        </g>
        <g fill="#A7D9FF" opacity=".5">
            <path d="M3.52 700.075c-6.005 0-10.869 6.003-10.869 13.413 0 7.411 4.864 13.413 10.869 13.413 6.004 0 10.868-6.002 10.868-13.413 0-7.41-4.864-13.413-10.868-13.413z" opacity=".5"/>
            <path d="M17.877 683.267c-5.602 0-10.13 5.589-10.13 12.502 0 6.914 4.528 12.503 10.13 12.503 5.601 0 10.13-5.589 10.13-12.503 0-6.913-4.529-12.502-10.13-12.502z" opacity=".5"/>
            <path d="M3.52 665.591c-5.569 0-10.097 5.588-10.097 12.461 0 6.872 4.528 12.461 10.096 12.461 5.569 0 10.097-5.589 10.097-12.461 0-6.873-4.528-12.461-10.097-12.461zM46.624 683.764c-5.367 0-9.762 5.382-9.762 12.047 0 6.665 4.361 12.047 9.762 12.047 5.367 0 9.761-5.382 9.761-12.047 0-6.665-4.394-12.047-9.761-12.047z" opacity=".5"/>
            <path d="M32.267 689.601c5.168 0 9.359-5.171 9.359-11.55 0-6.379-4.19-11.55-9.36-11.55-5.168 0-9.358 5.171-9.358 11.55 0 6.379 4.19 11.55 9.359 11.55z" opacity=".5"/>
            <path d="M17.876 671.8c5.132 0 9.292-5.134 9.292-11.467s-4.16-11.468-9.292-11.468c-5.131 0-9.292 5.135-9.292 11.468s4.16 11.467 9.292 11.467z" opacity=".5"/>
            <path d="M3.52 630.774c-5.3 0-9.594 5.299-9.594 11.84 0 6.541 4.293 11.84 9.593 11.84s9.594-5.299 9.594-11.84c0-6.541-4.294-11.84-9.594-11.84zM75.338 684.84c-4.898 0-8.856 4.885-8.856 10.93 0 6.044 3.958 10.929 8.856 10.929 4.897 0 8.855-4.885 8.855-10.929 0-6.045-3.958-10.93-8.855-10.93zM60.98 666.998c-4.93 0-8.956 4.967-8.956 11.053 0 6.086 4.026 11.053 8.957 11.053 4.93 0 8.956-4.967 8.956-11.053 0-6.127-3.992-11.053-8.956-11.053zM46.624 649.279c-4.931 0-8.957 4.968-8.957 11.053 0 6.086 4.026 11.054 8.957 11.054 4.93 0 8.956-4.968 8.956-11.054 0-6.127-4.025-11.053-8.956-11.053zM32.267 631.519c-4.931 0-8.957 4.967-8.957 11.053 0 6.086 4.026 11.053 8.957 11.053 4.93 0 8.956-4.967 8.956-11.053 0-6.086-4.025-11.053-8.956-11.053zM17.877 613.924c-4.898 0-8.856 4.885-8.856 10.93 0 6.044 3.958 10.929 8.855 10.929 4.898 0 8.856-4.885 8.856-10.929 0-6.045-3.958-10.93-8.855-10.93zM3.52 596.537c-4.73 0-8.554 4.72-8.554 10.557 0 5.837 3.824 10.556 8.553 10.556 4.73 0 8.554-4.719 8.554-10.556 0-5.837-3.824-10.557-8.554-10.557zM104.085 685.502c-4.596 0-8.353 4.595-8.353 10.308s3.724 10.309 8.353 10.309c4.595 0 8.352-4.596 8.352-10.309 0-5.713-3.757-10.308-8.352-10.308zM89.728 667.536c-4.696 0-8.52 4.719-8.52 10.515s3.824 10.515 8.52 10.515 8.52-4.719 8.52-10.515c-.033-5.796-3.824-10.515-8.52-10.515zM75.338 670.351c4.483 0 8.117-4.486 8.117-10.019s-3.634-10.018-8.117-10.018c-4.484 0-8.118 4.485-8.118 10.018s3.634 10.019 8.118 10.019zM60.98 632.016c-4.73 0-8.553 4.72-8.553 10.557 0 5.837 3.824 10.556 8.553 10.556 4.73 0 8.554-4.719 8.554-10.556 0-5.837-3.824-10.557-8.554-10.557zM46.624 614.339c-4.697 0-8.52 4.719-8.52 10.515s3.824 10.515 8.52 10.515 8.52-4.719 8.52-10.515-3.824-10.515-8.52-10.515zM32.267 617.071c4.446 0 8.05-4.448 8.05-9.936 0-5.487-3.604-9.935-8.05-9.935-4.447 0-8.05 4.448-8.05 9.935 0 5.488 3.603 9.936 8.05 9.936zM17.877 579.191c-4.562 0-8.286 4.595-8.286 10.225s3.724 10.226 8.286 10.226c4.562 0 8.285-4.596 8.285-10.226 0-5.671-3.69-10.225-8.285-10.225zM3.52 581.592c4.446 0 8.05-4.448 8.05-9.935 0-5.488-3.604-9.936-8.05-9.936-4.447 0-8.051 4.448-8.051 9.936 0 5.487 3.604 9.935 8.05 9.935zM132.832 686.124c-4.327 0-7.815 4.347-7.815 9.646s3.522 9.646 7.815 9.646c4.328 0 7.816-4.347 7.816-9.646s-3.488-9.646-7.816-9.646zM118.442 668.737c-4.16 0-7.548 4.181-7.548 9.314 0 5.134 3.388 9.315 7.548 9.315 4.159 0 7.547-4.181 7.547-9.315 0-5.133-3.354-9.314-7.547-9.314zM104.085 650.935c-4.193 0-7.614 4.223-7.614 9.398s3.42 9.397 7.614 9.397c4.193 0 7.615-4.222 7.615-9.397 0-5.216-3.422-9.398-7.615-9.398zM89.728 652.591c4.483 0 8.118-4.486 8.118-10.019s-3.635-10.018-8.118-10.018c-4.483 0-8.118 4.485-8.118 10.018s3.635 10.019 8.118 10.019zM75.338 615.415c-4.227 0-7.648 4.222-7.648 9.439 0 5.216 3.421 9.439 7.648 9.439 4.226 0 7.648-4.223 7.648-9.439.033-5.217-3.388-9.439-7.648-9.439zM60.98 597.738c-4.193 0-7.614 4.222-7.614 9.397s3.421 9.398 7.614 9.398c4.194 0 7.615-4.223 7.615-9.398s-3.421-9.397-7.614-9.397zM46.624 599.311c4.446 0 8.05-4.448 8.05-9.936 0-5.487-3.604-9.935-8.05-9.935-4.447 0-8.051 4.448-8.051 9.935 0 5.488 3.604 9.936 8.05 9.936zM32.267 562.424c-4.126 0-7.48 4.14-7.48 9.232s3.354 9.232 7.48 9.232 7.48-4.14 7.48-9.232-3.354-9.232-7.48-9.232zM17.876 545.037c-3.991 0-7.212 3.974-7.212 8.901 0 4.926 3.22 8.901 7.212 8.901 3.992 0 7.212-3.975 7.212-8.901 0-4.927-3.22-8.901-7.212-8.901zM3.52 527.028c-4.093 0-7.447 4.099-7.447 9.191 0 5.092 3.32 9.19 7.447 9.19 4.126 0 7.446-4.098 7.446-9.19s-3.32-9.191-7.446-9.191zM161.546 704.05c3.705 0 6.709-3.707 6.709-8.28 0-4.573-3.004-8.28-6.709-8.28-3.705 0-6.709 3.707-6.709 8.28 0 4.573 3.004 8.28 6.709 8.28zM147.189 686.663c3.853 0 6.977-3.856 6.977-8.611 0-4.756-3.124-8.611-6.977-8.611s-6.977 3.855-6.977 8.611c0 4.755 3.124 8.611 6.977 8.611zM132.832 651.473c-3.958 0-7.145 3.974-7.145 8.818 0 4.885 3.187 8.818 7.145 8.818 3.958 0 7.145-3.974 7.145-8.818 0-4.844-3.22-8.818-7.145-8.818zM118.442 633.754c-3.958 0-7.145 3.933-7.145 8.818s3.187 8.818 7.145 8.818c3.958 0 7.145-3.974 7.145-8.818.033-4.885-3.187-8.818-7.145-8.818zM104.085 615.953c-3.992 0-7.212 3.975-7.212 8.901 0 4.927 3.22 8.901 7.212 8.901 3.992 0 7.212-3.974 7.212-8.901 0-4.926-3.22-8.901-7.212-8.901zM89.728 616.036c3.983 0 7.212-3.985 7.212-8.901 0-4.915-3.23-8.9-7.212-8.9-3.983 0-7.212 3.985-7.212 8.9 0 4.916 3.229 8.901 7.212 8.901zM75.338 580.474c-3.992 0-7.212 3.975-7.212 8.901 0 4.927 3.22 8.901 7.212 8.901 3.991 0 7.212-3.974 7.212-8.901 0-4.926-3.22-8.901-7.212-8.901zM60.98 580.475c3.947 0 7.145-3.948 7.145-8.818 0-4.87-3.198-8.818-7.145-8.818-3.945 0-7.144 3.948-7.144 8.818 0 4.87 3.199 8.818 7.145 8.818zM46.624 562.508c3.835 0 6.943-3.837 6.943-8.57 0-4.733-3.108-8.569-6.943-8.569-3.835 0-6.944 3.836-6.944 8.569 0 4.733 3.109 8.57 6.944 8.57zM32.267 544.789c3.835 0 6.944-3.837 6.944-8.57 0-4.733-3.11-8.569-6.944-8.569-3.835 0-6.944 3.836-6.944 8.569 0 4.733 3.109 8.57 6.944 8.57zM17.876 510.263c-3.656 0-6.641 3.684-6.641 8.197 0 4.512 2.985 8.197 6.641 8.197 3.657 0 6.642-3.685 6.642-8.197.034-4.513-2.952-8.197-6.642-8.197zM3.52 493.04c-3.456 0-6.24 3.436-6.24 7.7s2.784 7.7 6.24 7.7c3.455 0 6.239-3.436 6.239-7.7s-2.784-7.7-6.24-7.7zM191.244 703.264c3.347-.667 5.622-4.556 5.082-8.687-.541-4.13-3.692-6.938-7.039-6.271-3.346.667-5.622 4.556-5.081 8.687.54 4.13 3.691 6.938 7.038 6.271zM175.903 685.296c3.242 0 5.87-3.243 5.87-7.245 0-4.001-2.628-7.244-5.87-7.244s-5.87 3.243-5.87 7.244c0 4.002 2.628 7.245 5.87 7.245zM161.546 652.715c-3.388 0-6.139 3.395-6.139 7.576 0 4.182 2.751 7.576 6.139 7.576 3.388 0 6.139-3.394 6.139-7.576 0-4.181-2.751-7.576-6.139-7.576zM147.189 634.376c-3.656 0-6.642 3.685-6.642 8.197 0 4.513 2.986 8.197 6.642 8.197s6.642-3.684 6.642-8.197c0-4.512-2.986-8.197-6.642-8.197zM132.832 633.217c3.743 0 6.776-3.744 6.776-8.363 0-4.618-3.033-8.363-6.776-8.363-3.742 0-6.776 3.745-6.776 8.363 0 4.619 3.034 8.363 6.776 8.363zM118.442 599.27c-3.522 0-6.374 3.519-6.374 7.866 0 4.347 2.852 7.866 6.374 7.866s6.373-3.519 6.373-7.866c0-4.347-2.851-7.866-6.373-7.866zM104.085 581.054c-3.723 0-6.776 3.726-6.776 8.363s3.019 8.363 6.776 8.363c3.723 0 6.776-3.726 6.776-8.363s-3.053-8.363-6.776-8.363zM90.768 579.849c3.694-.736 6.206-5.028 5.61-9.588-.596-4.559-4.075-7.659-7.769-6.923-3.694.736-6.206 5.028-5.61 9.587.597 4.56 4.075 7.659 7.769 6.924zM75.338 546.155c-3.49 0-6.307 3.478-6.307 7.783 0 4.306 2.818 7.783 6.306 7.783 3.49 0 6.307-3.477 6.307-7.783.033-4.305-2.818-7.783-6.306-7.783zM60.98 544.416c3.669 0 6.642-3.67 6.642-8.197 0-4.527-2.973-8.197-6.641-8.197-3.669 0-6.642 3.67-6.642 8.197 0 4.527 2.973 8.197 6.642 8.197zM46.624 510.634c-3.523 0-6.374 3.519-6.374 7.866 0 4.347 2.852 7.866 6.374 7.866s6.373-3.519 6.373-7.866c0-4.347-2.851-7.866-6.373-7.866zM32.267 507.903c3.205 0 5.803-3.207 5.803-7.162 0-3.956-2.598-7.162-5.803-7.162s-5.803 3.206-5.803 7.162c0 3.955 2.598 7.162 5.803 7.162zM17.876 476.273c-3.019 0-5.467 3.022-5.467 6.748 0 3.726 2.448 6.748 5.467 6.748 3.02 0 5.468-3.022 5.468-6.748 0-3.726-2.449-6.748-5.468-6.748zM3.52 472.258c3.112 0 5.635-3.113 5.635-6.955 0-3.841-2.523-6.955-5.635-6.955-3.113 0-5.636 3.114-5.636 6.955 0 3.842 2.523 6.955 5.636 6.955zM219.825 701.709c2.67-.533 4.485-3.636 4.053-6.932-.432-3.295-2.946-5.535-5.617-5.002-2.67.533-4.484 3.636-4.053 6.932.432 3.295 2.947 5.535 5.617 5.002zM204.65 671.593c-2.884 0-5.233 2.898-5.233 6.458 0 3.561 2.349 6.459 5.233 6.459 2.885 0 5.233-2.898 5.233-6.459 0-3.56-2.348-6.458-5.233-6.458zM191.193 667.083c3.035-.606 5.099-4.134 4.608-7.881-.49-3.746-3.349-6.293-6.385-5.688-3.036.606-5.099 4.134-4.609 7.881.491 3.746 3.35 6.293 6.386 5.688zM175.903 649.445c3.075 0 5.568-3.077 5.568-6.873 0-3.795-2.493-6.872-5.568-6.872-3.075 0-5.568 3.077-5.568 6.872 0 3.796 2.493 6.873 5.568 6.873zM161.546 632.016c3.205 0 5.803-3.206 5.803-7.162 0-3.955-2.598-7.162-5.803-7.162s-5.803 3.207-5.803 7.162c0 3.956 2.598 7.162 5.803 7.162zM147.189 614.421c3.261 0 5.904-3.262 5.904-7.286 0-4.024-2.643-7.286-5.904-7.286-3.26 0-5.904 3.262-5.904 7.286 0 4.024 2.644 7.286 5.904 7.286zM132.832 581.551c-3.522 0-6.373 3.518-6.373 7.865s2.851 7.866 6.373 7.866c3.522 0 6.374-3.519 6.374-7.866-.034-4.347-2.885-7.865-6.374-7.865zM118.442 579.025c3.297 0 5.971-3.299 5.971-7.369s-2.674-7.369-5.971-7.369c-3.298 0-5.971 3.299-5.971 7.369s2.673 7.369 5.971 7.369zM104.085 546.651c-3.254 0-5.904 3.271-5.904 7.286 0 4.016 2.65 7.286 5.904 7.286s5.904-3.27 5.904-7.286c0-4.015-2.65-7.286-5.904-7.286zM89.728 528.436c-3.489 0-6.306 3.477-6.306 7.783 0 4.305 2.817 7.783 6.306 7.783s6.306-3.478 6.306-7.783c0-4.306-2.817-7.783-6.306-7.783zM75.338 511.462c-3.154 0-5.703 3.147-5.703 7.038 0 3.892 2.55 7.038 5.703 7.038 3.153 0 5.702-3.146 5.702-7.038 0-3.891-2.55-7.038-5.703-7.038zM60.98 507.612c3.076 0 5.569-3.077 5.569-6.872 0-3.796-2.493-6.872-5.568-6.872-3.076 0-5.569 3.076-5.569 6.872 0 3.795 2.493 6.872 5.569 6.872zM46.624 476.605c-2.852 0-5.2 2.857-5.2 6.417 0 3.519 2.315 6.417 5.2 6.417 2.85 0 5.199-2.857 5.199-6.417-.034-3.56-2.348-6.417-5.2-6.417zM32.267 458.886c-2.852 0-5.2 2.857-5.2 6.417 0 3.519 2.315 6.417 5.2 6.417 2.884 0 5.2-2.857 5.2-6.417-.034-3.56-2.35-6.417-5.2-6.417zM17.876 441.582c-2.683 0-4.83 2.691-4.83 5.961 0 3.271 2.18 5.962 4.83 5.962 2.684 0 4.83-2.691 4.83-5.962 0-3.27-2.146-5.961-4.83-5.961zM3.52 435.165c2.39 0 4.326-2.391 4.326-5.34s-1.937-5.34-4.327-5.34c-2.39 0-4.327 2.391-4.327 5.34s1.938 5.34 4.327 5.34zM247.755 701.069c2.371 0 4.293-2.372 4.293-5.299 0-2.926-1.922-5.299-4.293-5.299-2.372 0-4.294 2.373-4.294 5.299 0 2.927 1.922 5.299 4.294 5.299zM233.364 672.255c-2.583 0-4.663 2.567-4.663 5.754 0 3.188 2.08 5.755 4.663 5.755s4.663-2.567 4.663-5.755c.033-3.146-2.08-5.754-4.663-5.754zM219.713 665.721c2.36-.471 3.963-3.213 3.582-6.124-.382-2.912-2.604-4.891-4.963-4.42-2.359.471-3.962 3.213-3.581 6.124.381 2.912 2.603 4.891 4.962 4.42zM204.65 636.446c-2.75 0-4.964 2.732-4.964 6.127 0 3.394 2.214 6.127 4.964 6.127 2.751 0 4.965-2.733 4.965-6.127 0-3.354-2.214-6.127-4.965-6.127zM190.293 618.396c-2.884 0-5.232 2.897-5.232 6.458 0 3.56 2.348 6.458 5.232 6.458 2.885 0 5.233-2.898 5.233-6.458 0-3.561-2.348-6.458-5.233-6.458zM175.903 601.133c-2.684 0-4.83 2.691-4.83 5.961 0 3.271 2.18 5.962 4.83 5.962 2.683 0 4.83-2.691 4.83-5.962 0-3.27-2.147-5.961-4.83-5.961zM161.546 582.793c-2.952 0-5.367 2.94-5.367 6.624 0 3.685 2.382 6.624 5.367 6.624s5.367-2.939 5.367-6.624c0-3.684-2.415-6.624-5.367-6.624zM147.189 578.487c3.057 0 5.535-3.058 5.535-6.83 0-3.773-2.478-6.831-5.535-6.831s-5.535 3.058-5.535 6.831c0 3.772 2.478 6.83 5.535 6.83zM132.832 547.107c-3.052 0-5.535 3.064-5.535 6.831 0 3.767 2.483 6.831 5.535 6.831 3.053 0 5.535-3.064 5.535-6.831-.034-3.767-2.516-6.831-5.535-6.831zM119.34 542.883c3.018-.602 5.069-4.109 4.581-7.833-.487-3.724-3.329-6.256-6.346-5.654-3.018.602-5.069 4.109-4.582 7.833.488 3.724 3.329 6.256 6.347 5.654zM104.085 511.877c-2.952 0-5.367 2.939-5.367 6.623 0 3.644 2.381 6.624 5.367 6.624 2.952 0 5.367-2.939 5.367-6.624 0-3.684-2.415-6.623-5.367-6.623zM89.728 494.365c-2.851 0-5.2 2.857-5.2 6.417 0 3.519 2.315 6.417 5.2 6.417 2.885 0 5.2-2.857 5.2-6.417-.034-3.56-2.349-6.417-5.2-6.417zM75.338 488.735c2.556 0 4.629-2.558 4.629-5.713 0-3.156-2.073-5.713-4.63-5.713-2.556 0-4.629 2.557-4.629 5.713 0 3.155 2.073 5.713 4.63 5.713zM60.98 471.43c2.742 0 4.965-2.743 4.965-6.127s-2.223-6.127-4.964-6.127c-2.742 0-4.965 2.743-4.965 6.127s2.223 6.127 4.965 6.127zM46.624 453.257c2.556 0 4.629-2.558 4.629-5.713 0-3.156-2.073-5.713-4.63-5.713-2.556 0-4.628 2.557-4.628 5.713 0 3.155 2.072 5.713 4.629 5.713zM32.267 424.939c-2.18 0-3.958 2.194-3.958 4.885s1.777 4.885 3.958 4.885c2.18 0 3.958-2.194 3.958-4.885s-1.778-4.885-3.958-4.885zM17.876 406.931c-2.314 0-4.16 2.318-4.16 5.133s1.88 5.134 4.16 5.134c2.315 0 4.16-2.319 4.16-5.134 0-2.815-1.845-5.133-4.16-5.133zM3.52 398.858c2.019 0 3.656-2.02 3.656-4.512 0-2.492-1.637-4.513-3.657-4.513-2.019 0-3.656 2.021-3.656 4.513s1.637 4.512 3.656 4.512zM276.468 692.209c-1.576 0-2.885 1.574-2.885 3.561 0 1.987 1.275 3.56 2.885 3.56 1.577 0 2.885-1.573 2.885-3.56s-1.275-3.561-2.885-3.561zM262.111 673.953c-1.844 0-3.32 1.821-3.32 4.098s1.476 4.099 3.32 4.099c1.845 0 3.321-1.822 3.321-4.099s-1.476-4.098-3.321-4.098zM247.755 665.011c2.093 0 3.79-2.095 3.79-4.678 0-2.584-1.697-4.678-3.79-4.678-2.094 0-3.791 2.094-3.791 4.678 0 2.583 1.697 4.678 3.791 4.678zM233.364 637.232c-2.382 0-4.327 2.401-4.327 5.34 0 2.94 1.945 5.341 4.327 5.341 2.382 0 4.327-2.401 4.327-5.341.034-2.939-1.912-5.34-4.327-5.34zM219.007 619.845c-2.247 0-4.059 2.236-4.059 5.009 0 2.774 1.812 5.01 4.059 5.01 2.248 0 4.059-2.236 4.059-5.01 0-2.773-1.811-5.009-4.059-5.009zM204.65 601.836c-2.348 0-4.293 2.36-4.293 5.299 0 2.939 1.912 5.299 4.293 5.299 2.348 0 4.294-2.36 4.294-5.299 0-2.939-1.946-5.299-4.294-5.299zM190.294 583.414c-2.684 0-4.831 2.691-4.831 5.961 0 3.271 2.181 5.962 4.831 5.962 2.683 0 4.83-2.691 4.83-5.962 0-3.27-2.181-5.961-4.83-5.961zM175.903 577.163c2.464 0 4.461-2.465 4.461-5.506 0-3.041-1.997-5.506-4.461-5.506-2.464 0-4.461 2.465-4.461 5.506 0 3.041 1.997 5.506 4.461 5.506zM161.546 559.569c2.52 0 4.562-2.521 4.562-5.63 0-3.11-2.042-5.631-4.562-5.631-2.519 0-4.562 2.521-4.562 5.631 0 3.109 2.043 5.63 4.562 5.63zM147.189 530.01c-2.784 0-4.998 2.774-4.998 6.168 0 3.395 2.248 6.169 4.998 6.169 2.784 0 4.998-2.774 4.998-6.169 0-3.394-2.247-6.168-4.998-6.168zM132.832 512.374c-2.75 0-4.964 2.732-4.964 6.127 0 3.394 2.214 6.127 4.964 6.127 2.751 0 4.965-2.733 4.965-6.127-.034-3.395-2.248-6.127-4.965-6.127zM118.442 506.164c2.427 0 4.394-2.428 4.394-5.424 0-2.995-1.967-5.423-4.394-5.423s-4.395 2.428-4.395 5.423c0 2.996 1.968 5.424 4.395 5.424zM104.085 477.723c-2.348 0-4.294 2.36-4.294 5.299 0 2.939 1.912 5.299 4.294 5.299 2.348 0 4.294-2.36 4.294-5.299 0-2.939-1.912-5.299-4.294-5.299zM89.728 471.016c2.557 0 4.63-2.558 4.63-5.713 0-3.155-2.073-5.713-4.63-5.713s-4.63 2.558-4.63 5.713c0 3.155 2.073 5.713 4.63 5.713zM75.337 442.533c-2.247 0-4.058 2.236-4.058 5.01 0 2.773 1.81 5.009 4.058 5.009 2.248 0 4.06-2.236 4.06-5.009 0-2.774-1.812-5.01-4.06-5.01zM60.98 434.337c2.02 0 3.657-2.02 3.657-4.512 0-2.492-1.637-4.513-3.657-4.513-2.019 0-3.656 2.021-3.656 4.513s1.637 4.512 3.657 4.512zM46.624 407.221c-2.18 0-3.959 2.194-3.959 4.885s1.778 4.885 3.959 4.885c2.18 0 3.958-2.194 3.958-4.885s-1.778-4.885-3.958-4.885zM32.267 398.362c1.797 0 3.253-1.798 3.253-4.016 0-2.217-1.456-4.015-3.253-4.015-1.797 0-3.254 1.798-3.254 4.015 0 2.218 1.457 4.016 3.254 4.016zM17.876 373.15c-1.543 0-2.817 1.573-2.817 3.477s1.274 3.478 2.817 3.478c1.543 0 2.818-1.574 2.818-3.478 0-1.904-1.241-3.477-2.818-3.477zM3.52 361.765c1.278 0 2.314-1.279 2.314-2.856 0-1.578-1.036-2.857-2.315-2.857-1.278 0-2.314 1.279-2.314 2.857 0 1.577 1.036 2.856 2.314 2.856zM305.216 698.544c1.241 0 2.247-1.242 2.247-2.774s-1.006-2.773-2.247-2.773c-1.241 0-2.247 1.241-2.247 2.773s1.006 2.774 2.247 2.774zM290.859 674.781c-1.476 0-2.65 1.449-2.65 3.27 0 1.822 1.174 3.271 2.65 3.271s2.65-1.449 2.65-3.271c0-1.821-1.208-3.27-2.65-3.27zM276.468 657.311c-1.341 0-2.415 1.325-2.415 2.981s1.074 2.98 2.415 2.98c1.342 0 2.416-1.324 2.416-2.98.033-1.615-1.074-2.981-2.416-2.981zM262.112 638.763c-1.711 0-3.087 1.698-3.087 3.809s1.376 3.809 3.087 3.809c1.71 0 3.086-1.698 3.086-3.809s-1.376-3.809-3.086-3.809zM248.386 628.96c1.847-.369 3.102-2.516 2.803-4.796-.299-2.28-2.038-3.829-3.886-3.46-1.847.369-3.102 2.517-2.803 4.796.299 2.28 2.039 3.829 3.886 3.46zM233.364 602.458c-2.079 0-3.79 2.069-3.79 4.678 0 2.566 1.677 4.678 3.79 4.678 2.08 0 3.791-2.07 3.791-4.678 0-2.567-1.677-4.678-3.791-4.678zM219.007 584.739c-2.079 0-3.79 2.069-3.79 4.678 0 2.566 1.677 4.678 3.79 4.678 2.08 0 3.791-2.07 3.791-4.678 0-2.609-1.711-4.678-3.791-4.678zM204.65 566.854c-2.146 0-3.891 2.153-3.891 4.802 0 2.65 1.745 4.802 3.891 4.802 2.147 0 3.892-2.152 3.892-4.802 0-2.649-1.745-4.802-3.892-4.802zM190.293 548.928c-2.247 0-4.058 2.236-4.058 5.009 0 2.774 1.811 5.009 4.058 5.009 2.248 0 4.059-2.235 4.059-5.009 0-2.773-1.845-5.009-4.059-5.009zM175.903 531.21c-2.247 0-4.059 2.235-4.059 5.009 0 2.774 1.812 5.009 4.059 5.009 2.248 0 4.059-2.235 4.059-5.009 0-2.774-1.811-5.009-4.059-5.009zM161.546 513.451c-2.247 0-4.059 2.235-4.059 5.009 0 2.774 1.812 5.009 4.059 5.009 2.248 0 4.059-2.235 4.059-5.009 0-2.732-1.811-5.009-4.059-5.009zM147.189 495.732c-2.247 0-4.059 2.235-4.059 5.009 0 2.774 1.812 5.009 4.059 5.009 2.248 0 4.059-2.235 4.059-5.009 0-2.774-1.811-5.009-4.059-5.009zM132.832 478.22c-2.147 0-3.891 2.153-3.891 4.802 0 2.65 1.744 4.803 3.891 4.803 2.147 0 3.891-2.153 3.891-4.803-.033-2.649-1.744-4.802-3.891-4.802zM118.442 460.501c-2.147 0-3.891 2.152-3.891 4.802 0 2.65 1.744 4.802 3.891 4.802 2.147 0 3.891-2.152 3.891-4.802 0-2.65-1.744-4.802-3.891-4.802zM104.085 443.031c-2.013 0-3.657 2.029-3.657 4.513s1.644 4.512 3.657 4.512c2.012 0 3.656-2.028 3.656-4.512 0-2.484-1.644-4.513-3.656-4.513zM89.728 434.005c1.871 0 3.388-1.872 3.388-4.181s-1.517-4.181-3.388-4.181-3.388 1.872-3.388 4.181 1.517 4.181 3.388 4.181zM75.337 407.925c-1.878 0-3.388 1.863-3.388 4.181 0 2.319 1.51 4.182 3.388 4.182 1.879 0 3.388-1.863 3.388-4.182 0-2.318-1.51-4.181-3.388-4.181zM60.98 390.619c-1.677 0-3.052 1.698-3.052 3.768s1.375 3.767 3.053 3.767c1.677 0 3.052-1.697 3.052-3.767s-1.375-3.768-3.052-3.768zM46.623 373.357c-1.475 0-2.65 1.449-2.65 3.27 0 1.822 1.175 3.271 2.65 3.271 1.477 0 2.65-1.449 2.65-3.271 0-1.78-1.174-3.27-2.65-3.27zM32.267 356.548c-1.074 0-1.912 1.077-1.912 2.36 0 1.325.872 2.36 1.912 2.36s1.912-1.077 1.912-2.36c0-1.325-.873-2.36-1.912-2.36zM17.876 338.541c-1.174 0-2.147 1.201-2.147 2.65 0 1.448.973 2.649 2.147 2.649s2.147-1.201 2.147-2.649c0-1.449-.939-2.65-2.147-2.65zM3.52 321.443c-.906 0-1.644.91-1.644 2.028 0 1.118.738 2.029 1.643 2.029.906 0 1.644-.911 1.644-2.029 0-1.159-.738-2.028-1.644-2.028zM333.93 697.592c.815 0 1.476-.816 1.476-1.822 0-1.006-.661-1.822-1.476-1.822s-1.476.816-1.476 1.822c0 1.006.661 1.822 1.476 1.822zM319.573 676.519c-.671 0-1.241.704-1.241 1.532 0 .828.57 1.531 1.241 1.531.671 0 1.241-.703 1.241-1.531 0-.87-.537-1.532-1.241-1.532zM305.216 658.222c-.939 0-1.677.952-1.677 2.07 0 1.159.771 2.07 1.677 2.07.939 0 1.677-.952 1.677-2.07 0-1.118-.738-2.07-1.677-2.07zM290.859 639.592c-1.342 0-2.415 1.324-2.415 2.98s1.073 2.981 2.415 2.981 2.415-1.325 2.415-2.981-1.107-2.98-2.415-2.98zM276.468 622.204c-1.174 0-2.146 1.2-2.146 2.649s.972 2.65 2.146 2.65 2.147-1.201 2.147-2.65c0-1.449-.939-2.649-2.147-2.649zM262.111 604.155c-1.341 0-2.415 1.325-2.415 2.98 0 1.656 1.074 2.981 2.415 2.981 1.342 0 2.416-1.325 2.416-2.981 0-1.655-1.074-2.98-2.416-2.98zM247.755 585.566c-1.711 0-3.087 1.698-3.087 3.809s1.376 3.809 3.087 3.809c1.71 0 3.086-1.698 3.086-3.809s-1.376-3.809-3.086-3.809zM233.364 567.558c-1.845 0-3.321 1.822-3.321 4.099s1.476 4.098 3.321 4.098c1.845 0 3.321-1.821 3.321-4.098.034-2.277-1.476-4.099-3.321-4.099zM219.007 550.378c-1.576 0-2.884 1.573-2.884 3.56 0 1.946 1.274 3.56 2.884 3.56 1.577 0 2.885-1.573 2.885-3.56 0-1.946-1.274-3.56-2.885-3.56zM204.65 540.525c1.927 0 3.489-1.928 3.489-4.305 0-2.378-1.562-4.306-3.489-4.306-1.926 0-3.488 1.928-3.488 4.306 0 2.377 1.562 4.305 3.488 4.305zM190.293 514.112c-1.945 0-3.555 1.946-3.555 4.388 0 2.401 1.576 4.389 3.555 4.389 1.946 0 3.556-1.946 3.556-4.389-.033-2.442-1.61-4.388-3.556-4.388zM175.903 496.932c-1.711 0-3.086 1.698-3.086 3.809s1.375 3.809 3.086 3.809c1.711 0 3.086-1.698 3.086-3.809.034-2.111-1.375-3.809-3.086-3.809zM161.546 479.255c-1.677 0-3.052 1.697-3.052 3.767s1.375 3.767 3.052 3.767 3.053-1.697 3.053-3.767-1.376-3.767-3.053-3.767zM147.189 469.609c1.927 0 3.489-1.928 3.489-4.306s-1.562-4.305-3.489-4.305c-1.927 0-3.489 1.927-3.489 4.305 0 2.378 1.562 4.306 3.489 4.306zM132.832 443.527c-1.811 0-3.253 1.822-3.253 4.016 0 2.235 1.476 4.015 3.253 4.015 1.812 0 3.254-1.821 3.254-4.015 0-2.236-1.476-4.016-3.254-4.016zM118.442 426.43c-1.51 0-2.751 1.532-2.751 3.395s1.241 3.395 2.751 3.395c1.509 0 2.75-1.532 2.75-3.395s-1.207-3.395-2.75-3.395zM104.085 408.255c-1.711 0-3.086 1.698-3.086 3.809s1.375 3.809 3.086 3.809c1.711 0 3.086-1.698 3.086-3.809 0-2.07-1.375-3.809-3.086-3.809zM89.728 390.951c-1.51 0-2.75 1.532-2.75 3.395s1.24 3.394 2.75 3.394 2.75-1.531 2.75-3.394c0-1.863-1.24-3.395-2.75-3.395zM75.337 373.978c-1.174 0-2.146 1.2-2.146 2.649s.972 2.65 2.146 2.65 2.147-1.201 2.147-2.65c0-1.449-.939-2.649-2.147-2.649zM60.98 356.88c-.905 0-1.643.911-1.643 2.029 0 1.118.738 2.028 1.643 2.028.906 0 1.644-.91 1.644-2.028 0-1.118-.738-2.029-1.644-2.029zM46.624 338.83c-1.074 0-1.912 1.076-1.912 2.36 0 1.283.872 2.359 1.912 2.359 1.073 0 1.912-1.076 1.912-2.359 0-1.284-.873-2.36-1.912-2.36zM32.267 324.879c.648 0 1.174-.648 1.174-1.449 0-.8-.526-1.449-1.174-1.449-.649 0-1.174.649-1.174 1.449 0 .801.525 1.449 1.174 1.449zM17.877 304.883c-.37 0-.671.373-.671.828 0 .455.302.828.67.828.37 0 .671-.373.671-.828.034-.455-.302-.828-.67-.828zM3.52 286.874c-.504 0-.906.497-.906 1.118 0 .621.402 1.118.906 1.118.503 0 .905-.497.905-1.118 0-.621-.402-1.118-.905-1.118zM348.32 677.265c-.335 0-.604.331-.604.745s.269.745.604.745c.336 0 .604-.331.604-.745 0-.373-.268-.745-.604-.745zM333.93 661.74c.63 0 1.14-.63 1.14-1.408 0-.777-.51-1.407-1.14-1.407-.63 0-1.141.63-1.141 1.407 0 .778.511 1.408 1.141 1.408zM319.573 643.98c.63 0 1.14-.63 1.14-1.407 0-.778-.51-1.408-1.14-1.408-.63 0-1.141.63-1.141 1.408 0 .777.511 1.407 1.141 1.407zM305.216 623.032c-.805 0-1.476.828-1.476 1.822 0 .994.671 1.822 1.476 1.822.805 0 1.476-.828 1.476-1.822 0-.994-.671-1.822-1.476-1.822zM290.859 604.816c-1.04 0-1.845 1.035-1.845 2.277 0 1.283.838 2.277 1.845 2.277 1.006 0 1.845-1.035 1.845-2.277 0-1.242-.839-2.277-1.845-2.277zM276.469 587.098c-1.04 0-1.845 1.035-1.845 2.277 0 1.283.838 2.276 1.845 2.276 1.006 0 1.844-1.034 1.844-2.276.034-1.242-.805-2.277-1.844-2.277zM262.111 569.007c-1.174 0-2.146 1.2-2.146 2.649s.972 2.65 2.146 2.65c1.175 0 2.147-1.201 2.147-2.65 0-1.449-.972-2.649-2.147-2.649zM247.755 556.794c1.278 0 2.314-1.279 2.314-2.856 0-1.578-1.036-2.857-2.314-2.857-1.279 0-2.315 1.279-2.315 2.857 0 1.577 1.036 2.856 2.315 2.856zM233.364 532.659c-1.576 0-2.885 1.573-2.885 3.56s1.275 3.561 2.885 3.561c1.577 0 2.885-1.574 2.885-3.561 0-1.987-1.275-3.56-2.885-3.56zM219.007 515.354c-1.408 0-2.549 1.408-2.549 3.147 0 1.739 1.141 3.146 2.549 3.146 1.409 0 2.55-1.407 2.55-3.146 0-1.739-1.141-3.147-2.55-3.147zM204.65 497.553c-1.442 0-2.583 1.449-2.583 3.187 0 1.781 1.174 3.188 2.583 3.188 1.443 0 2.583-1.449 2.583-3.188 0-1.78-1.14-3.187-2.583-3.187zM190.293 479.834c-1.442 0-2.583 1.449-2.583 3.188 0 1.78 1.175 3.188 2.583 3.188 1.443 0 2.583-1.449 2.583-3.188 0-1.78-1.174-3.188-2.583-3.188zM175.903 462.074c-1.442 0-2.583 1.449-2.583 3.188 0 1.78 1.174 3.188 2.583 3.188 1.442 0 2.583-1.449 2.583-3.188.033-1.739-1.141-3.188-2.583-3.188zM161.546 444.562c-1.342 0-2.415 1.325-2.415 2.981s1.073 2.98 2.415 2.98 2.415-1.324 2.415-2.98-1.073-2.981-2.415-2.981zM147.189 426.968c-1.275 0-2.314 1.283-2.314 2.856s1.039 2.857 2.314 2.857c1.275 0 2.315-1.284 2.315-2.857 0-1.573-1.04-2.856-2.315-2.856zM132.832 408.67c-1.509 0-2.75 1.532-2.75 3.395s1.241 3.394 2.75 3.394c1.51 0 2.751-1.531 2.751-3.394 0-1.863-1.241-3.395-2.751-3.395zM118.442 396.912c1.148 0 2.08-1.149 2.08-2.567 0-1.417-.932-2.566-2.08-2.566-1.149 0-2.08 1.149-2.08 2.566 0 1.418.931 2.567 2.08 2.567zM104.085 374.392c-1.006 0-1.812.993-1.812 2.235s.806 2.236 1.812 2.236 1.811-.994 1.811-2.236c0-1.242-.805-2.235-1.811-2.235zM89.728 360.647c.778 0 1.409-.778 1.409-1.738 0-.961-.631-1.739-1.41-1.739-.777 0-1.408.778-1.408 1.739 0 .96.63 1.738 1.409 1.738zM75.338 339.451c-.772 0-1.41.787-1.41 1.739 0 .952.638 1.739 1.41 1.739.771 0 1.408-.787 1.408-1.739 0-.993-.603-1.739-1.408-1.739zM60.98 324.671c.556 0 1.007-.556 1.007-1.242 0-.686-.45-1.242-1.006-1.242s-1.007.556-1.007 1.242c0 .686.45 1.242 1.007 1.242zM46.623 304.966c-.335 0-.603.331-.603.745s.268.745.603.745c.336 0 .604-.331.604-.745s-.268-.745-.603-.745zM32.267 287.206c-.336 0-.604.331-.604.745s.268.745.604.745c.335 0 .604-.331.604-.745 0-.373-.269-.745-.604-.745zM17.876 270.314c.037 0 .067-.037.067-.082 0-.046-.03-.083-.067-.083-.037 0-.067.037-.067.083 0 .045.03.082.067.082zM348.32 642.117c-.201 0-.402.207-.402.497 0 .289.167.496.402.496.235 0 .403-.207.403-.496-.034-.29-.201-.497-.403-.497zM333.93 623.819c-.47 0-.839.455-.839 1.035 0 .579.369 1.035.839 1.035.469 0 .838-.456.838-1.035.034-.58-.369-1.035-.838-1.035zM319.573 606.349c-.336 0-.604.331-.604.745s.268.745.604.745c.335 0 .604-.331.604-.745.033-.372-.269-.745-.604-.745zM305.216 587.927c-.638 0-1.174.662-1.174 1.448 0 .787.536 1.449 1.174 1.449.637 0 1.174-.662 1.174-1.449 0-.786-.537-1.448-1.174-1.448zM290.859 569.876c-.805 0-1.476.828-1.476 1.822 0 .994.671 1.822 1.476 1.822.805 0 1.476-.828 1.476-1.822-.034-1.035-.671-1.822-1.476-1.822zM276.469 555.345c.629 0 1.14-.63 1.14-1.407s-.511-1.408-1.14-1.408c-.63 0-1.141.631-1.141 1.408 0 .777.511 1.407 1.141 1.407zM262.112 534.108c-.94 0-1.678.952-1.678 2.07 0 1.117.772 2.07 1.678 2.07.939 0 1.677-.953 1.677-2.07 0-1.118-.738-2.07-1.677-2.07zM247.755 516.099c-1.074 0-1.912 1.077-1.912 2.36 0 1.325.872 2.36 1.912 2.36s1.912-1.077 1.912-2.36-.872-2.36-1.912-2.36zM233.364 498.256c-1.107 0-2.012 1.118-2.012 2.484 0 1.366.905 2.484 2.012 2.484s2.013-1.118 2.013-2.484c.033-1.366-.872-2.484-2.013-2.484zM219.007 481.076c-.872 0-1.576.87-1.576 1.946 0 1.077.704 1.946 1.576 1.946.872 0 1.577-.869 1.577-1.946 0-1.076-.705-1.946-1.577-1.946zM204.65 462.695c-1.14 0-2.079 1.159-2.079 2.567 0 1.407.939 2.567 2.079 2.567 1.141 0 2.08-1.16 2.08-2.567 0-1.408-.939-2.567-2.08-2.567zM190.293 445.059c-1.107 0-2.012 1.118-2.012 2.484 0 1.366.905 2.484 2.012 2.484s2.013-1.118 2.013-2.484c0-1.366-.906-2.484-2.013-2.484zM175.903 428.003c-.805 0-1.476.828-1.476 1.821 0 .994.671 1.822 1.476 1.822.805 0 1.476-.828 1.476-1.822 0-.993-.637-1.821-1.476-1.821zM161.546 409.788c-1.04 0-1.845 1.035-1.845 2.277 0 1.242.839 2.276 1.845 2.276s1.845-1.034 1.845-2.276c0-1.242-.805-2.277-1.845-2.277zM147.189 392.276c-.939 0-1.677.952-1.677 2.07 0 1.118.771 2.07 1.677 2.07.939 0 1.677-.952 1.677-2.07 0-1.118-.738-2.07-1.677-2.07zM132.832 374.806c-.805 0-1.476.828-1.476 1.821 0 .994.671 1.822 1.476 1.822.805 0 1.476-.828 1.476-1.822-.033-.993-.671-1.821-1.476-1.821zM118.442 357.874c-.47 0-.839.455-.839 1.035 0 .579.369 1.034.839 1.034.469 0 .838-.455.838-1.034 0-.58-.369-1.035-.838-1.035zM104.085 342.597c.63 0 1.14-.631 1.14-1.408 0-.777-.51-1.408-1.14-1.408-.63 0-1.141.631-1.141 1.408 0 .777.511 1.408 1.141 1.408zM89.728 322.519c-.403 0-.738.414-.738.911 0 .496.335.91.738.91.403 0 .738-.414.738-.91 0-.497-.335-.911-.738-.911zM75.337 305.792c.037 0 .067-.036.067-.082 0-.045-.03-.082-.067-.082-.037 0-.067.037-.067.082 0 .046.03.082.067.082zM60.98 287.62c-.167 0-.268.165-.268.331 0 .207.134.331.268.331.168 0 .269-.165.269-.331.033-.166-.1-.331-.269-.331zM333.929 588.63c-.335 0-.603.331-.603.745s.268.745.603.745c.336 0 .604-.331.604-.745.034-.414-.235-.745-.604-.745zM319.573 571.367c-.134 0-.235.124-.235.29 0 .165.101.29.235.29.134 0 .234-.125.234-.29 0-.166-.1-.29-.234-.29zM305.216 553.316c-.269 0-.503.29-.503.621 0 .332.234.621.503.621.268 0 .503-.289.503-.621 0-.331-.235-.621-.503-.621zM290.859 534.812c-.638 0-1.141.621-1.141 1.407 0 .787.503 1.408 1.141 1.408.637 0 1.14-.621 1.14-1.408 0-.786-.536-1.407-1.14-1.407zM276.468 517.59c-.402 0-.738.414-.738.911 0 .497.336.911.738.911.403 0 .738-.414.738-.911 0-.538-.335-.911-.738-.911zM262.112 499.623c-.504 0-.906.497-.906 1.118 0 .621.402 1.117.906 1.117.503 0 .905-.496.905-1.117s-.402-1.118-.905-1.118zM247.755 481.78c-.571 0-1.007.579-1.007 1.242 0 .703.47 1.241 1.007 1.241.536 0 1.006-.579 1.006-1.241 0-.704-.47-1.242-1.006-1.242zM233.364 463.316c-.872 0-1.576.87-1.576 1.946s.704 1.946 1.576 1.946c.872 0 1.577-.87 1.577-1.946.033-1.035-.705-1.946-1.577-1.946zM219.007 446.301c-.57 0-1.006.58-1.006 1.242 0 .704.47 1.242 1.006 1.242.571 0 1.007-.58 1.007-1.242s-.436-1.242-1.007-1.242zM204.65 431.067c.556 0 1.007-.556 1.007-1.242 0-.686-.451-1.242-1.007-1.242-.555 0-1.006.556-1.006 1.242 0 .686.451 1.242 1.006 1.242zM190.294 410.284c-.805 0-1.476.828-1.476 1.821 0 .994.671 1.822 1.476 1.822.805 0 1.476-.828 1.476-1.822-.034-.993-.671-1.821-1.476-1.821zM175.903 393.27c-.503 0-.906.497-.906 1.118 0 .621.403 1.117.906 1.117s.906-.496.906-1.117-.403-1.118-.906-1.118zM161.546 375.8c-.369 0-.671.372-.671.828 0 .455.302.828.671.828.369 0 .671-.373.671-.828 0-.456-.302-.828-.671-.828zM147.189 358.287c-.268 0-.503.29-.503.621s.235.621.503.621c.269 0 .503-.29.503-.621s-.234-.621-.503-.621zM132.832 340.113c-.469 0-.838.456-.838 1.035 0 .58.369 1.035.838 1.035.47 0 .839-.455.839-1.035 0-.538-.403-1.035-.839-1.035zM118.441 323.636c.093 0 .168-.093.168-.207 0-.114-.075-.207-.168-.207-.092 0-.167.093-.167.207 0 .114.075.207.167.207zM89.728 288.074c.037 0 .067-.037.067-.083 0-.045-.03-.082-.067-.082-.037 0-.067.037-.067.082 0 .046.03.083.067.083zM305.216 518.418c-.034 0-.067.041-.067.082s.033.083.067.083c.033 0 .067-.042.067-.083 0-.082-.034-.082-.067-.082zM290.859 500.408c-.168 0-.268.166-.268.332 0 .165.134.331.268.331.168 0 .268-.166.268-.331 0-.166-.134-.332-.268-.332zM262.112 464.724c-.235 0-.436.248-.436.538 0 .29.201.538.436.538.234 0 .436-.248.436-.538 0-.29-.202-.538-.436-.538zM247.755 446.922c-.269 0-.504.29-.504.621s.235.621.504.621c.268 0 .503-.29.503-.621s-.235-.621-.503-.621zM233.364 429.203c-.268 0-.503.29-.503.621 0 .332.235.621.503.621.269 0 .503-.289.503-.621.034-.331-.201-.621-.503-.621zM219.007 411.485c-.268 0-.503.289-.503.621 0 .331.235.621.503.621.269 0 .503-.29.503-.621 0-.373-.201-.621-.503-.621zM204.65 393.808c-.234 0-.436.248-.436.538 0 .29.202.538.436.538.235 0 .437-.248.437-.538 0-.29-.202-.538-.437-.538zM190.294 376.295c-.168 0-.269.166-.269.331 0 .166.134.332.269.332.167 0 .268-.166.268-.332 0-.165-.134-.331-.268-.331zM161.546 341.107c-.034 0-.067.041-.067.082s.033.083.067.083c.033 0 .067-.042.067-.083s-.034-.082-.067-.082z" opacity=".5"/>
        </g>
        <g fill="#2B95E3" opacity=".6">
            <path d="M-167.791 330.841s10.936 3.436 27.339 8.611c16.436 5.092 38.341 11.674 60.312 17.884 21.938 6.251 43.943 12.13 60.447 16.394 16.504 4.181 27.506 6.955 27.506 6.955s-11.07-1.905-27.674-4.72c-16.604-2.774-38.81-6.21-61.017-9.315-22.206-3.146-44.446-5.92-61.117-7.824-16.672-1.821-27.808-3.063-27.808-3.063s.469-6.21.972-12.461c.269-3.105.503-6.21.705-8.57.167-2.36.335-3.891.335-3.891zM-164.134 299.418c-.437 3.064-.839 6.127-1.108 8.446-.268 2.318-.435 3.85-.435 3.85s14.558 3.726 36.361 9.315c21.804 5.713 50.853 13.578 79.802 21.941 28.982 8.321 57.964 17.139 79.634 23.928 21.67 6.914 36.127 11.509 36.127 11.509s-14.357-5.257-35.859-13.165c-21.502-8.031-50.148-18.96-78.728-30.386-28.58-11.385-57.092-23.266-78.46-32.374-21.334-9.232-35.557-15.359-35.557-15.359s-.905 6.168-1.777 12.295zM-155.916 249.367c-.604 2.981-1.107 6.044-1.543 8.28-.403 2.277-.671 3.767-.671 3.767s12.847 5.216 32.135 12.999c19.255 7.907 44.883 18.671 70.443 29.89 25.56 11.178 51.054 22.769 70.141 31.629 19.087 8.983 31.8 14.945 31.8 14.945s-12.58-6.707-31.397-16.767c-18.819-10.142-43.876-23.97-68.867-38.169-24.99-14.159-49.88-28.772-68.497-39.867-18.617-11.219-31.028-18.671-31.028-18.671s-1.275 5.961-2.516 11.964zM-143.538 195.921c-.805 2.857-1.543 5.796-2.08 7.99-.537 2.194-.906 3.643-.906 3.643s9.896 5.589 24.722 13.993c14.827 8.487 34.517 19.954 54.14 31.794 19.624 11.799 39.18 23.887 53.806 33.119 14.625 9.315 24.386 15.483 24.386 15.483s-9.493-7.038-23.783-17.636c-14.256-10.639-33.175-25.046-52.027-39.742-18.852-14.697-37.636-29.683-51.658-41.027-14.021-11.467-23.347-19.084-23.347-19.084s-1.643 5.754-3.253 11.467zM-113.281 106.666c-.805 1.987-1.845 4.595-2.919 7.245-2.113 5.299-4.193 10.598-4.193 10.598s11.439 10.391 28.614 25.998c17.14 15.69 39.884 36.804 62.492 58.29 22.61 21.444 45.117 43.261 61.923 59.779l27.942 27.655s-10.902-11.716-27.305-29.311c-16.336-17.677-38.039-41.44-59.608-65.534-21.569-24.094-43.003-48.56-58.97-67.024l-26.601-30.966s-.57 1.283-1.375 3.27zM-99.797 76.527c-.905 1.863-2.146 4.306-3.253 6.831l-4.562 10.184s13.283 14.2 33.175 35.479c19.858 21.403 46.224 50.134 72.422 79.32 26.198 29.145 52.194 58.703 71.617 81.059 19.388 22.438 32.303 37.424 32.303 37.424s-12.714-15.483-31.767-38.666C51.152 264.891 25.961 233.594.937 201.924c-25.024-31.67-49.847-63.713-68.397-87.972-18.483-24.343-30.827-40.53-30.827-40.53s-.604 1.284-1.51 3.105zM-82.253 42.663c-.973 1.78-2.247 4.14-3.522 6.5-2.55 4.761-5.099 9.48-5.099 9.48l23.649 29.186c14.155 17.595 32.94 41.234 51.557 65.162 18.65 23.887 37.134 48.105 50.92 66.362 13.753 18.34 22.911 30.594 22.911 30.594s-8.822-12.875-22.072-32.167c-13.183-19.374-30.693-45.373-48.035-71.661-17.343-26.288-34.55-52.825-47.365-72.862-12.78-20.078-21.3-33.491-21.3-33.491s-.671 1.159-1.644 2.898zM-64.038 12.69c-1.41 2.153-2.818 4.347-3.892 5.961-1.073 1.615-1.744 2.733-1.744 2.733s10.063 15.069 25.125 37.631c15.027 22.645 34.953 53.073 54.71 83.791 19.758 30.718 39.314 61.684 53.872 85.075 14.525 23.473 24.22 39.121 24.22 39.121s-9.36-16.145-23.381-40.363c-13.988-24.301-32.504-56.882-50.82-89.753-18.348-32.87-36.462-66.03-49.98-91.036C-49.38 20.763-58.37 4.08-58.37 4.08s-2.817 4.305-5.668 8.61z" opacity=".6"/>
            <path d="M-52.533-4.2c-1.476 2.07-2.952 4.14-4.059 5.672-.57.786-1.006 1.449-1.308 1.904-.302.455-.503.745-.503.745s6.541 10.308 16.336 25.791c9.761 15.525 22.743 36.39 35.557 57.42 25.695 42.02 50.685 85.034 50.685 85.034S20.828 127.075-1.848 80.833c-22.742-46.16-44.781-93.23-44.781-93.23s-2.918 4.098-5.904 8.197zM200.29-141.977c-1.476-.124-3.422-.455-5.367-.538-3.892-.165-7.783-.372-7.783-.372s.134 19.126.369 47.774c.168 28.648.235 66.9.067 105.07-.167 38.21-.536 76.38-.939 105.028-.436 28.648-.738 47.733-.738 47.733s.839-19.085 2.08-47.65c1.308-28.565 3.187-66.652 5.3-104.697 2.113-38.046 4.428-76.091 6.306-104.573l3.187-47.485s-1.007-.124-2.482-.29zM231.653-136.635c-1.442-.372-3.387-.745-5.333-1.159l-7.782-1.573s-1.141 21.941-2.851 54.895c-1.778 32.912-4.294 76.794-7.112 120.636-2.784 43.84-5.837 87.599-8.252 120.387-2.482 32.788-4.126 54.646-4.126 54.646s2.114-21.775 5.267-54.397c3.22-32.623 7.715-76.091 12.445-119.519 4.729-43.427 9.727-86.73 13.585-119.145l6.541-54.025s-.939-.332-2.382-.746z" opacity=".6"/>
            <path d="M247.084-132.246c-1.443-.414-3.388-.994-5.3-1.573-3.858-1.077-7.749-2.194-7.749-2.194s-3.858 58.496-8.587 116.744c-4.663 58.29-10.231 116.33-10.231 116.33s7.715-57.42 16.336-114.55c4.293-28.565 8.755-57.089 12.176-78.45 3.455-21.321 5.77-35.521 5.77-35.521s-.939-.372-2.415-.786zM-25.362-38.643c-1.577 1.822-3.187 3.643-4.36 5.01-1.208 1.365-1.98 2.318-1.98 2.318s8.755 17.511 21.87 43.758c13.083 26.33 30.358 61.56 47.432 97.08 17.074 35.52 33.947 71.289 46.493 98.239 12.478 26.992 20.831 45.001 20.831 45.001s-7.95-18.423-19.892-46.077c-11.875-27.696-27.573-64.789-43.07-102.131C26.463 67.213 11.2 29.665-.138 1.348c-11.27-28.358-18.818-47.277-18.818-47.277s-3.22 3.643-6.407 7.286zM9.994-74.33c-1.275 1.16-2.986 2.733-4.697 4.265l-6.776 6.292S7.243-41.83 20.291-8.919c13.016 32.995 30.19 77.126 47.063 121.505 16.906 44.379 33.544 89.007 45.889 122.623l20.462 56.095s-7.883-22.728-19.657-56.84c-11.741-34.154-27.205-79.858-42.4-125.811C56.452 62.701 41.525 16.5 30.456-18.234 19.486-53.009 12.14-76.192 12.14-76.192s-.872.704-2.146 1.863zM28.98-89.77c-1.342.993-3.12 2.276-4.864 3.725-3.49 2.857-7.011 5.713-7.011 5.713s6.642 18.92 16.57 47.319C43.572-4.573 56.62 33.473 69.435 71.726c12.814 38.211 25.393 76.67 34.718 105.566l15.43 48.23s-5.769-19.665-14.39-49.099c-8.587-29.517-19.892-68.97-30.894-108.547C63.26 28.256 52.427-11.528 44.442-41.418c-7.95-29.973-13.216-49.927-13.216-49.927s-.906.58-2.248 1.573zM263.42-126.326c-1.443-.538-3.355-1.242-5.267-1.987-3.824-1.408-7.681-2.774-7.681-2.774s-5.602 58.124-12.076 115.958C231.989 42.746 224.71 100.29 224.71 100.29s9.426-56.757 19.757-113.184c5.133-28.234 10.433-56.343 14.491-77.415 4.093-21.031 6.843-35.065 6.843-35.065s-.939-.414-2.381-.952zM298.104-109.353c-3.723-2.029-7.446-4.099-7.446-4.099l-10.735 56.096c-6.507 33.615-15.329 78.326-24.453 122.913-9.091 44.586-18.483 89.007-25.628 122.25-7.212 33.202-12.042 55.35-12.042 55.35s5.233-21.9 13.048-54.77c7.883-32.83 18.584-76.464 29.553-119.974 10.935-43.51 22.172-86.813 30.726-119.27 8.621-32.374 14.357-53.984 14.357-53.984s-3.69-2.318-7.38-4.512zM330.374-87.536c-1.342-1.035-3.12-2.318-4.897-3.643-3.59-2.608-7.145-5.175-7.145-5.175l-15.263 60.235c-9.225 36.1-21.737 84.081-34.517 131.855-12.78 47.774-25.829 95.342-35.758 130.944-9.996 35.521-16.671 59.201-16.671 59.201s7.01-23.432 17.51-58.621c10.566-35.106 24.856-81.804 39.414-128.295 14.558-46.49 29.385-92.691 40.656-127.26 11.338-34.484 18.885-57.502 18.885-57.502s-.906-.663-2.214-1.739zM346.509-74.205c-1.677-1.573-3.455-2.94-4.763-4.057-1.309-1.076-2.181-1.822-2.181-1.822s-5.87 19.582-14.659 48.934c-8.855 29.31-20.797 68.266-32.974 106.974-12.176 38.749-24.554 77.292-33.98 106.146-9.493 28.814-15.799 48.023-15.799 48.023s6.709-18.836 16.806-47.07c10.13-28.193 23.816-65.659 37.703-102.876 13.887-37.26 28.009-74.31 38.71-101.965 10.768-27.613 17.913-46.036 17.913-46.036s-3.388-3.105-6.776-6.25zM60.578-110.678c-1.409.745-3.254 1.78-5.065 2.94-3.656 2.277-7.313 4.595-7.313 4.595s14.29 48.56 27.808 97.618c13.586 49.016 26.4 98.488 26.4 98.488s-2.617-12.751-6.541-31.836c-3.892-19.126-8.99-44.67-13.921-70.254-9.896-51.168-19.02-102.793-19.02-102.793l-2.348 1.242zM76.478-119.04c-1.878.828-3.757 1.822-5.166 2.567l-2.348 1.242s5.132 22.81 12.848 57.047c7.648 34.279 17.644 80.066 27.372 126.018 9.727 45.911 19.187 92.029 26.164 126.68 6.877 34.692 11.472 57.834 11.472 57.834s-4.193-23.307-10.499-58.248c-6.239-34.982-14.357-81.721-22.206-128.584-7.85-46.864-15.43-93.851-20.965-129.164-5.468-35.355-9.125-58.911-9.125-58.911s-3.756 1.781-7.547 3.519zM99.087-128.644l-7.648 2.897s10.13 50.548 19.455 101.386c9.393 50.838 18.014 101.965 18.014 101.965S122.601 25.607 117.1-26.638c-5.568-52.245-10.332-104.78-10.332-104.78s-3.824 1.366-7.681 2.774z" opacity=".6"/>
            <path d="M111.062-132.784c-1.946.538-3.858 1.159-5.3 1.697-1.442.497-2.382.869-2.382.869s2.684 16.27 6.709 40.737c3.992 24.466 9.158 57.088 14.122 89.835 4.998 32.705 9.762 65.576 13.25 90.208 3.455 24.673 5.736 41.109 5.736 41.109s-1.71-16.601-4.293-41.523c-2.55-24.922-5.804-58.207-8.822-91.533-3.053-33.326-5.904-66.735-7.95-91.78-1.98-25.088-3.321-41.814-3.321-41.814s-3.891 1.077-7.749 2.195zM143.365-140.402c-1.945.29-3.891.704-5.367.994-1.442.289-2.415.496-2.415.496s2.147 22.438 5.367 56.054c3.153 33.657 7.212 78.534 10.969 123.493 3.791 44.959 7.279 89.959 9.761 123.699 2.416 33.823 4.059 56.344 4.059 56.344s-1.174-22.604-2.952-56.468c-1.71-33.906-3.79-79.113-5.602-124.403-1.844-45.25-3.388-90.58-4.427-124.57-.973-33.988-1.611-56.674-1.611-56.674s-3.857.538-7.782 1.035zM182.377-143.051c-1.476-.042-3.421-.166-5.367-.083l-7.782.248s.838 25.957 2.113 64.872c1.174 38.915 2.583 90.87 3.656 142.784 1.074 51.914 1.845 103.87 2.281 142.826.369 38.956.604 64.913.604 64.913l.336-64.996c.268-38.956.838-90.87 1.71-142.825.873-51.914 2.047-103.87 3.053-142.785l1.845-64.913s-.973 0-2.449-.041zM391.86-26.596c-1.543-1.905-3.086-3.85-4.26-5.258-1.174-1.366-1.979-2.277-1.979-2.277s-6.239 14.78-15.598 36.928c-9.392 22.107-22.038 51.458-34.886 80.644-12.814 29.186-25.829 58.165-35.657 79.817-9.862 21.569-16.47 35.975-16.47 35.975s7.01-13.827 17.543-34.609c10.567-20.699 24.789-48.188 39.146-75.428 14.357-27.282 28.915-54.315 39.884-74.477 11.036-20.12 18.383-33.533 18.383-33.533s-3.019-3.933-6.106-7.782zM413.161 1.802c-2.952-4.098-5.903-8.238-5.903-8.238s-9.326 18.257-23.28 45.704c-14.022 27.323-32.84 63.588-51.893 99.564-19.02 35.975-38.274 71.62-52.799 98.239-14.591 26.537-24.319 44.214-24.319 44.214s10.029-17.222 25.091-43.096c15.095-25.75 35.389-59.946 55.885-93.81 20.461-33.864 41.158-67.438 56.79-92.443 15.665-24.922 26.097-41.564 26.097-41.564s-2.784-4.347-5.669-8.57zM439.594 44.526c-.973-1.78-2.248-4.14-3.589-6.417-2.684-4.553-5.401-9.066-5.401-9.066s-9.258 15.194-23.112 38.004c-13.921 22.728-32.571 52.866-51.423 82.673-18.818 29.849-37.838 59.366-52.195 81.39-14.39 21.942-23.984 36.555-23.984 36.555s9.929-14.075 24.789-35.188c14.928-21.031 34.92-48.851 55.08-76.381 20.16-27.53 40.488-54.729 55.817-75.015l25.595-33.657s-.604-1.159-1.577-2.898z" opacity=".6"/>
            <path d="M442.982 50.736c-2.583-4.72-5.132-9.44-5.132-9.44s-27.171 43.635-54.946 86.193c-27.741 42.641-56.086 84.122-56.086 84.122s29.754-38.956 60.111-76.753c30.291-37.921 61.185-74.642 61.185-74.642s-2.583-4.72-5.132-9.48zM458.647 81.744c-2.415-4.927-4.797-9.895-4.797-9.895l-19.925 27.282c-11.975 16.311-28.043 37.88-44.245 59.242-16.168 21.32-32.504 42.433-44.781 58.124-12.311 15.607-20.529 26.039-20.529 26.039s8.553-9.687 21.401-24.177c12.881-14.448 30.122-33.533 47.465-52.328 17.342-18.836 34.819-37.383 48.001-51.21 13.183-13.744 21.972-22.893 21.972-22.893l-4.562-10.184zM489.374 160.484c-.906-2.773-1.812-5.588-2.483-7.658-.671-2.112-1.14-3.478-1.14-3.478l-28.345 26.702c-17.041 15.939-39.817 37.011-62.728 57.669-22.91 20.699-45.922 41.026-63.264 56.095-17.342 14.986-28.915 24.963-28.915 24.963s11.774-9.314 29.485-23.266c17.711-13.868 41.394-32.125 65.21-50.009 23.817-17.885 47.733-35.438 65.713-48.395 18.013-12.875 30.022-21.486 30.022-21.486s-1.778-5.506-3.555-11.137zM501.483 202.007c-.537-2.194-1.308-5.092-2.113-7.948-1.61-5.714-3.22-11.468-3.22-11.468s-14.29 11.343-35.759 28.317c-21.501 16.89-50.215 39.122-79.097 60.897-28.848 21.776-57.83 43.138-79.634 58.911-21.837 15.648-36.395 26.122-36.395 26.122s14.726-9.894 36.764-24.756c22.106-14.738 51.658-34.113 81.278-52.99 29.619-18.92 59.373-37.342 81.747-50.962 22.408-13.496 37.335-22.48 37.335-22.48s-.369-1.449-.906-3.643zM509.332 235.25c-.637-2.981-1.274-5.962-1.744-8.197-.47-2.236-.839-3.685-.839-3.685s-11.036 7.287-27.606 18.216c-16.605 10.846-38.778 25.087-61.051 38.956-22.24 13.91-44.58 27.447-61.386 37.424-16.805 9.895-28.009 16.519-28.009 16.519s11.371-5.796 28.445-14.49c17.074-8.611 39.884-19.871 62.795-30.759 22.877-10.93 45.855-21.486 63.097-29.228 17.275-7.658 28.781-12.751 28.781-12.751s-1.242-6.044-2.483-12.005zM518.255 283.894c-.839-6.127-1.946-12.171-1.946-12.171s-13.183 6.375-32.907 15.98c-19.757 9.48-46.156 21.858-72.656 33.822-26.5 12.006-53.067 23.556-73.026 32.043-19.959 8.362-33.276 13.951-33.276 13.951s13.418-4.885 33.545-12.171c20.126-7.203 47.028-16.518 73.964-25.46s53.973-17.429 74.234-23.639c20.294-6.085 33.846-10.142 33.846-10.142s-.906-6.086-1.778-12.213zM469.582 727.771c.806-1.988 1.879-4.596 2.919-7.245 2.113-5.299 4.193-10.598 4.193-10.598s-10.399-9.398-26.031-23.473c-15.598-14.159-36.294-33.202-56.89-52.618-20.596-19.375-41.058-39.08-56.355-53.984-15.262-14.986-25.426-25.005-25.426-25.005l24.722 26.785c14.793 16.146 34.45 37.839 53.973 59.863 19.522 22.024 38.944 44.338 53.436 61.228L468.207 731s.57-1.242 1.375-3.229zM454.253 761.677c1.207-2.484 2.415-4.926 3.321-6.789.905-1.863 1.475-3.105 1.475-3.105s-11.304-12.586-28.244-31.463c-16.906-18.961-39.381-44.504-61.654-70.378-22.307-25.833-44.413-52.038-60.95-71.827-16.47-19.871-27.472-33.119-27.472-33.119s10.7 13.827 26.768 34.568c16 20.824 37.267 48.809 58.333 77.167 21.099 28.317 41.997 56.965 57.629 78.616 15.564 21.735 25.963 36.224 25.963 36.224s2.382-4.968 4.831-9.894z" opacity=".6"/>
            <path d="M444.357 781.051c1.275-2.36 2.549-4.761 3.489-6.541.939-1.78 1.543-3.022 1.543-3.022s-29.653-34.61-58.77-70.461c-29.183-35.686-57.796-72.53-57.796-72.53s27.17 39.453 53.737 80.023c26.634 40.447 52.665 81.97 52.665 81.97s2.583-4.72 5.132-9.439zM526.675 363.379c-.135-3.105-.403-6.251-.571-8.569-.167-2.319-.302-3.892-.302-3.892s-13.853 3.312-34.617 8.321c-20.764 4.885-48.471 11.137-76.246 16.974-27.741 5.837-55.516 11.219-76.38 15.069-20.865 3.726-34.786 6.251-34.786 6.251s13.955-1.78 34.853-4.429c20.931-2.567 48.84-5.672 76.783-8.404 27.942-2.733 55.884-5.01 76.883-6.5 20.998-1.408 34.986-2.318 34.986-2.318l-.603-12.503zM528.251 421.337c.067-3.105.034-6.251 0-8.569-.034-2.319-.033-3.892-.033-3.892l-40.555 2.691c-24.353 1.49-56.791 3.146-89.228 4.306-32.437 1.2-64.908 1.863-89.295 2.152-24.353.166-40.588.249-40.588.249s16.235.497 40.555 1.2c24.353.87 56.79 2.319 89.227 4.264 32.438 1.946 64.875 4.347 89.228 6.417 24.319 2.194 40.555 3.643 40.555 3.643s.033-6.251.134-12.461zM527.446 455.202c.134-3.105.268-6.251.369-8.57.067-2.359.101-3.891.101-3.891s-13.552-.29-33.88-.704c-20.328-.497-47.465-1.449-74.569-2.815-27.103-1.366-54.207-3.105-74.535-4.637-20.294-1.614-33.846-2.732-33.846-2.732s13.518 1.822 33.745 4.595c20.261 2.857 47.231 6.914 74.2 11.426 26.97 4.471 53.906 9.356 74.133 13.207l33.645 6.623s.335-6.251.637-12.502zM433.254 800.882c1.342-2.277 2.684-4.554 3.69-6.251 1.006-1.739 1.644-2.94 1.644-2.94s-28.58-36.803-56.623-74.807c-28.077-37.88-55.583-76.795-55.583-76.795s25.964 41.482 51.289 83.998c25.393 42.434 50.182 85.861 50.182 85.861s2.684-4.554 5.401-9.066zM408.297 839.341c1.476-2.07 2.952-4.14 4.059-5.672 1.107-1.532 1.811-2.608 1.811-2.608s-9.761-16.063-24.386-40.157c-14.592-24.177-33.947-56.592-53.067-89.338-19.154-32.705-38.073-65.7-52.195-90.581-14.055-24.963-23.447-41.605-23.447-41.605s9.023 17.097 22.575 42.765c13.485 25.75 31.364 60.235 49.008 95.01 17.678 34.775 35.121 69.798 48.136 96.21 12.948 26.495 21.569 44.131 21.569 44.131s2.985-4.057 5.937-8.155zM375.323 880.243c1.208-1.367 2.818-3.147 4.395-4.968l6.373-7.286s-9.996-20.493-24.99-51.211c-14.928-30.8-34.685-72.075-54.208-113.639-19.523-41.564-38.777-83.419-53.067-114.923-14.256-31.587-23.749-52.659-23.749-52.659s9.191 21.403 23.011 53.528c13.753 32.167 31.901 75.263 49.813 118.649 17.913 43.386 35.557 87.02 48.673 119.891 13.049 32.912 21.737 54.853 21.737 54.853s.805-.869 2.012-2.235zM360.094 895.974c3.321-3.353 6.608-6.707 6.608-6.707s-7.681-17.884-19.187-44.71c-11.472-26.868-26.6-62.885-41.528-99.109-14.927-36.224-29.619-72.655-40.555-100.061-10.868-27.488-18.113-45.787-18.113-45.787l17.107 46.781c10.198 28.11 23.682 65.741 36.932 103.579 13.25 37.839 26.265 75.884 35.926 104.532 9.594 28.69 16.001 47.816 16.001 47.816s3.421-3.146 6.809-6.334zM519.161 544.126l1.744-12.254s-14.927-4.264-37.335-10.681c-22.374-6.499-52.195-15.483-81.948-24.922-29.754-9.439-59.44-19.291-81.68-26.95-22.207-7.742-37.033-12.917-37.033-12.917s14.726 5.796 36.798 14.49c22.072 8.818 51.423 20.865 80.741 33.367 29.317 12.503 58.534 25.419 80.439 35.355 21.871 10.06 36.462 16.725 36.462 16.725s.94-6.127 1.812-12.213zM507.622 607.094c.469-2.236 1.106-5.217 1.744-8.197 1.241-5.962 2.516-11.923 2.516-11.923s-10.164-4.388-25.427-11.012c-15.229-6.707-35.523-15.815-55.75-25.253-20.227-9.439-40.388-19.168-55.449-26.62-15.061-7.534-25.124-12.544-25.124-12.544s9.862 5.92 24.654 14.738c14.76 8.942 34.417 21.031 54.007 33.451 19.59 12.419 39.112 25.129 53.704 34.774 14.558 9.771 24.286 16.27 24.286 16.27s.369-1.449.839-3.684zM360.094-61.62c-3.388-3.146-6.776-6.334-6.776-6.334s-14.826 47.402-30.357 94.141c-7.749 23.39-15.632 46.657-21.603 64.044-6.004 17.346-10.029 28.938-10.029 28.938s18.181-44.173 37.066-87.683c18.818-43.551 38.341-86.399 38.341-86.399l-6.642-6.707z" opacity=".6"/>
            <path d="M370.392-51.146c-3.287-3.395-6.608-6.79-6.608-6.79s-5.199 14.655-13.015 36.638c-7.849 21.941-18.416 51.086-29.15 80.065-10.734 28.98-21.636 57.793-29.888 79.32-8.319 21.486-13.854 35.81-13.854 35.81s6.038-13.827 15.062-34.526c9.09-20.7 21.3-48.147 33.678-75.429C338.995 36.66 351.507 9.627 361-10.576c9.526-20.16 15.866-33.615 15.866-33.615s-3.186-3.602-6.474-6.955zM497.323 647.623c1.611-5.755 3.221-11.468 3.221-11.468s-13.217-8.238-33.041-20.533c-19.791-12.42-46.157-29.269-72.389-46.491-26.231-17.222-52.362-34.858-71.885-48.271-19.523-13.496-32.504-22.521-32.504-22.521s12.814 9.646 32.068 24.136c19.221 14.572 44.748 34.278 70.175 54.397 25.426 20.079 50.718 40.571 69.671 56.137 18.885 15.649 31.498 26.081 31.498 26.081s1.543-5.754 3.186-11.467zM481.893 695.894l3.891-10.929s-14.457-11.84-36.16-29.559c-21.67-17.843-50.451-41.937-79.098-66.445-28.646-24.508-57.125-49.43-78.426-68.349-21.267-19.043-35.423-31.711-35.423-31.711s13.988 13.206 34.953 32.994c20.932 19.913 48.774 46.698 76.414 73.939 27.674 27.199 55.18 54.894 75.743 75.842 20.529 21.072 34.181 35.106 34.181 35.106s1.946-5.465 3.925-10.888zM311.623 935.261c1.845-1.159 3.656-2.36 4.998-3.353 1.342-.952 2.247-1.615 2.247-1.615s-4.897-16.021-12.21-40.074c-7.279-24.052-16.872-56.26-26.265-88.593-9.392-32.291-18.617-64.83-25.426-89.256-6.776-24.466-11.271-40.777-11.271-40.777s3.992 16.642 9.962 41.605c5.938 25.005 13.72 58.414 21.301 91.947 7.581 33.533 14.961 67.19 20.395 92.485 5.401 25.336 8.99 42.226 8.99 42.226s3.622-2.277 7.279-4.595zM280.292 953.187c1.409-.621 3.288-1.615 5.166-2.608 3.724-2.029 7.447-4.016 7.447-4.016s-5.233-22.024-13.116-55.102c-7.782-33.077-18.013-77.333-27.976-121.712-9.962-44.379-19.656-88.883-26.768-122.333-7.078-33.492-11.774-55.806-11.774-55.806s4.327 22.563 10.768 56.344c6.407 33.823 14.759 79.113 22.843 124.403 8.085 45.332 15.9 90.746 21.603 124.9 5.669 34.195 9.426 56.965 9.426 56.965s.973-.373 2.381-1.035zM248.962 966.02c1.443-.497 3.355-1.2 5.267-1.904 3.824-1.408 7.648-2.857 7.648-2.857s-3.589-20.409-8.99-51.086c-5.334-30.676-12.277-71.62-18.986-112.687-6.709-41.026-13.149-82.176-17.879-113.101-4.663-30.925-7.749-51.542-7.749-51.542s2.65 20.782 6.608 51.956c3.892 31.214 8.923 72.861 13.72 114.633 4.797 41.73 9.325 83.584 12.613 114.923 3.22 31.38 5.367 52.328 5.367 52.328s.939-.249 2.381-.663zM156.112 976.329c1.476.124 3.421.455 5.367.538 3.891.165 7.782.372 7.782.372s-.1-21.03-.268-52.618c-.101-31.545-.101-73.648.201-115.709.269-42.061.772-84.122 1.275-115.668.57-31.546.939-52.535.939-52.535s-.872 20.989-2.147 52.494c-1.342 31.463-3.321 73.4-5.535 115.295-2.213 41.896-4.662 83.791-6.641 115.213-2.046 31.38-3.388 52.328-3.388 52.328s.939.124 2.415.29zM138.401 973.845c3.891.828 7.782 1.284 7.782 1.284s1.006-25.502 2.549-63.713c1.611-38.211 3.925-89.131 6.542-140.01 2.616-50.921 5.534-101.8 7.882-139.928 2.416-38.128 4.026-63.506 4.026-63.506s-1.979 25.336-4.965 63.299c-3.052 37.963-7.312 88.593-11.908 139.141-4.562 50.548-9.426 101.013-13.25 138.851-3.891 37.797-6.474 63.009-6.474 63.009s3.958.787 7.816 1.573zM105.863 965.483c1.442.538 3.354 1.118 5.3 1.697l7.715 2.236s1.576-18.961 3.925-47.36c2.415-28.4 5.769-66.238 9.358-104.035 3.59-37.797 7.38-75.512 10.365-103.746l5.032-47.07s-2.549 18.671-6.34 46.698c-3.857 27.985-9.157 65.286-14.658 102.462-5.502 37.176-11.238 74.269-15.666 102.006-4.461 27.737-7.446 46.243-7.446 46.243s1.006.331 2.415.869zM75.237 952.814c1.409.662 3.32 1.532 5.2 2.401l7.58 3.395s3.12-21.486 7.782-53.653c4.73-32.167 11.204-75.015 17.947-117.697 6.708-42.723 13.719-85.322 19.053-117.199 5.434-31.877 9.057-53.115 9.057-53.115s-4.059 21.031-10.131 52.618c-6.138 31.546-14.524 73.524-23.145 115.337-8.621 41.854-17.477 83.584-24.253 114.798-6.843 31.174-11.371 51.956-11.371 51.956s.838.538 2.28 1.159zM-133.072 673.746c.905 2.774 1.811 5.589 2.482 7.659.671 2.111 1.14 3.477 1.14 3.477l25.662-24.425c15.43-14.572 36.093-33.823 56.857-52.7 20.764-18.92 41.628-37.508 57.327-51.293 15.732-13.703 26.231-22.811 26.231-22.811s-10.734 8.362-26.801 20.948c-16.102 12.502-37.67 28.937-59.34 45.041-21.67 16.105-43.406 31.919-59.776 43.593-16.403 11.592-27.338 19.333-27.338 19.333l3.556 11.178zM-146.289 627.793c.738 2.898 1.476 5.838 2.013 8.032.604 2.152 1.006 3.601 1.006 3.601s12.445-9.397 31.129-23.473c18.684-13.993 43.675-32.374 68.833-50.382 25.124-18.008 50.35-35.644 69.336-48.685 18.986-12.916 31.666-21.569 31.666-21.569s-12.848 7.949-32.069 19.83C6.371 526.946-19.39 542.429-45.254 557.54c-25.862 15.11-51.792 29.807-71.315 40.653-19.522 10.722-32.537 17.884-32.537 17.884s1.375 5.838 2.817 11.716zM28.174 923.546c1.342.994 3.12 2.277 4.898 3.602l7.178 5.134s5.099-20.865 12.78-52.163c7.716-31.256 18.182-72.82 28.916-114.219 10.7-41.399 21.669-82.632 29.988-113.474 8.386-30.8 13.988-51.334 13.988-51.334s-6.004 20.244-15.028 50.589c-9.057 30.304-21.334 70.585-33.846 110.7-12.478 40.116-25.225 80.024-34.92 109.872-9.727 29.808-16.201 49.637-16.201 49.637s.906.663 2.247 1.656zM-3.894 895.85c1.241 1.242 2.952 2.774 4.663 4.388 3.388 3.147 6.81 6.252 6.81 6.252s7.547-23.018 18.851-57.545c11.372-34.485 26.735-80.313 42.366-125.852 15.599-45.58 31.498-90.87 43.541-124.775 12.109-33.823 20.193-56.344 20.193-56.344s-8.386 22.231-20.998 55.598c-12.646 33.326-29.72 77.54-47.03 121.547-17.308 44.007-34.885 87.683-48.169 120.346C2.95 872.046-5.94 893.78-5.94 893.78s.805.828 2.046 2.07zM-17.278 882.106c3.287 3.394 6.575 6.831 6.575 6.831s6.943-18.63 17.376-46.574c10.465-27.903 24.588-64.955 38.91-101.799 14.324-36.845 28.849-73.442 39.851-100.765 11.07-27.282 18.45-45.456 18.45-45.456s-7.749 17.76-19.422 44.421c-11.707 26.578-27.44 61.891-43.373 96.997-15.933 35.065-32.102 69.923-44.312 95.921l-20.462 43.262s3.187 3.643 6.407 7.162zM-165.443 524.793c.336 3.105.705 6.168 1.074 8.486.335 2.319.536 3.851.536 3.851s13.586-5.465 33.947-13.662c20.362-8.114 47.566-18.629 74.837-28.731 27.238-10.101 54.61-19.83 75.14-26.868 20.528-6.955 34.248-11.591 34.248-11.591s-13.787 3.933-34.416 9.811c-20.664 5.796-48.27 13.248-75.911 20.244-27.64 7.038-55.348 13.62-76.112 18.381-20.797 4.637-34.684 7.742-34.684 7.742s.637 6.127 1.341 12.337zM-170.508 467.083c.168 3.105.302 6.251.47 8.569.167 2.319.302 3.892.302 3.892s16.067-3.561 40.219-8.901c24.152-5.216 56.32-11.84 88.59-18.008 32.27-6.169 64.54-11.84 88.792-15.815 24.252-3.891 40.387-6.458 40.387-6.458s-16.168 1.987-40.454 5.009c-24.286 2.898-56.69 6.417-89.094 9.439-32.403 3.064-64.874 5.589-89.194 7.245-24.353 1.532-40.588 2.567-40.588 2.567s.268 6.209.57 12.461zM-171.782 429.659c.1 6.251.235 12.461.235 12.461l33.812-4.14c20.294-2.401 47.364-5.299 74.435-7.825 27.07-2.525 54.14-4.636 74.468-6.002C31.496 422.869 45.014 422 45.014 422s-13.552.083-33.88.248c-20.328.042-47.465-.124-74.569-.745-27.103-.579-54.24-1.614-74.568-2.567-20.328-1.076-33.914-1.78-33.914-1.78s.034 6.251.135 12.503zM-44.583 849.484c3.052 3.891 6.139 7.783 6.139 7.783S-19.291 813.218.5 769.998c19.724-43.303 40.12-85.778 40.12-85.778s-22.173 40.074-45.017 79.32c-22.743 39.329-46.123 77.788-46.123 77.788l5.937 8.156zM-61.087 826.135c1.41 2.153 2.852 4.306 3.925 5.879 1.107 1.532 1.845 2.566 1.845 2.566s9.795-18.546 24.454-46.325c14.726-27.695 34.517-64.499 54.543-100.971 19.992-36.514 40.219-72.655 55.482-99.647 15.33-26.909 25.527-44.835 25.527-44.835s-10.5 17.47-26.265 43.717c-15.8 26.123-37.033 60.815-58.468 95.135-21.435 34.36-43.07 68.349-59.407 93.685-16.37 25.253-27.305 42.102-27.305 42.102s2.852 4.389 5.67 8.694zM-81.213 793.512c.973 1.738 2.348 4.015 3.69 6.292 2.717 4.513 5.4 9.066 5.4 9.066s22.274-39.287 45.084-77.664c22.776-38.459 46.123-75.966 46.123-75.966S-5.873 690.015-31.4 723.837c-12.747 16.933-25.56 33.658-35.255 46.119-9.694 12.378-16.168 20.658-16.168 20.658s.637 1.159 1.61 2.898z" opacity=".6"/>
            <path d="M-85.708 785.315c1.275 2.36 2.583 4.72 3.556 6.5.972 1.78 1.643 2.898 1.643 2.898s7.48-11.882 18.684-29.725c11.238-17.76 26.333-41.315 41.528-64.623 15.196-23.307 30.559-46.408 42.132-63.588 11.606-17.139 19.355-28.566 19.355-28.566s-8.118 10.723-20.295 26.785c-12.21 16.022-28.58 37.218-45.083 58.166-16.504 20.947-33.108 41.647-45.654 57.047-12.545 15.359-20.931 25.585-20.931 25.585s2.516 4.802 5.065 9.521zM329.267 922.718c.403-.29.939-.704 1.61-1.242 1.308-1.077 3.053-2.484 4.831-3.892 3.488-2.856 6.977-5.754 6.977-5.754s-5.367-14.531-13.384-36.307c-7.984-21.817-18.517-51.003-28.848-80.355-10.366-29.351-20.529-58.827-28.077-81.017-7.48-22.231-12.478-37.052-12.478-37.052s4.461 15.235 11.203 38.128c6.676 22.894 15.464 53.529 24.052 84.329 8.587 30.76 17.04 61.685 23.246 84.909 6.172 23.266 10.298 38.75 10.298 38.75s.168-.208.57-.497zM-105.969 744.455c1.141 2.525 2.281 5.092 3.153 6.996.437.952.806 1.739 1.074 2.277s.402.869.402.869 11.037-14.241 27.607-35.561c16.605-21.238 38.878-49.389 61.286-77.167 22.407-27.779 45.016-55.226 62.023-75.636 17.04-20.327 28.412-33.864 28.412-33.864s-11.64 12.958-29.05 32.415c-17.476 19.375-40.89 44.959-64.438 70.171-23.548 25.253-47.264 50.134-65.143 68.639-17.912 18.423-29.821 30.677-29.821 30.677l4.495 10.184zM-124.384 699.082c.972 2.732 1.979 5.423 2.717 7.451.369 1.035.671 1.863.905 2.443l.369.911s13.619-14.159 34.014-35.438c20.462-21.155 47.868-49.14 75.407-76.629 27.54-27.53 55.281-54.646 76.146-74.766 20.898-19.995 34.819-33.367 34.819-33.367S85.87 502.52 64.704 521.771c-21.2 19.126-49.578 44.379-78.124 69.177-28.546 24.839-57.227 49.182-78.83 67.273-21.635 17.967-36.059 29.931-36.059 29.931s1.979 5.465 3.925 10.93z" opacity=".6"/>
        </g>
    </g>
</svg>
