<svg xmlns="http://www.w3.org/2000/svg" width="162" height="183" fill="none" viewBox="0 0 162 183">
    <g clip-path="url(#clip0)">
        <path fill="#FFC107" d="M159.255 62.882l-4.115.456-2.783-3.3c-.208-.246-.67-.122-.727.195l-.76 4.249-3.791 1.663c-.311.137-.335.566-.045.738l3.66 2.174.437 4.344c.034.345.454.498.702.258l3.008-2.898 4.054 1.006c.332.083.623-.255.479-.575l-1.794-3.98 2.083-3.712c.165-.295-.071-.655-.408-.618z"/>
    </g>
    <g clip-path="url(#clip1)">
        <path fill="#FFC107" d="M26.255 157.882l-4.115.456-2.783-3.299c-.208-.247-.67-.123-.727.194l-.76 4.249-3.79 1.663c-.312.137-.336.566-.046.738l3.66 2.174.437 4.344c.034.345.454.498.702.258l3.008-2.898 4.054 1.006c.332.083.623-.256.48-.575l-1.795-3.979 2.083-3.713c.165-.295-.07-.655-.408-.618z"/>
    </g>
    <g clip-path="url(#clip2)">
        <path fill="#FFC107" d="M134.455 164.472l-4.093-.625-1.834-3.907c-.137-.292-.616-.292-.753 0l-1.834 3.907-4.092.625c-.336.052-.47.46-.234.702l2.973 3.047-.703 4.308c-.056.342.309.599.612.431l3.655-2.02 3.655 2.021c.3.166.668-.086.612-.431l-.703-4.308 2.973-3.048c.236-.242.101-.65-.234-.702z"/>
    </g>
    <g clip-path="url(#clip3)">
        <path fill="#FFC107" d="M21.959 49.472l-4.093-.625-1.834-3.907c-.137-.292-.616-.292-.753 0l-1.833 3.907-4.093.625c-.336.051-.47.46-.234.702l2.973 3.047-.703 4.308c-.056.342.31.6.612.431l3.655-2.02 3.655 2.02c.3.167.669-.085.612-.43l-.703-4.309 2.973-3.047c.236-.242.101-.65-.234-.702z"/>
    </g>
    <g clip-path="url(#clip4)">
        <path fill="#FFC107" d="M113.761 176.433l-2.767-.422-1.24-2.642c-.092-.197-.416-.197-.509 0l-1.239 2.642-2.767.422c-.227.035-.318.312-.159.475l2.01 2.06-.475 2.913c-.038.231.209.405.414.291l2.471-1.366 2.471 1.366c.203.113.452-.057.414-.291l-.475-2.913 2.01-2.06c.159-.163.068-.44-.159-.475z"/>
    </g>
    <g clip-path="url(#clip5)">
        <path fill="#FFC107" d="M145.814 152.718l-2.152-.329-.964-2.054c-.072-.154-.324-.154-.396 0l-.964 2.054-2.152.329c-.177.027-.247.242-.124.369l1.564 1.602-.37 2.266c-.029.18.163.315.322.226l1.922-1.062 1.922 1.063c.158.087.352-.045.322-.227l-.37-2.265 1.564-1.603c.124-.127.053-.342-.124-.369z"/>
    </g>
    <g clip-path="url(#clip6)">
        <path fill="#FFC107" d="M33.318 37.718l-2.151-.329-.965-2.054c-.072-.154-.324-.154-.396 0l-.964 2.054-2.152.329c-.177.027-.247.242-.123.369l1.563 1.602-.37 2.266c-.03.18.163.315.322.226l1.922-1.062 1.922 1.063c.158.087.352-.045.322-.227l-.37-2.265 1.564-1.603c.124-.127.053-.342-.124-.369z"/>
    </g>
    <g clip-path="url(#clip7)">
        <path fill="#FFC107" d="M141.678 47.175l-2.597.288-1.756-2.083c-.132-.155-.423-.077-.459.123l-.48 2.682-2.393 1.05c-.196.086-.211.357-.028.465l2.31 1.372.275 2.742c.022.217.287.314.444.162l1.898-1.828 2.559.635c.21.052.393-.162.302-.363l-1.132-2.512 1.315-2.343c.104-.186-.045-.413-.258-.39z"/>
    </g>
    <g clip-path="url(#clip8)">
        <path fill="#FFC107" d="M8.678 142.175l-2.597.287-1.756-2.082c-.132-.155-.423-.077-.46.123l-.479 2.682-2.393 1.049c-.196.087-.211.358-.028.466l2.31 1.372.275 2.742c.022.217.287.314.444.162l1.898-1.828 2.559.635c.21.052.393-.162.302-.363l-1.132-2.512 1.315-2.343c.104-.186-.045-.413-.258-.39z"/>
    </g>
    <g clip-path="url(#clip9)">
        <path fill="#FFC34D" d="M59.237 29.276l2.642-13.208c.302-1.511 2.256-1.955 3.181-.722l7.824 10.432c1.242 1.656-.294 2.042-5.441 8.39-6.819-3.344-8.647-2.688-8.206-4.892z"/>
        <path fill="#F93" d="M95.676 34.169c-5.176-6.212-6.835-6.692-5.56-8.39l7.823-10.432c.925-1.234 2.88-.79 3.182.721l2.642 13.208c.459 2.298-1.75 1.717-8.087 4.893z"/>
        <path fill="#FFEA80" d="M109.143 22.132L96.347 31.65 83.05 8.385c-.342-.6-.945-.9-1.55-.9-.604 0-1.209.3-1.552.9L66.653 31.65l-12.796-9.518c-1.348-1.002-3.21.25-2.799 1.875l4.885 19.215 3.233 1.945-2.326 1.629 1.475 5.801c.201.791.915 1.347 1.732 1.347h42.886c.817 0 1.53-.556 1.732-1.347l1.475-5.801-1.42-1.787 2.327-1.787 4.885-19.215c.413-1.628-1.454-2.875-2.799-1.875z"/>
        <path fill="#FFC34D" d="M111.942 24.007l-4.885 19.215-2.327 1.787 1.42 1.787-1.475 5.801c-.202.791-.915 1.347-1.732 1.347H81.501V7.485c.605 0 1.208.3 1.55.9L96.347 31.65l12.796-9.518c1.345-1 3.212.247 2.799 1.875z"/>
        <path fill="#FF6A4D" d="M88.393 35.155l-5.361-8.934c-.348-.58-.939-.868-1.53-.868-.594 0-1.188.29-1.534.867l-5.36 8.935c-.34.566-.34 1.273 0 1.84l5.36 8.934c.348.579.941.867 1.533.867.592-.001 1.185-.292 1.53-.867l5.362-8.935c.34-.566.34-1.273 0-1.839z"/>
        <path fill="#F03800" d="M88.393 36.994l-5.361 8.935c-.346.575-.939.866-1.53.867V25.353c.591 0 1.182.289 1.53.867l5.36 8.935c.34.566.34 1.273 0 1.84z"/>
        <path fill="#FFC34D" d="M68.992 45.01c0 .985-.8 1.786-1.787 1.786H56.85l-.907-3.574h11.262c.986 0 1.787.8 1.787 1.787z"/>
        <path fill="#F93" d="M107.057 43.222l-.907 3.574H95.795c-.986 0-1.787-.8-1.787-1.787 0-.986.8-1.787 1.787-1.787h11.262z"/>
    </g>
    <defs>
        <clipPath id="clip0">
            <path fill="#fff" d="M0 0H13.312V13.312H0z" transform="rotate(-15 306.843 -521.792)"/>
        </clipPath>
        <clipPath id="clip1">
            <path fill="#fff" d="M0 0H13.312V13.312H0z" transform="rotate(-15 601.14 30.824)"/>
        </clipPath>
        <clipPath id="clip2">
            <path fill="#fff" d="M0 0H13.312V13.312H0z" transform="translate(121.496 159.71)"/>
        </clipPath>
        <clipPath id="clip3">
            <path fill="#fff" d="M0 0H13.312V13.312H0z" transform="translate(9 44.71)"/>
        </clipPath>
        <clipPath id="clip4">
            <path fill="#fff" d="M0 0H9V9H0z" transform="translate(105 173.214)"/>
        </clipPath>
        <clipPath id="clip5">
            <path fill="#fff" d="M0 0H7V7H0z" transform="translate(139 150.214)"/>
        </clipPath>
        <clipPath id="clip6">
            <path fill="#fff" d="M0 0H7V7H0z" transform="translate(26.504 35.214)"/>
        </clipPath>
        <clipPath id="clip7">
            <path fill="#fff" d="M0 0H8.402V8.402H0z" transform="rotate(-15 242.68 -481.923)"/>
        </clipPath>
        <clipPath id="clip8">
            <path fill="#fff" d="M0 0H8.402V8.402H0z" transform="rotate(-15 536.978 70.694)"/>
        </clipPath>
        <clipPath id="clip9">
            <path fill="#fff" d="M0 0H61V61H0z" transform="translate(51 .214)"/>
        </clipPath>
    </defs>
</svg>
