<svg xmlns="http://www.w3.org/2000/svg" width="113" height="82" viewBox="0 0 113 82">
    <g fill="none">
        <path fill="#5A4146" d="M82 34.455v1.276c0 1.563.25 3.116.739 4.6L85.6 49H91V29h-3.6c-2.982 0-5.4 2.442-5.4 5.455z"/>
        <path fill="#694B4B" d="M107.436 38.142L104.334 49 89.667 36.167C87.642 36.167 86 34.525 86 32.5c0-3.037 2.463-5.5 5.5-5.5h12.833c2.025 0 3.667 1.642 3.667 3.667v3.446c0 1.362-.19 2.718-.564 4.029z"/>
        <path fill="#E6AF78" d="M90 55H101V63H90z"/>
        <path fill="#D29B6E" d="M90 57.786c1.7.777 3.555 1.214 5.5 1.214 1.945 0 3.8-.437 5.5-1.214V54H90v3.786z"/>
        <path fill="#D5DCED" d="M108.975 61.521L100.049 59l-5.55 3.641L88.95 59l-8.924 2.521C77.643 62.194 76 64.348 76 66.798V80.17c0 1.01.828 1.829 1.85 1.829h33.3c1.022 0 1.85-.819 1.85-1.83V66.799c0-2.45-1.643-4.604-4.025-5.277z"/>
        <path fill="#AFB9D2" d="M97 82L93 82 94 63 96 63z"/>
        <path fill="#F0C087" d="M95 57c-6.075 0-11-4.89-11-10.921v-2.133c0-.965.386-1.891 1.074-2.574l3.324-3.3c.704-.7 1.667-1.101 2.662-1.07 5.86.183 11.048 1.43 13.883 4.18.695.673 1.057 1.614 1.057 2.577v2.32C106 52.11 101.075 57 95 57z"/>
        <path fill="#E6AF78" d="M89.513 44.184c0-2.039 1.78-3.66 3.895-3.53 3.71.228 9.215.824 12.592 2.387-.11-.746-.443-1.45-1.008-1.98-2.842-2.67-8.041-3.881-13.916-4.06-.997-.03-1.962.36-2.667 1.04l-3.332 3.204c-.69.663-1.077 1.563-1.077 2.5v2.071c0 4.837 3.37 8.909 7.97 10.184-1.53-1.818-2.457-4.125-2.457-6.649v-5.167z"/>
        <path fill="#C7CFE2" d="M105 72.429c0-1.428.632-2.798 1.757-3.808L111.906 64c.688.883 1.094 1.946 1.094 3.08v13.125c0 .991-.895 1.795-2 1.795h-6v-9.571z"/>
        <path fill="#959CB5" d="M96 67h-2c-.552 0-1-.448-1-1v-3h4v3c0 .552-.448 1-1 1z"/>
        <g fill="#C7CFE2">
            <path d="M7.334 5.486L4.35 7.992c-.513.432-1.256.259-1.567-.365L.11 2.253 1.186.446c.239-.4.748-.469 1.067-.143l5.08 5.183zM7.334 5.486l2.982 2.506c.514.432 1.256.26 1.567-.365l2.675-5.374L13.481.446c-.239-.4-.748-.469-1.067-.143l-5.08 5.183z" transform="translate(87 57)"/>
        </g>
        <path fill="#5A4146" d="M32.878 55.835c-1.543-4.15-2.767-11.286-3.031-15.002C29.344 33.763 24.095 28 17 28S4.656 33.763 4.153 40.833c-.264 3.715-1.488 10.851-3.031 15.002-.34.916.052 1.925.94 2.333 1.654.76 5.18 2.251 9.432 2.832h11.012c4.232-.582 7.783-2.073 9.432-2.832.888-.408 1.28-1.417.94-2.333z"/>
        <path fill="#694B4B" d="M31.958 58.168c.871-.408 1.257-1.417.923-2.333-1.516-4.15-2.718-11.286-2.977-15.002C29.41 33.763 24.255 28 17.288 28h-.052c-5.346.023-7.236 7.56-2.634 10.372.277.169.454.25.454.25L19.087 61h3.608c4.156-.582 7.643-2.074 9.263-2.832z"/>
        <path fill="#E6AF78" d="M29.96 64.613l-5.933-2.933C22.784 61.066 22 59.81 22 58.438V53H11v5.438c0 1.373-.785 2.628-2.027 3.242L3.04 64.613C1.177 65.534 0 67.417 0 69.476v10.711C0 81.188.82 82 1.833 82h29.334C32.179 82 33 81.188 33 80.187v-10.71c0-2.06-1.177-3.943-3.04-4.864z"/>
        <path fill="#D29B6E" d="M16 60c2.116 0 4.142-.444 6-1.234-.049-.252-.106-.503-.106-.766v-6H10.107v6c0 .265-.057.517-.106.77 1.859.786 3.884 1.23 6 1.23z"/>
        <path fill="#D5DCED" d="M29.96 65.038L25.733 63c-1.96 2.919-5.359 4.855-9.233 4.855-3.874 0-7.273-1.936-9.233-4.855L3.04 65.038C1.177 65.937 0 67.773 0 69.783v10.449C0 81.208.82 82 1.833 82h29.334C32.179 82 33 81.208 33 80.232v-10.45c0-2.009-1.177-3.845-3.04-4.744z"/>
        <path fill="#F0C087" d="M16.977 56c-5.62 0-10.26-3.935-10.96-9.028-.102-.738.276-1.461.984-1.796.848-.402 2.08-1.079 3.26-2.067 1.314-1.1 2.085-2.26 2.52-3.111.375-.734 1.237-1.148 2.077-.947 6.486 1.552 10.901 4.718 12.503 6.01.43.347.678.859.634 1.39C27.549 51.794 22.786 56 16.977 56z"/>
        <path fill="#E6AF78" d="M27.361 45.104c-1.601-1.302-6.017-4.49-12.503-6.053-.84-.203-1.702.215-2.077.954-.33.65-.874 1.477-1.683 2.321l-.001.006c-.251.269-.518.538-.836.806-1.18.995-2.412 1.677-3.26 2.081-.708.337-1.086 1.066-.985 1.81.63 4.605 4.445 8.272 9.285 8.971-2.205-1.418-3.85-3.367-3.85-6.842v-2.482c.418-.292.84-.583 1.263-.94 1.024-.864 1.918-1.862 2.634-2.937 4.962 1.463 8.326 3.9 9.6 4.936.35.289 1.216 1.043 2.23 1.942.436-.992.724-2.056.817-3.174.044-.534-.204-1.05-.634-1.4z"/>
        <path fill="#C7CFE2" d="M1.22 66C.448 66.88 0 67.96 0 69.104v10.174C0 80.23.895 81 2 81h6v-8.675c0-1.046-.552-2.036-1.501-2.69L1.219 66z"/>
        <path fill="#0290FC" d="M83.199 62.433L67.94 57 57 60.572 46.059 57 30.8 62.433C27.92 63.46 26 66.143 26 69.146v11.068C26 81.2 26.816 82 27.824 82h58.352C87.184 82 88 81.2 88 80.214V69.146c0-3.004-1.919-5.686-4.801-6.713z"/>
        <path fill="#707487" d="M54.905 64L53 82 61 82 59.095 64z"/>
        <path fill="#5B5D6E" d="M58.6 66h-4.2c-.773 0-1.4-.557-1.4-1.245V60h7v4.755c0 .687-.627 1.245-1.4 1.245z"/>
        <path fill="#0076D0" d="M85.027 64C86.264 65.315 87 67.065 87 68.943v11.243C87 81.188 86.18 82 85.167 82H76v-6.064c0-1.924.773-3.77 2.148-5.13L85.027 64z"/>
        <path fill="#5A4146" d="M77 18.809V3.625C77 1.623 75.331 0 73.273 0H50.909C42.675 0 36 6.492 36 14.5v4.309c0 1.948.323 3.883.956 5.731l.62 1.81c.19.555.288 1.135.288 1.72V29h37.272v-.93c0-.585.097-1.165.287-1.72l.62-1.81c.634-1.848.957-3.783.957-5.731z"/>
        <path fill="#694B4B" d="M45 7.363c0 4.067 3.317 7.364 7.408 7.364h1.026L53.929 29h20.247v-.93c0-.585.095-1.165.281-1.72l.607-1.81c.62-1.848.936-3.783.936-5.731V3.625C76 1.623 74.367 0 72.353 0H52.408C48.317 0 45 3.297 45 7.363z"/>
        <path fill="#E6AF78" d="M46 44H68V60H46z"/>
        <path fill="#D29B6E" d="M46 49.087C49.24 50.929 52.988 52 57 52s7.762-1.071 11-2.913V43H46v6.087z"/>
        <g fill="#0076D0">
            <path d="M14.955 7.197L9.076 13.37c-.79.83-2.096.737-2.771-.198L.209 4.738 1.803 1.21C2.273.17 3.501-.213 4.435.392l10.52 6.805zM14.955 7.197l5.88 6.173c.79.83 2.096.737 2.771-.198l6.096-8.434-1.595-3.528C27.637.17 26.41-.213 25.475.392l-10.52 6.805z" transform="translate(42 53)"/>
        </g>
        <path fill="#F0C087" d="M56.5 49C46.283 49 38 40.706 38 30.474v-2.17c0-.983.39-1.925 1.084-2.62l1.532-1.535c.694-.695 1.084-1.637 1.084-2.62v-4.44c0-.859.575-1.604 1.409-1.801 4.375-1.035 17.99-3.486 27.257 3.338.602.443.934 1.17.934 1.919v.984c0 .983.39 1.925 1.084 2.62l1.532 1.535c.694.694 1.084 1.637 1.084 2.62v2.17C75 40.706 66.718 49 56.5 49z"/>
        <path fill="#E6AF78" d="M71.074 18.51C64.616 13.827 56.037 13.625 50 14.266c-2.546.27-4.65.688-5.937.987-.826.193-1.396.92-1.396 1.757v4.332c0 .96-.386 1.879-1.074 2.557l-1.519 1.497c-.688.678-1.074 1.598-1.074 2.557v2.117c0 9.242 7.04 16.85 16.118 17.93C51.955 44.752 50 40.35 50 35.492V22.281c0-1.832 1.382-3.363 3.225-3.59 4.4-.544 12.458-.871 18.775 2.652v-.96c0-.73-.33-1.44-.926-1.873z"/>
        <path fill="#0076D0" d="M27.973 64C26.736 65.315 26 67.065 26 68.943v11.243c0 1.002.82 1.814 1.833 1.814H37v-6.064c0-1.924-.773-3.77-2.148-5.13L27.973 64z"/>
    </g>
</svg>
