<svg xmlns="http://www.w3.org/2000/svg" width="88" height="88" viewBox="0 0 88 88">
    <g fill="none">
        <path fill="#82D9FF" d="M5.58 86.325H2.221c-.817 0-1.481-.664-1.481-1.481V9.218c0-.817.664-1.48 1.481-1.48H5.58c.817 0 1.481.663 1.481 1.48v75.624c0 .819-.664 1.483-1.481 1.483h.001z"/>
        <path fill="#63312D" d="M5.58 87.066H2.221C.996 87.066 0 86.068 0 84.843V9.218c0-1.225.996-2.22 2.222-2.22h3.357c1.226 0 2.222.995 2.222 2.22v75.626c0 1.224-.996 2.222-2.222 2.222h.001zM2.221 8.478c-.407 0-.74.332-.74.74v75.626c0 .408.333.74.74.74H5.58c.407 0 .74-.332.74-.74V9.218c0-.408-.333-.74-.74-.74H2.222z"/>
        <path fill="#52B8D9" d="M24.649 86.325H21.29c-.817 0-1.481-.664-1.481-1.481V9.218c0-.817.664-1.48 1.481-1.48h3.358c.817 0 1.481.663 1.481 1.48v75.624c0 .819-.664 1.483-1.481 1.483z"/>
        <path fill="#63312D" d="M24.649 87.066H21.29c-1.225 0-2.222-.998-2.222-2.222V9.218c0-1.225.997-2.22 2.222-2.22h3.358c1.225 0 2.221.995 2.221 2.22v75.626c0 1.224-.996 2.222-2.221 2.222zM21.29 8.478c-.407 0-.74.332-.74.74v75.626c0 .408.333.74.74.74h3.358c.407 0 .74-.332.74-.74V9.218c0-.408-.333-.74-.74-.74H21.29z"/>
        <path fill="#F8F3F3" d="M7.061 44.023L60.936 44.023 60.936 50.041 7.061 50.041z"/>
        <path fill="#63312D" d="M60.936 50.78H7.061c-.409 0-.741-.332-.741-.74V44.02c0-.409.332-.74.74-.74h53.876c.408 0 .74.331.74.74v6.019c0 .408-.331.74-.74.74zM7.801 49.299h52.394v-4.537H7.801V49.3z"/>
        <path fill="#F8F3F3" d="M7.061 15.142L60.936 15.142 60.936 21.159 7.061 21.159z"/>
        <path fill="#63312D" d="M60.936 21.898H7.061c-.409 0-.741-.332-.741-.74V15.14c0-.41.332-.74.74-.74h53.876c.408 0 .74.33.74.74v6.018c0 .408-.331.74-.74.74zm-53.135-1.48h52.394v-4.537H7.801v4.537z"/>
        <path fill="#F8F3F3" d="M7.061 72.905L60.936 72.905 60.936 78.922 7.061 78.922z"/>
        <path fill="#63312D" d="M60.936 79.661H7.061c-.409 0-.741-.331-.741-.74v-6.018c0-.41.332-.74.74-.74h53.876c.408 0 .74.33.74.74v6.018c0 .408-.331.74-.74.74zm-53.135-1.48h52.394v-4.537H7.801v4.536z"/>
        <path fill="#82D9FF" d="M65.774 86.325h-3.357c-.818 0-1.481-.664-1.481-1.481V9.218c0-.817.663-1.48 1.48-1.48h3.358c.818 0 1.482.663 1.482 1.48v75.624c0 .819-.664 1.483-1.482 1.483z"/>
        <path fill="#63312D" d="M65.774 87.066h-3.357c-1.225 0-2.222-.998-2.222-2.222V9.218c0-1.225.997-2.22 2.222-2.22h3.357c1.225 0 2.222.995 2.222 2.22v75.626c0 1.224-.997 2.222-2.222 2.222zM62.417 8.478c-.408 0-.74.332-.74.74v75.626c0 .408.332.74.74.74h3.357c.408 0 .741-.332.741-.74V9.218c0-.408-.333-.74-.74-.74h-3.358z"/>
        <path fill="#52B8D9" d="M84.844 86.325h-3.358c-.818 0-1.48-.664-1.48-1.481V9.218c0-.817.662-1.48 1.48-1.48h3.358c.817 0 1.481.663 1.481 1.48v75.624c0 .819-.664 1.483-1.481 1.483z"/>
        <g fill="#63312D">
            <path d="M18.844 80.465h-3.358c-1.225 0-2.222-.997-2.222-2.22V2.617c0-1.224.997-2.22 2.222-2.22h3.358c1.224 0 2.221.995 2.221 2.22v75.626c0 1.224-.997 2.221-2.221 2.221zM15.486 1.878c-.407 0-.74.332-.74.74v75.626c0 .408.333.74.74.74h3.358c.407 0 .74-.331.74-.74V2.618c0-.408-.333-.74-.74-.74h-3.358z" transform="translate(66 6.6)"/>
            <path d="M14.005 44.18H1.256c-.41 0-.74-.332-.74-.74V37.42c0-.409.33-.74.74-.74h12.75c.408 0 .74.331.74.741v6.017c0 .409-.332.74-.74.74h-.001zM1.996 42.699h11.268v-4.537H1.996V42.7zm12.009-27.396H1.256c-.41 0-.74-.332-.74-.741V8.544c0-.408.33-.74.74-.74h12.75c.408 0 .74.332.74.74v6.019c0 .408-.332.74-.74.74h-.001zM1.996 13.822h11.268V9.286H1.996v4.536zm12.009 59.24H1.256c-.41 0-.74-.332-.74-.741v-6.018c0-.41.33-.74.74-.74h12.75c.408 0 .74.33.74.74v6.018c0 .408-.332.74-.74.74h-.001zM1.996 71.58h11.268v-4.537H1.996v4.536z" transform="translate(66 6.6)"/>
        </g>
        <path fill="#EFC36A" d="M42.452 56.263L60.824 56.263 60.824 72.905 42.452 72.905z"/>
        <path fill="#63312D" d="M60.824 73.645H42.453c-.409 0-.74-.332-.74-.74V56.262c0-.409.331-.741.74-.741h18.371c.408 0 .74.332.74.741v16.64c0 .41-.331.743-.74.743zm-17.63-1.481h16.89V57.003h-16.89v15.16z"/>
        <path fill="#F9DD9D" d="M37.475 56.263L55.848 56.263 55.848 72.905 37.475 72.905z"/>
        <path fill="#FFEECF" d="M40.437 59.225L55.848 59.225 55.848 56.263 37.475 56.263 37.475 72.905 40.437 72.905z"/>
        <path fill="#63312D" d="M55.847 73.645H37.475c-.409 0-.741-.332-.741-.74V56.262c0-.409.332-.741.74-.741h18.373c.408 0 .74.332.74.741v16.64c0 .41-.33.743-.74.743zm-17.632-1.481h16.89V57.003h-16.89v15.16z"/>
        <path fill="#F8F3F3" d="M44.614 56.263L48.709 56.263 48.709 61.81 44.614 61.81z"/>
        <path fill="#63312D" d="M48.71 62.55h-4.098c-.408 0-.74-.332-.74-.74v-5.548c0-.409.332-.741.74-.741h4.097c.409 0 .741.332.741.741v5.547c0 .41-.332.74-.74.74v.001zm-3.357-1.481h2.616v-4.066h-2.616v4.066z"/>
        <path fill="#EFC36A" d="M31.106 27.381L49.48 27.381 49.48 44.023 31.106 44.023z"/>
        <path fill="#63312D" d="M49.48 44.764H31.106c-.408 0-.74-.332-.74-.74V27.38c0-.409.331-.74.74-.74h18.372c.409 0 .74.331.74.74v16.64c.002.41-.33.743-.738.743zm-17.633-1.481h16.89V28.12h-16.89v15.162z"/>
        <path fill="#F9DD9D" d="M26.13 27.381L44.503 27.381 44.503 44.023 26.13 44.023z"/>
        <path fill="#FFEECF" d="M29.092 30.343L44.503 30.343 44.503 27.381 26.13 27.381 26.13 44.023 29.092 44.023z"/>
        <path fill="#63312D" d="M44.501 44.764H26.13c-.408 0-.74-.332-.74-.74V27.38c0-.409.332-.74.741-.74h18.371c.408 0 .74.331.74.74v16.64c0 .41-.33.743-.74.743zm-17.63-1.481h16.89V28.12H26.87v15.162z"/>
        <path fill="#F8F3F3" d="M33.268 27.381L37.364 27.381 37.364 32.928 33.268 32.928z"/>
        <path fill="#63312D" d="M37.364 33.668h-4.097c-.409 0-.74-.331-.74-.74v-5.547c0-.409.331-.74.74-.74h4.097c.408 0 .74.331.74.74v5.547c0 .41-.332.74-.74.74zm-3.357-1.481h2.616v-4.065h-2.616v4.066-.001z"/>
        <path fill="#EFC36A" d="M12.037 56.263L30.41 56.263 30.41 72.905 12.037 72.905z"/>
        <path fill="#63312D" d="M30.41 73.645H12.036c-.408 0-.74-.332-.74-.74V56.262c0-.409.331-.741.74-.741H30.41c.408 0 .74.332.74.741v16.64c0 .41-.332.743-.74.743zm-17.632-1.481H29.67V57.003H12.778v15.16z"/>
        <path fill="#F9DD9D" d="M7.061 56.263L25.433 56.263 25.433 72.905 7.061 72.905z"/>
        <path fill="#FFEECF" d="M10.023 59.225L25.433 59.225 25.433 56.263 7.061 56.263 7.061 72.905 10.023 72.905z"/>
        <path fill="#63312D" d="M25.432 73.645H7.06c-.409 0-.741-.332-.741-.74V56.262c0-.409.332-.741.74-.741h18.372c.408 0 .74.332.74.741v16.64c0 .41-.33.743-.74.743zm-17.63-1.481h16.89V57.003H7.801v15.16z"/>
        <path fill="#F8F3F3" d="M14.199 56.263L18.295 56.263 18.295 61.81 14.199 61.81z"/>
        <path fill="#63312D" d="M18.295 62.55h-4.097c-.409 0-.74-.332-.74-.74v-5.548c0-.409.331-.741.74-.741h4.097c.408 0 .74.332.74.741v5.547c0 .41-.332.74-.74.74v.001zm-3.357-1.481h2.616v-4.066h-2.616v4.066z"/>
        <path fill="#DB785A" d="M38.975 0.74L57.349 0.74 57.349 15.14 38.975 15.14z"/>
        <path fill="#63312D" d="M57.347 15.882H38.975c-.408 0-.74-.332-.74-.74V.74c0-.408.332-.74.74-.74h18.372c.408 0 .74.332.74.74v14.4c0 .41-.33.742-.74.742zm-17.631-1.48h16.89V1.481h-16.89v12.92z"/>
        <path fill="#F9A287" d="M33.999 0.74L52.372 0.74 52.372 15.14 33.999 15.14z"/>
        <path fill="#FFC8BB" d="M36.959 3.703L52.37 3.703 52.37 0.74 33.997 0.74 33.997 15.142 36.959 15.142z"/>
        <path fill="#63312D" d="M52.37 15.882H33.998c-.408 0-.74-.332-.74-.74V.74c0-.408.332-.74.741-.74H52.37c.408 0 .74.332.74.74v14.4c0 .41-.331.742-.74.742zm-17.63-1.48h16.89V1.481H34.74v12.92z"/>
        <path fill="#F8F3F3" d="M41.136 0.74L45.232 0.74 45.232 6.073 41.136 6.073z"/>
        <path fill="#63312D" d="M45.232 6.813h-4.097c-.409 0-.741-.332-.741-.74V.74c0-.408.332-.74.74-.74h4.098c.408 0 .74.332.74.74v5.333c0 .41-.33.74-.74.74zm-3.356-1.48h2.616V1.48h-2.616v3.851z"/>
    </g>
</svg>
