<svg xmlns="http://www.w3.org/2000/svg" width="48" height="48" viewBox="0 0 48 48">
    <g fill="none" fill-rule="evenodd">
        <circle cx="24" cy="24" r="24" fill="#F2F5FA"/>
        <g fill-rule="nonzero">
            <g>
                <path fill="#7EB457" d="M15.841 17.24c0 .771-.625 1.397-1.397 1.397H1.398C.626 18.637 0 18.011 0 17.239c0-.302.098-.597.28-.838l1.118-1.491V8.945v-.136c.065-2.711 2-5.016 4.659-5.548h3.727c1.315.262 2.497.972 3.346 2.01.089.108.174.22.255.336.69.976 1.06 2.142 1.059 3.338v5.965l1.118 1.49c.181.242.28.537.28.84z" transform="matrix(-1 0 0 1 35 12) translate(5.475 4.66)"/>
                <path fill="#79AD54" d="M15.841 17.24c0 .771-.625 1.397-1.397 1.397H1.398C.626 18.637 0 18.011 0 17.239c0-.302.098-.597.28-.838l1.118-1.491v-.081c4.426-1.8 8.7-4.731 11.987-9.222.69.976 1.06 2.142 1.059 3.338v5.965l1.118 1.49c.181.242.28.537.28.84z" transform="matrix(-1 0 0 1 35 12) translate(5.475 4.66)"/>
                <path fill="#5F943A" d="M9.496 14.002v-2.058H7.751l-1.345 2.058h-.818v-2.058h-.94v-.64h.94v-.625h-.94v-.64h.94V7.861h.805v2.176h1.682l1.421-2.176h.81v2.176h.915v.641h-.915v.624h.915v.641h-.915v2.058h-.81zm-.501-3.964h.501v-.767l-.501.767zm-.827 1.265h1.328v-.624h-.919l-.409.624zm-1.775 0h.86l.405-.624H6.393v.624zm0 1.312l.439-.67h-.439v.67z" transform="matrix(-1 0 0 1 35 12) translate(5.475 4.66)"/>
                <path fill="#74A650" d="M6.057 3.261L5.125 0 10.716 0 9.784 3.261z" transform="matrix(-1 0 0 1 35 12) translate(5.475 4.66)"/>
            </g>
            <path fill="#79AD54" d="M12.379 8.805l.608 1.911-1.959.429-.428 1.959-1.911-.608-1.35 1.482-.465-.51c.063-2.711 1.998-5.015 4.658-5.547h1.818l-.971.884z" transform="matrix(-1 0 0 1 35 12)"/>
            <path fill="#FFB531" d="M6.523 0L7.874 1.482 9.784 0.874 10.213 2.833 12.172 3.261 11.564 5.172 13.046 6.523 11.564 7.874 12.172 9.784 10.213 10.213 9.784 12.172 7.874 11.564 6.523 13.046 5.172 11.564 3.261 12.172 2.833 10.213 0.874 9.784 1.482 7.874 0 6.523 1.482 5.172 0.874 3.261 2.833 2.833 3.261 0.874 5.172 1.482z" transform="matrix(-1 0 0 1 35 12)"/>
            <g fill="#F98500">
                <path d="M-0.034 2.796L6.554 2.796 6.554 3.728 -0.034 3.728z" transform="matrix(-1 0 0 1 35 12) translate(3.261 3.261) rotate(-45 3.26 3.262)"/>
                <path d="M1.398 2.796C.626 2.796 0 2.17 0 1.398 0 .626.626 0 1.398 0c.772 0 1.398.626 1.398 1.398-.001.771-.627 1.397-1.398 1.398zm0-1.864c-.258 0-.466.208-.466.466 0 .257.208.466.466.466.257 0 .466-.209.466-.466S1.655.932 1.398.932zM5.591 6.057c-.772 0-1.398-.626-1.398-1.398 0-.772.626-1.398 1.398-1.398.772 0 1.398.626 1.398 1.398-.001.772-.626 1.397-1.398 1.398zm0-1.864c-.257 0-.466.209-.466.466 0 .258.209.466.466.466s.466-.208.466-.466c0-.257-.209-.465-.466-.466z" transform="matrix(-1 0 0 1 35 12) translate(3.261 3.261)"/>
            </g>
        </g>
    </g>
</svg>
