<svg xmlns="http://www.w3.org/2000/svg" width="32" height="32" fill="none" viewBox="0 0 32 32">
    <circle cx="16" cy="16" r="16" fill="#E02020" opacity=".1"/>
    <path fill="#E02020" fill-rule="evenodd" d="M24 16c0 4.418-3.582 8-8 8s-8-3.582-8-8 3.582-8 8-8 8 3.582 8 8zm-5.035-1.834L17.131 16l1.835 1.834c.312.313.312.819 0 1.131-.157.157-.361.235-.566.235-.205 0-.41-.078-.566-.235L16 17.131l-1.834 1.834c-.157.157-.361.235-.566.235-.205 0-.41-.078-.566-.235-.312-.312-.312-.818 0-1.13L14.87 16l-1.835-1.834c-.312-.313-.312-.819 0-1.132.313-.312.82-.312 1.132 0L16 14.87l1.834-1.835c.313-.312.819-.312 1.131 0 .313.313.313.82 0 1.132z" clip-rule="evenodd"/>
</svg>
