<svg xmlns="http://www.w3.org/2000/svg" width="32" height="32" fill="none" viewBox="0 0 32 32">
    <circle cx="16" cy="16" r="16" fill="#E02020" opacity=".1"/>
    <path fill="#000" d="M8 8H24V24H8z" opacity=".01"/>
    <path fill="#E02020" fill-rule="evenodd" d="M18.667 12H22c.368 0 .667.299.667.667 0 .368-.299.666-.667.666h-.666v7.334c0 1.104-.896 2-2 2h-6.667c-1.105 0-2-.896-2-2v-7.334H10c-.368 0-.666-.298-.666-.666 0-.368.298-.667.666-.667h3.334v-1.113c.032-.889.777-1.584 1.666-1.554h2c.889-.03 1.634.665 1.667 1.554V12zM14 19.333c.368 0 .667-.298.667-.666V16c0-.368-.299-.667-.667-.667-.368 0-.666.299-.666.667v2.667c0 .368.298.666.666.666zm.667-8.446c0-.107.14-.22.333-.22h2c.194 0 .334.113.334.22V12h-2.667v-1.113zM18 19.333c.368 0 .667-.298.667-.666V16c0-.368-.299-.667-.667-.667-.368 0-.666.299-.666.667v2.667c0 .368.298.666.666.666z" clip-rule="evenodd"/>
</svg>
