<svg xmlns="http://www.w3.org/2000/svg" width="32" height="32" fill="none" viewBox="0 0 32 32">
    <path fill="#FFC106" d="M16 32c8.837 0 16-7.163 16-16S24.837 0 16 0 0 7.163 0 16s7.163 16 16 16z" opacity=".1"/>
    <path fill="#FFC106" d="M21.535 22.474c1.137-1.137 1.887-2.57 2.17-4.147.276-1.539.092-3.107-.534-4.534l-1.75.767c.986 2.25.5 4.825-1.237 6.562-2.307 2.308-6.062 2.308-8.37 0-2.307-2.307-2.307-6.062 0-8.369 1.169-1.168 2.723-1.773 4.312-1.736l-.648 2.294 3.061-.776 3.061-.775-2.202-2.263-2.202-2.264-.538 1.903c-.792-.067-1.595-.013-2.379.163-1.445.324-2.764 1.051-3.816 2.103-1.478 1.478-2.293 3.445-2.293 5.536 0 2.09.815 4.057 2.293 5.536 1.48 1.478 3.445 2.293 5.537 2.293 2.09 0 4.057-.815 5.535-2.293z"/>
</svg>
