<svg xmlns="http://www.w3.org/2000/svg" width="32" height="32" fill="none" viewBox="0 0 32 32">
    <circle cx="16" cy="16" r="16" fill="#4E86C6" opacity=".1"/>
    <path fill="#000" d="M8 8H24V24H8z" opacity=".01"/>
    <path fill="#4E86C6" d="M22.6 16c0-.073-.04-.147-.06-.22-.03-.13-.07-.256-.12-.38-.033-.08-.08-.16-.12-.247-.04-.086-.1-.2-.16-.293-.06-.093-.14-.14-.14-.193 0-.054-.133-.167-.206-.247-.074-.08-.14-.133-.214-.2l-.246-.22-.24-.16c-.095-.058-.193-.109-.294-.153l-.26-.12c-.109-.04-.22-.074-.333-.1-.09-.027-.181-.047-.274-.06l-.153-.074c-.558-1.61-2.075-2.691-3.78-2.691-1.705 0-3.222 1.08-3.78 2.691l-.12.034c-.092.013-.184.033-.273.06-.113.026-.225.06-.334.1l-.26.12c-.1.044-.199.095-.293.153l-.24.2-.246.207c-.074.066-.147.126-.214.2-.066.073-.14.166-.207.246-.066.08-.12.154-.173.24-.053.087-.106.194-.16.294-.053.1-.086.166-.12.246-.049.124-.089.25-.12.38 0 .074-.046.147-.06.22-.041.209-.064.421-.066.634.003.203.023.406.06.606 0 .067.033.127.046.194.033.13.073.26.12.386l.08.194c.059.128.126.253.2.373l.094.147c.01.018.02.036.033.053l.033.047c.63.839 1.618 1.333 2.667 1.333h2v-.913c-.203.117-.433.18-.667.18-.361-.004-.706-.15-.96-.407-.246-.255-.38-.596-.374-.95.006-.354.153-.691.407-.937l2-1.933c.25-.24.582-.374.927-.373.353.001.691.143.94.393l2 2c.517.52.517 1.36 0 1.88-.249.25-.587.392-.94.393-.234.003-.465-.06-.666-.18V20h2c1.049 0 2.037-.494 2.666-1.333l.034-.034c.012-.017.023-.034.033-.053l.093-.147c.075-.12.142-.244.2-.373l.08-.193c.047-.127.087-.256.12-.387 0-.067.034-.127.047-.193.037-.205.058-.412.06-.62 0-.224-.023-.447-.067-.667z"/>
    <path fill="#4E86C6" d="M16.474 15.527c-.26-.254-.675-.254-.934 0l-2 1.933c-.193.16-.28.413-.227.657.054.244.24.438.481.502.242.064.5-.013.666-.199l.874-.847v3.76c0 .369.298.667.666.667.368 0 .667-.299.667-.667v-3.726l.86.866c.125.127.296.198.473.198.178 0 .348-.072.474-.198.126-.125.197-.295.197-.473s-.071-.348-.197-.473l-2-2z"/>
</svg>
