<svg xmlns="http://www.w3.org/2000/svg" width="32" height="32" fill="none" viewBox="0 0 32 32">
    <path fill="#579FD7" d="M14.155 16.273c-2.54 2.487-5.42 5.307-6.88 8.616-.438.991-.349 2.14.238 3.05.586.912 1.589 1.461 2.665 1.461h11.044c1.755 0 3.177-1.436 3.177-3.206 0-1.772-1.422-3.207-3.177-3.207h-4.754c.694-.723 1.418-1.433 2.113-2.113 3.122-3.057 5.819-5.699 5.819-9.004C24.4 6.979 20.457 3 15.611 3 12.07 3 8.893 5.127 7.517 8.42c-.682 1.63.076 3.511 1.693 4.2 1.618.688 3.482-.077 4.163-1.709.38-.91 1.258-1.498 2.238-1.498 1.32 0 2.4 1.068 2.433 2.394-.244.895-2.435 3.04-3.89 4.466z"/>
</svg>
