<svg xmlns="http://www.w3.org/2000/svg" width="32" height="32" fill="none" viewBox="0 0 32 32">
    <path fill="#579FD7" d="M15.472 29.4c4.865 0 8.785-3.86 8.924-8.79.036-1.258-.142-4.455-2.555-6.924-.396-.405-.902-.837-1.537-1.23l3.233-4.332c.727-.974.84-2.273.292-3.357C23.281 3.684 22.165 3 20.946 3h-9.674C9.49 3 8.045 4.437 8.045 6.21s1.445 3.21 3.227 3.21h3.26l-2.182 2.923c-.727.974-.84 2.273-.292 3.357.548 1.083 1.663 1.767 2.883 1.767 1.057 0 1.823.234 2.273.695.57.584.75 1.587.731 2.27-.04 1.429-1.126 2.548-2.473 2.548-.994 0-1.885-.589-2.272-1.499-.691-1.634-2.584-2.4-4.226-1.711-1.642.689-2.412 2.571-1.72 4.205 1.397 3.296 4.623 5.425 8.218 5.425z"/>
</svg>
