<svg xmlns="http://www.w3.org/2000/svg" width="106" height="106" viewBox="0 0 106 106">
    <g fill="none">
        <path fill="#25D8A1" d="M72.383 3.97v17.286c0 1.25-1.013 2.263-2.263 2.263H35.883c-1.25 0-2.264-1.013-2.264-2.263V3.97c0-1.25 1.014-2.264 2.264-2.264h34.236c1.25 0 2.264 1.013 2.264 2.264z"/>
        <path fill="#0DB77E" d="M51.45 22.753v.767H35.884c-1.25 0-2.264-1.014-2.264-2.264v-2.44c.46-1.033 1.112-1.986 1.936-2.81 1.75-1.752 4.078-2.72 6.553-2.729 5.139-.016 9.343 4.337 9.343 9.476z"/>
        <g fill="#F44D4D">
            <path d="M.106.051H21.918000000000003V21.863H.106zM81.185.051H102.997V21.863H81.185z" transform="translate(1.45 1.656)"/>
        </g>
        <path fill="#683512" d="M75.669 53.638v-.407c0-2.21-1.793-4.004-4.004-4.004h-.027c-1.548 0-2.89.88-3.556 2.165l-.447-.132v-3.32c0-2.662-2.158-4.818-4.82-4.818-1.329 0-2.534.54-3.406 1.411-.871.872-1.41 2.077-1.41 3.407v-4.936c0-2.673-2.169-4.841-4.842-4.841h-.386c-2.673 0-4.84 2.168-4.84 4.84v-20.41c0-3.201-2.594-5.794-5.793-5.794-1.599 0-3.047.648-4.095 1.696-1.049 1.048-1.697 2.498-1.697 4.097V56.32H34.48c-2.61 0-4.728 2.118-4.728 4.728v3.657c0 6.931 3.22 13.494 8.765 17.651 3.533 2.648 6.834 6.01 7.046 9.42v5.495h30.107V53.638z"/>
        <path fill="#5F2F0E" d="M75.67 53.639V97.27h-3.762V53.232c0-1.537-.865-2.872-2.136-3.542.556-.294 1.192-.462 1.866-.462h.027c2.211 0 4.003 1.793 4.003 4.004v.407h.002z"/>
        <path fill="#A4E7FF" d="M42.914 93.977H78.628V104.301H42.914z"/>
        <path fill="#73D7FF" d="M42.914 100.724H78.628V104.3H42.914z"/>
        <path fill="#722C2C" d="M.693 24.81c.415.277.854.261 1.318.261.525 0 21.439.027 21.736-.049.696-.177 1.16-.803 1.172-1.513.002-.08.015-20.88 0-21.784-.015-.923-.74-1.567-1.638-1.57-.354-.002-20.537 0-21.612 0-.9 0-1.648.621-1.667 1.56-.004.252 0 21.69 0 21.78.006.525.25 1.02.691 1.315zm13.964-12.197l7.157-7.158V19.77l-7.157-7.157zm4.961 9.353H5.304l7.157-7.157 7.157 7.157zm-7.157-11.55L5.304 3.26h14.314l-7.157 7.157zm-2.196 2.197L3.108 19.77V5.455l7.157 7.158zM105.738 24.38c.28-.418.262-.862.262-1.331 0-.538.018-21.786-.262-22.204-.295-.442-.79-.684-1.314-.691-.095-.001-20.981-.017-21.788 0-.845.018-1.553.694-1.553 1.553v7.46c0 .857.695 1.553 1.552 1.553.858 0 1.553-.696 1.553-1.553V5.455l7.157 7.158-7.157 7.157v-3.669c0-.857-.695-1.553-1.553-1.553-.857 0-1.552.696-1.552 1.553v7.417c0 .86.71 1.536 1.555 1.553.072.002 21.773.025 22.051-.02.426-.07.81-.312 1.05-.67zm-10-11.767l7.157-7.158V19.77l-7.158-7.157zM86.383 3.26H100.7l-7.158 7.157-7.157-7.157zM100.7 21.966H86.384l7.157-7.157 7.158 7.157z"/>
        <path fill="#FFF" d="M50.526 18.67c.397 0 .795-.152 1.098-.455l9.607-9.607c.606-.606.606-1.59 0-2.196-.607-.606-1.59-.606-2.196 0l-8.51 8.51-3.558-3.56c-.606-.606-1.59-.606-2.195 0-.607.607-.607 1.59 0 2.196l4.656 4.657c.303.303.7.455 1.098.455z"/>
        <path fill="#722C2C" d="M93.862 30.044c-.837-.193-1.67.33-1.862 1.165-.022.096-2.344 9.71-13.04 14.404-.785.344-1.142 1.26-.797 2.045.255.583.825.93 1.422.93.209 0 .42-.043.623-.132 12.11-5.313 14.714-16.095 14.819-16.551.192-.836-.33-1.67-1.165-1.861zM27.042 45.613c-10.621-4.66-12.942-13.99-13.04-14.407-.194-.834-1.027-1.355-1.861-1.162-.836.192-1.358 1.025-1.165 1.86.105.457 2.709 11.24 14.818 16.552.203.09.415.132.623.132.597 0 1.167-.347 1.423-.93.344-.785-.013-1.7-.798-2.045z"/>
        <path fill="#000" fill-opacity="0" d="M78.63 92.424H77.22V53.232c0-3.064-2.493-5.557-5.556-5.557h-.027c-.868 0-1.702.2-2.45.566v-.3c0-3.514-2.858-6.371-6.372-6.371-1.177 0-2.306.317-3.286.909-.267-3.281-3.023-5.87-6.372-5.87h-.387c-1.201 0-2.326.334-3.287.913v-12.45h20.634c2.105 0 3.817-1.712 3.817-3.817V3.97c0-2.104-1.712-3.816-3.817-3.816H35.884c-2.105 0-3.818 1.712-3.818 3.816v17.284c0 1.726 1.152 3.186 2.727 3.657v7.09c0 .858.695 1.553 1.553 1.553.857 0 1.553-.695 1.553-1.553v-9.41c0-1.132.44-2.197 1.242-2.998.802-.802 1.866-1.243 2.998-1.243 2.337 0 4.24 1.903 4.24 4.242v20.41c0 .858.695 1.553 1.552 1.553.858 0 1.553-.695 1.553-1.553 0-1.813 1.475-3.287 3.287-3.287h.388c1.812 0 3.287 1.474 3.287 3.287v4.938c0 .857.695 1.552 1.553 1.552.857 0 1.553-.695 1.553-1.552 0-.872.34-1.693.958-2.311.614-.615 1.433-.954 2.307-.954 1.801 0 3.267 1.464 3.267 3.265v3.318c0 .688.452 1.294 1.111 1.49l.447.132c.714.211 1.477-.114 1.82-.774.424-.818 1.258-1.326 2.176-1.326h.027c1.352 0 2.451 1.1 2.451 2.451v39.193h-27v-.648c0-.032-.002-.064-.004-.096-.207-3.358-2.786-6.913-7.663-10.566-5.1-3.825-8.144-9.96-8.144-16.411v-3.657c0-1.75 1.425-3.175 3.176-3.175h.313v8.07c0 .857.696 1.552 1.553 1.552.858 0 1.553-.695 1.553-1.552v-9.622l-.001-.018V38.947c0-.858-.695-1.553-1.553-1.553-.857 0-1.553.695-1.553 1.553v15.819h-.312c-3.464 0-6.281 2.817-6.281 6.28v3.657c0 7.424 3.509 14.488 9.387 18.896 4.032 3.02 6.252 5.865 6.423 8.229v.596h-1.096c-.857 0-1.552.695-1.552 1.553V104.3c0 .858.695 1.553 1.552 1.553h21.177c.426 0 .833-.175 1.126-.483.293-.308.447-.724.425-1.149l-.005-.077c-.07-.821-.772-1.45-1.607-1.42-.072.003-.142.01-.212.023h-19.35V95.53h32.609v7.22h-5.77c-.107-.02-.218-.027-.331-.023-.833.031-1.487.713-1.494 1.538v.076c.021.842.71 1.514 1.552 1.514h7.595c.858 0 1.553-.696 1.553-1.553V93.976c0-.857-.695-1.552-1.553-1.552zm-36.492-77.18c-1.96 0-3.805.765-5.192 2.153-.819.818-1.418 1.796-1.774 2.862V3.969c0-.39.32-.71.712-.71h34.234c.393 0 .712.32.712.71v17.285c0 .393-.32.713-.712.713H49.455c-.318-3.76-3.477-6.723-7.317-6.723z"/>
        <path fill="#000" d="M45.62 98.332v.925c0 .858.695 1.553 1.552 1.553.858 0 1.553-.695 1.553-1.553v-.925c0-.858-.695-1.553-1.553-1.553-.857 0-1.552.695-1.552 1.553z"/>
    </g>
</svg>