<svg xmlns="http://www.w3.org/2000/svg" width="89" height="89" viewBox="0 0 89 89">
    <g fill="none">
        <g>
            <path fill="#E49542" d="M60.48.135C50.186.135 52 8.627 41.705 8.627 39.22 8.627 24.625.135 22.14.135H2.522c-3.346 19.174-3.346 38.783 0 57.958H60.48c3.347-19.175 3.347-38.784 0-57.958z" transform="translate(0 29.906)"/>
            <path fill="#E28424" d="M11.888 58.094H2.522C-.82 38.918-.82 19.31 2.522.134h9.366c-3.348 19.177-3.348 38.784 0 57.96z" transform="translate(0 29.906)"/>
            <path fill="#DB5C6E" d="M40.864 24.507l-8.491-5.353c-.533-.336-1.21-.336-1.743 0l-5.985 3.773c-1.088.686-2.506-.096-2.506-1.383V.134h18.725v24.373z" transform="translate(0 29.906)"/>
        </g>
        <g>
            <path fill="#EDEDED" d="M32.456.124C23.53-.2 14.607.112 5.684 1.062c-2.482.263-4.426 2.251-4.624 4.739-1.286 16.128-1.286 32.256 0 48.385.198 2.487 2.142 4.475 4.624 4.739 13.31 1.416 26.622 1.416 39.934 0 2.48-.264 4.425-2.252 4.624-4.74.96-12.046 1.204-24.09.729-36.136" transform="translate(36.781)"/>
            <path fill="#DBDBDB" d="M50.97 18.05c-4.386-.158-8.773-.471-13.16-.938-2.482-.264-4.427-2.252-4.625-4.74-.326-4.082-.569-8.165-.729-12.248C36.843.282 50.81 13.967 50.971 18.05z" transform="translate(36.781)"/>
            <g>
                <path fill="#95D6A4" d="M3.59 10.492c-.477 0-.917-.254-1.154-.669L.275 6.04C-.09 5.404.132 4.592.769 4.228c.636-.363 1.448-.142 1.812.495l.944 1.652L6.37.814C6.704.16 7.505-.097 8.157.236c.653.335.911 1.135.577 1.787L4.772 9.77c-.222.434-.665.711-1.152.723h-.03z" transform="translate(36.781) translate(6.188 15.813)"/>
                <g fill="#407093">
                    <path d="M14.087 2.699H1.39C.657 2.699.063 2.104.063 1.37.063.637.657.043 1.39.043h12.696c.733 0 1.328.594 1.328 1.328 0 .733-.595 1.328-1.328 1.328zM25.888 7.382H1.391c-.734 0-1.328-.594-1.328-1.328 0-.733.594-1.328 1.328-1.328h24.497c.734 0 1.328.595 1.328 1.328 0 .734-.594 1.328-1.328 1.328z" transform="translate(36.781) translate(6.188 15.813) translate(10.484 2.75)"/>
                </g>
            </g>
            <g>
                <path fill="#95D6A4" d="M3.59 10.57c-.477 0-.917-.254-1.154-.668L.275 6.119C-.09 5.482.132 4.67.769 4.307c.636-.364 1.448-.143 1.812.494l.944 1.652L6.37.893C6.704.238 7.505-.02 8.157.314c.653.334.911 1.134.577 1.787L4.772 9.848c-.222.434-.665.711-1.152.722h-.03z" transform="translate(36.781) translate(6.188 28.703)"/>
                <g fill="#407093">
                    <path d="M14.087 2.777H1.39C.657 2.777.063 2.183.063 1.45.063.716.657.121 1.39.121h12.696c.733 0 1.328.595 1.328 1.328 0 .734-.595 1.328-1.328 1.328zM25.478 7.46H1.39C.657 7.46.062 6.866.062 6.132c0-.733.595-1.328 1.328-1.328h24.088c.734 0 1.328.595 1.328 1.328 0 .734-.594 1.328-1.328 1.328z" transform="translate(36.781) translate(6.188 28.703) translate(10.484 2.75)"/>
                </g>
            </g>
            <g>
                <path fill="#95D6A4" d="M3.59 10.477c-.477 0-.917-.254-1.154-.669L.275 6.026C-.09 5.389.132 4.578.769 4.214c.636-.364 1.448-.143 1.812.494l.944 1.652L6.37.799C6.704.146 7.505-.112 8.157.222c.653.334.911 1.134.577 1.787L4.772 9.754c-.222.434-.665.712-1.152.723h-.03z" transform="translate(36.781) translate(6.188 41.766)"/>
                <g fill="#407093">
                    <path d="M14.087 2.684H1.39c-.734 0-1.328-.595-1.328-1.328C.063.623.657.028 1.39.028h12.696c.733 0 1.328.595 1.328 1.328 0 .733-.595 1.328-1.328 1.328zM15.926 7.368H1.39C.657 7.368.062 6.773.062 6.04c0-.733.595-1.328 1.328-1.328h14.536c.734 0 1.328.595 1.328 1.328 0 .733-.595 1.328-1.328 1.328z" transform="translate(36.781) translate(6.188 41.766) translate(10.484 2.75)"/>
                </g>
            </g>
        </g>
        <g>
            <path fill="#EDEDED" d="M16.208 18.54c-4.514.379-9.028.379-13.542 0C1.43 18.437.453 17.46.35 16.224-.03 11.71-.03 7.196.35 2.682.453 1.446 1.43.469 2.666.365c4.514-.378 9.028-.378 13.542 0 1.236.104 2.213 1.081 2.316 2.317.379 4.514.379 9.028 0 13.542-.103 1.235-1.08 2.213-2.316 2.316z" transform="translate(6.703 62.563)"/>
            <g fill="#DBDBDB">
                <path d="M10.906 2.814H1.437c-.733 0-1.328-.595-1.328-1.328C.11.753.704.158 1.437.158h9.469c.733 0 1.328.595 1.328 1.328 0 .733-.595 1.328-1.328 1.328zM10.906 8.091H1.437c-.733 0-1.328-.594-1.328-1.328 0-.733.595-1.327 1.328-1.327h9.469c.733 0 1.328.594 1.328 1.327 0 .734-.595 1.328-1.328 1.328z" transform="translate(6.703 62.563) translate(3.266 5.328)"/>
            </g>
        </g>
    </g>
</svg>
