<svg xmlns="http://www.w3.org/2000/svg" width="16" height="16" viewBox="0 0 16 16">
    <g fill="none">
        <path fill="#579FD7" d="M8 0C3.589 0 0 3.589 0 8s3.589 8 8 8 8-3.589 8-8-3.589-8-8-8z"/>
        <path fill="#FAFAFA" d="M11.5 8.667H8.667V11.5c0 .368-.299.667-.667.667-.368 0-.667-.299-.667-.667V8.667H4.5c-.368 0-.667-.299-.667-.667 0-.368.299-.667.667-.667h2.833V4.5c0-.368.299-.667.667-.667.368 0 .667.299.667.667v2.833H11.5c.368 0 .667.299.667.667 0 .368-.299.667-.667.667z"/>
    </g>
</svg>
