<svg xmlns="http://www.w3.org/2000/svg" width="18" height="24" viewBox="0 0 18 24">
    <g fill="none">
        <path fill="#579FD7" d="M9 0C4.032.006.006 4.032 0 9c0 6.341 7.954 14.369 8.293 14.707.393.385 1.021.385 1.414 0C10.046 23.37 18 15.341 18 9c-.006-4.968-4.032-8.994-9-9zm0 15c-3.314 0-6-2.686-6-6s2.686-6 6-6 6 2.686 6 6-2.686 6-6 6z"/>
        <path fill="#A7D9FF" d="M13.224 7.553l-4-2c-.141-.07-.307-.07-.448 0l-4 2 .448.894L6.5 7.81V11c0 .276.224.5.5.5h4c.276 0 .5-.224.5-.5V7.809l1.276.638.448-.894z"/>
    </g>
</svg>
