<svg xmlns="http://www.w3.org/2000/svg" width="32" height="32" viewBox="0 0 32 32">
    <g fill="none" fill-rule="evenodd">
        <g fill-rule="nonzero">
            <path fill="#6D7278" d="M6.573 4.609l1.194-.5c.146-.061.31-.061.456 0l1.194.5V.019H6.573v4.59z" transform="translate(8 8)"/>
            <path fill="#604325" d="M15.99 14.56c0 .799-.65 1.449-1.449 1.449H1.448C.65 16.009 0 15.359 0 14.56V1.467C0 .67.65.02 1.448.02h3.946v5.476c0 .197.098.381.263.49.025.017.05.032.078.045.017.008.034.014.05.02l-.05-.02c.027.012.056.023.084.031l-.034-.01c.025.008.05.015.076.02l-.042-.01c.033.01.066.016.1.02l-.058-.01c.028.007.057.01.085.012l-.028-.002c.064.007.13.004.194-.01l.008-.003.09-.03 1.785-.746 1.784.747.09.029.013.003c.054.012.108.016.162.012l.027-.002-.027.002c.029-.002.058-.006.087-.012l-.06.01c.033-.004.065-.01.097-.02l-.037.01c.026-.005.05-.013.075-.021l-.038.012c.058-.017.114-.042.165-.076.164-.11.263-.294.263-.491V.019h3.945c.799 0 1.449.65 1.449 1.448V14.56z" transform="translate(8 8)"/>
        </g>
    </g>
</svg>