<svg xmlns="http://www.w3.org/2000/svg" width="32" height="32" fill="none" viewBox="0 0 32 32">
    <path fill="#A7D9FF" d="M18.993 13.784l1.734.393c.25.056.497-.1.554-.35l1.555-6.87c.056-.248-.1-.496-.35-.553l-1.734-.392c-.249-.057-.497.1-.553.349l-1.556 6.87c-.056.249.1.497.35.553z"/>
    <path fill="#88CBFF" d="M22.835 6.958l-.084.372-3.234 2.04.681-3.01c.056-.249.304-.405.554-.348l1.734.392c.25.057.406.305.35.554zM16.465 12.404l-4.905 1.012c-.39.08-.77-.17-.85-.56l-.852-4.13c-.08-.389.17-.77.56-.85l4.905-1.012c.39-.08.77.17.85.56l.852 4.13c.08.39-.17.77-.56.85z"/>
    <path fill="#A7D9FF" d="M12.525 7.441l-2.108.435c-.389.08-.64.461-.56.85l.443 2.142c.384.175.825.234 1.27.142 1.117-.23 1.837-1.323 1.606-2.441-.094-.454-.33-.842-.651-1.128z"/>
    <path fill="#76C9D2" d="M17.468 12.63c1.49 0 2.699-1.208 2.699-2.698s-1.208-2.698-2.699-2.698c-1.49 0-2.697 1.208-2.697 2.698s1.207 2.698 2.697 2.698z"/>
    <path fill="#A7D9FF" d="M17.468 12.63c1.49 0 2.699-1.208 2.699-2.698s-1.208-2.698-2.699-2.698c-1.49 0-2.697 1.208-2.697 2.698s1.207 2.698 2.697 2.698z"/>
    <path fill="#88CBFF" d="M17.468 11.681c.966 0 1.75-.783 1.75-1.749 0-.965-.784-1.748-1.75-1.748-.965 0-1.748.783-1.748 1.748 0 .966.783 1.749 1.748 1.749z"/>
    <path fill="#579FD7" d="M9.393 9.772l.761.545c.175.125.41.125.584 0L11.6 9.7c.174-.125.41-.125.584 0l.862.618c.174.125.409.125.583 0l.863-.618c.174-.125.409-.125.583 0l.862.618c.175.125.41.125.584 0l.862-.618c.175-.125.41-.125.584 0l.862.618c.175.125.41.125.584 0l.862-.618c.174-.125.41-.125.584 0l.862.618c.174.125.41.125.584 0l.76-.545c.165-.118.393 0 .393.202V25.08c0 .508-.411.92-.92.92H9.92c-.508 0-.92-.412-.92-.92V9.974c0-.203.229-.32.393-.202z"/>
</svg>
