<svg xmlns="http://www.w3.org/2000/svg" width="24" height="20" viewBox="0 0 24 20">
    <path fill="#212C3D" d="M4 0H.8C.358 0 0 .358 0 .8V4c0 .442.358.8.8.8.442 0 .8-.358.8-.8V1.6H4c.442 0 .8-.358.8-.8C4.8.358 4.442 0 4 0zm19.2 14.4c-.442 0-.8.358-.8.8v2.4H20c-.442 0-.8.358-.8.8 0 .442.358.8.8.8h3.2c.442 0 .8-.358.8-.8v-3.2c0-.442-.358-.8-.8-.8zm0-14.4H20c-.442 0-.8.358-.8.8 0 .442.358.8.8.8h2.4V4c0 .442.358.8.8.8.442 0 .8-.358.8-.8V.8c0-.442-.358-.8-.8-.8zM4 17.6H1.6v-2.4c0-.442-.358-.8-.8-.8-.442 0-.8.358-.8.8v3.2c0 .442.358.8.8.8H4c.442 0 .8-.358.8-.8 0-.442-.358-.8-.8-.8zM3.2 3.2h1.6V16H3.2V3.2zm3.2 0H8v9.6H6.4V3.2zm3.2 0h1.6v9.6H9.6V3.2zm3.2 0h1.6V16h-1.6V3.2zm3.2 0h1.6v9.6H16V3.2zm3.2 0h1.6V16h-1.6V3.2zM6.4 14.4H8V16H6.4v-1.6zm3.2 0h1.6V16H9.6v-1.6zm6.4 0h1.6V16H16v-1.6z"/>
</svg>
