<svg xmlns="http://www.w3.org/2000/svg" width="88" height="74" viewBox="0 0 88 74">
    <g fill="none" transform="matrix(-1 0 0 1 88 0)">
        <path fill="#D0D2D4" d="M82.133 64.933H23.467c-3.239-.003-5.863-2.628-5.867-5.866v-2.934c.004-3.238 2.628-5.863 5.867-5.866h1.466c.81 0 1.467.656 1.467 1.466 0 .81-.657 1.467-1.467 1.467h-1.466c-1.62.002-2.932 1.314-2.934 2.933v2.934c.002 1.619 1.314 2.931 2.934 2.933h58.666c.81 0 1.467.657 1.467 1.467s-.657 1.466-1.467 1.466z"/>
        <circle cx="29.333" cy="67.867" r="5.867" fill="#7E8589"/>
        <circle cx="70.4" cy="67.867" r="5.867" fill="#7E8589"/>
        <circle cx="29.333" cy="67.867" r="1.467" fill="#414649"/>
        <circle cx="70.4" cy="67.867" r="1.467" fill="#414649"/>
        <path fill="#D0D2D4" d="M87.671 15.608c-.278-.342-.696-.541-1.138-.541H16.346L13.16 1.53C13.005.868 12.414.4 11.733.4H1.467C.657.4 0 1.057 0 1.867s.657 1.466 1.467 1.466h9.105L22.039 52.07c.156.663.747 1.131 1.428 1.131H79.2c.695 0 1.294-.487 1.436-1.167l7.333-35.2c.09-.433-.02-.882-.298-1.225zM60.073 18h11.599l-.734 5.867h-11.11L60.073 18zm-17.48 0l.244 5.867h-11.11L30.994 18h11.6zm-25.557 0H28.04l.733 5.867H18.417L17.037 18zm2.071 8.8h10.032l.733 5.867h-9.385l-1.38-5.867zm2.07 8.8h9.062l.733 5.867h-8.415l-1.38-5.867zm3.452 14.667l-1.38-5.867h8.09l.733 5.867H24.63zM32.095 26.8H42.96l.245 5.867H32.828l-.733-5.867zm1.1 8.8h10.132l.244 5.867h-9.643l-.733-5.867zm1.833 14.667l-.733-5.867h9.398l.245 5.867h-8.91zm20.765 0h-8.92L46.63 44.4h9.408l-.244 5.867zm.367-8.8h-9.653l-.245-5.867h10.142l-.244 5.867zm.367-8.8H46.14l-.244-5.867H56.77l-.244 5.867zm.366-8.8h-11.12L45.53 18h11.608l-.244 5.867zm10.746 26.4h-8.91l.244-5.867h9.399l-.733 5.867zm1.1-8.8h-9.644l.245-5.867h10.132l-.733 5.867zm1.1-8.8H59.462l.245-5.867h10.865l-.733 5.867zm8.17 17.6h-7.414l.733-5.867h7.902l-1.222 5.867zm1.833-8.8h-8.147l.733-5.867h8.635l-1.221 5.867zm1.833-8.8h-8.88l.733-5.867h9.368l-1.221 5.867zm1.833-8.8h-9.613L74.628 18H84.73l-1.222 5.867z"/>
    </g>
</svg>
