<svg xmlns="http://www.w3.org/2000/svg" width="16" height="16" viewBox="0 0 16 16">
    <g fill="none">
        <path fill="#FFC14D" d="M13.505 16H2.495c-.864 0-1.667-.448-2.122-1.183-.455-.736-.496-1.654-.11-2.428L5.767 1.38C6.19.534 7.054 0 8 0c.946 0 1.81.534 2.233 1.38l5.504 11.01c.386.773.345 1.691-.11 2.427-.454.735-1.258 1.183-2.122 1.183z"/>
        <g fill="#FFF">
            <path d="M.753.007c.394 0 .713.24.713.534v6.416c0 .296-.32.535-.713.535-.394 0-.713-.24-.713-.535V.541C.04.246.36.007.753.007zM.04 8.562L1.466 8.562 1.466 9.631.04 9.631z" transform="translate(6.857 3.429)"/>
        </g>
    </g>
</svg>
