<?xml version="1.0" encoding="UTF-8"?>
<svg width="16px" height="13px" viewBox="0 0 16 13" version="1.1" xmlns="http://www.w3.org/2000/svg" xmlns:xlink="http://www.w3.org/1999/xlink">
    <!-- Generator: sketchtool 64 (101010) - https://sketch.com -->
    <title>480471E7-4475-432A-9326-B8D117AFD101</title>
    <desc>Created with sketchtool.</desc>
    <g id="Page-1" stroke="none" stroke-width="1" fill="none" fill-rule="evenodd">
        <g id="Add_Agent-to-team" transform="translate(-324.000000, -244.000000)" fill-rule="nonzero">
            <g id="checkmark-copy" transform="translate(320.000000, 239.000000)">
                <rect id="Rectangle" fill="#000000" opacity="0" x="0" y="0" width="24" height="24"></rect>
                <path d="M9.86,18 C9.58283494,17.9991084 9.31847178,17.8832232 9.13,17.68 L4.27,12.51 C3.89168495,12.1068321 3.91183213,11.4733151 4.315,11.095 C4.71816787,10.7166849 5.35168495,10.7368321 5.73,11.14 L9.85,15.53 L18.26,6.33 C18.4925515,6.04041485 18.8664394,5.90356737 19.2309842,5.97460808 C19.5955291,6.0456488 19.8906733,6.31287396 19.9974716,6.66858993 C20.10427,7.02430591 20.0051278,7.40990961 19.74,7.67 L10.6,17.67 C10.4132861,17.8769226 10.1486881,17.9965354 9.87,18 L9.86,18 Z" id="Path" fill="#579FD7"></path>
            </g>
        </g>
    </g>
</svg>