<svg xmlns="http://www.w3.org/2000/svg" width="14" height="14" viewBox="0 0 14 14">
    <g fill="none">
        <path fill="#A3ACB3" d="M8 1.333C4.318 1.333 1.333 4.318 1.333 8S4.318 14.667 8 14.667 14.667 11.682 14.667 8c0-1.768-.703-3.464-1.953-4.714C11.464 2.036 9.768 1.333 8 1.333zM9.807 8.86c.126.125.197.296.197.473 0 .178-.071.348-.197.474s-.296.197-.474.197c-.177 0-.348-.071-.473-.197L8 8.94l-.86.867c-.125.126-.296.197-.473.197-.178 0-.348-.071-.474-.197s-.197-.296-.197-.474c0-.177.071-.348.197-.473L7.06 8l-.867-.86c-.261-.261-.261-.685 0-.947.262-.261.686-.261.947 0L8 7.06l.86-.867c.261-.261.685-.261.947 0 .261.262.261.686 0 .947L8.94 8l.867.86z" transform="translate(-1 -1)"/>
    </g>
</svg>
