<svg xmlns="http://www.w3.org/2000/svg" width="12" height="12" viewBox="0 0 12 12">
    <g fill="none">
        <path fill="#212C3D" d="M13.41 12l4.3-4.29c.392-.392.392-1.028 0-1.42-.392-.392-1.028-.392-1.42 0L12 10.59l-4.29-4.3c-.392-.392-1.028-.392-1.42 0-.392.392-.392 1.028 0 1.42l4.3 4.29-4.3 4.29c-.19.188-.296.443-.296.71 0 .267.107.522.296.71.188.19.443.296.71.296.267 0 .522-.107.71-.296l4.29-4.3 4.29 4.3c.188.19.443.296.71.296.267 0 .522-.107.71-.296.19-.188.296-.443.296-.71 0-.267-.107-.522-.296-.71L13.41 12z" transform="translate(-6 -6)"/>
    </g>
</svg>
