<svg xmlns="http://www.w3.org/2000/svg" width="15" height="18" viewBox="0 0 15 18">
    <g fill="none" fill-rule="evenodd">
        <path fill="#212C3D" fill-rule="nonzero" d="M18.063 5.25h-1.688V3.562c0-.31-.252-.562-.563-.562H5.688C4.758 3 4 3.757 4 4.688V18.75C4 19.99 5.01 21 6.25 21h11.813c.31 0 .562-.252.562-.563V5.813c0-.31-.252-.562-.563-.562zM15.25 17.063c0 .31-.252.562-.563.562h-6.75c-.31 0-.562-.252-.562-.563v-1.125c0-1.55 1.262-2.812 2.813-2.812h2.25c1.55 0 2.812 1.261 2.812 2.813v1.124zM9.062 9.75c0-1.24 1.01-2.25 2.25-2.25 1.241 0 2.25 1.01 2.25 2.25S12.553 12 11.313 12c-1.24 0-2.25-1.01-2.25-2.25zm6.188-4.5H5.687c-.31 0-.562-.252-.562-.563 0-.31.252-.562.563-.562h9.562V5.25z" transform="translate(-4 -3)"/>
    </g>
</svg>
