<svg xmlns="http://www.w3.org/2000/svg" width="111" height="100" viewBox="0 0 111 100">
    <g fill="none">
        <g fill="#444966">
            <path d="M23.92 15.48c-.285 0-.573-.074-.836-.23L2.632 3.144c-.781-.462-1.04-1.47-.577-2.25.462-.781 1.47-1.04 2.25-.577l20.453 12.106c.78.462 1.039 1.47.577 2.25-.307.518-.854.806-1.416.806z" transform="translate(8.654 10.385)"/>
            <path d="M23.921 15.48H1.697c-.908 0-1.643-.736-1.643-1.644 0-.907.735-1.642 1.643-1.642H23.92c.908 0 1.643.735 1.643 1.642 0 .908-.736 1.643-1.643 1.643z" transform="translate(8.654 10.385)"/>
        </g>
        <path fill="#48CFB7" d="M74.14 67.248L44.992 24.22 56.2 8.031C58.548 4.64 56.12.008 51.998.008h-26.43c-4.123 0-6.55 4.63-4.202 8.021l11.209 16.191L3.426 67.248C1.193 70.543 0 74.432 0 78.413c0 10.995 8.913 19.908 19.908 19.908h37.75c10.996 0 19.908-8.913 19.908-19.908 0-3.98-1.193-7.87-3.426-11.165z"/>
        <path fill="#35B5A0" d="M74.14 67.248L44.992 24.22 56.2 8.031C58.548 4.64 56.12.008 51.998.008h-4.79c3.743 0 5.946 4.63 3.815 8.021L40.846 24.221 67.31 67.248c2.027 3.295 3.11 7.185 3.11 11.165 0 10.995-8.092 19.908-18.073 19.908h5.312c10.995 0 19.908-8.913 19.908-19.908 0-3.98-1.194-7.87-3.427-11.165z"/>
        <path fill="#2E344C" d="M46.326 25.864H30.774c-.907 0-1.642-.736-1.642-1.643s.735-1.643 1.642-1.643h15.552c.907 0 1.643.736 1.643 1.643s-.736 1.643-1.643 1.643z"/>
        <path fill="#FCAB29" d="M85.042 48.489c-14.186 0-25.727 11.541-25.727 25.727s11.541 25.727 25.727 25.727 25.727-11.54 25.727-25.727c0-14.186-11.541-25.727-25.727-25.727z"/>
        <path fill="#DD8D19" d="M99.114 52.69c4.923 4.689 7.995 11.304 7.995 18.623 0 14.186-11.541 25.727-25.727 25.727-5.19 0-10.026-1.547-14.073-4.2 4.619 4.399 10.866 7.103 17.733 7.103 14.186 0 25.727-11.54 25.727-25.727 0-8.995-4.642-16.926-11.655-21.526z"/>
        <circle cx="85.041" cy="74.215" r="17.344" fill="#F2DF33"/>
        <path fill="#FCAB29" d="M80.788 80.308v-5.45h4.674l4.393 5.45h1.767v-5.45h2.347v-1.206h-2.347v-1.766h2.347V70.68h-2.347v-5.45h-2.154v5.45h-4.674l-4.372-5.45h-1.767v5.45h-2.347v1.206h2.347v1.766h-2.347v1.206h2.347v5.45h2.133zm1.314-9.628h-1.314v-1.637l1.314 1.637zm2.39 2.972h-3.704v-1.766h2.283l1.421 1.766zm4.976 0h-2.283l-1.422-1.766h3.705v1.766zm0 2.843l-1.314-1.637h1.314v1.637z"/>
        <g fill="#1B3D66">
            <path d="M10.53 12.388L6.624 9.265c-.004-.003-.009-.005-.013-.009-.068-.053-.14-.102-.217-.144l-.004-.003c-.073-.04-.15-.073-.23-.102l-.033-.012c-.075-.025-.152-.045-.231-.059l-.042-.006c-.08-.012-.16-.02-.243-.02-.083 0-.164.008-.243.02l-.042.006c-.08.014-.157.034-.232.059l-.032.012c-.08.028-.157.062-.23.102-.002 0-.003.002-.005.003-.076.042-.148.09-.216.144l-.014.009-3.904 3.123c-.7.56-.813 1.581-.253 2.281.56.7 1.58.813 2.28.253l1.269-1.014v14.876c0 .897.726 1.623 1.622 1.623.896 0 1.623-.726 1.623-1.623V13.908l1.268 1.014c.299.24.657.356 1.012.356.476 0 .948-.208 1.268-.609.56-.7.446-1.72-.254-2.28zM30.929 3.686L27.024.563c-.004-.004-.009-.005-.013-.009-.068-.054-.14-.102-.216-.144L26.79.407c-.073-.04-.15-.073-.23-.102l-.032-.012c-.075-.025-.153-.045-.232-.059l-.042-.006c-.08-.012-.16-.02-.243-.02-.083 0-.163.008-.243.02l-.042.006c-.08.014-.157.034-.232.059l-.032.012c-.08.028-.157.062-.23.102-.002 0-.003.002-.005.003-.076.042-.148.09-.216.144-.004.004-.01.005-.013.009l-3.904 3.123c-.7.56-.814 1.581-.254 2.281.56.7 1.58.813 2.28.253l1.269-1.014v14.876c0 .896.726 1.623 1.623 1.623.896 0 1.622-.727 1.622-1.623V5.206l1.268 1.014c.3.24.657.356 1.013.356.476 0 .947-.208 1.268-.609.559-.7.445-1.72-.254-2.28z" transform="translate(69.23 13.413)"/>
        </g>
    </g>
</svg>
