<svg xmlns="http://www.w3.org/2000/svg" width="32" height="32" viewBox="0 0 32 32">
    <g fill="none" fill-rule="evenodd">
        <g fill="#A7D9FF" fill-rule="nonzero">
            <path d="M5.309.005c-1.761 0-3.194 1.52-3.194 3.387s1.433 3.386 3.194 3.386S8.503 5.26 8.503 3.392C8.503 1.524 7.07.005 5.31.005zM10.608 12.663c-.097-1.558-.887-2.929-2.066-3.807-.857-.64-1.921-1.018-3.073-1.018h-.32C2.306 7.838 0 10.143 0 12.988v.61h10.618v-.61c0-.11-.003-.218-.01-.325z" transform="translate(17 9)"/>
        </g>
        <g fill="#579FD7" fill-rule="nonzero">
            <path d="M7.584.007c-2.516 0-4.563 2.17-4.563 4.838s2.047 4.838 4.563 4.838c2.516 0 4.564-2.17 4.564-4.838S10.1.007 7.584.007zM15.154 18.09c-.138-2.226-1.267-4.184-2.95-5.44-1.226-.912-2.746-1.453-4.392-1.453h-.456C3.293 11.197 0 14.491 0 18.554v.873h15.168v-.873c0-.156-.004-.31-.014-.464z" transform="translate(8 6)"/>
        </g>
    </g>
</svg>
