<svg xmlns="http://www.w3.org/2000/svg" width="20" height="20" viewBox="0 0 20 20">
    <g fill="none">
        <path fill="#E02020" d="M25 10.001h-5v-1.67c-.049-1.333-1.167-2.375-2.5-2.33h-3c-1.333-.045-2.451.997-2.5 2.33v1.67H7c-.552 0-1 .448-1 1s.448 1 1 1h1v11C8 24.656 9.343 26 11 26h10c1.657 0 3-1.343 3-3V12.001h1c.552 0 1-.448 1-1s-.448-1-1-1zm-11 10c0 .552-.448 1-1 1s-1-.448-1-1v-4c0-.553.448-1 1-1s1 .447 1 1v4zm0-11.67c0-.16.21-.33.5-.33h3c.29 0 .5.17.5.33v1.67h-4v-1.67zm6 11.67c0 .552-.448 1-1 1s-1-.448-1-1v-4c0-.553.448-1 1-1s1 .447 1 1v4z" transform="translate(-6 -6)"/>
    </g>
</svg>
