
<svg xmlns="http://www.w3.org/2000/svg" width="32" height="32" viewBox="0 0 32 32">
    <g fill="none" fill-rule="evenodd">
        <g fill-rule="nonzero">
            <path fill="#4E9700" d="M0 10.51c0 .206.144.367.349.367h.557c.374-.825 1.225-1.45 2.214-1.45.99 0 1.841.625 2.215 1.45h7.238V7.916H0v2.595z" transform="translate(6 9)"/>
            <path fill="#6D7278" d="M3.12 10.21c-.906 0-1.64.735-1.64 1.641s.734 1.641 1.64 1.641c.907 0 1.64-.735 1.642-1.641 0-.906-.735-1.641-1.642-1.641z" transform="translate(6 9)"/>
            <path fill="#4E9700" d="M19.786 6.71l-1.563-.687H13.35v4.854h.946c.374-.825 1.225-1.45 2.214-1.45.99 0 1.841.625 2.215 1.45h.926c.205 0 .349-.161.349-.366V7.063c.005-.15-.079-.289-.214-.353z" transform="translate(6 9)"/>
            <path fill="#B9F17E" d="M16.616 3.224c-.195-.374-.584-.606-1.006-.6h-2.26v2.622h4.316l-1.05-2.022zM11.458.003H1.108C.486.003 0 .517 0 1.141V7.14h12.573V1.141v-.005c.005-.62-.494-1.128-1.115-1.133z" transform="translate(6 9)"/>
            <path fill="#6D7278" d="M16.51 10.21c-.906 0-1.64.735-1.64 1.641s.734 1.641 1.64 1.641c.907 0 1.64-.735 1.642-1.641 0-.906-.735-1.641-1.642-1.641z" transform="translate(6 9)"/>
        </g>
    </g>
</svg>
