
<svg xmlns="http://www.w3.org/2000/svg" width="32" height="32" viewBox="0 0 32 32">
    <g fill="none" fill-rule="evenodd">
        <path fill="#579FD7" fill-rule="nonzero" d="M11.366 19.024l3.105 1.227V7.25c0-.138.112-.249.249-.249h2.488c.138 0 .249.111.249.249V20.25l3.106-1.227c.104-.04.223-.007.29.082.068.09.067.212-.002.301l-4.69 6.1c-.047.061-.12.097-.197.097-.077 0-.15-.036-.197-.097l-4.69-6.1c-.034-.045-.051-.098-.051-.152 0-.051.016-.105.05-.15.067-.089.186-.122.29-.081z"/>
    </g>
</svg>