<svg xmlns="http://www.w3.org/2000/svg" width="32" height="32" viewBox="0 0 32 32">
    <g fill="none" fill-rule="evenodd">
        <g fill-rule="nonzero">
            <path fill="#FFC14D" d="M16.895 19.997H3.136c-1.08 0-2.084-.56-2.652-1.48-.568-.918-.62-2.066-.137-3.033L7.225 1.725C7.753.668 8.834 0 10.015 0c1.182 0 2.263.668 2.79 1.725l6.88 13.759c.482.967.43 2.115-.138 3.034-.568.92-1.572 1.479-2.652 1.479z" transform="translate(6 6)"/>
            <g fill="#FFF">
                <path d="M.659.008c.344 0 .624.28.624.624v7.485c0 .345-.28.624-.624.624-.345 0-.624-.28-.624-.624V.632c0-.345.28-.624.624-.624zM.035 9.988L1.283 9.988 1.283 11.236.035 11.236z" transform="translate(6 6) translate(9.357 4.99)"/>
            </g>
        </g>
    </g>
</svg>