<svg xmlns="http://www.w3.org/2000/svg" width="32" height="32" viewBox="0 0 32 32">
    <g fill="none" fill-rule="evenodd">
        <g fill="#FFC14D" fill-rule="nonzero">
            <path d="M10 0C4.478 0 0 4.478 0 10c0 5.523 4.478 10 10 10 5.523 0 10-4.477 10-10 0-5.522-4.477-10-10-10zm0 18.393c-4.636 0-8.393-3.758-8.393-8.393 0-4.636 3.758-8.393 8.393-8.393 4.636 0 8.393 3.758 8.393 8.393-.005 4.633-3.76 8.388-8.393 8.393z" transform="translate(6 6)"/>
            <path d="M16.788 10C16.782 6.253 13.746 3.217 10 3.213v13.575c3.747-.006 6.783-3.042 6.788-6.788z" transform="translate(6 6)"/>
        </g>
    </g>
</svg>