<svg xmlns="http://www.w3.org/2000/svg" width="15" height="15" fill="none" viewBox="0 0 15 15">
    <path fill="#fff" fill-rule="evenodd" d="M3.606 0h7.21c1.992 0 3.606 1.614 3.606 3.606v7.21c0 1.992-1.614 3.606-3.605 3.606H3.606C1.614 14.422 0 12.808 0 10.817V3.606C0 1.614 1.614 0 3.606 0z" clip-rule="evenodd"/>
    <path fill="#22A8FF" fill-rule="evenodd" d="M4.056 1.352c1.494 0 2.705 1.21 2.705 2.704 0 1.494-1.211 2.705-2.705 2.705-1.493 0-2.704-1.211-2.704-2.705 0-1.493 1.21-2.704 2.704-2.704z" clip-rule="evenodd" opacity=".9"/>
    <path fill="#22A8FF" fill-rule="evenodd" d="M10.366 1.352c1.494 0 2.704 1.21 2.704 2.704 0 1.494-1.21 2.705-2.704 2.705-1.493 0-2.704-1.211-2.704-2.705 0-1.493 1.21-2.704 2.704-2.704zM4.056 7.662c1.494 0 2.705 1.21 2.705 2.704 0 1.494-1.211 2.704-2.705 2.704-1.493 0-2.704-1.21-2.704-2.704 0-1.493 1.21-2.704 2.704-2.704z" clip-rule="evenodd" opacity=".5"/>
</svg>
