<svg xmlns="http://www.w3.org/2000/svg" width="20" height="14" viewBox="0 0 20 14">
    <g fill="none">
        <path fill="#A7D9FF" d="M2.14 3.737c0 1.511 1.321 2.74 2.944 2.74 1.624 0 2.944-1.229 2.944-2.74 0-1.511-1.32-2.74-2.944-2.74-1.623 0-2.943 1.229-2.943 2.74zM0 11.143c0 .175.152.317.339.317h9.49c.188 0 .34-.142.34-.317 0-2.274-1.977-4.167-4.407-4.167H4.407C1.977 6.976 0 8.869 0 11.143zM11.775 3.737c0 1.511 1.32 2.74 2.943 2.74s2.944-1.229 2.944-2.74c0-1.511-1.32-2.74-2.944-2.74-1.623 0-2.943 1.229-2.943 2.74z"/>
        <path fill="#A7D9FF" d="M9.634 11.143c0 .175.151.317.339.317h9.49c.188 0 .34-.142.34-.317 0-2.274-1.977-4.167-4.407-4.167H14.04c-2.43 0-4.406 1.893-4.406 4.167z"/>
        <path fill="#579FD7" d="M10.32 7.786c2.997 0 5.435 2.322 5.435 5.112 0 .215-.187.39-.418.39H3.629c-.23 0-.418-.175-.418-.39 0-2.79 2.439-5.112 5.436-5.112zM9.482 0c2.075 0 3.763 1.572 3.763 3.504 0 1.931-1.688 3.503-3.763 3.503S5.72 5.435 5.72 3.504C5.72 1.572 7.408 0 9.483 0z"/>
    </g>
</svg>
