<svg xmlns="http://www.w3.org/2000/svg" width="18" height="18" viewBox="0 0 18 18">
    <path fill="#579FD7" d="M9 0C4.037 0 0 4.037 0 9s4.037 9 9 9 9-4.037 9-9-4.037-9-9-9zm.585 14.34c-.427.071-1.278.25-1.71.285-.366.03-.71-.179-.921-.48-.211-.3-.262-.685-.136-1.03l1.7-4.677H6.75c-.002-.975.73-1.692 1.665-1.967.446-.131 1.277-.311 1.71-.283.26.016.71.179.921.48.211.3.262.684.136 1.03l-1.7 4.677h1.767c0 .974-.703 1.805-1.664 1.965zm.54-8.715C9.504 5.625 9 5.121 9 4.5s.504-1.125 1.125-1.125 1.125.504 1.125 1.125-.504 1.125-1.125 1.125z"/>
</svg>
