<svg xmlns="http://www.w3.org/2000/svg" width="32" height="32" viewBox="0 0 32 32">
    <g fill="none" fill-rule="evenodd">
        <circle cx="16" cy="16" r="16" fill="#F2F5FA"/>
        <g fill-rule="nonzero">
            <path fill="#29AAE1" d="M11.962 8.983c-.699 0-1.27-.572-1.27-1.27v-.948c0-.699.571-1.27 1.27-1.27.698 0 1.27.571 1.27 1.27v.948c0 .698-.571 1.27-1.27 1.27" transform="translate(8 6)"/>
            <path fill="#B6B3D9" d="M4.7 3.489c-.698 0-1.27-.572-1.27-1.27V1.27C3.43.572 4.002 0 4.7 0 5.4 0 5.97.572 5.97 1.27v.948c0 .7-.57 1.27-1.27 1.27" transform="translate(8 6)"/>
            <path fill="#4D86C6" d="M4.7 4.743C2.11 4.743 0 6.852 0 9.444v9.74h2.137v-9.74c0-1.413 1.15-2.564 2.563-2.564 1.413 0 2.564 1.15 2.564 2.564v9.74h2.135v.202l.002-.145V9.444c0-2.592-2.109-4.7-4.7-4.7" transform="translate(8 6)"/>
            <path fill="#4D86C6" d="M11.962 10.238c-.944 0-1.824.28-2.561.76-1.25.815-2.09 2.207-2.138 3.795l-.002.145v4.408l.002-.105v-.057h2.135v-4.246l.003-.105c.055-1.365 1.183-2.458 2.56-2.458 1.414 0 2.564 1.15 2.564 2.563v4.246h2.138v-4.246c0-2.592-2.11-4.7-4.701-4.7" transform="translate(8 6)"/>
        </g>
    </g>
</svg>
