<svg xmlns="http://www.w3.org/2000/svg" width="32" height="32" fill="none" viewBox="0 0 32 32">
    <path fill="#D8D8D8" d="M32 32H64V64H32z" opacity=".01" transform="rotate(-180 32 32)"/>
    <g clip-path="url(#prefix__clip0)">
        <path fill="#A7D9FF" d="M15.167 17.459c0-.345-.282-.625-.625-.625h-3.125v2.5c0 .46-.374.833-.834.833-.46 0-.833-.373-.833-.834v-2.5H6.625c-.344 0-.625.281-.625.626v7.916c0 .344.28.625.625.625h7.917c.343 0 .625-.28.625-.625V17.46zM26 17.459c0-.345-.282-.625-.625-.625H22.25v2.5c0 .46-.373.833-.833.833-.46 0-.834-.373-.834-.834v-2.5H17.46c-.345 0-.625.281-.625.626v7.916c0 .344.28.625.625.625h7.916c.343 0 .625-.28.625-.625V17.46z"/>
        <path fill="#579FD7" d="M20.583 6.625c0-.343-.281-.625-.625-.625h-3.125v2.5c0 .46-.373.833-.833.833-.46 0-.834-.373-.834-.833V6h-3.125c-.344 0-.625.282-.625.625v7.917c0 .344.281.625.625.625h7.917c.344 0 .625-.281.625-.625V6.625z"/>
    </g>
    <defs>
        <clipPath id="prefix__clip0">
            <path fill="#fff" d="M0 0H20V20H0z" transform="translate(6 6)"/>
        </clipPath>
    </defs>
</svg>