<svg xmlns="http://www.w3.org/2000/svg" width="20" height="20" viewBox="0 0 20 20">
    <g fill="none">
        <path fill="#579FD7" d="M11.232.004c-.344-.042-.645.242-.645.588v2.993c3.299.299 5.86 3.076 5.86 6.416 0 3.545-2.885 6.446-6.446 6.446-3.34 0-6.117-2.561-6.416-5.86H.592c-.346 0-.63.301-.588.645.692 5.586 6.137 9.795 12.126 8.548 3.781-.788 6.862-3.869 7.65-7.65C21.027 6.14 16.818.696 11.232.004z"/>
        <path fill="#A7D9FF" d="M14.103 10c0-.327.257-.585.586-.585h.527c-.117-1.008-.504-1.934-1.113-2.684l-.375.363c-.223.235-.598.235-.82 0-.235-.222-.235-.597 0-.82l.363-.375c-.75-.61-1.676-.996-2.684-1.113v.527c0 .328-.258.586-.586.586-.328 0-.586-.258-.586-.586v-.527c-1.008.117-1.934.503-2.684 1.113l.363.375c.235.223.235.598 0 .82-.222.235-.597.235-.82 0l-.375-.363c-.61.75-.996 1.676-1.113 2.684h.527c.328 0 .586.258.586.586 0 .328-.258.586-.586.586h-.527c.117 1.008.503 1.933 1.113 2.684l.375-.364c.223-.234.598-.234.82 0 .235.223.235.598 0 .82l-.363.376c.75.609 1.676.996 2.684 1.113v-.527c0-.329.258-.586.586-.586.328 0 .586.257.586.586v.527c1.008-.117 1.934-.504 2.683-1.113l-.363-.375c-.234-.223-.234-.598 0-.82.223-.235.598-.235.82 0l.376.363c.609-.75.996-1.676 1.113-2.684h-.527c-.329 0-.586-.258-.586-.586zm-2.516 1.587c-.229.229-.6.229-.829 0l-1.171-1.172c-.11-.11-.172-.259-.172-.414V7.657c0-.324.262-.586.586-.586.324 0 .586.262.586.586v2.101l1 1c.229.23.229.6 0 .83z"/>
        <path fill="#A7D9FF" d="M1.24 9.415h2.345c.278-3.074 2.72-5.548 5.83-5.83V1.24c-4.38.29-7.883 3.795-8.174 8.174z"/>
    </g>
</svg>
