<svg xmlns="http://www.w3.org/2000/svg" width="32" height="32" viewBox="0 0 32 32">
    <g fill="none" fill-rule="evenodd">
        <circle cx="16" cy="16" r="16" fill="#F2F5FA"/>
        <g fill-rule="nonzero">
            <g>
                <path fill="#E49542" d="M12.232.027c-2.082 0-1.715 1.718-3.797 1.718-.503 0-3.455-1.718-3.957-1.718H.51c-.677 3.878-.677 7.844 0 11.722h11.722c.677-3.878.677-7.844 0-11.722z" transform="translate(7 7) translate(0 6.048)"/>
                <path fill="#E28424" d="M2.404 11.75H.51C-.166 7.87-.166 3.905.51.026h1.894c-.677 3.879-.677 7.844 0 11.722z" transform="translate(7 7) translate(0 6.048)"/>
                <path fill="#DB5C6E" d="M8.265 4.956L6.547 3.874c-.107-.068-.245-.068-.352 0l-1.21.763c-.22.139-.507-.02-.507-.28V.027h3.787v4.93z" transform="translate(7 7) translate(0 6.048)"/>
            </g>
            <g>
                <path fill="#EDEDED" d="M6.564.025C4.76-.04 2.954.023 1.15.215.647.268.254.67.214 1.173c-.26 3.262-.26 6.524 0 9.786.04.503.434.905.936.958 2.692.287 5.384.287 8.076 0 .502-.053.895-.455.935-.958.194-2.436.244-4.872.148-7.309" transform="translate(7 7) translate(7.439)"/>
                <path fill="#DBDBDB" d="M10.309 3.65c-.887-.031-1.775-.095-2.662-.19-.502-.053-.895-.455-.935-.958-.066-.825-.115-1.651-.148-2.477.887.032 3.712 2.8 3.745 3.625z" transform="translate(7 7) translate(7.439)"/>
                <g>
                    <path fill="#95D6A4" d="M.726 2.122c-.096 0-.185-.051-.233-.135l-.437-.765c-.074-.13-.03-.293.1-.367.128-.073.292-.029.366.1l.19.334.576-1.124c.068-.132.23-.185.362-.117.132.067.184.23.116.361L.965 1.976c-.045.088-.134.144-.233.146H.726z" transform="translate(7 7) translate(7.439) translate(1.251 3.198)"/>
                    <g fill="#407093">
                        <path d="M2.849.546H.281C.133.546.013.426.013.277.013.13.133.01.28.01H2.85c.148 0 .269.12.269.268 0 .149-.12.269-.269.269zM5.236 1.493H.28c-.148 0-.268-.12-.268-.269 0-.148.12-.268.268-.268h4.955c.148 0 .268.12.268.268 0 .149-.12.269-.268.269z" transform="translate(7 7) translate(7.439) translate(1.251 3.198) translate(2.12 .556)"/>
                    </g>
                </g>
                <g>
                    <path fill="#95D6A4" d="M.726 2.138c-.096 0-.185-.052-.233-.135l-.437-.765c-.074-.13-.03-.293.1-.367.128-.074.292-.029.366.1l.19.334L1.289.18c.068-.132.23-.184.362-.116.132.067.184.23.116.361L.965 1.992c-.045.087-.134.144-.233.146H.726z" transform="translate(7 7) translate(7.439) translate(1.251 5.805)"/>
                    <g fill="#407093">
                        <path d="M2.849.562H.281C.133.562.013.442.013.293c0-.148.12-.268.268-.268H2.85c.148 0 .269.12.269.268 0 .148-.12.269-.269.269zM5.153 1.509H.28c-.148 0-.268-.12-.268-.269 0-.148.12-.268.268-.268h4.872c.148 0 .269.12.269.268 0 .149-.12.269-.27.269z" transform="translate(7 7) translate(7.439) translate(1.251 5.805) translate(2.12 .556)"/>
                    </g>
                </g>
                <g>
                    <path fill="#95D6A4" d="M.726 2.119c-.096 0-.185-.051-.233-.135l-.437-.765c-.074-.13-.03-.293.1-.367.128-.073.292-.029.366.1l.19.334.576-1.124c.068-.132.23-.185.362-.117.132.067.184.23.116.361L.965 1.973c-.045.088-.134.144-.233.146H.726z" transform="translate(7 7) translate(7.439) translate(1.251 8.447)"/>
                    <g fill="#407093">
                        <path d="M2.849.543H.281C.133.543.013.423.013.274c0-.148.12-.268.268-.268H2.85c.148 0 .269.12.269.268 0 .149-.12.269-.269.269zM3.221 1.49H.281c-.148 0-.268-.12-.268-.268 0-.149.12-.269.268-.269h2.94c.148 0 .269.12.269.269 0 .148-.12.268-.269.268z" transform="translate(7 7) translate(7.439) translate(1.251 8.447) translate(2.12 .556)"/>
                    </g>
                </g>
            </g>
            <g>
                <path fill="#EDEDED" d="M3.278 3.75c-.913.076-1.826.076-2.739 0C.29 3.729.092 3.53.071 3.28c-.077-.913-.077-1.826 0-2.739C.09.292.289.095.539.074c.913-.077 1.826-.077 2.74 0 .249.02.447.218.467.468.077.913.077 1.826 0 2.74-.02.25-.218.447-.468.468z" transform="translate(7 7) translate(1.356 12.653)"/>
                <g fill="#DBDBDB">
                    <path d="M2.206.57H.29C.142.57.022.448.022.3c0-.148.12-.268.269-.268h1.915c.148 0 .268.12.268.269 0 .148-.12.268-.268.268zM2.206 1.636H.29c-.149 0-.269-.12-.269-.268 0-.148.12-.269.269-.269h1.915c.148 0 .268.12.268.269 0 .148-.12.268-.268.268z" transform="translate(7 7) translate(1.356 12.653) translate(.66 1.078)"/>
                </g>
            </g>
        </g>
    </g>
</svg>