<svg xmlns="http://www.w3.org/2000/svg" width="32" height="32" viewBox="0 0 32 32">
    <g fill="none" fill-rule="evenodd">
        <g fill-rule="nonzero">
            <path fill="#579FD7" d="M2.874 16.169c-.951 0-1.725.773-1.725 1.724 0 .95.774 1.724 1.725 1.724.95 0 1.724-.774 1.724-1.724 0-.951-.774-1.724-1.724-1.724zm0 2.298c-.317 0-.575-.257-.575-.574 0-.317.258-.575.575-.575.316 0 .574.258.574.575 0 .317-.258.574-.574.574zm11.494-2.298c-.95 0-1.724.773-1.724 1.724 0 .95.773 1.724 1.724 1.724.95 0 1.724-.774 1.724-1.724 0-.951-.773-1.724-1.724-1.724zm0 2.298c-.317 0-.575-.257-.575-.574 0-.317.258-.575.575-.575.316 0 .575.258.575.575 0 .317-.259.574-.575.574z" transform="translate(7 6)"/>
            <path fill="#A7D9FF" d="M16.667 0c-.318 0-.575.257-.575.575v6.398H1.149V.575C1.15.257.892 0 .575 0 .257 0 0 .257 0 .575v16.168c0 .318.257.575.575.575h16.092c.317 0 .574-.257.574-.575V.575c0-.318-.257-.575-.574-.575zm-.575 13.87H1.149V8.123h14.943v5.747z" transform="translate(7 6)"/>
        </g>
    </g>
</svg>
