<svg xmlns="http://www.w3.org/2000/svg" width="40" height="40" fill="none" viewBox="0 0 40 40">
    <path fill="#607D8B" d="M31.693 0H8.359c-2.756 0-5 2.243-5 5v30c0 2.757 2.244 5 5 5h23.334c2.756 0 5-2.243 5-5V5c0-2.757-2.243-5-5-5z"/>
    <path fill="#fff" d="M8.36 3.333h23.333c.92 0 1.666.749 1.666 1.667v26.667H6.693V5c0-.918.746-1.667 1.666-1.667z"/>
    <path fill="#42A5F5" d="M25.026 15c0 2.762-2.239 5-5 5s-5-2.238-5-5c0-2.761 2.239-5 5-5s5 2.239 5 5zM20.026 21.666c-4.828 0-8.333 2.279-8.333 5.417v4.584h16.666v-4.584c0-3.138-3.505-5.416-8.333-5.416z"/>
</svg>