
<svg xmlns="http://www.w3.org/2000/svg" width="72" height="72" fill="none" viewBox="0 0 72 72">
    <circle cx="36" cy="36" r="35.5" fill="#FFEBAF" stroke="#fff"/>
    <path fill="#FFC106" fill-rule="evenodd" d="M20.57 36c0-8.508 6.921-15.429 15.429-15.429S51.427 27.492 51.427 36 44.508 51.428 36 51.428c-8.508 0-15.429-6.92-15.429-15.428zm21.86 8.357c.328 0 .657-.126.908-.377.503-.502.503-1.315 0-1.818l-6.052-6.051v-7.825c0-.711-.576-1.286-1.285-1.286-.71 0-1.286.575-1.286 1.286v8.357c0 .342.135.669.377.909l6.428 6.428c.25.251.58.377.91.377z" clip-rule="evenodd"/>
</svg>