<svg xmlns="http://www.w3.org/2000/svg" width="32" height="32" viewBox="0 0 32 32">
    <g fill="none" fill-rule="evenodd">
        <g fill-rule="nonzero">
            <path fill="#F0A821" d="M14.723 7.987c-2.91 0-5.278 2.367-5.278 5.277s2.368 5.278 5.278 5.278c2.91 0 5.277-2.368 5.277-5.278 0-2.91-2.367-5.277-5.277-5.277zm2.22 5.928h-2.261c-.337 0-.61-.273-.61-.61v-2.262c0-.336.273-.61.61-.61.337 0 .61.274.61.61v1.652h1.652c.336 0 .61.273.61.61 0 .337-.273.61-.61.61z" transform="translate(6 7)"/>
            <path fill="#6D7278" d="M6.8 4.769l1.237-.518c.15-.063.32-.063.471 0l1.236.518V.019H6.801v4.75z" transform="translate(6 7)"/>
            <path fill="#604325" d="M14.723 6.767c.632 0 1.244.091 1.822.26V1.519c0-.826-.672-1.498-1.499-1.498h-4.082v5.666c0 .204-.102.394-.272.508-.102.067-.22.102-.338.102-.08 0-.16-.016-.236-.048l-1.846-.773-1.846.773c-.188.08-.403.059-.573-.054-.17-.114-.272-.304-.272-.508V.02H1.499C.672.02 0 .692 0 1.518v13.548c0 .826.672 1.499 1.499 1.499h7.629c-.573-.968-.903-2.097-.903-3.3 0-3.583 2.915-6.498 6.498-6.498z" transform="translate(6 7)"/>
        </g>
    </g>
</svg>