<svg xmlns="http://www.w3.org/2000/svg" width="20" height="20" viewBox="0 0 20 20">
    <g fill="none">
        <path fill="#212C3D" d="M12 2C6.477 2 2 6.477 2 12s4.477 10 10 10 10-4.477 10-10c0-2.652-1.054-5.196-2.929-7.071C17.196 3.054 14.652 2 12 2zm0 18c-4.418 0-8-3.582-8-8s3.582-8 8-8 8 3.582 8 8c0 2.122-.843 4.157-2.343 5.657S14.122 20 12 20z" transform="translate(-2 -2)"/>
        <path fill="#212C3D" d="M15 11h-2V9c0-.552-.448-1-1-1s-1 .448-1 1v2H9c-.552 0-1 .448-1 1s.448 1 1 1h2v2c0 .552.448 1 1 1s1-.448 1-1v-2h2c.552 0 1-.448 1-1s-.448-1-1-1z" transform="translate(-2 -2)"/>
    </g>
</svg>
