<svg xmlns="http://www.w3.org/2000/svg" width="16" height="16" viewBox="0 0 16 16">
    <g fill="none" fill-rule="evenodd">
        <path fill="#A7D9FF" fill-rule="nonzero" d="M11.03 13.648v-1.514H.036v1.514c0 1.287 1.038 2.344 2.344 2.344H13.23c-1.224-.083-2.2-1.078-2.2-2.344z"/>
        <path fill="#579FD7" fill-rule="nonzero" d="M11.403 0l2.157 1.93L15.718.02v13.628c0 .643-.25 1.224-.685 1.66-.415.415-1.016.684-1.66.684h-.144c-1.224-.083-2.199-1.078-2.199-2.344v-1.514H2.774V.021l2.158 1.908L7.089 0l2.157 1.93L11.403 0zm1.224 8.255H5.886c-.353 0-.622.27-.622.623 0 .352.27.622.622.622h6.741c.353 0 .622-.27.622-.622 0-.353-.27-.623-.622-.623zM9.723 5.352H5.886c-.353 0-.622.27-.622.622s.27.622.622.622h3.837c.353 0 .622-.27.622-.622 0-.353-.27-.622-.622-.622z"/>
    </g>
</svg>
