<svg xmlns="http://www.w3.org/2000/svg" width="32" height="32" viewBox="0 0 32 32">
    <g fill="none" fill-rule="evenodd">
        <g fill-rule="nonzero">
            <g>
                <path fill="#F44336" d="M5.5 0C2.467 0 0 2.467 0 5.5S2.467 11 5.5 11 11 8.533 11 5.5 8.533 0 5.5 0z" transform="translate(6 6) translate(9.419 8)"/>
                <path fill="#FAFAFA" d="M7.525 6.877c.18.18.18.47 0 .648-.089.09-.206.135-.324.135-.117 0-.234-.045-.324-.135L5.5 6.148 4.123 7.525c-.09.09-.207.135-.324.135-.118 0-.235-.045-.324-.135-.18-.179-.18-.468 0-.648L4.852 5.5 3.475 4.123c-.18-.18-.18-.47 0-.648.179-.18.468-.18.648 0L5.5 4.852l1.377-1.377c.18-.18.47-.18.648 0 .18.179.18.468 0 .648L6.148 5.5l1.377 1.377z" transform="translate(6 6) translate(9.419 8)"/>
            </g>
            <path fill="#6D7278" d="M6.782 4.756l1.233-.516c.15-.063.32-.063.47 0l1.232.516V.019H6.782v4.737z" transform="translate(6 6)"/>
            <path fill="#604325" d="M14.682 6.748c.63 0 1.24.091 1.817.26V1.514c0-.824-.67-1.495-1.494-1.495h-4.071V5.67c0 .204-.102.394-.272.506-.101.068-.218.102-.337.102-.08 0-.159-.015-.235-.047l-1.84-.77-1.841.77c-.188.079-.403.058-.572-.055-.17-.112-.272-.302-.272-.506V.02h-4.07C.67.02 0 .69 0 1.513v13.51c0 .824.67 1.495 1.495 1.495h7.608c-.572-.966-.9-2.09-.9-3.291 0-3.573 2.906-6.48 6.479-6.48z" transform="translate(6 6)"/>
        </g>
    </g>
</svg>