<svg xmlns="http://www.w3.org/2000/svg" width="20" height="20" viewBox="0 0 20 20">
    <g fill="none" fill-rule="evenodd" transform="translate(-6 -6)">
        <g fill-rule="nonzero">
            <path fill="#212C3D" d="M17.5 19.875l-5.804-3.625H1.25C.56 16.25 0 15.69 0 15V1.25C0 .56.56 0 1.25 0h17.5C19.44 0 20 .56 20 1.25V15c0 .69-.56 1.25-1.25 1.25H17.5v3.625z" transform="translate(6 6)"/>
            <g fill="#FFF">
                <path d="M1.25 6.25H0V.625C0 .28.28 0 .625 0s.625.28.625.625V6.25zM0 7.5L1.25 7.5 1.25 8.75 0 8.75z" transform="translate(6 6) translate(9.375 3.75)"/>
            </g>
        </g>
    </g>
</svg>
