<svg xmlns="http://www.w3.org/2000/svg" width="32" height="32" viewBox="0 0 32 32">
    <g fill="none" fill-rule="evenodd">
        <circle cx="16" cy="16" r="16" fill="#F2F5FA"/>
        <g transform="matrix(-1 0 0 1 25 8)">
            <path fill="#EA9F26" fill-rule="nonzero" d="M17.7 4.2L16.2 11.4 4.8 11.4 3.3 4.2z"/>
            <path fill="#2D85CC" fill-rule="nonzero" d="M13.8 6L9.3 9.6 9.3 11.4 14.1 11.4 14.7 6z"/>
            <path fill="#EB423F" fill-rule="nonzero" d="M16.2 11.4L12.9 11.4 13.072 9.335 14.4 9.6z"/>
            <path fill="#FFD33A" fill-rule="nonzero" d="M16.8 4.2L13.8 4.2 14.7 2.4 15.9 2.4z"/>
            <path d="M17.7 4.2L16.95 7.8 16.8 7.8 16.8 4.2z"/>
            <path fill="#FFD33A" fill-rule="nonzero" d="M16.8 4.2L16.8 7.8 14.7 7.8 14.7 6 13.8 6 13.8 4.2z"/>
            <path fill="#248256" fill-rule="nonzero" d="M16.8 7.8L16.8 7.5 14.7 6 14.4 7.8 13.2 7.8 12.9 11.4 16.2 11.4 16.95 7.8z"/>
            <path fill="#EA9F26" fill-rule="nonzero" d="M15 1.2h.6c.331 0 .6.269.6.6v.6h-1.8v-.6c0-.331.269-.6.6-.6z"/>
            <path fill="#996046" fill-rule="nonzero" d="M7.8 9.6L7.8 11.4 4.8 11.4 4.425 9.6z"/>
            <path fill="#35A872" fill-rule="nonzero" d="M9 3.3V6H3.6l-.564-2.969.02-.031c.184-.276.495-.442.827-.441.066 0 .132.006.197.02v-.02c0-.75.618-1.359 1.38-1.359.58-.002 1.098.357 1.3.9.215-.392.668-.59 1.103-.483.435.107.743.494.751.942 0 .22-.076.435-.216.606.071-.016.144-.024.216-.024L9 3.3z"/>
            <path fill="#C48669" fill-rule="nonzero" d="M8.4 0L13.2 0 13.2 4.2 8.4 4.2z"/>
            <path fill="#D49073" fill-rule="nonzero" d="M8.4 0L12 0 12 4.2 8.4 4.2z"/>
            <path fill="#996046" fill-rule="nonzero" d="M10.8 1.5H9.6c-.166 0-.3-.134-.3-.3 0-.166.134-.3.3-.3h1.2c.166 0 .3.134.3.3 0 .166-.134.3-.3.3z"/>
            <path fill="#248256" fill-rule="nonzero" d="M9 6L7.5 6 7.8 7.8 6.3 7.8 4.8 9.6 4.425 9.6 3.3 4.2 9 4.2z"/>
            <path fill="#D0D2D4" fill-rule="nonzero" d="M16.8 14.1h-12c-.662 0-1.2-.538-1.2-1.2v-.6c0-.662.538-1.2 1.2-1.2h.3c.166 0 .3.134.3.3 0 .166-.134.3-.3.3h-.3c-.331 0-.6.269-.6.6v.6c0 .331.269.6.6.6h12c.166 0 .3.134.3.3 0 .166-.134.3-.3.3z"/>
            <circle cx="6" cy="14.7" r="1.2" fill="#7E8589" fill-rule="nonzero"/>
            <circle cx="14.4" cy="14.7" r="1.2" fill="#7E8589" fill-rule="nonzero"/>
            <circle cx="6" cy="14.7" r="1" fill="#414649" fill-rule="nonzero"/>
            <circle cx="14.4" cy="14.7" r="1" fill="#414649" fill-rule="nonzero"/>
            <path fill="#EB423F" fill-rule="nonzero" d="M10.5 7.8L9.9 6 9 6 9 4.2 13.8 4.2 13.8 6 11.7 7.8z"/>
            <path fill="#D0D2D4" fill-rule="nonzero" d="M17.933 4.01c-.057-.07-.143-.11-.233-.11H3.343l-.651-2.769C2.66.996 2.539.9 2.4.9H.3c-.166 0-.3.134-.3.3 0 .166.134.3.3.3h1.862l2.346 9.969c.032.135.153.231.292.231h11.4c.142 0 .265-.1.294-.239l1.5-7.2c.018-.088-.004-.18-.061-.25zm-5.645.49h2.372l-.15 1.2h-2.272l.05-1.2zm-3.576 0l.05 1.2H6.49l-.15-1.2h2.372zm-5.227 0h2.25l.15 1.2H3.767l-.282-1.2zm.423 1.8H5.96l.15 1.2H4.19l-.282-1.2zm.424 1.8h1.853l.15 1.2H4.614l-.282-1.2zm.706 3l-.283-1.2H6.41l.15 1.2H5.038zm1.527-4.8h2.222l.05 1.2H6.715l-.15-1.2zm.225 1.8h2.072l.05 1.2H6.94l-.15-1.2zm.375 3l-.15-1.2h1.922l.05 1.2H7.165zm4.247 0H9.588l-.05-1.2h1.924l-.05 1.2zm.075-1.8H9.513l-.05-1.2h2.074l-.05 1.2zm.075-1.8H9.438l-.05-1.2h2.224l-.05 1.2zm.075-1.8H9.363l-.05-1.2h2.374l-.05 1.2zm2.198 5.4h-1.822l.05-1.2h1.922l-.15 1.2zm.225-1.8h-1.972l.05-1.2h2.072l-.15 1.2zm.225-1.8h-2.122l.05-1.2h2.222l-.15 1.2zm1.671 3.6H14.44l.15-1.2h1.616l-.25 1.2zm.375-1.8h-1.666l.15-1.2h1.766l-.25 1.2zm.375-1.8H14.89l.15-1.2h1.916l-.25 1.2zm.375-1.8h-1.966l.15-1.2h2.066l-.25 1.2z"/>
        </g>
    </g>
</svg>
