<svg xmlns="http://www.w3.org/2000/svg" width="24" height="24" viewBox="0 0 24 24">
    <g fill="none">
        <g fill="#212C3D">
            <path d="M2.361 1.861L2.361.022 1.541.022 1.541 1.861 0 1.861 0 5.068 1.541 5.068 1.541 12.721 2.361 12.721 2.361 5.068 3.902 5.068 3.902 1.861zM7.41 5.686L7.41.022 6.59.022 6.59 5.686 5.049 5.686 5.049 8.893 6.59 8.893 6.59 12.721 7.41 12.721 7.41 8.893 8.951 8.893 8.951 5.686zM12.459 1.861L12.459.022 11.639.022 11.639 1.861 10.098 1.861 10.098 5.068 11.639 5.068 11.639 12.721 12.459 12.721 12.459 5.068 14 5.068 14 1.861z" transform="translate(5 6)"/>
        </g>
    </g>
</svg>
