<svg xmlns="http://www.w3.org/2000/svg" width="16" height="16" viewBox="0 0 16 16">
    <g fill="none">
        <path fill="#A7D9FF" d="M2.913 1.392L12.619 1.392 12.619 0.696 14.104 0 1.428 0 2.913 0.696z"/>
        <path fill="#579FD7" d="M15.508 14.348l-.723-12.956H.747L.025 14.348c-.031.558.443 1.027 1.04 1.027h13.403c.596 0 1.07-.469 1.04-1.027zM4.27 3.096c.262 0 .475.2.475.445 0 .14-.07.262-.177.344V6.66c0 1.652 1.434 2.997 3.197 2.997 1.763 0 3.197-1.345 3.197-2.997V3.885c-.107-.081-.176-.204-.176-.344 0-.245.212-.445.474-.445.263 0 .475.2.475.445 0 .14-.07.263-.176.344v2.903c0 2.035-1.702 3.691-3.794 3.691-2.091 0-3.793-1.656-3.793-3.691V3.885c-.107-.081-.177-.204-.177-.344 0-.245.213-.445.475-.445z"/>
        <path fill="#067BC2" d="M2.913 0.696L1.428 0 1.368 1.193z"/>
        <path fill="#579FD7" d="M2.913 1.392L2.913 0.696 1.368 1.193 0.747 1.392z"/>
        <path fill="#067BC2" d="M14.164 1.193L14.104 0 12.619 0.696z"/>
        <path fill="#579FD7" d="M12.619 0.696L12.619 1.392 14.785 1.392 14.164 1.193z"/>
        <g fill="#067BC2">
            <path d="M.203.82V.476h.596V.82C.906.738.975.615.975.476.975.23.763.03.501.03.238.03.026.23.026.476c0 .14.07.262.177.344zM7.79.476V.82c.106-.082.176-.205.176-.344C7.966.23 7.753.03 7.49.03s-.475.2-.475.445c0 .14.07.262.177.344V.476h.596zM3.996 7.15C1.904 7.15.203 5.554.203 3.593v.129c0 2.036 1.701 3.692 3.793 3.692s3.793-1.656 3.793-3.692v-.129c0 1.961-1.701 3.557-3.793 3.557z" transform="translate(3.77 3.065)"/>
        </g>
        <path fill="#A7D9FF" d="M3.973 3.541V6.66c0 1.96 1.702 3.556 3.793 3.556 2.092 0 3.794-1.595 3.794-3.556V3.54h-.597V6.66c0 1.652-1.434 2.997-3.197 2.997-1.763 0-3.197-1.345-3.197-2.997V3.54h-.596z"/>
    </g>
</svg>
