
<svg xmlns="http://www.w3.org/2000/svg" width="86" height="73" fill="none" viewBox="0 0 86 73">
    <path fill="#B9785F" d="M82.286 70.664H2.939V1.603c0-.812.658-1.47 1.47-1.47h76.407c.812 0 1.47.658 1.47 1.47v69.061z"/>
    <path fill="#AA6455" d="M82.286 23.517c-.301.075-.611.127-.936.127-2.139 0-3.873-1.735-3.873-3.874 0 2.139-1.735 3.873-3.874 3.873-2.14 0-3.874-1.734-3.874-3.873 0 2.139-1.734 3.873-3.874 3.873s-3.874-1.734-3.874-3.873c0 2.139-1.734 3.873-3.874 3.873s-3.874-1.734-3.874-3.873c0 2.139-1.734 3.873-3.873 3.873-2.14 0-3.874-1.734-3.874-3.873 0 2.139-1.735 3.873-3.874 3.873-2.14 0-3.874-1.734-3.874-3.873 0 2.139-1.735 3.873-3.874 3.873-2.14 0-3.874-1.734-3.874-3.873 0 2.139-1.734 3.873-3.874 3.873s-3.874-1.734-3.874-3.873c0 2.139-1.734 3.873-3.874 3.873-2.139 0-3.873-1.734-3.873-3.873 0 2.139-1.735 3.873-3.874 3.873-2.14 0-3.874-1.734-3.874-3.873 0 2.139-1.735 3.873-3.874 3.873-.324 0-.634-.051-.935-.126v2.97c.308.044.615.095.935.095 1.438 0 2.773-.447 3.874-1.21 1.1.762 2.436 1.21 3.874 1.21 1.438 0 2.773-.448 3.874-1.211 1.1.764 2.436 1.211 3.874 1.211 1.438 0 2.773-.448 3.874-1.211 1.1.764 2.436 1.211 3.873 1.211 1.439 0 2.774-.448 3.874-1.211 1.101.764 2.436 1.211 3.874 1.211 1.438 0 2.774-.448 3.874-1.211 1.1.764 2.436 1.211 3.874 1.211 1.438 0 2.773-.448 3.874-1.211 1.1.764 2.436 1.211 3.874 1.211 1.438 0 2.773-.448 3.873-1.211 1.101.764 2.436 1.211 3.874 1.211 1.438 0 2.774-.448 3.874-1.211 1.1.764 2.436 1.211 3.874 1.211 1.438 0 2.773-.448 3.874-1.211 1.1.764 2.436 1.211 3.874 1.211 1.438 0 2.773-.448 3.874-1.211 1.1.764 2.436 1.211 3.874 1.211.32 0 .626-.051.935-.094v-2.971z"/>
    <path fill="#B4E1FA" d="M10.286 29.521H51.429V55.97H10.286z"/>
    <path fill="#DAF0FD" d="M44.082 54.5h-2.94L23.51 30.99h2.939L44.082 54.5z"/>
    <path fill="#D2555A" d="M34.864 23.644c-2.139 0-3.873-1.735-3.873-3.874v-3.473h7.747v3.473c0 2.14-1.734 3.874-3.873 3.874zM50.36 23.644c-2.14 0-3.874-1.735-3.874-3.874v-3.473h7.748v3.473c0 2.14-1.735 3.874-3.874 3.874zM19.37 23.644c-2.14 0-3.875-1.735-3.875-3.874v-3.473h7.748v3.473c0 2.14-1.734 3.874-3.874 3.874zM3.874 23.644C1.734 23.644 0 21.909 0 19.77v-3.473h7.748v3.473c0 2.14-1.735 3.874-3.874 3.874zM65.855 23.644c-2.14 0-3.874-1.735-3.874-3.874v-3.473h7.748v3.473c0 2.14-1.734 3.874-3.874 3.874z"/>
    <path fill="#C7CFE2" d="M27.117 23.644c-2.14 0-3.874-1.735-3.874-3.874v-3.473h7.748v3.473c0 2.14-1.735 3.874-3.874 3.874zM58.108 23.644c-2.14 0-3.874-1.735-3.874-3.874v-3.473h7.747v3.473c0 2.14-1.734 3.874-3.873 3.874z"/>
    <path fill="#D2555A" d="M81.35 23.644c-2.139 0-3.873-1.735-3.873-3.874v-3.473h7.748v3.473c0 2.14-1.735 3.874-3.874 3.874z"/>
    <path fill="#C7CFE2" d="M73.603 23.644c-2.14 0-3.874-1.735-3.874-3.874v-3.473h7.748v3.473c0 2.14-1.735 3.874-3.874 3.874zM11.621 23.644c-2.139 0-3.873-1.735-3.873-3.874v-3.473h7.747v3.473c0 2.14-1.734 3.874-3.874 3.874zM42.612 23.644c-2.14 0-3.874-1.735-3.874-3.874v-3.473h7.748v3.473c0 2.14-1.734 3.874-3.874 3.874z"/>
    <path fill="#FF6464" d="M38.738 16.297h-7.747l.801-11.755h7.214l-.268 11.755zM54.234 16.297h-7.748L46.22 4.542h7.213l.802 11.755zM23.243 16.297h-7.748l1.87-11.755h7.214l-1.336 11.755zM7.748 16.297H0L2.939 4.542h7.213L7.748 16.297zM69.729 16.297h-7.748L60.646 4.542h7.213l1.87 11.755z"/>
    <path fill="#EFF2FA" d="M30.99 16.297h-7.747l1.336-11.755h7.213l-.801 11.755zM61.981 16.297h-7.747l-.802-11.755h7.214l1.335 11.755z"/>
    <path fill="#FF6464" d="M85.225 16.297h-7.748L75.072 4.542h7.214l2.939 11.755z"/>
    <path fill="#EFF2FA" d="M77.477 16.297h-7.748l-1.87-11.755h7.213l2.405 11.755zM15.495 16.297H7.748l2.404-11.755h7.214l-1.87 11.755zM46.486 16.297h-7.748l.268-11.755h7.213l.267 11.755z"/>
    <path fill="#C7CFE2" d="M83.755 72.133H1.469c-.811 0-1.469-.658-1.469-1.47 0-.81.658-1.468 1.47-1.468h82.285c.812 0 1.47.658 1.47 1.469s-.659 1.47-1.47 1.47z"/>
    <path fill="#AFB9D2" d="M2.939 66.256H82.286V69.195H2.939z" opacity=".97"/>
    <path fill="#AA6455" d="M2.939 60.378H82.286V66.255H2.939z"/>
    <path fill="#5B5D6E" fill-rule="evenodd" d="M10.286 28.052h41.143c.811 0 1.469.658 1.469 1.47V55.97c0 .812-.658 1.47-1.47 1.47H10.286c-.812 0-1.47-.658-1.47-1.47V29.521c0-.811.658-1.47 1.47-1.47zM49.959 54.5V30.99H11.755V54.5H49.96z" clip-rule="evenodd"/>
    <path fill="#5B5D6E" d="M74.939 28.052H60.245c-.812 0-1.47.658-1.47 1.47v36.734h17.633V29.52c0-.811-.658-1.47-1.47-1.47z"/>
    <path fill="#B4E1FA" d="M61.714 30.991H73.469V54.501000000000005H61.714z"/>
    <path fill="#A0D2F0" d="M11.755 30.991H49.959V33.93H11.755zM61.714 30.991H73.469V33.93H61.714z"/>
    <path fill="#A0D2F0" d="M38.204 54.5h-5.877L14.694 30.99h5.877L38.204 54.5z"/>
    <path fill="#B4E1FA" d="M28.653 33.93l-2.204-2.94H23.51l2.204 2.94h2.94z"/>
    <path fill="#DAF0FD" d="M73.47 42.746L64.652 30.99h-2.939L73.47 46.665v-3.918z"/>
    <path fill="#B4E1FA" d="M66.857 33.93l-2.204-2.94h-2.939l2.204 2.94h2.94z"/>
    <path fill="#A0D2F0" d="M61.714 30.991H73.469V33.93H61.714z"/>
    <path fill="#DAF0FD" d="M73.47 42.746L64.652 30.99h-2.939L73.47 46.665v-3.918z"/>
    <path fill="#A0D2F0" d="M61.714 34.91v7.836L70.531 54.5h2.938v-3.919L61.714 34.91z"/>
</svg>