<svg xmlns="http://www.w3.org/2000/svg" width="16" height="20" viewBox="0 0 16 20">
    <g fill="none" fill-rule="evenodd">
        <g fill-rule="nonzero">
            <path fill="#212C3D" d="M8.125 4.909L4.609.221c-.22-.295-.716-.295-.937 0L.156 4.91c-.289.385-.014.937.469.937h1.758V16.98c0 .324.262.586.586.586h2.344c.323 0 .578-.262.578-.586V5.846h1.765c.483 0 .758-.553.469-.937z" transform="translate(-8 -6) translate(8 6)"/>
            <path fill="#212C3D" d="M14.688 14.14h-1.766V3.009c0-.324-.254-.586-.578-.586H10c-.324 0-.586.262-.586.586V14.14H7.656c-.482 0-.757.553-.468.937l3.515 4.688c.234.312.704.312.938 0l3.515-4.688c.289-.384.015-.937-.468-.937z" transform="translate(-8 -6) translate(8 6)"/>
        </g>
    </g>
</svg>
