<svg xmlns="http://www.w3.org/2000/svg" width="205" height="45" viewBox="0 0 205 45">
    <g fill="none" fill-rule="evenodd">
        <path fill="#1F2138" fill-rule="nonzero" d="M65.943 36.49c2.053 0 3.843-.244 5.368-.734 1.525-.489 2.794-1.171 3.805-2.046 1.012-.875 1.775-1.899 2.288-3.07.514-1.172.77-2.455.77-3.849 0-2.877-.792-5.08-2.376-6.607-1.583-1.528-4.077-2.632-7.479-3.315l-4.312-.845c-1.583-.326-2.705-.786-3.365-1.38-.66-.592-.99-1.482-.99-2.669 0-.445.088-.875.264-1.29.176-.415.484-.779.924-1.09.44-.312 1.019-.564 1.738-.757.718-.192 1.635-.289 2.75-.289 1.876 0 3.277.386 4.2 1.157.925.771 1.548 2.032 1.87 3.782l6.204-.8c-.146-1.247-.447-2.448-.902-3.605-.454-1.157-1.15-2.173-2.09-3.048-.938-.875-2.17-1.579-3.695-2.113s-3.432-.8-5.72-.8c-1.789 0-3.431.2-4.927.6-1.496.4-2.78.986-3.85 1.757-1.07.772-1.906 1.736-2.508 2.892-.601 1.157-.902 2.492-.902 4.005 0 1.512.22 2.817.66 3.915.44 1.097 1.078 2.024 1.914 2.78.836.757 1.87 1.373 3.102 1.847 1.232.475 2.654.86 4.267 1.157l4.092.756c1.643.327 2.772.853 3.388 1.58.616.727.924 1.505.924 2.336 0 .593-.096 1.142-.286 1.646-.19.504-.506.942-.946 1.312-.44.371-1.012.668-1.716.89-.704.223-1.57.334-2.596.334-2.14 0-3.761-.445-4.861-1.335-1.1-.89-1.724-2.313-1.87-4.271h-6.644c.176 3.737 1.4 6.533 3.674 8.387 2.273 1.854 5.55 2.78 9.833 2.78zm22.526 7.831V33.287c.998 1.246 2.06 2.076 3.19 2.492 1.13.415 2.266.623 3.41.623 1.554 0 2.948-.297 4.18-.89 1.231-.594 2.28-1.431 3.145-2.514.865-1.083 1.525-2.38 1.98-3.893.455-1.513.682-3.189.682-5.028 0-3.826-.792-6.837-2.376-9.032-1.584-2.195-3.974-3.292-7.171-3.292-3.05 0-5.456 1.26-7.216 3.782v-3.07H82.31V44.32h6.16zm5.148-12.947c-.616 0-1.225-.082-1.826-.245-.601-.163-1.195-.511-1.782-1.045-.557-.564-.96-1.298-1.21-2.203-.249-.904-.374-2.113-.374-3.626v-.712c0-1.335.14-2.432.418-3.292.279-.86.712-1.572 1.298-2.136.528-.445 1.07-.771 1.628-.979.557-.207 1.217-.311 1.98-.311.674 0 1.312.126 1.914.378.601.252 1.122.667 1.562 1.246.44.578.784 1.327 1.033 2.247.25.92.374 2.061.374 3.426 0 1.305-.132 2.417-.395 3.337-.264.92-.624 1.668-1.078 2.246-.455.579-.99 1.002-1.606 1.268-.616.267-1.262.4-1.936.4zm22.306 4.894c1.79 0 3.248-.326 4.378-.979 1.129-.652 2.148-1.498 3.057-2.536v2.937h5.808V21.007c0-1.424-.169-2.706-.506-3.848-.337-1.142-.88-2.114-1.628-2.915-.748-.8-1.738-1.416-2.97-1.846-1.232-.43-2.727-.645-4.487-.645-2.875 0-5.163.541-6.864 1.624-1.7 1.082-2.757 2.84-3.167 5.272l5.631.534c.352-1.869 1.745-2.803 4.18-2.803 1.056 0 1.972.267 2.75.8.777.535 1.165 1.514 1.165 2.937v1.157l-2.947.134c-1.467.059-2.911.207-4.334.445-1.423.237-2.706.637-3.85 1.2-1.144.564-2.067 1.35-2.771 2.359-.704 1.008-1.056 2.314-1.056 3.915 0 1.216.205 2.262.616 3.137.41.875.96 1.594 1.65 2.158.689.563 1.495.979 2.42 1.246.923.267 1.898.4 2.925.4zm1.54-4.672c-.939 0-1.672-.222-2.2-.667-.528-.445-.792-1.053-.792-1.824 0-.504.073-.964.22-1.38.147-.415.433-.778.858-1.09.425-.311 1.034-.57 1.826-.778.792-.208 1.833-.341 3.124-.4l2.727-.134v1.201c0 .95-.176 1.743-.528 2.38-.352.638-.806 1.165-1.363 1.58-.998.742-2.288 1.112-3.872 1.112zm27.278 4.806c3.314 0 5.8-.824 7.457-2.47 1.657-1.646 2.603-3.863 2.838-6.651h-6.248c-.117 1.334-.513 2.358-1.188 3.07-.674.711-1.628 1.067-2.86 1.067-.938 0-1.715-.2-2.331-.6-.616-.4-1.1-.942-1.452-1.624-.352-.682-.601-1.468-.748-2.358-.147-.89-.22-1.825-.22-2.803 0-.95.073-1.862.22-2.737.147-.875.403-1.653.77-2.335.367-.683.858-1.224 1.474-1.624.616-.4 1.393-.601 2.332-.601 1.29 0 2.2.363 2.727 1.09.528.727.866 1.683 1.012 2.87l6.204-.846c-.147-1.186-.44-2.276-.88-3.27-.44-.993-1.056-1.846-1.848-2.558-.792-.712-1.767-1.268-2.926-1.669-1.158-.4-2.515-.6-4.07-.6-1.818 0-3.431.296-4.839.89-1.408.593-2.596 1.43-3.564 2.513s-1.708 2.388-2.222 3.916c-.513 1.527-.77 3.21-.77 5.05 0 1.839.22 3.515.66 5.027.44 1.513 1.108 2.803 2.002 3.871.895 1.068 2.046 1.898 3.454 2.492 1.408.593 3.08.89 5.016.89zm25.385 0c3.168 0 5.58-.675 7.238-2.025 1.657-1.35 2.69-3.33 3.102-5.94h-5.984c-.44 2.077-1.877 3.115-4.312 3.115-1.76 0-3.08-.527-3.96-1.58-.88-1.053-1.348-2.513-1.407-4.382h15.927v-2.492c0-3.47-.888-6.229-2.662-8.275-1.775-2.047-4.422-3.07-7.942-3.07-1.7 0-3.255.274-4.663.823-1.408.549-2.618 1.357-3.63 2.425-1.012 1.068-1.796 2.365-2.354 3.893-.557 1.527-.836 3.27-.836 5.228 0 3.915.961 6.94 2.882 9.076 1.921 2.136 4.788 3.204 8.601 3.204zm4.664-14.905h-9.9c.03-.712.162-1.372.397-1.98.234-.608.564-1.142.99-1.602.425-.46.946-.823 1.562-1.09.616-.267 1.334-.4 2.155-.4 1.643 0 2.853.444 3.63 1.334.777.89 1.166 2.136 1.166 3.738zm19.886 14.905c3.432 0 5.97-.66 7.612-1.98 1.642-1.32 2.464-3.078 2.464-5.273 0-1.097-.125-2.061-.374-2.892-.25-.83-.69-1.55-1.32-2.158-.631-.608-1.474-1.12-2.53-1.535-1.056-.415-2.39-.756-4.004-1.023l-2.904-.49c-1.32-.237-2.207-.526-2.661-.867-.455-.341-.682-.882-.682-1.624 0-.237.066-.49.198-.756.132-.267.352-.505.66-.712.308-.208.733-.378 1.276-.512.542-.133 1.224-.2 2.045-.2 1.467 0 2.53.252 3.19.756.66.505 1.122 1.29 1.386 2.358l5.5-.711c-.176-.98-.462-1.899-.858-2.759-.396-.86-.983-1.602-1.76-2.225-.778-.622-1.782-1.12-3.014-1.49-1.232-.37-2.757-.556-4.576-.556-1.466 0-2.808.17-4.025.511-1.217.342-2.266.824-3.146 1.446-.88.623-1.562 1.38-2.046 2.27-.484.89-.726 1.898-.726 3.025 0 2.195.682 3.834 2.046 4.916 1.364 1.083 3.44 1.847 6.226 2.292l3.167.534c1.115.178 1.87.49 2.266.934.396.445.594.964.594 1.557 0 .83-.315 1.431-.946 1.802-.63.371-1.68.556-3.146.556-1.232 0-2.287-.207-3.167-.623-.88-.415-1.423-1.305-1.628-2.67h-5.896c.088 1.573.448 2.878 1.078 3.916.63 1.038 1.437 1.869 2.42 2.492.983.623 2.097 1.06 3.344 1.312 1.246.252 2.559.379 3.937.379z"/>
        <path fill="#22A8FF" d="M9.988 0h19.976c5.516 0 9.988 4.472 9.988 9.988v19.976c0 5.516-4.472 9.988-9.988 9.988H9.988C4.472 39.952 0 35.48 0 29.964V9.988C0 4.472 4.472 0 9.988 0z"/>
        <path fill="#FFF" d="M11.236 3.745c4.137 0 7.491 3.354 7.491 7.491s-3.354 7.491-7.49 7.491c-4.138 0-7.492-3.354-7.492-7.49 0-4.138 3.354-7.492 7.491-7.492z" opacity=".9"/>
        <path fill="#FFF" d="M28.715 3.745c4.137 0 7.491 3.354 7.491 7.491s-3.354 7.491-7.49 7.491c-4.138 0-7.492-3.354-7.492-7.49 0-4.138 3.354-7.492 7.491-7.492zM11.236 21.224c4.137 0 7.491 3.354 7.491 7.491s-3.354 7.491-7.49 7.491c-4.138 0-7.492-3.354-7.492-7.49 0-4.138 3.354-7.492 7.491-7.492z" opacity=".5"/>
    </g>
</svg>
