<svg xmlns="http://www.w3.org/2000/svg" width="180" height="180" viewBox="0 0 180 180">
    <g fill="none">
        <g opacity=".066">
            <path fill="#F0C419" d="M96.207 63.717c-.942 5.28-2.373 10.46-4.277 15.474-.225.882-1.02 1.499-1.93 1.499-.91 0-1.705-.617-1.93-1.5-1.904-5.013-3.335-10.193-4.277-15.473-.294-2.4.82-4.753 2.863-6.046 2.042-1.292 4.646-1.292 6.688 0 2.043 1.293 3.157 3.647 2.863 6.046z"/>
            <path fill="#FF5364" d="M96.207 25.87c-.94 5.46-2.37 10.824-4.277 16.027-.2.905-1.003 1.55-1.93 1.55s-1.73-.645-1.93-1.55c-1.906-5.203-3.338-10.567-4.277-16.027-.266-3.708 2.502-6.94 6.207-7.25 3.705.31 6.473 3.542 6.207 7.25z"/>
            <g fill="#24AE5F">
                <path d="M61.625 5.682c1.722 6.714 2.832 13.57 3.318 20.483.206 1.125-.383 2.246-1.426 2.714-1.044.468-2.272.162-2.975-.74-4.83-4.963-9.2-10.353-13.06-16.104-2.202-4.09-.706-9.191 3.356-11.445 4.383-1.542 9.192.728 10.787 5.092zM10.4 49.764c6.51 2.366 12.794 5.317 18.772 8.817 1.047.464 1.641 1.583 1.438 2.71-.203 1.127-1.151 1.97-2.294 2.038-6.822 1.191-13.738 1.762-20.663 1.707-4.62-.497-7.983-4.619-7.541-9.245 1.203-4.485 5.787-7.17 10.288-6.027zM169.6 49.764c-6.51 2.366-12.794 5.317-18.772 8.817-1.047.464-1.641 1.583-1.438 2.71.203 1.127 1.151 1.97 2.294 2.038 6.822 1.191 13.738 1.762 20.663 1.707 4.62-.497 7.983-4.619 7.541-9.245-1.203-4.485-5.787-7.17-10.288-6.027zM10.4 130.177c6.511-2.37 12.795-5.326 18.772-8.832 1.044-.466 1.635-1.584 1.432-2.708-.203-1.125-1.148-1.966-2.288-2.037-6.822-1.191-13.738-1.763-20.663-1.707-4.623.494-7.989 4.616-7.547 9.245 1.197 4.493 5.787 7.186 10.294 6.04zM169.6 130.177c-6.511-2.37-12.795-5.326-18.772-8.832-1.044-.466-1.635-1.584-1.432-2.708.203-1.125 1.148-1.966 2.288-2.037 6.822-1.191 13.738-1.763 20.663-1.707 4.623.494 7.989 4.616 7.547 9.245-1.197 4.493-5.787 7.186-10.294 6.04zM118.272 5.682c-1.723 6.714-2.834 13.57-3.32 20.483-.207 1.125.382 2.246 1.426 2.714 1.043.468 2.272.162 2.974-.74 4.837-4.957 9.214-10.342 13.078-16.088 2.209-4.099.705-9.21-3.37-11.461-4.384-1.542-9.192.728-10.788 5.092zM61.625 174.318c1.721-6.709 2.831-13.56 3.318-20.468.206-1.125-.383-2.245-1.426-2.713-1.044-.468-2.272-.163-2.975.74-4.829 4.958-9.2 10.342-13.06 16.088-2.2 4.094-.697 9.196 3.371 11.445 4.38 1.532 9.177-.736 10.772-5.092zM118.272 174.318c-1.722-6.709-2.833-13.559-3.32-20.468-.207-1.125.382-2.245 1.426-2.713 1.043-.468 2.272-.163 2.974.74 4.837 4.956 9.214 10.341 13.078 16.088 2.198 4.094.696 9.195-3.37 11.445-4.384 1.542-9.192-.728-10.788-5.092z"/>
            </g>
            <path fill="#2FA8CC" d="M35.876 27.096c3.195 4.526 5.976 9.331 8.308 14.357.5.782.39 1.807-.267 2.464s-1.682.768-2.464.267c-5.026-2.332-9.83-5.113-14.357-8.308-2.808-2.436-3.136-6.677-.735-9.515 2.838-2.401 7.08-2.073 9.515.735zM152.904 144.124c-4.526-3.195-9.331-5.976-14.357-8.308-.782-.5-1.807-.39-2.464.267s-.768 1.682-.267 2.464c2.332 5.026 5.113 9.83 8.308 14.357 1.463 1.995 3.961 2.946 6.38 2.428 2.42-.517 4.31-2.408 4.828-4.827.518-2.42-.433-4.918-2.428-6.38zM27.096 144.124c4.526-3.195 9.331-5.976 14.357-8.308.782-.5 1.807-.39 2.464.267s.768 1.682.267 2.464c-2.332 5.026-5.113 9.83-8.308 14.357-2.436 2.808-6.677 3.136-9.515.735-2.401-2.838-2.073-7.08.735-9.515zM144.124 27.096c-3.195 4.526-5.976 9.331-8.308 14.357-.5.782-.39 1.807.267 2.464s1.682.768 2.464.267c5.026-2.332 9.83-5.113 14.357-8.308 2.808-2.436 3.136-6.677.735-9.515-2.838-2.401-7.08-2.073-9.515.735z"/>
            <path fill="#FF5364" d="M96.207 154.13c-.94-5.46-2.37-10.824-4.277-16.027-.2-.905-1.003-1.55-1.93-1.55s-1.73.645-1.93 1.55c-1.906 5.203-3.338 10.567-4.277 16.027-.266 3.708 2.502 6.94 6.207 7.25 3.705-.31 6.473-3.542 6.207-7.25zM25.87 83.793c5.46.94 10.824 2.37 16.027 4.277.905.2 1.55 1.003 1.55 1.93s-.645 1.73-1.55 1.93c-5.203 1.906-10.567 3.338-16.027 4.277-3.708.266-6.94-2.502-7.25-6.207.31-3.705 3.542-6.473 7.25-6.207zM154.13 83.793c-5.46.94-10.824 2.37-16.027 4.277-.905.2-1.55 1.003-1.55 1.93s.645 1.73 1.55 1.93c5.203 1.906 10.567 3.338 16.027 4.277 3.708.266 6.94-2.502 7.25-6.207-.31-3.705-3.542-6.473-7.25-6.207z"/>
            <path fill="#894B9D" d="M64.679 55.688c3.067 4.4 5.719 9.075 7.92 13.966.466.783.341 1.783-.303 2.427-.645.645-1.645.77-2.428.304-4.891-2.2-9.567-4.851-13.966-7.92-1.896-1.49-2.765-3.938-2.234-6.29.531-2.353 2.368-4.19 4.72-4.721 2.353-.531 4.8.338 6.291 2.234zM124.098 115.107c-4.4-3.068-9.075-5.718-13.966-7.917-.783-.464-1.78-.339-2.424.304-.644.643-.77 1.64-.307 2.424 2.201 4.89 4.853 9.566 7.92 13.965 1.49 1.896 3.938 2.766 6.29 2.235 2.353-.531 4.19-2.368 4.721-4.72.531-2.353-.338-4.8-2.234-6.291zM55.902 115.107c4.4-3.068 9.075-5.718 13.966-7.917.783-.464 1.78-.339 2.424.304.644.643.77 1.64.307 2.424-2.201 4.89-4.853 9.566-7.92 13.965-1.49 1.896-3.938 2.766-6.29 2.235-2.353-.531-4.19-2.368-4.721-4.72-.531-2.353.338-4.8 2.234-6.291zM115.321 55.688c-3.067 4.4-5.719 9.075-7.92 13.966-.466.783-.341 1.783.303 2.427.645.645 1.645.77 2.428.304 4.891-2.2 9.567-4.851 13.966-7.92 1.896-1.49 2.765-3.938 2.234-6.29-.531-2.353-2.368-4.19-4.72-4.721-2.353-.531-4.8.338-6.291 2.234z"/>
            <path fill="#F0C419" d="M96.207 116.283c-.942-5.28-2.373-10.46-4.277-15.474-.225-.882-1.02-1.499-1.93-1.499-.91 0-1.705.617-1.93 1.5-1.904 5.013-3.335 10.193-4.277 15.473-.294 2.4.82 4.753 2.863 6.046 2.042 1.292 4.646 1.292 6.688 0 2.043-1.293 3.157-3.647 2.863-6.046zM63.717 83.793c5.28.942 10.46 2.373 15.474 4.277.882.225 1.499 1.02 1.499 1.93 0 .91-.617 1.705-1.5 1.93-5.013 1.904-10.193 3.335-15.473 4.277-2.4.294-4.753-.82-6.046-2.863-1.292-2.042-1.292-4.646 0-6.688 1.293-2.043 3.647-3.157 6.046-2.863zM116.283 83.793c-5.28.942-10.46 2.373-15.474 4.277-.882.225-1.499 1.02-1.499 1.93 0 .91.617 1.705 1.5 1.93 5.013 1.904 10.193 3.335 15.473 4.277 2.4.294 4.753-.82 6.046-2.863 1.292-2.042 1.292-4.646 0-6.688-1.293-2.043-3.647-3.157-6.046-2.863z"/>
        </g>
        <g>
            <path fill="#ECFADE" d="M99 55c0 24.3-19.7 44-44 44S11 79.3 11 55s19.7-44 44-44 44 19.7 44 44z" transform="translate(35 30)"/>
            <path fill="#6DD400" d="M55 110C24.625 110 0 85.375 0 55S24.625 0 55 0s55 24.625 55 55c-.034 30.361-24.639 54.966-55 55zM55 3.667C26.65 3.667 3.667 26.65 3.667 55c0 28.35 22.983 51.333 51.333 51.333 28.35 0 51.333-22.983 51.333-51.333C106.301 26.663 83.337 3.699 55 3.667z" transform="translate(35 30)"/>
            <g fill="#6DD400">
                <path d="M16.5 40.333c-.741 0-1.41-.446-1.694-1.131-.283-.685-.126-1.474.398-1.998L51.87.537c.72-.695 1.863-.685 2.57.022.708.708.718 1.85.023 2.57L17.796 39.797c-.344.344-.81.537-1.296.537z" transform="translate(35 30) translate(27.5 34.833)"/>
                <path d="M16.5 40.333c-.486 0-.952-.193-1.296-.537L.537 25.13c-.695-.72-.685-1.863.022-2.57.708-.708 1.85-.718 2.57-.023l14.667 14.667c.524.524.681 1.313.398 1.998-.284.685-.953 1.131-1.694 1.131z" transform="translate(35 30) translate(27.5 34.833)"/>
            </g>
        </g>
    </g>
</svg>
