<svg xmlns="http://www.w3.org/2000/svg" width="32" height="32" viewBox="0 0 32 32">
    <g fill="none" fill-rule="evenodd">
        <g fill-rule="nonzero">
            <path fill="#A7D9FF" d="M19.167 6.7H.833c-.46 0-.833.373-.833.833V17.5C0 18.878 1.122 20 2.5 20h15c1.378 0 2.5-1.122 2.5-2.5V7.533c0-.46-.373-.833-.833-.833z" transform="translate(6 6)"/>
            <path fill="#579FD7" d="M17.5 2.5h-15C1.12 2.5 0 3.62 0 5v2.533h20V5c0-1.38-1.12-2.5-2.5-2.5z" transform="translate(6 6)"/>
            <g fill="#A7D9FF">
                <path d="M1.68 0H.846C.386 0 .013.373.013.833v3.334c0 .46.373.833.833.833h.834c.46 0 .833-.373.833-.833V.833C2.513.373 2.14 0 1.68 0zM12.513 0h-.833c-.46 0-.834.373-.834.833v3.334c0 .46.374.833.834.833h.833c.46 0 .833-.373.833-.833V.833c0-.46-.373-.833-.833-.833z" transform="translate(6 6) translate(3.32)"/>
            </g>
        </g>
    </g>
</svg>