<svg xmlns="http://www.w3.org/2000/svg" width="73" height="72" fill="none" viewBox="0 0 73 72">
    <circle cx="36.25" cy="36" r="35.5" fill="#FF9A9A" stroke="#fff"/>
    <path fill="#E02020" fill-rule="evenodd" d="M51.347 35.674c0 8.518-6.905 15.423-15.423 15.423-8.519 0-15.424-6.905-15.424-15.423 0-8.519 6.905-15.424 15.424-15.424 8.518 0 15.423 6.905 15.423 15.424zm-9.705-3.537l-3.537 3.537 3.537 3.536c.603.603.603 1.579 0 2.181-.301.301-.696.452-1.09.452-.395 0-.79-.15-1.091-.452l-3.537-3.536-3.536 3.536c-.301.301-.696.452-1.09.452-.395 0-.79-.15-1.091-.452-.603-.602-.603-1.578 0-2.18l3.536-3.537-3.536-3.537c-.603-.602-.603-1.578 0-2.18.602-.603 1.578-.603 2.18 0l3.537 3.536 3.537-3.537c.602-.602 1.578-.602 2.18 0 .603.603.603 1.579 0 2.181z" clip-rule="evenodd"/>
</svg>
