<svg xmlns="http://www.w3.org/2000/svg" width="73" height="72" viewBox="0 0 24 28">
    <path fill="#455A64" d="M23.392 21.05c-.686-.541-1.522-.932-2.429-1.12l-4.323-.868c-.454-.087-.781-.493-.781-.966v-.992c.278-.39.54-.909.814-1.45.213-.42.535-1.054.694-1.217.876-.88 1.721-1.867 1.983-3.14.245-1.195.004-1.822-.278-2.327 0-1.26-.039-2.837-.337-3.984-.035-1.554-.317-2.427-1.027-3.192-.5-.542-1.238-.668-1.831-.769-.233-.04-.554-.094-.672-.158C14.154.3 13.115.022 11.875 0 9.278.106 6.087 1.759 5.018 4.704c-.331.897-.298 2.37-.27 3.552l-.026.712c-.254.497-.504 1.128-.258 2.326.26 1.276 1.106 2.265 1.997 3.157.146.15.475.788.692 1.21.278.54.542 1.057.82 1.445v.992c0 .47-.329.877-.784.966l-4.328.867c-.9.191-1.736.578-2.42 1.12-.213.171-.347.422-.37.694-.02.272.07.538.253.741C3.27 25.735 7.494 27.6 11.916 27.6c4.422 0 8.649-1.863 11.592-5.114.184-.203.276-.471.253-.743-.022-.272-.156-.523-.37-.692z"/>
</svg>