<svg xmlns="http://www.w3.org/2000/svg" width="15" height="16" viewBox="0 0 15 16">
    <g fill="none">
        <path fill="#E5E5E5" d="M.32 15.059c-.084 0-.166-.034-.227-.095-.08-.082-.112-.2-.082-.31l.98-3.575C.38 9.977.06 8.73.06 7.464.062 3.348 3.411 0 7.527 0c1.996 0 3.872.778 5.281 2.19 1.41 1.41 2.186 3.286 2.185 5.28-.001 4.116-3.35 7.465-7.466 7.465h-.003c-1.203 0-2.394-.293-3.455-.848l-3.667.961c-.027.007-.055.01-.082.01z"/>
        <path fill="#FFF" d="M.32 14.738l1.014-3.702C.71 9.953.38 8.724.38 7.464.382 3.525 3.588.32 7.527.32c1.911.001 3.706.745 5.055 2.096 1.349 1.35 2.092 3.145 2.091 5.054-.002 3.94-3.208 7.145-7.146 7.145h-.003c-1.196 0-2.371-.3-3.415-.87l-3.789.993zm3.964-2.286l.217.128c.912.541 1.957.828 3.023.828h.003c3.273 0 5.938-2.664 5.94-5.938 0-1.587-.617-3.079-1.739-4.201-1.121-1.123-2.612-1.741-4.199-1.742-3.276 0-5.94 2.664-5.942 5.938 0 1.122.313 2.215.908 3.16l.141.225-.6 2.191 2.248-.59z"/>
        <path fill="#64B161" d="M.569 14.489l.979-3.574C.944 9.869.626 8.682.627 7.467.628 3.664 3.723.57 7.526.57c1.845 0 3.577.72 4.88 2.023 1.302 1.303 2.02 3.036 2.018 4.88-.001 3.802-3.096 6.896-6.898 6.896h-.003c-1.155 0-2.29-.29-3.297-.839l-3.657.959z"/>
        <g fill="#FFF">
            <path d="M.026 14.444l1.014-3.702C.415 9.66.086 8.43.086 7.17.088 3.231 3.294.026 7.233.026c1.911.001 3.705.745 5.055 2.096 1.349 1.35 2.092 3.145 2.09 5.054 0 3.94-3.207 7.145-7.145 7.145H7.23c-1.196 0-2.372-.3-3.415-.87l-3.789.993zm3.964-2.286l.217.128c.912.541 1.957.827 3.023.828h.003c3.273 0 5.938-2.664 5.94-5.938 0-1.587-.617-3.08-1.739-4.202-1.121-1.122-2.613-1.74-4.2-1.741-3.275 0-5.94 2.664-5.941 5.938 0 1.122.313 2.214.908 3.16l.141.225-.6 2.19 2.248-.588z" transform="translate(.294 .294)"/>
            <path d="M5.447 4.184c-.134-.298-.275-.304-.402-.309-.104-.004-.224-.004-.342-.004-.12 0-.313.045-.477.223-.163.18-.625.611-.625 1.49 0 .878.64 1.727.73 1.846.089.12 1.235 1.98 3.05 2.696 1.508.595 1.815.476 2.142.447.328-.03 1.057-.432 1.206-.85.149-.416.149-.773.104-.848-.045-.075-.164-.12-.342-.209-.179-.089-1.057-.52-1.22-.58-.164-.06-.283-.09-.402.09-.12.178-.461.58-.566.699-.104.12-.208.134-.387.045-.178-.09-.753-.278-1.435-.887-.531-.473-.89-1.057-.994-1.236-.104-.179-.002-.267.079-.364.144-.176.386-.492.446-.611.06-.12.03-.223-.015-.313s-.392-.972-.55-1.325z" transform="translate(.294 .294)"/>
        </g>
    </g>
</svg>
