<svg xmlns="http://www.w3.org/2000/svg" width="12" height="12" viewBox="0 0 12 12">
    <g fill="none">
        <circle cx="5.988" cy="5.988" r="5.988" fill="#579FD7"/>
        <path fill="#FFF" d="M8.72 8.72c-.224.225-.598.225-.823 0L5.988 6.812 4.08 8.72c-.225.225-.6.225-.824 0-.224-.224-.224-.598 0-.823l1.909-1.909L3.256 4.08c-.224-.225-.224-.6 0-.824.225-.224.599-.224.824 0l1.908 1.909 1.91-1.909c.224-.224.598-.224.822 0 .225.225.225.599 0 .824L6.812 5.988l1.908 1.91c.225.224.225.598 0 .822z"/>
    </g>
</svg>
