<svg xmlns="http://www.w3.org/2000/svg" width="24" height="18" viewBox="0 0 24 18">
    <g fill="#579FD7">
        <path d="M21.51 6.891c-.342 0-.684-.13-.945-.392-2.44-2.452-5.68-3.801-9.128-3.801-3.446 0-6.687 1.35-9.127 3.801-.52.523-1.365.525-1.886.004C-.098 5.983-.1 5.14.42 4.618 3.364 1.659 7.277.03 11.437.03c4.16 0 8.074 1.63 11.02 4.587.52.522.517 1.365-.006 1.885-.26.259-.6.388-.94.388z" transform="translate(.563 .792)"/>
        <path d="M18.004 10.412c-.343 0-.685-.13-.945-.392-1.506-1.512-3.502-2.345-5.622-2.345s-4.115.833-5.62 2.345c-.52.523-1.365.524-1.886.004-.523-.52-.526-1.364-.006-1.886 2.01-2.018 4.678-3.13 7.513-3.13 2.834 0 5.502 1.112 7.511 3.131.52.523.518 1.367-.005 1.887-.258.257-.6.386-.94.386z" transform="translate(.563 .792)"/>
        <path d="M11.438 16.386c-1.76 0-3.193-1.436-3.193-3.2 0-1.764 1.433-3.2 3.193-3.2s3.191 1.436 3.191 3.2c0 1.764-1.433 3.2-3.191 3.2z" transform="translate(.563 .792)"/>
    </g>
</svg>
