<svg xmlns="http://www.w3.org/2000/svg" width="18" height="14" viewBox="0 0 18 14">
    <g fill="none" transform="translate(-7 -9)">
        <g>
            <path fill="#579FD7" d="M16.875.27H1.125C.505.27 0 .812 0 1.48v10.905c0 .68.494 1.211 1.125 1.211h15.75c.631 0 1.125-.532 1.125-1.211V1.48C18 .8 17.506.269 16.875.269z" transform="translate(7 9)"/>
            <g fill="#A7D9FF" transform="translate(7 9) translate(2.25 3.904)">
                <ellipse cx="2.813" cy="1.817" rx="1.688" ry="1.817"/>
                <path d="M5.327 4.918c-1.574-.904-3.455-.904-5.03 0-.182.105-.297.31-.297.534v1.211c0 .335.252.606.563.606h4.5c.31 0 .562-.271.562-.606V5.452c0-.224-.115-.429-.298-.534z"/>
            </g>
            <g fill="#A7D9FF">
                <path d="M5.063 1.212h-4.5C.252 1.212 0 .94 0 .606 0 .27.252 0 .563 0h4.5c.31 0 .562.271.562.606 0 .334-.252.606-.563.606zM5.063 3.635h-4.5C.252 3.635 0 3.363 0 3.029c0-.335.252-.606.563-.606h4.5c.31 0 .562.271.562.606 0 .334-.252.606-.563.606z" transform="translate(7 9) translate(10.125 6.327)"/>
            </g>
        </g>
    </g>
</svg>
