<svg xmlns="http://www.w3.org/2000/svg" width="18" height="18" viewBox="0 0 18 18">
    <g fill="#579FD7">
        <path d="M16.175 3.92l-.265.083-1.408.126-.397.635-.289-.092-1.12-1.01-.163-.526-.218-.56-.704-.631-.83-.163-.02.38.814.795.398.469-.447.234-.365-.108-.546-.228.018-.44-.716-.295-.238 1.036-.722.163.071.578.941.181.163-.923.777.115.36.211h.58l.397.795 1.05 1.066-.076.415-.848-.108-1.465.74-1.054 1.265-.137.56h-.38l-.704-.325-.686.325.17.723.299-.344.524-.016-.036.649.434.127.434.487.708-.2.809.129.94.252.468.055.796.903 1.535.903-.993 1.897-1.048.487-.398 1.084-1.516 1.012-.162.584c3.877-.934 6.76-4.416 6.76-8.58 0-1.818-.551-3.51-1.495-4.916z"/>
        <path d="M9.852 13.453L9.21 12.26l.59-1.23-.59-.177-.663-.666-1.47-.33-.487-1.02v.606h-.215L5.108 7.726v-1.41l-.929-1.51-1.473.263h-.993l-.5-.327.638-.505-.636.147C.449 5.692.002 7.21.002 8.836c0 4.879 3.955 8.836 8.834 8.836.376 0 .745-.034 1.109-.078l-.092-1.07s.405-1.59.405-1.644c0-.054-.406-1.427-.406-1.427zM3.285 2.85l1.57-.22.723-.396.814.234 1.3-.072.446-.7.65.107 1.577-.148.435-.48.613-.409.867.13.317-.047C11.454.31 10.183 0 8.836 0 6.094 0 3.642 1.25 2.023 3.212h.004l1.258-.363zM9.209.878l.902-.497.58.335-.839.638-.8.08-.361-.234.518-.322zM6.537.95l.398.166.522-.166.284.492-1.204.317-.579-.34s.566-.364.579-.469z"/>
    </g>
</svg>
