<svg xmlns="http://www.w3.org/2000/svg" width="18" height="18" viewBox="0 0 18 18">
    <g fill="none">
        <path fill="#A7D9FF" d="M13.707 14.676l-3.033-2.022c-.136-.09-.318-.06-.418.067l-.883 1.136c-.287.373-.803.48-1.214.25l-.163-.09c-.59-.321-1.323-.721-2.779-2.177S3.361 9.65 3.04 9.06l-.09-.162c-.23-.41-.123-.927.25-1.213L4.335 6.8c.128-.1.158-.282.068-.418L2.38 3.349c-.092-.138-.276-.179-.418-.094l-1.27.761c-.272.159-.472.417-.558.72-.417 1.518-.067 4.177 3.97 8.214 4.038 4.038 6.696 4.39 8.215 3.972.304-.086.562-.286.72-.559l.762-1.27c.085-.141.043-.325-.095-.417z"/>
        <path fill="#579FD7" d="M17.945.076c-.034-.033-.079-.052-.126-.051H4.351c-.047 0-.092.018-.125.05-.034.034-.052.08-.052.126v4.68l.764 1.145c.276.416.185.974-.208 1.282l-1.134.884c-.121.092-.157.26-.083.393l.092.168c.296.562.656 1.086 1.073 1.564H17.82c.096 0 .175-.077.177-.173V.2c0-.047-.018-.092-.051-.125zM8.812 5.922V5.92L5.52 9.448c-.121.13-.325.137-.455.015-.13-.12-.137-.324-.016-.454l3.293-3.526c.121-.13.325-.137.454-.016.13.121.137.325.016.455zm2.273-.254c-.232.001-.457-.073-.643-.212L5.07 1.382c-.142-.107-.169-.31-.061-.451.108-.141.31-.169.451-.061l5.37 4.074c.152.11.358.11.51 0L16.712.87c.141-.107.343-.08.45.062.108.141.08.343-.062.45l-5.372 4.074c-.186.139-.411.213-.643.212zm6.04 3.795c-.062.059-.145.09-.23.087-.085-.003-.166-.04-.224-.102L13.379 5.92c-.112-.131-.1-.327.025-.444.127-.118.323-.114.445.007l3.292 3.526c.121.13.114.333-.016.454z"/>
    </g>
</svg>
