<svg xmlns="http://www.w3.org/2000/svg" width="42" height="44" viewBox="0 0 42 44">
    <g fill="none" transform="translate(0 -3)">
        <path fill="#E0E3E4" d="M38.32 13.392H3.28c-1.665 0-3.014 1.35-3.014 3.013v22.022c0 1.664 1.35 3.013 3.013 3.013h23.945l3.09 4.309c.481.67 1.478.67 1.959 0l3.09-4.31h2.957c1.664 0 3.013-1.348 3.013-3.012V16.405c0-1.663-1.348-3.013-3.012-3.013z"/>
        <path fill="#D1D3D4" d="M13.872 28.496c0 1.827-1.481 3.309-3.31 3.309-1.827 0-3.308-1.482-3.308-3.31 0-1.827 1.481-3.309 3.309-3.309s3.31 1.482 3.31 3.31z"/>
        <path fill="#1CAEE4" d="M13.872 27.637c0 1.828-1.481 3.31-3.31 3.31-1.827 0-3.308-1.482-3.308-3.31 0-1.827 1.481-3.309 3.309-3.309s3.31 1.482 3.31 3.31z"/>
        <path fill="#009ADD" d="M10.563 29.839c-1.639 0-2.995-1.192-3.26-2.755-.03.18-.05.365-.05.554 0 1.828 1.482 3.309 3.31 3.309s3.31-1.481 3.31-3.31c0-.188-.02-.373-.05-.553-.265 1.563-1.622 2.755-3.26 2.755z"/>
        <path fill="#D1D3D4" d="M24.11 28.496c0 1.827-1.482 3.309-3.31 3.309s-3.31-1.482-3.31-3.31c0-1.827 1.482-3.309 3.31-3.309s3.31 1.482 3.31 3.31z"/>
        <path fill="#1CAEE4" d="M24.11 27.637c0 1.828-1.482 3.31-3.31 3.31s-3.31-1.482-3.31-3.31c0-1.827 1.482-3.309 3.31-3.309s3.31 1.482 3.31 3.31z"/>
        <path fill="#009ADD" d="M20.8 29.839c-1.639 0-2.995-1.192-3.26-2.755-.03.18-.05.365-.05.554 0 1.828 1.483 3.309 3.31 3.309 1.828 0 3.31-1.481 3.31-3.31 0-.188-.02-.373-.05-.553-.265 1.563-1.621 2.755-3.26 2.755z"/>
        <path fill="#D1D3D4" d="M34.346 28.496c0 1.827-1.481 3.309-3.309 3.309s-3.31-1.482-3.31-3.31c0-1.827 1.482-3.309 3.31-3.309s3.31 1.482 3.31 3.31z"/>
        <path fill="#1CAEE4" d="M34.346 27.637c0 1.828-1.481 3.31-3.309 3.31s-3.31-1.482-3.31-3.31c0-1.827 1.482-3.309 3.31-3.309s3.31 1.482 3.31 3.31z"/>
        <path fill="#009ADD" d="M31.037 29.839c-1.638 0-2.995-1.192-3.26-2.755-.03.18-.05.365-.05.554 0 1.828 1.483 3.309 3.31 3.309 1.828 0 3.31-1.481 3.31-3.31 0-.188-.02-.373-.05-.553-.265 1.563-1.621 2.755-3.26 2.755z"/>
        <circle cx="20.8" cy="13.573" r="9.2" fill="#E6E7E8"/>
        <circle cx="20.813" cy="12.366" r="9.203" fill="#EF5A9D" transform="rotate(-24.259 20.813 12.366)"/>
        <path fill="#E43D91" d="M25.114 16.738c-.001-.025-.005-.05-.011-.076-.01-.033-.022-.066-.04-.099l-.294-.508-.034-.063-.01-.016-.032-.061-.006-.012-.026-.052-.01-.02-.028-.06-.008-.017-.022-.048-.009-.02c-.29-.667-.383-1.406-.26-2.128l.16-.94c.206-1.222-.188-2.485-1.098-3.328-.41-.38-.905-.67-1.454-.835.093-.173.146-.37.146-.581 0-.68-.551-1.23-1.23-1.23-.68 0-1.231.55-1.231 1.23 0 .21.053.408.145.58-.173.053-.34.117-.501.193-1.518.713-2.332 2.393-2.028 4.043l.12.643c.147.8.03 1.626-.332 2.352l-.028.055-.01.02-.04.074-.408.734c-.009.017-.016.033-.023.05-.006.016-.011.033-.015.05-.007.025-.01.05-.01.075-.002.024 0 .05.004.073.002.017.006.033.01.048.005.016.01.031.017.046l.01.022c.019.036.043.07.071.098l.018.017c.043.038.094.067.152.083.033.01.068.014.105.014h2.617l-.014.047-.001.004-.01.036-.002.008-.008.037-.002.006-.008.042v.008c-.003.011-.005.022-.006.034l-.002.011-.005.04v.002l-.003.043-.001.012-.002.032V17.56c0 .76.615 1.375 1.374 1.375.059 0 .117-.004.175-.011.046-.006.09-.014.135-.024l.066-.017c.12-.034.232-.084.336-.147l.028-.018c.121-.077.229-.173.32-.283l.02-.026c.014-.017.028-.035.04-.053.064-.09.118-.188.159-.292l.023-.063.01-.032.019-.065c.028-.11.043-.225.043-.344l-.001-.043v-.012l-.002-.032v-.012l-.004-.043v-.002l-.005-.04-.002-.011-.005-.034-.001-.008-.008-.042-.002-.006-.008-.037-.002-.008-.01-.036v-.004l-.015-.047h2.617c.037 0 .073-.005.106-.014.017-.005.033-.01.048-.017l.023-.011c.029-.015.055-.033.079-.054l.02-.02c.017-.017.033-.036.046-.056.005-.007.01-.014.013-.021.01-.017.018-.035.025-.053.005-.012.01-.025.013-.037.007-.024.011-.048.013-.073.001-.017.002-.034 0-.05zm-4.267-9.284c.232 0 .42.188.42.42 0 .232-.188.42-.42.42-.232 0-.42-.188-.42-.42 0-.232.188-.42.42-.42z"/>
        <path fill="#F7CB15" d="M25.062 15.643l-.292-.509c-.434-.755-.592-1.637-.446-2.496l.159-.94c.207-1.222-.187-2.485-1.097-3.328-.666-.618-1.559-.996-2.54-.996-.566 0-1.104.127-1.586.353-1.517.713-2.331 2.393-2.027 4.042l.119.644c.158.856.013 1.74-.41 2.5l-.407.735c-.144.258.043.576.339.576h7.852c.298 0 .485-.323.336-.58z"/>
        <path fill="#FFF335" d="M23.538 15.643l-.188-.509c-.279-.755-.38-1.637-.287-2.496l.103-.94c.133-1.222-.12-2.485-.705-3.328-.428-.618-1.001-.996-1.63-.996-.365 0-.71.127-1.02.353-.975.713-1.498 2.393-1.302 4.042l.076.644c.101.856.009 1.74-.263 2.5l-.262.735c-.092.258.028.576.218.576h5.044c.191 0 .311-.323.216-.58z"/>
        <circle cx="20.808" cy="16.647" r="1.375" fill="#F7CB15" transform="rotate(-67.358 20.808 16.647)"/>
        <path fill="#E7AD27" d="M20.8 17.274c-.63 0-1.162-.425-1.324-1.004-.033.118-.05.243-.05.371 0 .76.615 1.375 1.374 1.375.76 0 1.375-.616 1.375-1.375 0-.128-.018-.253-.05-.37-.163.578-.694 1.003-1.325 1.003z"/>
        <path fill="#FFF335" d="M20.847 5.724c-.68 0-1.23.55-1.23 1.23 0 .68.55 1.23 1.23 1.23.68 0 1.23-.55 1.23-1.23 0-.68-.55-1.23-1.23-1.23zm0 1.65c-.232 0-.42-.188-.42-.42 0-.232.188-.42.42-.42.232 0 .42.188.42.42 0 .232-.188.42-.42.42z"/>
        <path fill="#F7CB15" d="M20.847 6.104c-.469 0-.85.38-.85.85s.381.85.85.85c.47 0 .85-.38.85-.85s-.38-.85-.85-.85zm0 1.27c-.232 0-.42-.188-.42-.42 0-.232.188-.42.42-.42.232 0 .42.188.42.42 0 .232-.188.42-.42.42zM16.943 14.913l-.408.735c-.144.258.043.576.339.576h7.852c.298 0 .485-.323.336-.581l-.292-.509c-.07-.121-.132-.246-.188-.373h-7.56c-.025.052-.051.102-.08.152z"/>
        <path fill="#FEDE3A" d="M23.538 15.643l-.188-.509c-.045-.12-.085-.245-.12-.373h-4.856l-.052.152-.261.735c-.092.258.027.576.217.576h5.044c.191 0 .311-.323.216-.58z"/>
    </g>
</svg>
