<svg xmlns="http://www.w3.org/2000/svg" width="22" height="20" fill="none" viewBox="0 0 22 20">
    <path fill="#6EADDD" d="M8.176 9.298l7.859-4.649-3.696-2.186L4.48 7.11l3.696 2.187z"/>
    <path fill="#6EADDD" d="M7.875 9.86L0 5.21v9.3l7.875 4.65v-9.3z"/>
    <path fill="#6EADDD" d="M14.845 14.621H15.705V15.502H14.845z"/>
    <path fill="#6EADDD" d="M8.508 9.86v9.3l4.3-2.548V9.899c-.004-.77.602-1.396 1.353-1.4h1.127c.132-.489.564-.83 1.06-.834h-.01V5.21l-7.83 4.65z"/>
    <rect width="2.761" height=".974" x="15.885" y="8.314" fill="#B8BFC5" rx=".436"/>
    <path fill="#6EADDD" d="M11.705 2.088L8.176 0 .317 4.649l3.53 2.088 7.858-4.65z"/>
    <path fill="#6EADDD" fill-rule="evenodd" d="M20.362 9.149h-1.14c-.14.472-.566.793-1.047.788h-1.827c-.481.005-.908-.316-1.048-.788h-1.14c-.192.001-.376.081-.51.222-.136.14-.21.33-.209.528v9.372c0 .195.075.382.21.52.136.137.32.212.51.209h6.201c.191.003.376-.072.513-.209s.214-.324.215-.52V9.899c0-.413-.325-.748-.728-.75zm-6.151 2.18c0-.085.032-.168.091-.23.059-.06.14-.095.223-.095h1.493c.176 0 .318.146.32.326v.218c-.001.18-.143.325-.319.324-.137.005-.26-.085-.3-.22h-.875v.882h.013c.175 0 .317.145.317.324 0 .18-.142.325-.317.325h-.332c-.084 0-.164-.034-.223-.095-.059-.06-.092-.143-.091-.23V11.33zm.317 2.642c-.175 0-.317.146-.317.325v1.53c0 .18.142.325.317.325h1.493c.175 0 .317-.145.317-.325v-1.53c0-.18-.142-.325-.317-.325h-1.493zm.329 5.148h-.332c-.082.002-.162-.03-.222-.089-.059-.059-.092-.14-.092-.225v-1.529c-.002-.18.137-.33.314-.337h1.493c.178.006.32.155.32.337v.313c-.004.178-.146.32-.319.32-.173 0-.314-.143-.318-.32h-.857v.88h.013c.175 0 .317.146.317.325 0 .18-.142.325-.317.325zm1.186-.084l1.152-1.18c.124-.127.124-.332 0-.46-.124-.126-.325-.126-.448 0l-.928.951-.282-.289c-.08-.082-.197-.114-.306-.084-.11.03-.195.118-.224.23-.03.112.002.231.082.313l.506.519c.06.06.14.095.224.095.084 0 .165-.034.224-.095zm1.152-7.174l-1.152 1.18c-.06.061-.14.095-.224.095-.084 0-.165-.034-.224-.095l-.506-.518c-.08-.082-.112-.202-.082-.314.029-.112.114-.2.224-.23s.226.003.306.085l.282.289.928-.95c.123-.128.324-.128.448 0 .124.126.124.332 0 .458zm.813 6.516h1.99c.174 0 .316-.146.316-.325 0-.18-.142-.325-.317-.325h-1.99c-.174 0-.316.146-.316.325 0 .18.142.325.317.325zm1.99-2.968h-1.99c-.175 0-.317-.145-.317-.325 0-.179.142-.324.317-.324h1.99c.174 0 .316.145.316.324 0 .18-.142.325-.317.325zm-1.99-2.968h1.99c.174 0 .316-.145.316-.325 0-.179-.142-.324-.317-.324h-1.99c-.174 0-.316.145-.316.324 0 .18.142.325.317.325z" clip-rule="evenodd"/>
</svg>
