<svg xmlns="http://www.w3.org/2000/svg" width="20" height="20" fill="none" viewBox="0 0 20 20">
    <path fill="#6EADDD" fill-rule="evenodd" d="M17.333 3.008c0-.328-.293-.586-.666-.586h-2L14 3.594l-.667-1.172h-2c-.373 0-.666.258-.666.586v4.687h6.666V3.008zM6.667 9.453h2c.373 0 .666.258.666.586v4.688H2.667v-4.688c0-.328.293-.586.666-.586h2L6 10.625l.667-1.172zm10 0c.373 0 .666.258.666.586v4.688h-6.666v-4.688c0-.328.293-.586.666-.586h2L14 10.625l.667-1.172h2zm-10-7.031h2c.373 0 .666.258.666.586v4.687H2.667V3.008c0-.328.293-.586.666-.586h2L6 3.594l.667-1.172zM3.333 16.484c-1.103 0-2 .789-2 1.758 0 .97.897 1.758 2 1.758s2-.788 2-1.758-.897-1.758-2-1.758zm-.666 1.758c0 .323.3.586.666.586.368 0 .667-.262.667-.586 0-.323-.3-.586-.667-.586-.367 0-.666.263-.666.586zm14-1.758c-1.103 0-2 .789-2 1.758 0 .97.897 1.758 2 1.758 1.102 0 2-.788 2-1.758s-.898-1.758-2-1.758zM16 18.242c0 .323.3.586.667.586.367 0 .666-.262.666-.586 0-.323-.3-.586-.666-.586-.368 0-.667.263-.667.586z" clip-rule="evenodd"/>
    <path fill="#6EADDD" fill-rule="evenodd" d="M19.333 0c-.368 0-.666.262-.666.586v6.523H1.333V.586C1.333.262 1.035 0 .667 0 .298 0 0 .262 0 .586V17.07c0 .324.298.586.667.586h18.666c.369 0 .667-.262.667-.586V.586C20 .262 19.702 0 19.333 0zM14 4.766c.373 0 .667-.258.667-.586V2.422h-1.334V4.18c0 .328.294.586.667.586zM6.667 11.21c0 .328-.294.586-.667.586-.373 0-.667-.258-.667-.586V9.453h1.334v1.758zm8 0c0 .328-.294.586-.667.586-.373 0-.667-.258-.667-.586V9.453h1.334v1.758zm-8-7.031c0 .328-.294.586-.667.586-.373 0-.667-.258-.667-.586V2.422h1.334V4.18zm-5.334 9.96h17.334V8.282H1.333v5.86z" clip-rule="evenodd"/>
</svg>
