<svg width="20" height="20" viewBox="0 0 20 20" fill="none" xmlns="http://www.w3.org/2000/svg">
    <g id="cart">
        <path id="Path" d="M1.51902 0.62879C2.39729 -0.1803 3.77974 -0.1803 4.658 0.62879L5.92343 1.84959C6.00437 1.92787 6.04976 2.034 6.04956 2.14459V4.58455C6.04956 4.81466 5.85618 5.00122 5.61765 5.00122H3.08764C2.97301 5.00142 2.863 4.95767 2.78186 4.87955L1.51643 3.65874C0.649135 2.82337 0.648041 1.46788 1.51392 0.631212C1.51477 0.630391 1.51558 0.62961 1.51643 0.62879H1.51902Z" fill="#6EADDD"/>
        <path id="Path_2" d="M5.61761 0.000244141H9.07273C9.31126 0.000244141 9.50464 0.186804 9.50464 0.416918V3.75019C9.5046 3.94143 9.3696 4.10807 9.17728 4.15436L5.72215 4.98767C5.68794 4.99583 5.65287 5.00001 5.61765 5.00017C5.37912 5.00017 5.18574 4.81361 5.18574 4.5835V0.416918C5.1857 0.186804 5.37908 0.000244141 5.61761 0.000244141Z" fill="#6EADDD"/>
        <path id="Path_3" d="M7.90312 4.28861L12.222 0.12199C12.3907 -0.0406635 12.6641 -0.0406635 12.8327 0.12199L15.4241 2.62195C15.5927 2.78465 15.5927 3.04839 15.4241 3.21112L13.6965 4.87778C13.6157 4.95598 13.506 5.00004 13.3916 5.00028H8.20886C7.97034 5.00071 7.77663 4.81446 7.77619 4.58434C7.77603 4.47341 7.8217 4.36697 7.90312 4.28861Z" fill="#6EADDD"/>
        <g id="Group">
            <path id="Oval" d="M3.89011 20.0001C2.69748 20.0001 1.73066 19.0674 1.73066 17.9168C1.73066 16.7662 2.69748 15.8335 3.89011 15.8335C5.08274 15.8335 6.04956 16.7662 6.04956 17.9168C6.04956 19.0674 5.08274 20.0001 3.89011 20.0001Z" fill="#6EADDD"/>
            <path id="Oval_2" d="M12.5281 20.0001C11.3354 20.0001 10.3686 19.0674 10.3686 17.9168C10.3686 16.7662 11.3354 15.8335 12.5281 15.8335C13.7207 15.8335 14.6875 16.7662 14.6875 17.9168C14.6875 19.0674 13.7207 20.0001 12.5281 20.0001Z" fill="#6EADDD"/>
        </g>
        <path id="Path_4" d="M0.110996 4.30781C0.193027 4.2182 0.311016 4.16691 0.434916 4.16699H15.983C16.2216 4.16719 16.4148 4.35394 16.4146 4.58406C16.4145 4.60964 16.412 4.63519 16.4072 4.66034L15.1115 11.3269C15.0733 11.5239 14.8951 11.6667 14.6874 11.6669H2.82415C1.73497 11.667 0.816169 10.8846 0.681094 9.84194L0.0030098 4.63534C-0.0115261 4.51624 0.0278282 4.39691 0.110996 4.30781Z" fill="#6EADDD"/>
        <path id="Path_5" d="M2.16249 15H12.1314C13.5713 14.9971 14.8104 14.0174 15.0959 12.6559L17.201 2.50022H19.4382C19.6767 2.50022 19.8701 2.31366 19.8701 2.08354C19.8701 1.85343 19.6767 1.66687 19.4382 1.66687H16.8469C16.6416 1.66683 16.4647 1.80616 16.4236 2.00019L14.2486 12.4917C14.0448 13.4642 13.1599 14.1642 12.1315 14.1667H2.16253C1.92401 14.1667 1.73063 14.3532 1.73063 14.5834C1.73063 14.8135 1.92397 15 2.16249 15Z" fill="#6EADDD"/>
    </g>
</svg>