<svg xmlns="http://www.w3.org/2000/svg" width="20" height="20" fill="none" viewBox="0 0 20 20">
    <path fill="#ABB1B6" d="M1.197 0h5.087v6.652H1.197V0zM3.74 10.887c1.403 0 2.544-1.141 2.544-2.544v-.519H1.197v.52c0 1.402 1.141 2.543 2.544 2.543zM7.456 0h5.088v6.652H7.456V0zM10 10.887c1.403 0 2.544-1.141 2.544-2.544v-.519H7.456v.52c0 1.402 1.141 2.543 2.544 2.543zM13.716 8.343c0 1.403 1.141 2.544 2.544 2.544 1.402 0 2.543-1.141 2.543-2.544v-.519h-5.087v.52zM13.716 0h5.087v6.652h-5.087V0z"/>
    <path fill="#ABB1B6" d="M7.262 15.335h5.476V20H7.262v-4.665z"/>
    <path fill="#ABB1B6" d="M13.13 10.344c-.661 1.03-1.817 1.715-3.13 1.715s-2.468-.684-3.13-1.715c-.66 1.03-1.817 1.715-3.13 1.715-.789 0-1.522-.248-2.124-.67V20H6.09v-5.837h7.82V20h4.475v-8.61c-.603.421-1.336.669-2.125.669-1.313 0-2.469-.684-3.13-1.715z"/>
</svg>
