<svg xmlns="http://www.w3.org/2000/svg" width="18" height="24" viewBox="0 0 18 24">
    <g fill="none">
        <path fill="#E5EEFD" d="M12.022 9.331l2.08.471c.298.068.595-.12.663-.419l1.864-8.235c.068-.299-.12-.596-.419-.664l-2.078-.47c-.3-.068-.597.12-.664.419l-1.864 8.235c-.068.299.12.596.418.663z"/>
        <path fill="#D4DDEC" d="M16.63 1.148l-.102.447-3.877 2.446.817-3.608c.067-.3.365-.487.664-.42l2.078.471c.3.068.487.365.42.664zM8.993 7.677L3.113 8.89c-.467.096-.924-.204-1.02-.671l-1.021-4.95c-.096-.467.204-.924.671-1.02l5.88-1.213c.467-.096.924.204 1.02.671l1.021 4.95c.096.467-.204.924-.67 1.02z"/>
        <path fill="#E5EEFD" d="M4.27 1.728l-2.527.52c-.467.097-.767.554-.67 1.02l.529 2.568c.46.21.989.28 1.522.17 1.34-.276 2.202-1.587 1.926-2.927-.112-.544-.395-1.009-.78-1.351z"/>
        <circle cx="10.196" cy="4.714" r="3.234" fill="#76C9D2"/>
        <circle cx="10.196" cy="4.714" r="3.234" fill="#E5EEFD"/>
        <circle cx="10.196" cy="4.714" r="2.096" fill="#D4DDEC"/>
        <path fill="#D5D5D5" d="M.515 4.521l.912.654c.21.15.49.15.7 0l1.033-.74c.21-.15.49-.15.7 0l1.033.74c.21.15.491.15.7 0l1.034-.74c.209-.15.49-.15.7 0l1.033.74c.209.15.49.15.7 0l1.033-.74c.21-.15.49-.15.7 0l1.033.74c.21.15.49.15.7 0l1.034-.74c.209-.15.49-.15.7 0l1.033.74c.209.15.49.15.7 0l.911-.654c.197-.14.472 0 .472.243v18.108c0 .61-.494 1.103-1.103 1.103H1.147c-.61 0-1.103-.494-1.103-1.103V4.764c0-.243.274-.384.471-.243z"/>
    </g>
</svg>
