<svg xmlns="http://www.w3.org/2000/svg" width="24" height="40" viewBox="0 0 24 40">
    <g fill="none">
        <path fill="#579FD7" d="M23.21 24.255c-.284-.565-.86-.922-1.492-.922h-5v-6.667c0-.92-.745-1.666-1.667-1.666H8.384c-.92 0-1.666.746-1.666 1.666v6.667h-5c-.63 0-1.207.357-1.49.922-.282.565-.222 1.24.158 1.745l10 13.333c.313.42.808.667 1.332.667.525 0 1.02-.247 1.333-.667l10-13.333c.38-.505.44-1.18.158-1.745z"/>
        <path fill="#A7D9FF" d="M15.052 10H8.385c-.921 0-1.666.745-1.666 1.667 0 .921.745 1.666 1.666 1.666h6.667c.921 0 1.666-.745 1.666-1.666 0-.922-.745-1.667-1.666-1.667z"/>
        <path fill="#C5E6FF" d="M15.052 5H8.385c-.921 0-1.666.745-1.666 1.667 0 .921.745 1.666 1.666 1.666h6.667c.921 0 1.666-.745 1.666-1.666 0-.922-.745-1.667-1.666-1.667z"/>
        <path fill="#F1F9FF" d="M15.052 0H8.385C7.464 0 6.72.745 6.72 1.667c0 .921.745 1.666 1.666 1.666h6.667c.921 0 1.666-.745 1.666-1.666C16.718.745 15.974 0 15.052 0z"/>
    </g>
</svg>
